<svg xmlns="http://www.w3.org/2000/svg" xmlns:xlink="http://www.w3.org/1999/xlink" width="895" height="314" viewBox="0 0 895 314"><defs><clipPath id="clip-path"><rect id="Rectangle_434" data-name="Rectangle 434" width="883.807" height="303.582" fill="none"></rect></clipPath><clipPath id="clip-logo-semons-la-vie"><rect width="895" height="314"></rect></clipPath></defs><g id="logo-semons-la-vie" clip-path="url(#clip-logo-semons-la-vie)"><g id="Groupe_25288" data-name="Groupe 25288"><g id="Groupe_25287" data-name="Groupe 25287" clip-path="url(#clip-path)"><path id="Trac&#xE9;_25276" data-name="Trac&#xE9; 25276" d="M427.967,141.067a1.982,1.982,0,0,1-2.636-.352c-.908-1.031-.48-2.338-.625-3.516-.895-7.3-1.515-14.569-2.069-21.943-.074-.98-.706-1.291-.22-2.723a4.136,4.136,0,0,1,3.745-2.908c2.3,0,3.329,1.4,3.535,3.535.309,3.2-.34,6.419-.45,9.523-.2,5.688.091,11.418-.81,16.992a6.566,6.566,0,0,1-.47,1.392" fill="#ffcf00"></path><path id="Trac&#xE9;_25277" data-name="Trac&#xE9; 25277" d="M461.884,125.251c.622,2.781-2.41,5-4.268,6.774-2.862,2.731-6.144,5.192-9.119,7.849-2.311,2.065-4.493,4.366-6.809,6.437-1.429.725-3.962-.094-3.113-1.872.963-2.016,1.918-2.423,3.111-3.927,4.561-5.746,9.153-11.513,13.845-17.2,2.078-1.81,5.749-.756,6.353,1.938" fill="#ffcf00"></path><path id="Trac&#xE9;_25278" data-name="Trac&#xE9; 25278" d="M475.539,156.718c.363,1.62-.277,3.95-1.979,4.509a16.616,16.616,0,0,1-2.374.516c-.472.039-.966-.35-1.561-.35-7.19,0-14.312-.892-21.525-.817-1.512-.6-3.946.035-3.961-2.271-.01-1.665,2.479-1.693,3.527-1.872,6.794-1.162,14.179-1.325,21.108-2.066,1.261-.135,2.6-.776,4.085-.348a5.353,5.353,0,0,1,2.68,2.7" fill="#ffcf00"></path><path id="Trac&#xE9;_25279" data-name="Trac&#xE9; 25279" d="M414.73,144.282c.5,2.47-.539,3.161-2.854,2.443-6.054-4.99-12.047-10-17.982-15.131-1.307-1.13-3.559-2.477-3.054-4.687a4.026,4.026,0,0,1,6.373-2.36c.7.5.924,1.356,1.424,1.888,5.505,5.857,10.571,11.989,16.093,17.847" fill="#ffcf00"></path><path id="Trac&#xE9;_25280" data-name="Trac&#xE9; 25280" d="M379.275,162.165a18.821,18.821,0,0,1-.842-1.851c-.4-1.793.675-4.016,2.627-4.283a52.281,52.281,0,0,1,7.052-.019c5.451.184,11.116.777,16.541,1.252,1.906.167,5.676-.694,4.723,2.674-.158.557-2.389.978-3.085,1.052-5.356.564-10.754.757-16.12,1.26-1.6.15-3.77.741-5.369.837a23.7,23.7,0,0,1-3.751-.008,11.272,11.272,0,0,1-1.776-.914" fill="#ffcf00"></path><path id="Trac&#xE9;_25281" data-name="Trac&#xE9; 25281" d="M444.921,124.026c.3,1.984-1.273,3.609-2.081,5.219-2.586,5.152-5.083,10.288-7.872,15.309-.392.705-.4,2.028-1.4,2.32-2.057.594-2.591-.734-2.163-2.579.547-2.365,1.978-5.246,2.745-7.6.953-2.928,1.91-5.8,2.9-8.694.8-2.329,1.137-6.936,4.44-6.767a3.473,3.473,0,0,1,3.439,2.795" fill="#ffcf00"></path><path id="Trac&#xE9;_25282" data-name="Trac&#xE9; 25282" d="M464.366,143.472c.653,2.986-.728,4.012-3.224,4.915-3.881,1.405-8.152,2.475-12.029,3.7-2.552.8-5.936,2.426-8.478,2.7-2.427.262-2.926-2.193-.761-3.252l20.285-9.926c1.681-.329,3.8-.018,4.207,1.865" fill="#ffcf00"></path><path id="Trac&#xE9;_25283" data-name="Trac&#xE9; 25283" d="M422.981,144.728c.381,2.517-2.052,2.9-3.176.687l-9.919-19.884a3.361,3.361,0,0,1,6.228-2.507Z" fill="#ffcf00"></path><path id="Trac&#xE9;_25284" data-name="Trac&#xE9; 25284" d="M415.16,152.133c.431,1.464-.2,2.578-1.818,2.237-6.515-2.78-15.087-4.264-21.325-7.233-3.838-1.828-2.306-6.863,1.806-6.361,2.953,1.389,5.769,3.1,8.672,4.571,3.473,1.764,7.088,3.371,10.506,5.221a8.119,8.119,0,0,1,2.159,1.565" fill="#ffcf00"></path><path id="Trac&#xE9;_25285" data-name="Trac&#xE9; 25285" d="M251.662,87.463c-9.887-3.171-20.2-1.021-30.165,1.058-8.025,1.668-16.319,3.4-24.251,2.294-6.253-.869-12.378-3.511-18.309-6.067-8.309-3.587-16.9-7.295-26.126-6.273-9.531,1.061-18.69,7.308-25.115,17.139a75.83,75.83,0,0,0-8.049,17.365c-.168.005-.343.015-.512.02-2.949.125-6,.253-8.353-1.072-2.154-1.221-3.584-3.553-4.966-5.81A630.992,630.992,0,0,0,51.089,29.949C40.935,17.835,28.726,4.581,12.231.737c-2.119-.495-4.6-.861-6.866.19C2.471,2.271.752,5.556.383,10.435c-.678,9,1.355,17.941,3.5,26.327a497.6,497.6,0,0,0,20.969,63.7c5.071,12.494,11,25.53,19.959,36.28,9.9,11.864,22.332,19.255,35.074,20.848C66.012,172.088,56.7,192.83,53.97,216.428c-3.2,27.719,2.421,55.319,8.232,82.09l1.285,4.653,2.76.094,1.638.05a94.044,94.044,0,0,0,51.367-14.527,96.057,96.057,0,0,0,37.234-43.1l1.762-4.123-3.86,2.278a44.112,44.112,0,0,1-43.265.468,42.89,42.89,0,0,1-13.256-11.662,42.828,42.828,0,0,0,16.049-5.8,102.245,102.245,0,0,0,39.851-44.411c4-8.675,6.95-18.205,9.793-27.424,6.207-20.079,12.063-39.045,27.984-50.59l-1.722-2.384c-16.719,12.122-23,32.445-29.07,52.1-2.819,9.126-5.733,18.566-9.654,27.064a99.241,99.241,0,0,1-38.7,43.115,38.848,38.848,0,0,1-16.437,5.6,43.632,43.632,0,0,1-7.01-22.771c-.057-3.57-1.537-8.173-4.175-9.667a3.993,3.993,0,0,0-4.1.1c-1.89,1.089-2.466,3.183-2.855,5.063-1.679,8.039-3.044,17.173,2.023,23.854,3.507,4.628,8.8,6.461,14.575,6.4a46.077,46.077,0,0,0,15.259,13.983,47.217,47.217,0,0,0,42.334,1.529A93.554,93.554,0,0,1,117.69,286.3a90.7,90.7,0,0,1-52.089,14c-5.939-27.281-11.945-55.465-8.7-83.526,2.762-23.956,12.473-44.851,26.885-58.926,11.176,0,23.206-5.919,25.317-16.824l.538-2.789-2.588,1.168c-3.242,1.465-6.594,2.978-9.808,4.743a71.684,71.684,0,0,0-14.62,10.737c-.651-.03-1.3-.079-1.949-.155-12.143-1.384-24.074-8.44-33.6-19.864-8.7-10.434-14.507-23.23-19.489-35.5A494.746,494.746,0,0,1,6.738,36.029C4.65,27.883,2.672,19.212,3.316,10.656c.2-2.614.93-5.96,3.287-7.06,1.46-.674,3.326-.373,4.959.008C27.18,7.25,38.987,20.09,48.83,31.836a628.574,628.574,0,0,1,54.478,75.814c1.5,2.457,3.2,5.244,6.027,6.84,2.9,1.631,6.276,1.6,9.338,1.472-.837,2.628-1.611,5.265-2.377,7.875-1.076,3.67-1.76,7.472.475,10.39,1.917,2.5,5.052,3.1,8.087,3.5,4.9.642,10.995,1.443,16.348-.8a13.728,13.728,0,0,0,7.21-7.253,9.3,9.3,0,0,0,.058-7.3c-1.454-3.369-4.847-5.754-10.362-7.291a58.618,58.618,0,0,0-15.334-2.157,71.368,71.368,0,0,1,7.382-15.693c5.944-9.093,14.319-14.86,22.98-15.824,8.437-.935,16.308,2.457,24.633,6.049,6.1,2.635,12.421,5.357,19.067,6.281,8.44,1.172,16.988-.608,25.255-2.329,10.041-2.093,19.52-4.068,28.668-1.134l.064.02.9-2.8ZM82.19,224.722c-4.318-5.7-3.031-14.071-1.489-21.476.265-1.253.613-2.635,1.451-3.116a1.129,1.129,0,0,1,.951-.182,1.2,1.2,0,0,1,.224.1c1.359.769,2.639,4.178,2.684,7.155a46.355,46.355,0,0,0,6.509,22.722,13.727,13.727,0,0,1-10.33-5.2m16.472-78c2.147-1.186,4.39-2.263,6.623-3.29-2.838,6.532-10.352,10.41-18.1,11.282a67.624,67.624,0,0,1,11.474-7.992m38.66-28.809c4.611,1.277,7.375,3.12,8.452,5.625a6.483,6.483,0,0,1-.086,5.035,10.688,10.688,0,0,1-5.621,5.639c-4.62,1.939-10.042,1.224-14.826.6-2.426-.319-4.9-.768-6.129-2.369-1.444-1.879-.849-4.847.012-7.772s1.722-5.872,2.668-8.8a55.951,55.951,0,0,1,15.53,2.047" fill="#ffcf00"></path><path id="Trac&#xE9;_25286" data-name="Trac&#xE9; 25286" d="M251.662,87.463c-9.887-3.171-20.2-1.021-30.165,1.058-8.025,1.668-16.319,3.4-24.251,2.294-6.253-.869-12.378-3.511-18.309-6.067-8.309-3.587-16.9-7.295-26.126-6.273-9.531,1.061-18.69,7.308-25.115,17.139a75.83,75.83,0,0,0-8.049,17.365c-.168.005-.343.015-.512.02-2.949.125-6,.253-8.353-1.072-2.154-1.221-3.584-3.553-4.966-5.81A630.992,630.992,0,0,0,51.089,29.949C40.935,17.835,28.726,4.581,12.231.737c-2.119-.495-4.6-.861-6.866.19C2.471,2.271.752,5.556.383,10.435c-.678,9,1.355,17.941,3.5,26.327a497.6,497.6,0,0,0,20.969,63.7c5.071,12.494,11,25.53,19.959,36.28,9.9,11.864,22.332,19.255,35.074,20.848C66.012,172.088,56.7,192.83,53.97,216.428c-3.2,27.719,2.421,55.319,8.232,82.09l1.285,4.653,2.76.094,1.638.05a94.044,94.044,0,0,0,51.367-14.527,96.057,96.057,0,0,0,37.234-43.1l1.762-4.123-3.86,2.278a44.112,44.112,0,0,1-43.265.468,42.89,42.89,0,0,1-13.256-11.662,42.828,42.828,0,0,0,16.049-5.8,102.245,102.245,0,0,0,39.851-44.411c4-8.675,6.95-18.205,9.793-27.424,6.207-20.079,12.063-39.045,27.984-50.59l-1.722-2.384c-16.719,12.122-23,32.445-29.07,52.1-2.819,9.126-5.733,18.566-9.654,27.064a99.241,99.241,0,0,1-38.7,43.115,38.848,38.848,0,0,1-16.437,5.6,43.632,43.632,0,0,1-7.01-22.771c-.057-3.57-1.537-8.173-4.175-9.667a3.993,3.993,0,0,0-4.1.1c-1.89,1.089-2.466,3.183-2.855,5.063-1.679,8.039-3.044,17.173,2.023,23.854,3.507,4.628,8.8,6.461,14.575,6.4a46.077,46.077,0,0,0,15.259,13.983,47.217,47.217,0,0,0,42.334,1.529A93.554,93.554,0,0,1,117.69,286.3a90.7,90.7,0,0,1-52.089,14c-5.939-27.281-11.945-55.465-8.7-83.526,2.762-23.956,12.473-44.851,26.885-58.926,11.176,0,23.206-5.919,25.317-16.824l.538-2.789-2.588,1.168c-3.242,1.465-6.594,2.978-9.808,4.743a71.684,71.684,0,0,0-14.62,10.737c-.651-.03-1.3-.079-1.949-.155-12.143-1.384-24.074-8.44-33.6-19.864-8.7-10.434-14.507-23.23-19.489-35.5A494.746,494.746,0,0,1,6.738,36.029C4.65,27.883,2.672,19.212,3.316,10.656c.2-2.614.93-5.96,3.287-7.06,1.46-.674,3.326-.373,4.959.008C27.18,7.25,38.987,20.09,48.83,31.836a628.574,628.574,0,0,1,54.478,75.814c1.5,2.457,3.2,5.244,6.027,6.84,2.9,1.631,6.276,1.6,9.338,1.472-.837,2.628-1.611,5.265-2.377,7.875-1.076,3.67-1.76,7.472.475,10.39,1.917,2.5,5.052,3.1,8.087,3.5,4.9.642,10.995,1.443,16.348-.8a13.728,13.728,0,0,0,7.21-7.253,9.3,9.3,0,0,0,.058-7.3c-1.454-3.369-4.847-5.754-10.362-7.291a58.618,58.618,0,0,0-15.334-2.157,71.368,71.368,0,0,1,7.382-15.693c5.944-9.093,14.319-14.86,22.98-15.824,8.437-.935,16.308,2.457,24.633,6.049,6.1,2.635,12.421,5.357,19.067,6.281,8.44,1.172,16.988-.608,25.255-2.329,10.041-2.093,19.52-4.068,28.668-1.134l.064.02.9-2.8ZM82.19,224.722c-4.318-5.7-3.031-14.071-1.489-21.476.265-1.253.613-2.635,1.451-3.116a1.129,1.129,0,0,1,.951-.182,1.2,1.2,0,0,1,.224.1c1.359.769,2.639,4.178,2.684,7.155a46.355,46.355,0,0,0,6.509,22.722A13.727,13.727,0,0,1,82.19,224.722Zm16.472-78c2.147-1.186,4.39-2.263,6.623-3.29-2.838,6.532-10.352,10.41-18.1,11.282A67.624,67.624,0,0,1,98.662,146.718Zm38.66-28.809c4.611,1.277,7.375,3.12,8.452,5.625a6.483,6.483,0,0,1-.086,5.035,10.688,10.688,0,0,1-5.621,5.639c-4.62,1.939-10.042,1.224-14.826.6-2.426-.319-4.9-.768-6.129-2.369-1.444-1.879-.849-4.847.012-7.772s1.722-5.872,2.668-8.8A55.951,55.951,0,0,1,137.322,117.909Z" fill="none" stroke="#ffcf00" stroke-miterlimit="10" stroke-width="0.5"></path><path id="Trac&#xE9;_25287" data-name="Trac&#xE9; 25287" d="M112.395,108.843c-2.489-14.512-5.584-29.24-9.2-43.774-.424-1.7-.839-3.42-1.257-5.144-2.753-11.372-5.6-23.133-11.355-33.292A47.736,47.736,0,0,0,75.944,10.412C72.433,8.062,64.776,3.919,60.93,5.079a2.768,2.768,0,0,0-1.864,1.71c-1.618,3.869-1.49,8.879-1.378,13.3l.01.413a62.368,62.368,0,0,0,2.223,15.022l-2.69.743a65.057,65.057,0,0,1-2.323-15.7l-.011-.411c-.113-4.467-.255-10.025,1.593-14.445a5.586,5.586,0,0,1,3.635-3.306C65.945.653,75.618,6.835,77.5,8.093A50.536,50.536,0,0,1,93.014,25.257c5.948,10.5,8.841,22.452,11.639,34.012.416,1.718.83,3.428,1.253,5.127,3.63,14.6,6.739,29.395,9.241,43.975Z" fill="#ffcf00"></path><path id="Trac&#xE9;_25288" data-name="Trac&#xE9; 25288" d="M112.191,109.132l-.042-.247c-2.49-14.509-5.583-29.23-9.195-43.755q-.579-2.332-1.147-4.692l-.11-.454c-2.748-11.356-5.589-23.1-11.33-33.228A47.48,47.48,0,0,0,75.805,10.62C72.326,8.292,64.76,4.186,61,5.319A2.536,2.536,0,0,0,59.3,6.885c-1.6,3.819-1.471,8.8-1.358,13.191l.011.417a61.975,61.975,0,0,0,2.213,14.962l.067.241-3.173.876-.066-.241a65.335,65.335,0,0,1-2.332-15.756l-.01-.412c-.115-4.5-.256-10.081,1.611-14.546a5.827,5.827,0,0,1,3.794-3.449C66,.378,75.742,6.617,77.636,7.886a50.8,50.8,0,0,1,15.6,17.248c5.963,10.524,8.859,22.49,11.661,34.061.419,1.732.833,3.442,1.255,5.14,3.63,14.6,6.74,29.4,9.245,43.994l.043.246ZM62.429,4.632c4.164,0,10.534,3.484,13.653,5.573A47.979,47.979,0,0,1,90.8,26.509c5.773,10.191,8.624,21.968,11.38,33.357l.11.454q.57,2.356,1.146,4.689c3.594,14.455,6.677,29.1,9.16,43.545l2.259-.387c-2.5-14.506-5.589-29.21-9.195-43.711q-.635-2.549-1.253-5.129c-2.8-11.552-5.685-23.483-11.614-33.947A50.294,50.294,0,0,0,77.358,8.3C75.5,7.053,65.921.921,60.2,2.646A5.344,5.344,0,0,0,56.72,5.81C54.9,10.176,55.034,15.7,55.148,20.14l.01.423a64.826,64.826,0,0,0,2.248,15.394l2.209-.61a62.449,62.449,0,0,1-2.166-14.841l-.011-.413c-.113-4.447-.241-9.483,1.4-13.4A3,3,0,0,1,60.858,4.84a5.44,5.44,0,0,1,1.571-.208" fill="#ffcf00"></path><path id="Trac&#xE9;_25289" data-name="Trac&#xE9; 25289" d="M245.9,221.856c0,18.879-17.578,26.477-32.312,26.477-23.256,0-42.983-14.586-37.073-36.611,7.833-29.087,44.824-17.961,40.527-2.61a2.283,2.283,0,0,1-2.611,1.226,2.376,2.376,0,0,1-1.841-2.3c5.141-14.2-26.1-20.571-33,1.151-11.817,37.072,62.477,54.032,62.477,14.045,0-29.628-49.888-31.852-49.888-55.876,0-12.358,11.281-17.425,22.179-17.425,5.376,0,16.348.307,24.1,6.064v7.986c-4.914-8.521-13.584-12.665-24.1-12.665-8.67,0-18.5,3.073-18.5,13.816,0,22.18,50.04,22.562,50.04,56.725" fill="#403bae"></path><path id="Trac&#xE9;_25290" data-name="Trac&#xE9; 25290" d="M380.594,220.9v-26.71c0-30.472-27.245-13.43-27.245,4.3V220.9c0,5.986,1.92,7.29,5.221,8.059H343.294c3.3-.769,5.221-2.073,5.221-8.059v-26.71c0-30.472-27.325-13.43-27.325,4.3V220.9c0,5.986,1.921,7.29,5.22,8.059h-15.2c3.227-.769,5.221-2.073,5.221-8.059V206.321c-5.99,12.973-17.042,23.872-32.62,23.872-14.814,0-26.864-12.432-26.864-27.707,0-14.352,12.357-27.709,26.864-27.709,13.662,0,22.487,9.365,22.487,20.726H262.633c-2.913,14.119,5.911,32.541,21.568,32.541,16.884,0,26.632-11.9,32.234-24.789V185.294c0-5.985-1.994-7.29-5.221-8.059,3.375.228,7.52-.462,9.976-2.458v16.428c6.983-17.96,30.467-25.558,32.08.153,7.6-19.419,32.233-25.636,32.159,2.84v26.71c0,5.985,1.921,7.289,5.22,8.059h-15.27c3.3-.77,5.221-2.074,5.215-8.064M262.937,194.277h38.531c0-10.288-7.291-18.268-17.653-18.268-10.82,0-18.344,8.208-20.878,18.268" fill="#403bae"></path><path id="Trac&#xE9;_25291" data-name="Trac&#xE9; 25291" d="M454.824,202.506c0,15.35-12.049,27.708-26.863,27.708S401.1,217.856,401.1,202.506c0-15.27,12.051-27.627,26.865-27.627s26.863,12.357,26.863,27.627m-4.987.005c0-14.735-9.058-26.4-21.876-26.4s-21.876,11.667-21.876,26.4c0,14.809,9.058,26.477,21.876,26.477s21.876-11.668,21.876-26.477" fill="#403bae"></path><path id="Trac&#xE9;_25292" data-name="Trac&#xE9; 25292" d="M509.774,221V194.215c0-30.393-34.154-15.2-34.154,3.761V221c0,5.907,1.994,7.212,5.221,7.979h-15.2c3.3-.764,5.22-2.068,5.22-7.979V185.315c0-5.9-1.92-7.211-5.22-7.979,3.375.228,7.518-.537,9.975-2.456v16.347c7.211-18.577,38.988-26.021,38.988,2.991v26.789c0,5.907,1.92,7.211,5.221,7.982H504.553c3.3-.771,5.217-2.075,5.221-7.991" fill="#403bae"></path><path id="Trac&#xE9;_25293" data-name="Trac&#xE9; 25293" d="M567.106,217.018c0,8.367-7.21,13.2-17.882,13.2a26.816,26.816,0,0,1-17.8-6.217v-8.289c2.683,6.368,10.128,13.276,17.8,13.276,8.209,0,15.425-4.451,15.425-10.516,0-13.817-33.078-15.583-33.078-31.624,0-8.442,7.833-11.969,15.276-11.969,7.215,0,12.664.536,17.271,4.451,1.538,2.07-.918,4.526-2.686,3.683-3.911-4.3-8.671-6.908-14.58-6.908-5.99,0-12.665,2.068-12.665,9.284,0,12.973,32.928,13.281,32.919,31.629" fill="#403bae"></path><path id="Trac&#xE9;_25294" data-name="Trac&#xE9; 25294" d="M625.153,221V159.374c0-5.984-1.92-7.29-5.22-8.058,3.379.228,7.6-.462,10.054-2.457v72.148c0,5.908,1.92,7.212,5.221,7.982H619.933c3.3-.77,5.22-2.074,5.22-7.986" fill="#403bae"></path><path id="Trac&#xE9;_25295" data-name="Trac&#xE9; 25295" d="M690.255,228.983H684.96c-3.38,0-4.759-3.375-4.759-6.292v-5.449c-2.378,7.295-11.052,12.973-19.341,12.973-17.191,0-22.332-25.867,3.455-34.155,6.754-2.148,15.886-3.374,15.886-6.675,0-19.265-31.162-15.275-24.25-2a2.106,2.106,0,0,1-1.92,2.3,2.325,2.325,0,0,1-2.61-1.3c-5.528-15.659,33.539-21.8,33.539,4.222V221c0,5.912,1.995,7.216,5.295,7.98M680.2,192c-4.452,3.067-10.745,3.528-15.659,5.524-20.416,7.9-14.352,30.7-1.766,30.7,6.3,0,17.425-5.528,17.425-18.114Z" fill="#403bae"></path><path id="Trac&#xE9;_25296" data-name="Trac&#xE9; 25296" d="M883.611,142.874c-3.3,5.3-11.359,4.987-19.186.462-63.623-36.692-77.133,42.977-92.636,87.032Q759.357,195.143,747,159.911c-2-5.678-5.147-7.752-8.675-8.6h16.5c-3.534.843-4.531,3.072-2.61,8.6,7.136,20.338,14.352,40.6,21.488,60.864,16.5-49.275,24.943-117.048,91.257-78.824,8.059,4.218,12.739,2.377,14.889-1.767a2.312,2.312,0,0,1,2.917-.154,2.283,2.283,0,0,1,.844,2.844" fill="#403bae"></path><path id="Trac&#xE9;_25297" data-name="Trac&#xE9; 25297" d="M812,221V185.316c0-5.906-1.921-7.212-5.222-7.98,3.455.228,7.6-.536,10.055-2.456v46.127c0,5.908,1.921,7.212,5.221,7.982H806.774c3.3-.77,5.222-2.074,5.222-7.986m-2.536-54.109a4.107,4.107,0,1,1,4.068,4.144,4.1,4.1,0,0,1-4.068-4.144" fill="#403bae"></path><path id="Trac&#xE9;_25298" data-name="Trac&#xE9; 25298" d="M880.754,219.777a26.5,26.5,0,0,1-21.029,10.437c-14.813,0-26.863-12.357-26.863-27.708,0-14.351,12.283-27.627,26.863-27.627,13.664,0,22.487,9.285,22.487,20.645H838.545c-5.6,26.631,23.335,44.9,42.209,24.253m-41.9-25.484h38.531c0-10.283-7.29-18.188-17.652-18.188-10.824,0-18.348,8.213-20.879,18.188" fill="#403bae"></path></g></g></g></svg>