<svg xmlns="http://www.w3.org/2000/svg" width="536" height="536" viewBox="0 0 536 536" fill="none"><path d="M535.5 267.536L461.292 193.328C453.908 185.944 445.589 180.062 436.724 175.63C443.429 162.455 446.935 147.91 446.935 132.808V88.6008H402.728C387.626 88.6008 373.081 92.1069 359.906 98.8123C355.474 89.9473 349.592 81.6281 342.209 74.2442L268 0.0361328L193.791 74.2442C186.407 81.6289 180.525 89.9492 176.093 98.8155C162.916 92.1079 148.368 88.6008 133.264 88.6008H89.0569V132.808C89.0569 147.911 92.5636 162.457 99.27 175.633C90.4072 180.065 82.0901 185.945 74.7081 193.328L0.5 267.536L74.7081 341.745C82.0902 349.127 90.4072 355.008 99.2701 359.439C92.5636 372.615 89.057 387.161 89.057 402.264V446.471H133.265C148.368 446.471 162.916 442.964 176.093 436.257C180.525 445.123 186.407 453.443 193.791 460.828L268 535.036L342.209 460.828C349.592 453.444 355.474 445.125 359.906 436.26C373.081 442.965 387.626 446.471 402.728 446.471H446.935V402.264C446.935 387.162 443.429 372.617 436.724 359.442C445.589 355.01 453.908 349.128 461.292 341.745L535.5 267.536ZM402.728 109.652H425.884V132.808C425.884 145.403 422.751 157.497 416.777 168.31C399.863 164.209 382.038 164.836 365.394 170.142C370.7 153.498 371.327 135.673 367.226 118.759C378.039 112.785 390.133 109.652 402.728 109.652ZM268 332.795C232.016 332.795 202.741 303.52 202.741 267.536C202.741 231.552 232.016 202.277 268 202.277C303.984 202.277 333.259 231.552 333.259 267.536C333.259 303.52 303.984 332.795 268 332.795ZM208.677 89.1302L268 29.807L327.323 89.1302C356.05 117.857 356.05 164.601 327.323 193.328L321.09 199.56C306.435 188.09 288.01 181.226 268 181.226C247.99 181.226 229.565 188.09 214.91 199.56L208.677 193.328C179.95 164.601 179.95 117.857 208.677 89.1302ZM110.108 132.808V109.652H133.265C145.862 109.652 157.958 112.786 168.773 118.763C164.673 135.676 165.3 153.499 170.606 170.142C153.96 164.835 136.132 164.209 119.216 168.312C113.241 157.498 110.108 145.404 110.108 132.808ZM30.2708 267.536L89.594 208.213C118.321 179.486 165.065 179.486 193.791 208.213L200.024 214.446C188.553 229.101 181.69 247.526 181.69 267.536C181.69 287.546 188.553 305.971 200.024 320.626L193.791 326.859C165.065 355.586 118.321 355.586 89.594 326.859L30.2708 267.536ZM133.265 425.42H110.108V402.264C110.108 389.668 113.241 377.574 119.216 366.76C126.592 368.549 134.142 369.446 141.693 369.446C151.459 369.446 161.218 367.923 170.607 364.93C165.3 381.573 164.673 399.396 168.773 416.309C157.958 422.286 145.862 425.42 133.265 425.42ZM327.323 445.942L268 505.265L208.677 445.942C179.95 417.215 179.95 370.472 208.677 341.745L214.91 335.512C229.565 346.983 247.99 353.846 268 353.846C288.01 353.846 306.435 346.983 321.09 335.512L327.323 341.745C356.05 370.472 356.05 417.215 327.323 445.942ZM425.884 402.264V425.42H402.728C390.133 425.42 378.039 422.288 367.226 416.313C371.327 399.399 370.7 381.574 365.393 364.93C374.782 367.923 384.541 369.446 394.307 369.446C401.855 369.446 409.403 368.55 416.777 366.762C422.751 377.575 425.884 389.669 425.884 402.264ZM342.209 326.859L335.976 320.626C347.447 305.971 354.31 287.546 354.31 267.536C354.31 247.526 347.447 229.101 335.976 214.446L342.209 208.213C370.935 179.486 417.68 179.486 446.406 208.213L505.729 267.536L446.406 326.859C417.68 355.586 370.935 355.586 342.209 326.859Z" fill="#F9F4ED"></path><path d="M267.999 223.329C243.623 223.329 223.791 243.16 223.791 267.536C223.791 291.912 243.623 311.744 267.999 311.744C292.374 311.744 312.206 291.912 312.206 267.536C312.206 243.16 292.374 223.329 267.999 223.329ZM267.999 290.693C255.23 290.693 244.842 280.305 244.842 267.536C244.842 254.768 255.23 244.38 267.999 244.38C280.767 244.38 291.155 254.768 291.155 267.536C291.155 280.305 280.767 290.693 267.999 290.693Z" fill="#F9F4ED"></path></svg>
