<?xml version="1.0" encoding="UTF-8"?>
<svg xmlns="http://www.w3.org/2000/svg" width="60" height="60" viewBox="0 0 60 60" fill="none">
  <path d="M29.922 27.8943C29.076 27.8943 28.278 27.5283 27.732 26.8803L17.058 14.3643C15.108 12.0783 14.622 8.91633 15.78 6.11433C16.896 3.40833 19.272 1.65633 22.134 1.42233C22.374 1.40433 22.62 1.39233 22.872 1.39233C25.668 1.39233 28.23 2.65833 29.922 4.82433C31.614 2.65833 34.176 1.39233 36.972 1.39233C37.218 1.39233 37.464 1.40433 37.71 1.42233C40.572 1.65633 42.948 3.40833 44.064 6.11433C45.222 8.91633 44.73 12.0783 42.786 14.3643L32.112 26.8803C31.566 27.5283 30.768 27.8943 29.922 27.8943ZM22.866 2.89833C22.662 2.89833 22.452 2.90433 22.254 2.92233C19.968 3.10833 18.066 4.51833 17.166 6.69033C16.224 8.97033 16.62 11.5383 18.198 13.3923L28.872 25.9083C29.4 26.5263 30.444 26.5263 30.966 25.9083L41.64 13.3923C43.218 11.5383 43.62 8.97033 42.672 6.69033C41.772 4.51833 39.87 3.10833 37.584 2.92233C37.38 2.90433 37.176 2.89833 36.972 2.89833C34.326 2.89833 31.932 4.26033 30.564 6.54033C30.294 6.99033 29.55 6.99033 29.28 6.54033C27.912 4.26033 25.512 2.89833 22.866 2.89833Z" fill="white"></path>
  <path d="M29.8557 14.8264C29.7417 14.8264 29.6337 14.8204 29.5257 14.8144C28.2957 14.7124 27.2457 13.9804 26.7177 12.8524C26.1717 11.6884 26.2857 10.3264 27.0057 9.28836L29.2137 5.50837C29.4837 5.04637 30.2397 5.04637 30.5097 5.50837L32.7177 9.28836C33.4377 10.3264 33.5457 11.6884 33.0057 12.8524C32.4777 13.9804 31.4277 14.7184 30.1977 14.8144C30.0837 14.8204 29.9697 14.8264 29.8557 14.8264ZM29.8557 7.36836L28.2837 10.0684C28.2717 10.0864 28.2597 10.1044 28.2477 10.1224C27.8217 10.7224 27.7557 11.5264 28.0797 12.2104C28.3797 12.8524 28.9557 13.2604 29.6517 13.3144C29.7897 13.3264 29.9397 13.3264 30.0777 13.3144C30.7737 13.2604 31.3437 12.8584 31.6437 12.2104C31.9677 11.5204 31.9017 10.7224 31.4757 10.1224C31.4637 10.1044 31.4517 10.0864 31.4397 10.0684L29.8557 7.36836Z" fill="white"></path>
  <path d="M36.9705 59.2799C34.1745 59.2799 31.6125 58.0139 29.9205 55.8479C28.2285 58.0139 25.6665 59.2799 22.8705 59.2799C22.6245 59.2799 22.3785 59.2679 22.1325 59.2499C19.2705 59.0159 16.8945 57.2639 15.7785 54.5579C14.6205 51.7559 15.1125 48.5939 17.0565 46.3079L27.7305 33.7919C28.2765 33.1499 29.0745 32.7839 29.9205 32.7839C30.7665 32.7839 31.5645 33.1499 32.1105 33.7919L42.7845 46.3079C44.7345 48.5939 45.2205 51.7559 44.0625 54.5579C42.9465 57.2639 40.5705 59.0159 37.7085 59.2499C37.4625 59.2739 37.2225 59.2799 36.9705 59.2799ZM29.9205 53.7779C30.1845 53.7779 30.4305 53.9159 30.5625 54.1439C31.9305 56.4239 34.3245 57.7859 36.9705 57.7859C37.1745 57.7859 37.3845 57.7799 37.5825 57.7619C39.8685 57.5759 41.7705 56.1659 42.6705 53.9939C43.6125 51.7139 43.2165 49.1459 41.6385 47.2919L30.9705 34.7639C30.4485 34.1519 29.3985 34.1519 28.8765 34.7639L18.1965 47.2859C16.6185 49.1399 16.2165 51.7079 17.1645 53.9879C18.0645 56.1599 19.9665 57.5699 22.2525 57.7559C22.4565 57.7739 22.6605 57.7799 22.8645 57.7799C25.5105 57.7799 27.9045 56.4179 29.2725 54.1379C29.4105 53.9159 29.6565 53.7779 29.9205 53.7779Z" fill="white"></path>
  <path d="M29.9822 55.5482C29.7182 55.5482 29.4662 55.4042 29.3342 55.1762L27.1262 51.3962C26.4062 50.3582 26.2982 48.9962 26.8382 47.8322C27.3662 46.7042 28.4162 45.9662 29.6462 45.8702C29.8742 45.8522 30.0962 45.8522 30.3122 45.8702C31.5422 45.9722 32.5922 46.7042 33.1202 47.8322C33.6662 48.9962 33.5522 50.3582 32.8382 51.3962L30.6302 55.1762C30.4982 55.4042 30.2522 55.5482 29.9822 55.5482ZM29.9822 47.3522C29.9102 47.3522 29.8382 47.3582 29.7662 47.3582C29.0702 47.4122 28.5002 47.8142 28.2002 48.4622C27.8762 49.1522 27.9422 49.9502 28.3682 50.5562L28.4042 50.6102L29.9762 53.3102L31.5482 50.6102C31.5602 50.5922 31.5722 50.5742 31.5842 50.5562C32.0102 49.9562 32.0762 49.1522 31.7522 48.4682C31.4522 47.8262 30.8762 47.4182 30.1802 47.3642C30.1262 47.3582 30.0542 47.3522 29.9822 47.3522Z" fill="white"></path>
  <path d="M8.79666 45.1022C7.75266 45.1022 6.70266 44.8982 5.69466 44.4842C2.98866 43.3682 1.23666 40.9922 1.00266 38.1302C0.984656 37.8902 0.972656 37.6442 0.972656 37.3922C0.972656 34.5962 2.23866 32.0342 4.40466 30.3422C2.23866 28.6502 0.972656 26.0882 0.972656 23.2922C0.972656 23.0462 0.984656 22.8002 1.00266 22.5542C1.23666 19.6922 2.98866 17.3162 5.69466 16.2002C8.49666 15.0422 11.6587 15.5282 13.9447 17.4782L26.4607 28.1522C27.1027 28.6982 27.4687 29.4962 27.4687 30.3422C27.4687 31.1882 27.1027 31.9862 26.4607 32.5322L13.9507 43.2002C12.4867 44.4482 10.6567 45.1022 8.79666 45.1022ZM8.79666 17.0762C7.95066 17.0762 7.09266 17.2442 6.27066 17.5802C4.09866 18.4802 2.68866 20.3822 2.50266 22.6682C2.48466 22.8722 2.47866 23.0762 2.47866 23.2802C2.47866 25.9262 3.84066 28.3202 6.12066 29.6882C6.34866 29.8262 6.48666 30.0662 6.48666 30.3302C6.48666 30.5942 6.34866 30.8402 6.12066 30.9722C3.84066 32.3402 2.47866 34.7342 2.47866 37.3802C2.47866 37.5842 2.48466 37.7942 2.50266 37.9922C2.68866 40.2782 4.09866 42.1802 6.27066 43.0802C8.55066 44.0222 11.1187 43.6262 12.9727 42.0482L25.4887 31.3742C25.7947 31.1102 25.9747 30.7322 25.9747 30.3242C25.9747 29.9222 25.8007 29.5382 25.4887 29.2742L12.9787 18.6182C11.7907 17.6042 10.3087 17.0762 8.79666 17.0762Z" fill="white"></path>
  <path d="M10.8908 33.882C10.1768 33.882 9.4688 33.672 8.8688 33.252L5.0888 31.044C4.8608 30.912 4.7168 30.66 4.7168 30.396C4.7168 30.132 4.8608 29.88 5.0888 29.748L8.8688 27.54C9.9068 26.82 11.2688 26.712 12.4328 27.252C13.5608 27.78 14.2988 28.83 14.3948 30.06C14.4008 30.168 14.4068 30.282 14.4068 30.396C14.4068 30.51 14.4008 30.624 14.3948 30.732C14.2928 31.956 13.5608 33.006 12.4328 33.534C11.9408 33.768 11.4128 33.882 10.8908 33.882ZM6.9488 30.402L9.6488 31.974C9.6668 31.986 9.6848 31.998 9.7028 32.01C10.3028 32.436 11.1068 32.502 11.7968 32.178C12.4388 31.878 12.8408 31.308 12.9008 30.612C12.9068 30.54 12.9068 30.468 12.9068 30.396C12.9068 30.324 12.9068 30.258 12.9008 30.186C12.8468 29.49 12.4448 28.914 11.7968 28.614C11.1068 28.296 10.3088 28.356 9.7088 28.782C9.6908 28.794 9.6728 28.806 9.6548 28.818L6.9488 30.402Z" fill="white"></path>
  <path d="M51.0431 45.1021C49.1831 45.1021 47.3591 44.4541 45.8951 43.2061L33.3791 32.5261C32.7371 31.9801 32.3711 31.1821 32.3711 30.3361C32.3711 29.4901 32.7371 28.6921 33.3791 28.1461L45.8951 17.4721C48.1811 15.5221 51.3431 15.0361 54.1451 16.1941C56.8511 17.3101 58.6031 19.6861 58.8371 22.5481C58.8551 22.7881 58.8671 23.0341 58.8671 23.2861C58.8671 26.0821 57.6011 28.6441 55.4351 30.3361C57.6011 32.0281 58.8671 34.5961 58.8671 37.3861C58.8671 37.6321 58.8551 37.8781 58.8371 38.1241C58.6031 40.9861 56.8511 43.3621 54.1451 44.4781C53.1371 44.8981 52.0871 45.1021 51.0431 45.1021ZM46.8671 42.0601C48.7211 43.6381 51.2891 44.0401 53.5691 43.0921C55.7411 42.1921 57.1511 40.2901 57.3371 38.0041C57.3551 37.8001 57.3611 37.5961 57.3611 37.3921C57.3611 34.7461 55.9991 32.3521 53.7191 30.9841C53.4911 30.8461 53.3531 30.6061 53.3531 30.3421C53.3531 30.0781 53.4911 29.8321 53.7191 29.7001C55.9991 28.3321 57.3611 25.9381 57.3611 23.2921C57.3611 23.0881 57.3551 22.8781 57.3371 22.6801C57.1511 20.3941 55.7411 18.4921 53.5691 17.5921C51.2891 16.6501 48.7211 17.0461 46.8671 18.6241L34.3511 29.2921C34.0451 29.5561 33.8651 29.9341 33.8651 30.3421C33.8651 30.7441 34.0391 31.1281 34.3511 31.3921L46.8671 42.0601Z" fill="white"></path>
  <path d="M48.9535 33.7623C48.4315 33.7623 47.9035 33.6483 47.4115 33.4203C46.2835 32.8923 45.5455 31.8423 45.4495 30.6123C45.4435 30.5043 45.4375 30.3903 45.4375 30.2763C45.4375 30.1623 45.4435 30.0483 45.4495 29.9403C45.5515 28.7103 46.2835 27.6663 47.4115 27.1383C48.5755 26.5923 49.9375 26.7063 50.9755 27.4263L54.7555 29.6343C54.9835 29.7663 55.1275 30.0183 55.1275 30.2823C55.1275 30.5463 54.9835 30.7983 54.7555 30.9303L50.9755 33.1383C50.3755 33.5463 49.6675 33.7563 48.9535 33.7623ZM48.9535 28.2903C48.6475 28.2903 48.3355 28.3563 48.0475 28.4943C47.4055 28.7943 47.0035 29.3703 46.9435 30.0603C46.9375 30.1323 46.9375 30.2043 46.9375 30.2763C46.9375 30.3483 46.9375 30.4143 46.9435 30.4863C46.9975 31.1823 47.3995 31.7583 48.0475 32.0583C48.7375 32.3763 49.5355 32.3163 50.1355 31.8903C50.1535 31.8783 50.1715 31.8663 50.1895 31.8543L52.8895 30.2823L50.1895 28.7103C50.1715 28.6983 50.1535 28.6863 50.1355 28.6743C49.7875 28.4163 49.3735 28.2903 48.9535 28.2903Z" fill="white"></path>
</svg>
