<?xml version="1.0" encoding="UTF-8"?>
<svg xmlns="http://www.w3.org/2000/svg" width="68" height="62" viewBox="0 0 68 62" fill="none">
  <path d="M13.1113 51.0709C13.1113 51.0709 26.3158 50.4419 27.8878 36.2944C13.7403 37.8669 13.1113 51.0709 13.1113 51.0709Z" fill="white"></path>
  <path d="M55.7179 51.0709C55.7179 51.0709 42.5134 50.4419 40.9414 36.2944C55.0889 37.8669 55.7179 51.0709 55.7179 51.0709Z" fill="white"></path>
  <path d="M13.1113 10.3352C13.1113 10.3352 26.3158 10.9638 27.8878 25.1113C13.7403 23.5396 13.1113 10.3352 13.1113 10.3352Z" fill="white"></path>
  <path d="M55.7179 10.3352C55.7179 10.3352 42.5134 10.9638 40.9414 25.1113C55.0889 23.5396 55.7179 10.3352 55.7179 10.3352Z" fill="white"></path>
  <path d="M16.9683 35.3032C20.903 35.3032 23.8417 33.3002 25.9249 31.7572C28.0081 30.2142 32.4059 30.5053 32.4059 30.5053C32.4059 30.5053 28.0081 30.7964 25.9249 29.2533C23.8417 27.7103 20.9034 25.7073 16.9683 25.7073C13.0337 25.7073 10.0949 27.7103 8.01217 29.2533C5.92897 30.7964 1.53125 30.5053 1.53125 30.5053C1.53125 30.5053 5.92897 30.2142 8.01217 31.7572C10.0949 33.3002 13.0337 35.3032 16.9683 35.3032Z" stroke="white" stroke-width="1.38871" stroke-miterlimit="10" stroke-linecap="round" stroke-linejoin="round"></path>
  <path d="M51.7105 35.3032C55.6452 35.3032 58.5839 33.3002 60.6671 31.7572C62.7503 30.2142 67.1476 30.5053 67.1476 30.5053C67.1476 30.5053 62.7499 30.7964 60.6671 29.2533C58.5839 27.7103 55.6456 25.7073 51.7105 25.7073C47.7759 25.7073 44.8371 27.7103 42.7539 29.2533C40.6707 30.7964 36.2734 30.5053 36.2734 30.5053C36.2734 30.5053 40.6712 30.2142 42.7539 31.7572C44.8376 33.3002 47.7759 35.3032 51.7105 35.3032Z" stroke="white" stroke-width="1.38871" stroke-miterlimit="10" stroke-linecap="round" stroke-linejoin="round"></path>
  <path d="M34.3921 1C34.3921 1 22.8663 12.9586 34.3921 27.9257C45.9184 12.9586 34.3921 1 34.3921 1Z" stroke="white" stroke-width="1.38871" stroke-miterlimit="10" stroke-linecap="round" stroke-linejoin="round"></path>
  <path d="M34.3921 34.0745C34.3921 34.0745 22.8663 46.033 34.3921 61.0001C45.9184 46.033 34.3921 34.0745 34.3921 34.0745Z" stroke="white" stroke-width="1.38871" stroke-miterlimit="10" stroke-linecap="round" stroke-linejoin="round"></path>
</svg>
