<?xml version="1.0" encoding="UTF-8"?>
<svg xmlns="http://www.w3.org/2000/svg" width="67" height="62" viewBox="0 0 67 62" fill="none">
  <path d="M1.15818 29.0016C1.57994 23.5017 7.16016 19.7665 10.0705 15.5225C13.073 11.1437 14.6223 4.62574 19.4073 2.32609C24.0458 0.0969308 30.0422 2.892 35.5421 3.31376C41.0419 3.73551 47.3948 1.88771 51.6388 4.79801C56.0176 7.80059 56.555 14.4782 58.8542 19.2636C61.0834 23.9017 66.0284 28.444 65.6066 33.9442C65.1849 39.4441 59.6047 43.1793 56.6943 47.4233C53.6922 51.8021 52.1426 58.3201 47.3575 60.6197C42.719 62.8489 36.7226 60.0538 31.2228 59.632C25.7229 59.2103 19.3701 61.0581 15.126 58.1478C10.7473 55.1456 10.2103 48.4676 7.91061 43.6822C5.68185 39.0441 0.736428 34.5018 1.15818 29.0016Z" stroke="white" stroke-width="1.06326" stroke-miterlimit="10" stroke-linecap="round" stroke-linejoin="round"></path>
  <path d="M4.75782 23.0849C6.18149 18.227 12.1775 16.1024 15.5967 12.8448C19.124 9.48385 21.5975 3.64185 26.3307 2.48668C30.9185 1.36676 35.7637 5.33916 40.6216 6.76283C45.4795 8.1865 51.7025 7.45744 54.9601 10.8766C58.3211 14.4039 57.2502 20.657 58.4058 25.3901C59.5257 29.9779 63.4268 35.0026 62.0036 39.8605C60.5799 44.7184 54.5839 46.843 51.1647 50.1006C47.6374 53.4616 45.1635 59.3036 40.4307 60.4587C35.8429 61.5787 30.9977 57.6063 26.1398 56.1826C21.2819 54.7589 15.0589 55.488 11.8013 52.0688C8.44034 48.5415 9.51117 42.2884 8.3556 37.5553C7.23527 32.9679 3.33415 27.9428 4.75782 23.0849Z" stroke="white" stroke-width="1.06326" stroke-miterlimit="10" stroke-linecap="round" stroke-linejoin="round"></path>
</svg>
