<?xml version="1.0" encoding="UTF-8"?>
<svg xmlns="http://www.w3.org/2000/svg" width="60" height="60" viewBox="0 0 60 60" fill="none">
  <path d="M0 20.0203C0.453229 19.1451 0.812686 19.0513 1.68789 19.5358C3.92277 20.8017 6.15766 22.0989 8.39255 23.3492C8.83015 23.5992 9.06458 23.9274 9.17398 24.4276C10.5649 30.804 11.9871 37.1649 13.3937 43.5413C13.7844 45.3386 13.7063 47.1515 13.5812 48.9644C13.3468 52.2933 13.128 55.6222 12.9092 58.9511C12.8779 59.4356 12.6904 59.8419 12.2059 59.8888C11.909 59.9201 11.5183 59.7481 11.3151 59.5293C11.1432 59.3574 11.1432 58.9823 11.1588 58.701C11.2838 56.6537 11.4401 54.622 11.5495 52.5746C11.6745 50.1366 11.9246 47.6985 11.7996 45.2761C11.7058 43.385 11.1432 41.5252 10.7368 39.6654C9.72098 34.9769 8.65823 30.3039 7.64237 25.631C7.51735 25.084 7.28292 24.7558 6.79843 24.4901C4.79797 23.3804 2.82877 22.2552 0.859572 21.0987C0.531372 20.9111 0.296943 20.5517 0.0156286 20.2704C3.49326e-09 20.1766 0 20.0984 0 20.0203Z" fill="white"></path>
  <path d="M0 5.98575C0.421972 5.2512 0.625143 5.17306 1.5316 5.31372C5.61066 5.97012 9.67409 6.65777 13.7688 7.25166C14.4721 7.36106 15.2222 7.14226 15.9568 7.03286C18.0823 6.6734 20.2078 6.28269 22.3489 5.89197C22.4583 5.87635 22.5677 5.84509 22.724 5.81383C22.724 4.28223 22.7396 2.75063 22.7083 1.23466C22.6927 0.687658 22.849 0.281314 23.3022 0C23.4898 0 23.6929 0 23.8805 0C24.3181 0.265686 24.49 0.640772 24.49 1.15651C24.4587 2.87566 24.49 4.5948 24.4744 6.29832C24.4744 7.07975 24.2556 7.34543 23.4898 7.48609C20.5203 8.01746 17.5509 8.59572 14.5658 9.06458C13.8625 9.17398 13.0967 8.9708 12.3778 8.8614C8.62698 8.26752 4.87612 7.64237 1.12526 7.04849C0.562629 6.95472 0.187543 6.73592 0 6.20455C0 6.1264 0 6.04826 0 5.98575Z" fill="white"></path>
  <path d="M36.7566 0C37.2254 0.312572 37.3505 0.750172 37.3348 1.29717C37.3036 2.79752 37.3192 4.28223 37.3192 5.81383C38.7258 6.06389 40.0855 6.31395 41.4295 6.564C41.6171 6.59526 41.8202 6.62652 42.0078 6.68903C42.4766 6.84532 42.7267 7.25166 42.6173 7.73615C42.4923 8.22063 42.1484 8.48632 41.6796 8.40817C39.851 8.11123 38.0381 7.7674 36.2252 7.42357C35.8032 7.34543 35.5532 7.03286 35.5532 6.57963C35.5532 4.68857 35.5219 2.79752 35.5688 0.906458C35.5844 0.593886 35.9595 0.296943 36.1627 0C36.3815 0 36.569 0 36.7566 0Z" fill="white"></path>
  <path d="M16.0362 22.4896C16.5675 24.3181 17.0833 26.0998 17.6146 27.8658C17.6772 28.0846 17.8334 28.2721 17.9741 28.4597C19.1775 29.8975 20.3965 31.3197 21.5999 32.7419C22.0219 33.2576 22.0375 33.8046 21.6156 34.1328C21.2249 34.4298 20.7716 34.461 20.4591 34.086C19.0056 32.4137 17.5678 30.7102 16.1456 28.991C16.0205 28.8348 15.9893 28.6003 15.9268 28.3972C15.3954 26.6311 14.8796 24.8651 14.3483 23.0366C13.8638 23.271 13.6294 23.6148 13.6919 24.0837C13.9107 25.8341 14.1138 27.6001 14.3952 29.3505C14.4577 29.7568 14.7546 30.1632 15.0359 30.507C16.1299 31.8042 17.2552 33.0701 18.3648 34.3516C18.3961 34.3985 18.443 34.4454 18.4742 34.4767C18.9587 35.0549 18.99 35.5863 18.5524 35.9614C18.1148 36.3208 17.6303 36.2271 17.1458 35.6644C16.5206 34.9455 15.8955 34.2266 15.2704 33.5077C15.0984 33.3045 14.9109 33.1014 14.6296 32.9607C14.7077 33.1326 14.7859 33.3202 14.8796 33.4921C15.833 35.3206 16.802 37.1492 17.724 38.9933C17.8647 39.2903 17.9116 39.7279 17.8178 40.0248C17.7397 40.2436 17.3333 40.4937 17.0989 40.4781C16.802 40.4468 16.4269 40.228 16.2706 39.9779C15.6298 38.8683 15.0516 37.7118 14.4577 36.5709C12.1446 32.148 12.5822 33.2733 12.1759 28.194C12.0821 26.9281 11.9884 25.6622 11.8946 24.3962C11.7696 22.9584 12.5041 21.7863 13.8638 21.3018C14.6608 21.0205 15.4423 20.7548 16.255 20.5204C17.6303 20.0984 18.8649 20.7235 19.3338 22.0832C19.8027 23.4429 20.2559 24.8182 20.7091 26.1779C20.7716 26.3811 20.8654 26.5842 21.0061 26.7249C22.2876 27.9283 23.5691 29.1161 24.8507 30.3195C24.8819 30.3507 24.9445 30.3664 25.0695 30.4445C25.0695 29.4599 25.0382 28.5378 25.0695 27.6157C25.132 25.6465 27.1481 24.4275 28.8203 25.3652C29.2892 25.6309 29.6487 26.0998 30.0706 26.4748C30.5551 25.5996 31.3365 25.0526 32.4618 25.0839C33.6965 25.1152 34.7748 26.0372 34.8842 27.2719C34.9624 28.1002 34.9311 28.9442 34.9311 29.7881C34.9311 29.9913 34.9311 30.1944 34.9311 30.5695C35.7125 29.835 36.3377 29.163 37.0566 28.616C38.6976 27.3813 39.7135 25.7872 40.1511 23.7867C40.2761 23.1772 40.5261 22.599 40.7293 22.0051C41.1825 20.7704 42.3859 20.1453 43.6519 20.5204C44.5271 20.7704 45.4023 21.0517 46.2618 21.3643C47.4496 21.7863 48.1998 22.8646 48.1216 24.1149C47.9653 26.7249 47.7934 29.3349 47.5121 31.9292C47.4183 32.7575 47.0901 33.5858 46.7151 34.3516C45.2616 37.2429 43.73 40.0873 42.2609 42.963C42.1203 43.2443 42.0577 43.635 42.1203 43.9476C43.1986 48.7768 44.2926 53.6061 45.3866 58.4353C45.4023 58.5134 45.4179 58.5916 45.4335 58.6697C45.5742 59.373 45.3554 59.8419 44.8084 59.9669C44.277 60.0919 43.855 59.7481 43.6987 59.0448C42.6829 54.5281 41.7295 49.9802 40.5887 45.4948C40.1823 43.8538 40.3699 42.541 41.1982 41.0876C42.6673 38.5245 43.9644 35.852 45.3397 33.2264C45.3866 33.1326 45.4335 33.0232 45.4023 32.8513C44.6208 33.7421 43.8394 34.6486 43.058 35.5394C42.4172 36.274 41.964 36.399 41.4951 35.9926C41.0419 35.6019 41.1044 35.0862 41.7139 34.3829C42.8235 33.1014 43.9801 31.8511 45.0428 30.5226C45.4023 30.0694 45.6836 29.4755 45.7773 28.9129C46.043 27.3813 46.1993 25.8341 46.3869 24.2868C46.4494 23.7867 46.2775 23.3648 45.7461 23.0991C45.6523 23.3804 45.5429 23.6461 45.4648 23.9118C45.0272 25.4277 44.5896 26.9437 44.1363 28.444C44.0426 28.7566 43.9019 29.0692 43.6987 29.3192C42.4172 30.8665 41.1044 32.3981 39.8072 33.9297C39.3853 34.4298 38.8383 34.5236 38.4319 34.1797C38.0099 33.8203 38.0099 33.3045 38.4475 32.7888C39.5884 31.4291 40.7606 30.1007 41.8858 28.7254C42.1828 28.3659 42.4328 27.9127 42.5735 27.4751C43.0892 25.8653 43.5425 24.24 44.0426 22.5521C43.8081 22.4739 43.5893 22.3958 43.3705 22.3176C42.8548 22.1145 42.5579 22.3176 42.4016 22.8178C41.9483 24.2243 41.4795 25.6309 40.995 27.0218C40.87 27.3969 40.6355 27.772 40.3542 28.0377C38.5726 29.7256 36.7597 31.3978 34.9624 33.0701C34.6185 33.3827 34.2903 33.6952 33.7746 33.4764C33.2432 33.2576 33.1807 32.8044 33.1963 32.3199C33.1963 30.8352 33.1963 29.3505 33.1963 27.8658C33.1963 27.35 33.0401 26.9593 32.4931 26.8968C31.9304 26.8343 31.7585 27.225 31.6179 27.7095C30.6489 31.1009 30.9771 34.5548 30.9771 37.9931C30.9771 38.5088 31.1959 39.009 31.3365 39.5247C31.4147 39.7904 31.5553 40.0248 31.6804 40.2749C33.1026 43.1662 33.0713 43.1662 33.1807 46.3388C33.3214 50.4491 33.5089 54.5594 33.6808 58.6697C33.6808 58.7791 33.6965 58.9041 33.6965 59.0135C33.6808 59.5918 33.3526 59.9825 32.8369 59.9981C32.3524 60.0138 31.9617 59.6856 31.9148 59.1229C31.8367 58.1696 31.821 57.2163 31.7741 56.2629C31.6022 52.1526 31.4459 48.0423 31.2584 43.932C31.2428 43.5256 31.0552 43.1193 30.8833 42.7286C30.6489 42.1816 30.3519 41.6502 30.0237 40.9938C29.5549 42.2128 28.8047 43.1818 28.7735 44.5259C28.6484 49.105 28.414 53.6842 28.2108 58.2634C28.1952 58.5291 28.1796 58.8104 28.1639 59.0761C28.1014 59.6699 27.742 60.0294 27.2419 59.9981C26.7261 59.9825 26.3667 59.5605 26.3823 58.951C26.4135 57.9352 26.4604 56.9193 26.5073 55.9035C26.6792 51.7931 26.8668 47.6828 27.0543 43.5725C27.0699 43.213 27.1481 42.838 27.3044 42.5098C29.4142 38.1338 29.086 39.4466 29.1642 34.4767C29.1954 32.1793 29.0079 29.9288 28.4609 27.6939C28.3202 27.1 28.0389 26.803 27.5857 26.8812C27.0387 26.9593 26.8824 27.35 26.8824 27.8502C26.8824 29.3349 26.8824 30.8196 26.8824 32.3043C26.8824 32.7888 26.8355 33.2576 26.3041 33.4608C25.7884 33.664 25.4602 33.367 25.1164 33.0545C23.3347 31.3822 21.5374 29.7412 19.7714 28.0533C19.4744 27.772 19.24 27.3813 19.0994 27.0062C18.6305 25.7247 18.2242 24.4275 17.7866 23.1303C17.4584 22.1301 17.349 22.0832 16.3644 22.4114C16.2706 22.3958 16.1924 22.427 16.0362 22.4896Z" fill="white"></path>
  <path d="M46.2135 46.6512C46.1666 44.4789 46.7761 42.4003 47.2293 40.3217C48.3702 35.1017 49.5424 29.8974 50.6676 24.6931C50.8083 24.0211 51.1052 23.5991 51.7147 23.2709C53.8871 22.0831 56.0126 20.8328 58.1693 19.5982C58.2631 19.5357 58.3725 19.4888 58.4819 19.4263C58.9977 19.1606 59.5134 19.27 59.7635 19.7076C60.0135 20.1452 59.8885 20.6609 59.3884 20.9579C58.6538 21.3955 57.9037 21.8174 57.1535 22.2394C55.7313 23.0521 54.2935 23.8491 52.8869 24.6775C52.6525 24.8181 52.418 25.0994 52.3711 25.3651C50.9802 31.5384 49.6205 37.7273 48.2608 43.9006C47.8701 45.651 48.0264 47.4327 48.1358 49.1987C48.3546 52.3869 48.5734 55.5752 48.7766 58.7634C48.8235 59.4667 48.4953 59.9043 47.9326 59.9355C47.4013 59.9668 47.0418 59.5917 46.9949 58.9041C46.7605 55.6221 46.5573 52.3244 46.3385 49.0424C46.3073 48.2454 46.276 47.4483 46.2135 46.6512Z" fill="white"></path>
  <path d="M19.9106 43.1973C19.6449 44.3851 19.4105 45.4478 19.1761 46.5106C18.254 50.6209 17.3163 54.7156 16.3942 58.8259C16.3629 58.9665 16.3317 59.0916 16.3004 59.2166C16.1441 59.7323 15.7065 60.0137 15.2533 59.9199C14.7532 59.8105 14.4562 59.3416 14.5813 58.7946C14.847 57.5912 15.1126 56.4035 15.394 55.2001C16.2848 51.2617 17.1756 47.3389 18.0821 43.4005C18.1602 43.0879 18.3478 42.7285 18.5978 42.5409C18.801 42.4003 19.223 42.4315 19.4574 42.5409C19.6606 42.6816 19.7856 43.0098 19.9106 43.1973Z" fill="white"></path>
  <path d="M58.9043 5.25122C59.4825 5.25122 59.842 5.56379 59.8889 6.03265C59.9358 6.53276 59.6076 6.92348 59.0293 7.01725C57.6071 7.25168 56.1849 7.48611 54.7627 7.72054C51.9496 8.17376 49.1521 8.64262 46.3389 9.06459C45.9795 9.11148 45.4793 9.04897 45.2293 8.83017C44.6823 8.37694 45.0105 7.51736 45.7607 7.39234C47.136 7.14228 48.5269 6.92348 49.9179 6.70468C52.7623 6.23582 55.6067 5.78259 58.4511 5.31374C58.6074 5.28248 58.7793 5.26685 58.9043 5.25122Z" fill="white"></path>
  <path d="M22.7704 15.0347C23.1143 16.8008 23.5675 18.3636 24.5208 19.7233C24.7553 20.0515 24.9272 20.3953 24.724 20.8017C24.4271 21.4268 23.5831 21.5206 23.208 20.8798C22.5829 19.7702 22.0359 18.5981 21.5358 17.4415C21.2857 16.8789 21.2076 16.2538 21.02 15.5817C20.8325 15.8162 20.6918 16.0193 20.5355 16.1913C20.1917 16.5507 19.7854 16.5976 19.379 16.3007C18.9883 16.0193 18.8945 15.5974 19.1446 15.2067C19.7229 14.3002 20.348 13.4406 20.9888 12.5811C21.2701 12.206 21.7077 12.1747 22.0984 12.4248C22.9423 12.9874 23.7707 13.5657 24.5833 14.1752C24.9897 14.4721 25.0522 14.9879 24.8021 15.3629C24.5365 15.7693 24.0207 15.8631 23.5675 15.5817C23.3487 15.4255 23.1299 15.2692 22.7704 15.0347Z" fill="white"></path>
  <path d="M37.2745 15.0189C36.9306 15.2533 36.6962 15.4252 36.4462 15.5659C36.0086 15.8316 35.5241 15.7534 35.2428 15.3783C34.9458 14.9876 35.024 14.4562 35.4459 14.1437C36.243 13.5498 37.0557 12.9715 37.884 12.4245C38.3528 12.112 38.8061 12.2214 39.1499 12.6902C39.6969 13.4404 40.2439 14.2062 40.7596 14.9876C41.1035 15.4877 41.0253 15.9878 40.619 16.2848C40.2126 16.5817 39.7125 16.488 39.3374 16.0191C39.228 15.8784 39.1186 15.7534 38.978 15.5502C38.8061 16.191 38.7279 16.8005 38.4935 17.3475C38.009 18.4884 37.5089 19.6293 36.915 20.7233C36.5712 21.3641 36.0086 21.4735 35.5553 21.1296C35.1021 20.8014 35.1021 20.3013 35.5241 19.6918C36.493 18.3165 36.9306 16.7536 37.2745 15.0189Z" fill="white"></path>
</svg>
