<svg xmlns="http://www.w3.org/2000/svg" width="61" height="61" viewBox="0 0 61 61" fill="none"><path fill-rule="evenodd" clip-rule="evenodd" d="M10.9196 36.2319C11.2457 37.3188 11.6443 38.3333 12.1153 39.3116C10.4124 40.5072 9.32543 42.5 9.32543 44.7101C9.32543 48.3696 12.2965 51.3406 15.9559 51.3406C18.166 51.3406 20.1588 50.2536 21.3544 48.5507C22.3327 49.0217 23.3834 49.4203 24.4341 49.7464C23.7457 50.7971 23.3472 52.0652 23.3472 53.4058C23.3472 57.0652 26.3182 60.0362 29.9776 60.0362V42.5725C23.637 42.0652 18.6008 37.029 18.0935 30.6884H0.666016C0.666016 34.3478 3.63703 37.3188 7.29645 37.3188C8.63703 37.3551 9.90515 36.9203 10.9196 36.2319Z" fill="#FFCF00"></path><path fill-rule="evenodd" clip-rule="evenodd" d="M50.3762 36.2319C50.0501 37.3188 49.6515 38.3333 49.1805 39.3116C50.8834 40.5072 51.9704 42.5 51.9704 44.7101C51.9704 48.3696 48.9993 51.3406 45.3399 51.3406C43.1298 51.3406 41.137 50.2536 39.9414 48.5507C38.9631 49.0217 37.9124 49.4203 36.8617 49.7464C37.5501 50.7971 37.9486 52.0652 37.9486 53.4058C37.9486 57.0652 34.9776 60.0362 31.3182 60.0362V42.5725C37.6588 42.0652 42.695 37.029 43.2022 30.6884H60.666C60.666 34.3478 57.695 37.3188 54.0356 37.3188C52.695 37.3551 51.4269 36.9203 50.3762 36.2319Z" fill="#FFCF00"></path><path fill-rule="evenodd" clip-rule="evenodd" d="M10.9196 23.8043C11.2457 22.7174 11.6443 21.7029 12.1153 20.7246C10.4124 19.529 9.32543 17.5362 9.32543 15.3261C9.32543 11.6667 12.2965 8.69565 15.9559 8.69565C18.166 8.69565 20.1588 9.78261 21.3544 11.4855C22.3327 11.0145 23.3834 10.6159 24.4341 10.2899C23.7457 9.23913 23.3472 7.97101 23.3472 6.63043C23.3472 2.97101 26.3182 0 29.9776 0V17.4275C23.637 17.971 18.6008 23.0072 18.0935 29.3478H0.666016C0.666016 25.6884 3.63703 22.7174 7.29645 22.7174C8.63703 22.7174 9.90515 23.1159 10.9196 23.8043Z" fill="#FFCF00"></path><path fill-rule="evenodd" clip-rule="evenodd" d="M50.3762 23.8043C50.0501 22.7174 49.6515 21.7029 49.1805 20.7246C50.8834 19.529 51.9704 17.5362 51.9704 15.3261C51.9704 11.6667 48.9993 8.69565 45.3399 8.69565C43.1298 8.69565 41.137 9.78261 39.9414 11.4855C38.9631 11.0145 37.9124 10.6159 36.8617 10.2899C37.5501 9.23913 37.9486 7.97101 37.9486 6.63043C37.9486 2.97101 34.9776 0 31.3182 0V17.4275C37.6588 17.9348 42.695 22.971 43.2022 29.3116H60.666C60.666 25.6522 57.695 22.6812 54.0356 22.6812C52.695 22.7174 51.4269 23.1159 50.3762 23.8043Z" fill="#FFCF00"></path><path fill-rule="evenodd" clip-rule="evenodd" d="M30.666 40.942C35.1588 40.942 38.8182 37.2826 38.8182 32.7899C38.8182 28.2971 35.1588 24.6377 30.666 24.6377C26.1733 24.6377 22.5138 28.2971 22.5138 32.7899C22.4776 37.2826 26.1733 40.942 30.666 40.942Z" fill="#FFCF00"></path></svg>