<?xml version="1.0" encoding="UTF-8"?>
<svg xmlns="http://www.w3.org/2000/svg" width="70" height="58" viewBox="0 0 70 58" fill="none">
  <path d="M16.8247 34.985C22.7082 42.0274 30.2782 44.6343 35.8394 46.3188C41.4005 48.0033 47.5149 56.2603 47.5149 56.2603C47.5149 56.2603 40.4771 48.7751 39.8085 43.003C39.1399 37.2308 37.9212 29.3181 32.0378 22.2758C26.1543 15.2334 18.5843 12.627 13.0232 10.942C7.46199 9.25747 1.34766 1.00049 1.34766 1.00049C1.34766 1.00049 8.38546 8.48571 9.05353 14.2578C9.72212 20.0299 10.9408 27.9426 16.8247 34.985Z" stroke="white" stroke-width="2.017" stroke-miterlimit="10" stroke-linecap="round" stroke-linejoin="round"></path>
  <path d="M53.1765 34.9853C47.293 42.0276 39.723 44.6346 34.1618 46.3191C28.6007 48.0036 22.4863 56.2605 22.4863 56.2605C22.4863 56.2605 29.5241 48.7753 30.1927 43.0032C30.8613 37.2311 32.08 29.3184 37.9634 22.276C43.8474 15.2336 51.4169 12.6272 56.9781 10.9422C62.5392 9.25771 68.6536 1.00073 68.6536 1.00073C68.6536 1.00073 61.6158 8.48595 60.9477 14.2581C60.2791 20.0302 59.0604 27.9429 53.1765 34.9853Z" stroke="white" stroke-width="2.017" stroke-miterlimit="10" stroke-linecap="round" stroke-linejoin="round"></path>
</svg>
