<?xml version="1.0" encoding="UTF-8"?>
<svg xmlns="http://www.w3.org/2000/svg" width="60" height="60" viewBox="0 0 60 60" fill="none">
  <path d="M3.34992 59.9374C2.47407 59.1554 2.52099 58.4047 3.63145 57.998C5.96184 57.1378 8.30788 56.2933 10.7165 55.6207C13.9384 54.7292 17.2228 54.0254 20.4916 53.2591C20.8826 53.1652 21.039 53.0245 21.0703 52.6178C21.1329 51.8045 21.2736 50.9912 21.3987 50.1623C21.3205 50.1936 21.2423 50.1936 21.2111 50.2405C20.0693 51.6012 17.4887 51.6638 16.3782 49.4585C15.4555 47.6129 14.6265 45.7205 13.8132 43.828C12.6559 41.1535 11.4516 38.479 10.4506 35.742C9.69986 33.7088 9.24629 31.5504 8.6676 29.4546C8.29224 28.0783 7.94815 26.702 7.57279 25.3256C7.49458 25.0441 7.33818 24.7469 7.1505 24.5123C4.94523 21.8535 2.72431 19.2103 0.503402 16.5671C0.39392 16.4263 0.268798 16.3012 0.174957 16.1604C-0.106567 15.7225 -0.0440062 15.3002 0.331359 14.9405C0.675444 14.6121 1.25413 14.6121 1.59822 14.9874C2.06742 15.4879 2.48971 16.0197 2.92764 16.5514C4.86703 18.8662 6.82205 21.181 8.7458 23.5113C9.01169 23.8242 9.21501 24.2308 9.32449 24.6218C10.1691 27.7186 10.9042 30.8466 11.8426 33.9277C12.39 35.7264 13.172 37.4624 13.9227 39.1985C15.1427 42.0919 16.4095 44.9541 17.6764 47.8319C17.8171 48.1447 17.9735 48.4732 18.1769 48.7547C18.5209 49.2552 19.0214 49.4272 19.4906 49.2552C19.9442 49.0831 20.2257 48.5826 20.085 47.9883C19.8504 46.9717 19.5688 45.9551 19.256 44.9541C17.9735 40.7938 17.2228 36.5553 17.3479 32.176C17.3636 31.6286 17.4574 31.0812 17.5825 30.5651C17.8953 29.2826 18.7868 28.5162 20.1162 28.6101C21.1485 28.6726 22.1808 28.9541 23.1817 29.2357C24.0263 29.4703 24.824 29.8456 25.6529 30.1272C26.8415 30.5182 27.8269 30.0802 28.4525 28.8916C27.1387 28.3598 25.8249 27.828 24.5112 27.2963C23.2599 26.7958 22.0087 26.2953 20.7888 25.7635C20.4916 25.6384 20.2101 25.3882 19.9911 25.1379C19.6158 24.7156 19.2873 24.2464 18.9745 23.7772C17.8484 22.1037 16.2531 21.181 14.2981 20.8681C13.6099 20.7587 13.2189 20.4146 12.9217 19.7733C10.1691 13.7675 7.40074 7.77728 4.63242 1.77143C4.55422 1.59938 4.46038 1.4117 4.39782 1.23966C4.24142 0.739172 4.41346 0.363807 4.86703 0.113563C5.28931 -0.12104 5.77416 0.0197218 6.04004 0.426368C6.14952 0.58277 6.22773 0.770453 6.30593 0.942495C8.44864 5.572 10.5913 10.2172 12.7184 14.8467C12.8123 15.0343 12.9061 15.2377 12.953 15.3628C13.9071 14.1741 14.8299 12.9386 15.8465 11.7968C16.2844 11.2963 16.5659 10.7958 16.7692 10.1546C17.8641 6.51042 19.7878 3.44493 23.2912 1.70887C26.5913 0.0666424 30.0322 -0.496406 33.5825 0.942495C36.0224 1.92783 37.7897 3.71082 39.213 5.88481C39.385 6.16633 39.6665 6.40094 39.9637 6.57298C43.7017 8.77825 45.8444 11.9532 45.8913 16.3794C45.8913 16.833 45.7975 17.2865 45.8601 17.7557C45.9539 17.5837 46.0477 17.396 46.126 17.224C48.6284 11.7968 51.1308 6.36965 53.6333 0.926855C53.7115 0.770453 53.774 0.59841 53.8679 0.457648C54.1337 0.0510023 54.6186 -0.1054 55.0409 0.129203C55.4944 0.363807 55.6821 0.739172 55.5257 1.2553C55.4788 1.42734 55.4006 1.58374 55.3224 1.74015C52.5228 7.80856 49.7232 13.877 46.9236 19.9454C46.7203 20.3677 46.5013 20.743 45.9852 20.8056C43.4202 21.1184 41.6216 22.5729 40.3078 24.6844C39.8699 25.3882 39.2755 25.7792 38.5092 26.0763C36.3039 26.9209 34.1299 27.828 31.9559 28.7195C31.7995 28.7821 31.6431 28.8603 31.4867 28.9385C32.0341 30.0959 33.082 30.5494 34.255 30.1584C35.475 29.7518 36.6636 29.2357 37.8992 28.9072C38.7281 28.6883 39.6353 28.6413 40.4798 28.7195C41.387 28.7977 42.0595 29.4077 42.2315 30.2992C42.4505 31.4566 42.6225 32.6452 42.5913 33.8339C42.4661 38.0568 41.6685 42.1545 40.3078 46.1428C40.1045 46.7527 39.9637 47.3783 39.8386 48.0196C39.7135 48.6296 39.9637 49.0988 40.4173 49.2864C40.9021 49.4898 41.4495 49.3021 41.7623 48.7547C42.122 48.1291 42.4349 47.4878 42.7164 46.8153C44.4212 42.827 46.2041 38.8544 47.7838 34.8192C48.5345 32.8955 48.9099 30.8153 49.4573 28.7977C49.8327 27.4058 50.1768 26.0138 50.5678 24.6218C50.6773 24.2621 50.8493 23.8867 51.0995 23.6052C53.3987 20.8369 55.6978 18.0998 58.0125 15.3471C58.7007 14.5182 59.2481 14.5339 59.8894 15.3784C59.8894 15.5661 59.8894 15.7694 59.8894 15.9571C59.7486 16.1448 59.6235 16.3325 59.4671 16.5202C57.3713 19.0226 55.2911 21.525 53.1797 23.9962C52.6636 24.6062 52.2882 25.2318 52.1162 26.0294C51.8972 27.0617 51.6 28.0627 51.3185 29.0793C50.7398 31.2063 50.3488 33.396 49.5512 35.4292C47.7995 39.8397 45.8601 44.1721 43.9676 48.5357C43.7486 49.0518 43.4828 49.568 43.1543 50.0059C42.0595 51.4917 40.0888 51.6481 38.7438 50.3969C38.6656 50.3343 38.5874 50.2874 38.4466 50.1779C38.5717 51.0851 38.7125 51.914 38.775 52.7429C38.8063 53.1183 38.9784 53.2278 39.3068 53.306C42.6069 54.088 45.9226 54.7918 49.1758 55.6833C51.5375 56.3245 53.8522 57.1691 56.1357 58.0137C57.2931 58.436 57.3556 59.1711 56.4641 59.9687C56.2295 59.9687 55.9949 59.9687 55.7603 59.9687C54.6655 59.4995 53.5863 58.9365 52.4602 58.5767C47.7525 57.044 42.9197 55.9961 38.0869 54.9482C37.3361 54.7918 37.1328 54.5728 37.039 53.8378C36.9608 53.1809 36.8669 52.524 36.7887 51.8671C36.6636 50.9756 36.5385 50.0841 36.3977 49.0675C32.0185 52.4927 27.7018 52.3676 23.4163 48.9893C23.3069 49.74 23.2287 50.35 23.1348 50.9443C23.0566 51.5543 22.9628 52.1799 22.8846 52.8055C22.6187 54.9482 22.7751 54.7292 20.6793 55.1984C15.8465 56.262 11.0136 57.3099 6.33721 58.9365C5.53956 59.218 4.78882 59.6403 4.02245 60C3.81913 59.9374 3.58453 59.9374 3.34992 59.9374ZM43.8894 16.9581C43.9207 16.6609 43.9676 16.4263 43.9676 16.2074C44.0771 12.9229 41.6685 9.32566 38.4779 7.9806C36.7105 7.22987 34.8337 6.99526 32.9412 6.97962C32.1592 6.97962 31.7057 6.6199 31.7057 6.04121C31.7057 5.44688 32.1592 5.11844 32.9412 5.11844C33.0351 5.11844 33.1289 5.11844 33.2384 5.13408C34.2863 5.21228 35.3186 5.27484 36.4446 5.36868C35.256 3.99234 33.8796 2.99137 32.1749 2.47524C27.2638 0.958135 21.6021 3.61697 19.3968 8.46545C19.3342 8.60621 19.2873 8.76261 19.2873 8.76261C20.9452 8.04316 22.65 7.19859 24.4173 6.57298C25.8249 6.07249 27.3108 5.83789 28.7809 5.50944C29.2814 5.39996 29.6568 5.6502 29.8132 6.15069C29.954 6.60426 29.735 7.08911 29.2971 7.26115C29.125 7.33935 28.9217 7.35499 28.734 7.40191C27.6861 7.65215 26.6382 7.8242 25.606 8.137C20.5855 9.63846 16.6754 12.5475 14.2199 17.2709C13.8914 17.8965 14.3919 18.9757 15.0801 19.1477C16.7692 19.57 18.3489 20.1956 19.5219 21.572C19.5376 21.5876 19.5845 21.5876 19.647 21.6032C22.7594 18.3657 26.7164 16.7391 31.0488 15.9102C35.3811 15.05 39.6353 15.3628 43.8894 16.9581ZM29.9383 30.1272C29.8132 30.2679 29.7506 30.3461 29.6724 30.44C28.3899 32.0509 26.6851 32.5358 24.777 31.8319C24.1201 31.5973 23.4789 31.3002 22.8064 31.0969C21.9931 30.8466 21.1641 30.612 20.3196 30.4556C19.6314 30.3461 19.3812 30.5651 19.2873 31.2376C19.1935 32.0353 19.1153 32.8329 19.1309 33.6306C19.1622 36.743 19.7722 39.7928 20.476 42.8114C20.5542 43.1398 20.6949 43.4996 20.8983 43.7654C22.2902 45.5953 23.9168 47.175 25.9031 48.3793C28.2804 49.8338 30.7203 50.1623 33.2697 48.8172C35.5375 47.6286 37.3674 45.9394 38.9471 43.9375C39.0566 43.7967 39.1348 43.5934 39.1817 43.4057C39.6196 41.2786 40.0888 39.1359 40.4485 36.9932C40.7613 35.1633 40.8708 33.3178 40.5893 31.4566C40.4485 30.4869 40.1827 30.2679 39.2286 30.4712C38.384 30.6589 37.5395 30.9405 36.7105 31.2063C35.8816 31.4722 35.0683 31.8789 34.2237 32.0353C32.4251 32.395 31.0175 31.6599 29.9383 30.1272ZM20.8201 23.1203C21.1329 23.7459 21.5864 24.1213 22.259 24.3872C24.6988 25.3256 27.0918 26.3422 29.5317 27.2963C29.7819 27.3901 30.1416 27.3745 30.4075 27.2806C32.7848 26.3422 35.1309 25.3413 37.5082 24.4341C38.3215 24.1213 38.8063 23.5739 39.2286 22.8545C38.9314 22.5417 38.6656 22.1976 38.3528 21.916C37.6489 21.2748 36.9295 20.6335 36.21 20.0236C35.647 19.5387 35.5062 19.0382 35.8816 18.569C36.2413 18.1155 36.7887 18.0998 37.3831 18.5534C37.4456 18.6003 37.5082 18.6472 37.5707 18.6942C38.5561 19.57 39.5414 20.4615 40.4798 21.3061C41.0429 20.8994 41.5903 20.4146 42.2003 20.0705C42.8102 19.7264 43.4984 19.5074 44.1709 19.2416C37.5395 15.5348 25.6529 17.3804 20.8201 23.1203Z" fill="white"></path>
  <path d="M29.9546 46.7841C29.4385 46.6276 28.938 46.5182 28.4844 46.2992C27.2801 45.7205 26.326 44.829 25.4815 43.828C25.0435 43.3119 25.1843 42.6394 25.8256 42.3735C26.9829 41.9043 28.1403 41.4507 29.3446 41.1379C29.892 40.9972 30.5646 41.1066 31.1276 41.263C32.0817 41.5289 33.0044 41.9043 33.9116 42.2953C34.7092 42.6237 34.8813 43.3588 34.2713 43.9219C33.3798 44.7508 32.4257 45.5328 31.4404 46.2366C31.0338 46.5494 30.4551 46.612 29.9546 46.7841ZM27.9057 43.5778C29.5479 45.1887 30.3299 45.2513 31.9096 43.5622C30.5802 42.7958 29.2508 42.8114 27.9057 43.5778Z" fill="white"></path>
  <path d="M30.2352 40.1058C29.2029 40.0745 28.3584 39.6679 27.6858 38.9172C27.3105 38.5105 27.3261 37.9631 27.6858 37.6034C28.0299 37.2593 28.5304 37.2437 28.9527 37.5721C30.1257 38.4636 30.376 38.4636 31.5177 37.5252C31.9243 37.1967 32.4405 37.1967 32.7846 37.5408C33.1443 37.8849 33.1912 38.401 32.8471 38.8077C32.1746 39.6366 31.2831 40.0745 30.2352 40.1058Z" fill="white"></path>
</svg>
