<?xml version="1.0" encoding="UTF-8"?>
<svg xmlns="http://www.w3.org/2000/svg" width="61" height="60" viewBox="0 0 61 60" fill="none">
  <path d="M9.97865 32.1607C9.8028 30.49 10.5062 29.2591 11.7372 28.1688C11.491 28.0457 11.28 27.9577 11.0865 27.8346C10.26 27.2719 9.34558 26.7971 8.64216 26.0937C7.28809 24.7396 7.34084 22.8404 8.64216 21.4336C9.6797 20.3081 11.0338 19.6574 12.4582 19.2002C13.8474 18.7606 15.2894 18.444 16.7314 18.0572C16.6259 17.7582 16.4677 17.4241 16.3973 17.0724C16.1511 15.8238 16.6435 14.839 17.5755 14.0477C18.7889 13.0102 20.2661 12.465 21.796 12.1485C27.3882 10.9527 32.9804 10.8999 38.5373 12.3595C39.6452 12.6409 40.7355 13.1684 41.6851 13.8015C43.9009 15.3138 43.8657 17.7758 41.6324 19.253C40.7179 19.8685 39.6452 20.2553 38.7484 20.7126C39.1528 21.3456 39.6276 22.0666 40.1024 22.77C40.1552 22.858 40.2607 22.9283 40.3662 22.9635C41.861 23.4911 43.1447 24.3527 44.1295 25.6541C45.7122 22.4887 48.561 21.3808 51.7264 20.7653C52.3067 20.6598 52.6057 21.0115 52.7815 21.5215C53.7663 24.4758 54.1004 27.395 52.2188 30.1911C52.6936 30.3142 53.1508 30.4021 53.5904 30.5428C56.2458 31.4221 57.8813 33.4092 59.1474 35.7657C59.376 36.1877 59.3233 36.6449 58.9188 36.9615C56.6855 38.6145 54.2938 39.8279 51.3923 39.441C51.023 39.3882 50.6713 39.3003 50.214 39.2124C50.7064 41.4106 50.1437 43.3801 48.9127 45.2442C49.1589 45.3849 49.3699 45.4904 49.5458 45.6311C50.3196 46.229 51.1812 46.7565 51.8495 47.4599C53.7663 49.4647 53.7311 51.8915 51.8143 53.9138C50.4602 55.3558 48.7369 56.2351 46.9432 56.9561C43.3382 58.3981 39.5573 59.1191 35.7061 59.5587C31.5559 60.0335 27.3882 60.1214 23.2205 59.8401C18.1031 59.4884 13.0561 58.7849 8.29046 56.7626C6.90121 56.1647 5.52955 55.3734 4.36891 54.4238C1.66076 52.208 1.66076 49.3064 4.2634 46.9324C4.65028 46.5807 5.07233 46.2641 5.54713 45.8948C5.35369 45.7893 5.17784 45.719 5.03716 45.6135C4.05238 44.9804 2.96208 44.4528 2.08281 43.6791C-0.678095 41.2699 -0.572583 37.9287 2.24108 35.5898C4.29857 33.8664 6.76053 33.0223 9.29282 32.3541C9.46868 32.2837 9.69729 32.231 9.97865 32.1607ZM47.8224 46.5807C47.6466 46.8445 47.5938 46.9324 47.5235 47.0203C46.609 48.0403 46.3453 48.093 45.2901 47.2138C44.2526 46.3521 43.2854 45.42 42.2303 44.4704C40.5245 45.6311 38.5373 46.4048 36.4623 46.9676C33.121 47.882 29.7095 48.304 26.2803 48.4447C20.2309 48.7085 14.2343 48.4975 8.34321 46.862C8.07943 46.7917 7.71014 46.8093 7.48153 46.95C6.74294 47.4072 5.98677 47.882 5.3537 48.4623C3.82377 49.9043 3.82377 51.4167 5.42404 52.8059C6.26814 53.5445 7.25292 54.1776 8.27287 54.67C12.2648 56.6044 16.5908 57.3781 20.9519 57.8353C26.21 58.3805 31.468 58.3101 36.6909 57.5891C40.2607 57.0967 43.7602 56.323 47.0663 54.8282C48.35 54.2479 49.5634 53.5621 50.5306 52.507C51.6736 51.276 51.744 49.9747 50.5833 48.7613C49.792 47.9699 48.8072 47.3544 47.8224 46.5807ZM31.5735 38.4211C30.6591 38.4211 29.815 38.4211 28.9533 38.4211C24.9087 38.4562 20.8816 38.2628 16.9601 37.2077C14.7267 36.6098 12.5637 35.836 10.9107 34.0775C10.8052 33.9544 10.5062 33.9368 10.3304 33.9895C9.48626 34.2006 8.62458 34.4116 7.79807 34.6754C6.0747 35.2381 4.43925 35.9415 3.08518 37.1901C2.38176 37.8583 1.8542 38.6321 1.8542 39.652C1.83662 40.9182 2.5752 41.7799 3.47206 42.5185C4.80855 43.6263 6.39123 44.2946 8.00909 44.8221C11.3855 45.93 14.885 46.3872 18.4021 46.5807C23.9415 46.862 29.4457 46.7038 34.8796 45.4728C37.0074 44.998 39.0649 44.3297 40.9114 43.1339C41.1048 43.0108 41.3334 42.7119 41.3158 42.5185C41.2279 41.7623 41.0345 41.0237 40.8938 40.2675C40.3838 40.461 39.8562 40.7072 39.2935 40.8654C36.9722 41.5161 34.7916 40.9885 32.6462 40.1093C31.8725 39.7927 31.2922 39.4058 31.5735 38.4211ZM57.2658 36.0119C55.6479 33.1103 53.0629 31.3693 49.9151 32.3013C49.4051 32.4596 48.9303 32.3717 48.6841 31.8265C48.4555 31.2814 48.6489 30.8242 49.1413 30.5252C51.9198 28.8898 52.377 25.7772 51.234 22.6997C50.1261 22.9107 49.0534 23.2976 48.0862 23.8955C46.5211 24.8627 45.6594 26.2871 45.5012 28.0984C45.4484 28.7139 45.4484 29.3294 44.6746 29.4701C44.1295 29.5756 43.7954 29.2239 43.514 28.327C43.4964 28.2919 43.4964 28.2391 43.4788 28.2039C42.5996 25.5661 39.2759 23.6493 36.6381 24.2648C36.6381 24.7924 36.6205 25.3551 36.6381 25.8827C36.7788 28.5205 37.9218 30.4373 40.4893 31.3693C41.1224 31.5979 41.4038 32.0551 41.2455 32.5651C41.0696 33.1454 40.6124 33.2685 40.0497 33.2509C36.8491 33.1454 34.2641 35.2205 33.6838 38.3859C34.1058 38.5266 34.5279 38.7024 34.9675 38.8255C37.6581 39.6344 40.0497 39.3003 41.861 36.9263C42.1951 36.5042 42.6347 36.3811 43.0744 36.6449C43.5492 36.9439 43.6019 37.4187 43.3733 37.9287C42.2479 40.5665 42.9689 43.345 46.3453 45.6135C46.8025 44.9628 47.3124 44.3297 47.7169 43.6263C48.8951 41.604 48.8951 39.5993 47.5762 37.6297C47.2773 37.1901 47.0487 36.7153 47.5411 36.2756C48.0334 35.836 48.4731 36.135 48.9655 36.4163C49.7041 36.856 50.4602 37.3659 51.2868 37.577C53.5553 38.1573 55.4369 37.1725 57.2658 36.0119ZM37.5701 22.4183C36.726 21.8204 36.0754 21.2401 35.0378 21.3984C32.2066 21.838 29.3578 21.8732 26.5089 21.6622C24.1525 21.4863 21.7785 21.205 19.5979 20.2378C18.8593 19.9212 18.1734 19.9036 17.4349 20.0091C16.9601 20.0795 16.4853 20.1498 16.0104 20.2378C14.0761 20.6246 12.1417 21.0467 10.5062 22.2425C9.06421 23.2976 9.02904 24.5813 10.559 25.4958C11.6844 26.1816 12.9506 26.7092 14.2167 27.0609C18.1383 28.1512 22.1829 28.2391 26.2276 28.0984C28.9005 28.0105 31.5559 27.7291 34.141 26.9554C34.5103 26.8499 34.651 26.7092 34.651 26.2871C34.6334 25.3551 34.6861 24.4055 34.7389 23.4559C34.7916 22.7173 35.1434 22.4359 35.8995 22.4183C36.3919 22.4183 36.9019 22.4183 37.5701 22.4183ZM35.0027 28.5732C34.6686 28.6787 34.2641 28.8194 33.8245 28.9074C27.5465 30.3669 21.2509 30.279 14.9729 29.0656C14.1112 28.9074 13.5133 29.048 12.8802 29.5756C11.4031 30.8066 11.3327 32.2837 12.8978 33.4092C13.865 34.1126 15.0081 34.6929 16.1511 35.0622C21.3388 36.7153 26.6672 36.768 32.0307 36.4163C32.189 36.3987 32.4 36.258 32.4704 36.135C33.4903 34.095 34.9323 32.5299 37.0426 31.8441C36.3919 30.7714 35.7237 29.7163 35.0027 28.5732ZM30.7646 19.9916C31.978 19.8509 34.3344 19.6399 36.6733 19.2706C38.1153 19.0419 39.5397 18.5847 40.7179 17.6351C41.562 16.9493 41.6148 16.2107 40.7883 15.56C40.1904 15.1028 39.5045 14.7159 38.8011 14.4522C36.8491 13.696 34.7741 13.4322 32.6814 13.3091C29.2171 13.1157 25.7528 13.1333 22.3412 13.907C21.0223 14.206 19.7034 14.5928 18.6483 15.5249C17.8569 16.2283 17.8393 17.002 18.6658 17.6351C19.2989 18.1099 20.0375 18.5144 20.7937 18.7782C23.6425 19.7981 26.632 19.886 30.7646 19.9916Z" fill="white"></path>
  <path d="M49.2991 10.5483C50.2136 9.77456 51.2511 9.37009 52.4293 9.44044C53.9065 9.54595 55.2606 10.0383 56.5267 10.7418C57.5819 11.3221 58.6018 11.9727 59.5866 12.6586C59.8855 12.8696 60.1845 13.362 60.1493 13.6609C60.0966 13.9423 59.6218 14.2764 59.2701 14.3819C58.1798 14.7336 57.195 15.2964 56.4388 16.1229C55.032 17.6528 53.3614 17.8287 51.4973 17.2835C49.4574 16.6856 47.6285 15.6305 45.9403 14.3819C45.7821 14.2588 45.6062 14.0478 45.5886 13.872C45.4479 12.5531 44.6742 11.5683 43.7773 10.7418C42.3001 9.37009 42.1419 7.76982 42.6519 5.9937C43.2498 3.90104 44.3752 2.07215 45.6941 0.366371C45.87 0.137761 46.3272 -0.0556781 46.5734 0.0146635C46.8372 0.085005 47.1713 0.436713 47.2241 0.718079C47.4351 1.87872 48.0682 2.81074 48.8771 3.56691C50.4949 5.04409 50.618 6.76746 49.985 8.68426C49.8091 9.29975 49.5453 9.91524 49.2991 10.5483ZM46.7141 11.4803C47.5758 10.1263 48.3847 8.73702 48.6133 7.13675C48.6836 6.64436 48.6309 6.01128 48.3495 5.64199C47.6637 4.67479 46.8372 3.79552 45.9227 2.7404C45.3424 4.12965 44.7269 5.43097 44.2345 6.78504C43.9708 7.52363 44.0059 8.33256 44.6038 9.01839C45.3072 9.77456 45.9755 10.6011 46.7141 11.4803ZM48.4199 13.8192C49.7739 14.6457 51.1632 15.4195 52.7635 15.7008C53.4317 15.8239 54.0648 15.736 54.6099 15.2788C55.4189 14.593 56.2629 13.9247 57.1246 13.2389C55.7354 12.4124 54.2934 11.5859 52.6228 11.3221C51.9369 11.2166 51.339 11.3924 50.8115 11.8672C50.0553 12.5355 49.2464 13.151 48.4199 13.8192Z" fill="white"></path>
  <path d="M11.1925 11.5681C9.25812 9.73918 9.57465 7.68169 10.5067 5.67695C11.2277 4.11185 12.1949 2.66985 13.1093 1.21026C13.25 0.981654 13.7072 0.788214 13.971 0.8058C14.2172 0.84097 14.5865 1.17509 14.6392 1.42129C14.8854 2.65227 15.5889 3.61946 16.4505 4.41081C17.9805 5.83522 18.1212 7.48825 17.5408 9.3523C16.9078 11.3395 15.8351 13.0804 14.5865 14.7334C14.4458 14.9269 14.1996 15.1203 13.971 15.1731C12.8455 15.4193 11.9135 16.0172 11.1749 16.8261C9.55707 18.6198 7.62268 18.7781 5.60036 17.934C3.78906 17.1778 2.10086 16.1578 0.377493 15.2082C0.166468 15.0851 -0.044557 14.6631 0.00819924 14.4521C0.113712 14.1355 0.395078 13.7311 0.676444 13.6607C2.03052 13.2738 3.1384 12.5353 4.12318 11.5505C5.3014 10.3547 6.70823 10.1436 8.25575 10.5481C9.18778 10.8119 10.1198 11.1988 11.1925 11.5681ZM14.2348 12.4825C14.8151 11.1108 15.4482 9.82711 15.8878 8.47303C16.0813 7.89271 16.0285 7.03103 15.7295 6.53864C15.1141 5.53627 14.2348 4.70976 13.4434 3.76015C12.5993 5.14939 11.7904 6.55622 11.6146 8.20925C11.5618 8.70164 11.6321 9.31713 11.9135 9.68643C12.5642 10.636 13.3731 11.4625 14.2348 12.4825ZM11.8608 13.9421C10.5067 13.3618 9.20536 12.7639 7.85128 12.2715C7.20063 12.0253 6.44445 11.9549 5.82897 12.3946C4.87935 13.0804 4.00008 13.8542 3.05047 14.6279C4.38696 15.4368 5.74104 16.193 7.28855 16.492C7.99197 16.6327 8.6778 16.5975 9.2757 16.0875C10.0495 15.4017 10.876 14.751 11.8608 13.9421Z" fill="white"></path>
  <path d="M25.4892 55.4614C20.9874 55.2679 16.5383 54.6876 12.2123 53.3863C12.0364 53.3335 11.8781 53.2984 11.7199 53.228C11.1747 53.017 10.8934 52.507 11.0516 52.0498C11.2275 51.575 11.7199 51.3288 12.2826 51.4871C13.5136 51.8212 14.727 52.2081 15.958 52.4718C19.7564 53.3335 23.6252 53.6149 27.5116 53.6677C27.8457 53.6677 28.2853 53.8259 28.4612 54.0545C28.9184 54.6524 28.4612 55.4262 27.6522 55.4614C27.283 55.479 26.9137 55.4614 26.5268 55.4438C26.1751 55.4614 25.8409 55.4614 25.4892 55.4614Z" fill="white"></path>
  <path d="M20.5132 43.9956C16.5213 43.8197 12.547 43.5032 8.73097 42.2018C7.6055 41.815 6.55038 41.2171 5.49526 40.6367C4.86218 40.285 4.73909 39.7047 5.07321 39.2651C5.42492 38.7903 5.93489 38.7903 6.56797 39.1947C8.34409 40.3554 10.3664 40.8654 12.4063 41.2874C15.6069 41.9556 18.8777 42.1315 22.131 42.1843C22.2893 42.1843 22.43 42.1843 22.5883 42.2018C23.1686 42.2194 23.5027 42.4832 23.5203 43.0811C23.5379 43.6263 23.1686 43.9956 22.5531 44.0131C21.8673 43.9956 21.1814 43.9956 20.5132 43.9956Z" fill="white"></path>
  <path d="M22.5338 25.6015C20.4587 25.3377 18.366 25.0915 16.291 24.8101C15.57 24.7046 15.2358 24.2474 15.3414 23.6495C15.4469 23.1219 15.8865 22.9109 16.5723 22.9637C18.9288 23.1747 21.2676 23.3857 23.6241 23.5616C24.433 23.6319 24.8023 23.8781 24.8023 24.476C24.8023 25.0915 24.3451 25.4608 23.5889 25.4784C23.2372 25.4784 22.8855 25.4784 22.5338 25.4784C22.5338 25.5311 22.5338 25.5663 22.5338 25.6015Z" fill="white"></path>
  <path d="M25.928 34.0073C23.5715 33.6732 21.2151 33.3391 18.8586 33.0049C18.7004 32.9873 18.5597 32.9346 18.419 32.8994C17.8387 32.7587 17.6277 32.3367 17.7332 31.8091C17.8387 31.2992 18.2607 31.1057 18.7355 31.1761C19.4741 31.2816 20.1951 31.4926 20.9337 31.5453C23.2198 31.7388 25.5059 31.9146 27.8096 32.0729C28.3723 32.1081 28.812 32.2312 28.9175 32.8643C29.0054 33.427 28.6361 33.8842 28.0206 33.9018C27.3524 33.937 26.6666 33.9018 25.9807 33.9018C25.9456 33.9194 25.928 33.9545 25.928 34.0073Z" fill="white"></path>
</svg>
