<?xml version="1.0" encoding="UTF-8"?>
<svg xmlns="http://www.w3.org/2000/svg" width="60" height="60" viewBox="0 0 60 60" fill="none">
  <path d="M8.15855 41.5359C7.41536 39.6036 6.68869 37.7209 5.9455 35.8051C6.54005 35.5739 7.1346 35.3427 7.77869 35.095C8.04294 35.7556 8.27415 36.3501 8.52188 36.9612C9.0834 38.398 9.62841 39.8349 10.1899 41.2717C10.4211 41.8827 10.6689 41.9488 11.2964 41.6185C10.3386 38.8604 9.36416 36.0859 8.38976 33.2618C9.01734 33.0471 9.59537 32.8324 10.2395 32.6177C10.3386 32.8819 10.4377 33.1296 10.5202 33.3774C11.5772 36.4327 12.6507 39.4715 13.7077 42.5268C13.8728 43.0058 14.0875 43.4187 14.6491 43.204C15.2271 42.9893 15.095 42.5268 14.9463 42.0644C13.8233 38.8274 12.7002 35.5739 11.5937 32.3204C11.5442 32.1883 11.5277 32.0396 11.4616 31.8415C12.0562 31.6268 12.6507 31.4286 13.2618 31.1974C13.8728 32.9975 14.4839 34.7647 15.095 36.5318C15.3922 37.4071 15.6235 38.3154 15.9868 39.1577C16.1685 39.6036 16.5153 40.0495 16.9116 40.3138C17.5392 40.7267 18.2163 40.3468 18.1668 39.5871C18.1338 38.877 17.9851 38.1503 17.7374 37.4897C16.5648 34.2197 15.3592 30.9661 14.1536 27.6961C14.0875 27.4979 14.005 27.3163 13.9719 27.1181C13.8068 26.2923 14.5004 25.6813 15.2766 25.9785C16.218 26.3419 17.1263 26.7713 18.0677 27.1511C18.7779 27.4484 19.2898 27.3163 19.5541 26.7878C19.8183 26.2758 19.6367 25.8299 19.0091 25.4005C16.9282 23.9967 14.8472 22.5929 12.7663 21.1726C12.5021 20.9909 12.2213 20.7432 12.1387 20.4624C11.5772 18.5962 11.0817 16.7135 10.5367 14.7647C11.1808 14.583 11.7754 14.4178 12.436 14.2197C12.8819 15.8712 13.3278 17.4732 13.7737 19.0586C13.8398 19.3064 13.9884 19.5376 14.1536 19.7358C14.583 20.2147 15.0619 20.1982 15.6235 19.9009C17.9026 18.7118 19.2073 16.8456 19.6367 14.2857C19.1082 14.104 18.6127 13.9719 18.1338 13.7903C15.706 12.8324 14.2031 10.9992 13.3609 8.60446C12.5021 6.12717 12.403 3.5673 12.6507 0.974401C12.6672 0.825764 12.7002 0.693642 12.7168 0.545004C12.7168 0.511974 12.7498 0.478943 12.8159 0.396367C13.3939 0.495458 13.9884 0.59455 14.5665 0.693642C14.5665 2.03138 14.4839 3.3526 14.5995 4.65731C14.6986 5.78035 14.8968 6.9199 15.2436 7.97688C16.3832 11.3295 19.3394 12.981 22.9067 12.3699C25.6317 11.9075 27.9108 10.5367 30.0413 8.88522C33.1462 6.50702 35.7721 3.63336 38.1833 0.545004C38.3154 0.363336 38.4641 0.198183 38.6127 0C38.7448 0.0825764 38.8604 0.148638 38.9595 0.214699C39.3559 0.495458 39.7523 0.792733 40.2477 1.13955C39.422 2.14699 38.6457 3.15442 37.82 4.1123C35.6895 6.5896 33.3939 8.88522 30.7349 10.801C28.0099 12.7663 25.1197 14.3187 21.6185 14.4509C21.1561 17.5557 19.5871 19.9339 16.796 21.5524C17.9521 22.3287 19.0586 23.0884 20.1652 23.8315C20.7762 24.2444 21.2552 24.7729 21.4699 25.4996C21.8167 26.6391 21.569 27.6796 20.7102 28.5054C19.8514 29.3311 18.8274 29.5623 17.6879 29.166C17.3741 29.0504 17.0603 28.9183 16.6309 28.7531C17.1098 30.0578 17.5392 31.2799 17.9851 32.4855C18.5797 34.104 19.1742 35.7225 19.7523 37.3576C19.9174 37.8365 20.0661 38.3485 20.1321 38.8439C20.3964 41.0239 19.3559 42.2626 17.0768 42.5103C16.9777 43.8646 16.3666 44.8555 14.9628 45.1693C13.7077 45.45 12.7498 44.9216 11.9405 43.6003C11.0818 43.9141 10.2395 43.8976 9.41371 43.4187C9.28158 43.3361 9.06689 43.4021 8.88522 43.4352C7.8943 43.6829 6.96945 43.5343 6.12717 42.9397C5.59868 42.5764 5.25186 42.0974 5.0867 41.4699C4.44261 39.0586 3.782 36.6639 3.12139 34.2692C3.08836 34.1536 3.05533 34.038 2.90669 33.9389C2.90669 42.5599 2.90669 51.1808 2.90669 59.8514C2.21305 59.8514 1.58547 59.8514 0.891825 59.8514C0.891825 59.6202 0.891825 59.4055 0.891825 59.1908C0.90834 50.3551 0.90834 41.5194 0.924855 32.6837C0.924855 31.9405 0.990917 31.1974 1.12304 30.4707C1.33774 29.2816 1.58547 28.109 1.46986 26.8704C1.37077 25.8299 1.63501 24.7564 2.34517 23.9802C3.63336 22.5434 3.64988 20.8753 3.40215 19.1577C3.27002 18.2824 2.98927 17.4071 2.62593 16.5813C1.80017 14.6821 0.891825 12.8159 0 10.8836C0.59455 10.6028 1.17258 10.3386 1.78365 10.0578C2.13047 10.7845 2.44426 11.4616 2.75805 12.1552C3.38563 13.493 4.01321 14.8307 4.62428 16.185C5.58216 18.2824 5.68125 20.4955 5.25186 22.7085C5.13625 23.3361 4.7564 23.9802 4.36003 24.5087C3.45169 25.6647 3.22048 26.9364 3.5673 28.2907C4.39306 31.4781 5.28489 34.6491 6.14368 37.82C6.40793 38.8109 6.7052 39.8018 6.95293 40.7927C7.08505 41.3708 7.49793 41.5359 8.15855 41.5359Z" fill="white"></path>
  <path d="M55.1461 36.5153C54.6011 38.2164 53.9901 39.8844 53.5111 41.602C53.0487 43.2701 51.199 43.9802 49.8447 43.6169C49.3823 43.4848 49.0024 43.6004 48.5565 43.683C47.8959 43.8151 47.2023 43.716 46.4096 43.716C45.7324 44.8225 44.6589 45.4336 43.2056 44.9546C41.9504 44.5417 41.4384 43.5673 41.3889 42.2957C41.3559 42.2791 41.3228 42.2296 41.2898 42.2296C39.2089 42.0149 38.1024 40.5616 38.4987 38.4972C38.6309 37.8365 38.829 37.1759 39.0933 36.5484C40.1007 34.0876 41.1412 31.6598 42.1816 29.2156C42.2642 29.0339 42.3303 28.8522 42.4459 28.5384C42.033 28.6706 41.7357 28.7862 41.4219 28.8687C40.0016 29.2981 38.5318 28.6706 37.8877 27.3493C37.2436 26.0281 37.6399 24.4757 38.8951 23.6334C39.6878 23.1049 40.5136 22.6425 41.3063 22.147C41.4715 22.0479 41.6366 21.9158 41.7357 21.8663C40.8439 21.1561 39.886 20.545 39.0933 19.7523C37.6069 18.2825 36.8142 16.4658 36.5664 14.3849C36.5334 14.1206 36.3352 13.8233 36.1205 13.6747C35.4434 13.1792 34.7167 12.7498 33.957 12.2544C34.3204 11.6929 34.6507 11.1644 35.0305 10.6029C36.3352 11.4451 37.5904 12.2544 38.8456 13.0636C39.2915 13.3609 39.7374 13.6582 40.1998 13.9224C41.8678 14.8308 43.6515 13.972 43.8992 12.1057C44.3782 8.57147 44.7911 5.03721 45.237 1.50294C45.2865 1.15612 45.3361 0.82581 45.3856 0.429443C46.0462 0.51202 46.6408 0.594596 47.3179 0.677172C47.1858 1.73415 47.0702 2.77461 46.938 3.79856C46.5912 6.58964 46.2444 9.39724 45.8645 12.1883C45.4021 15.607 42.1982 17.242 39.1593 15.607C39.0768 15.5574 38.9777 15.5244 38.796 15.4253C39.2419 16.9612 40.0512 18.1338 41.2238 19.0587C41.6366 19.389 42.1321 19.6202 42.578 19.9175C43.602 20.6111 44.5433 20.3964 45.4186 19.6367C45.5838 19.5046 45.6994 19.2899 45.7655 19.0752C46.3105 17.4732 46.8224 15.8712 47.3674 14.2197C47.995 14.4179 48.5896 14.6161 49.2337 14.8308C48.7382 16.3502 48.2097 17.787 47.8133 19.2734C47.5161 20.3799 46.938 21.1231 45.9141 21.6846C43.9983 22.7581 42.1486 23.9472 40.2493 25.0868C39.8034 25.351 39.4896 25.6813 39.5887 26.2263C39.7043 26.8539 40.2989 27.1677 40.976 26.9199C41.8844 26.6062 42.7927 26.2593 43.6845 25.896C44.1635 25.7143 44.6094 25.6483 44.9892 26.0612C45.3691 26.474 45.27 26.9199 45.0883 27.3824C43.668 30.7845 42.2312 34.1702 40.8274 37.5723C40.6127 38.0843 40.464 38.6293 40.4145 39.1743C40.3484 40.0661 41.0421 40.4955 41.7853 39.9835C42.1816 39.7193 42.5119 39.2403 42.6936 38.7944C43.6845 36.3502 44.6094 33.8894 45.5673 31.4451C45.6003 31.346 45.6498 31.2635 45.7159 31.1148C46.3105 31.346 46.872 31.5773 47.5161 31.825C47.2518 32.5351 47.0206 33.2288 46.7399 33.9059C45.6498 36.6144 44.5598 39.3229 43.4698 42.0314C43.3047 42.4608 43.3047 42.8242 43.7506 43.0223C44.2295 43.237 44.5268 42.9728 44.7085 42.5269C44.7415 42.4278 44.7911 42.3287 44.8241 42.2461C46.0297 39.2569 47.2353 36.2511 48.4244 33.2618C48.4905 33.0967 48.573 32.9315 48.6721 32.6838C49.2667 32.915 49.8447 33.1462 50.4888 33.3939C49.3823 36.152 48.2923 38.877 47.2023 41.602C47.7803 42.0149 48.028 41.9654 48.2923 41.3543C49.1841 39.3394 50.0759 37.3246 51.0008 35.2436C51.5953 35.5079 52.1734 35.7556 52.801 36.0364C51.9752 37.9026 51.1659 39.7358 50.3567 41.5855C51.0503 41.7341 51.3476 41.5855 51.5458 40.9744C52.834 37.0603 54.1057 33.1627 55.3773 29.2486C55.9223 27.5971 55.8728 26.0612 54.7828 24.5583C54.3038 23.8976 54.0726 22.9728 54.0066 22.147C53.8414 20.4129 54.1222 18.6953 54.7167 17.0438C55.5425 14.7482 56.3848 12.4526 57.2436 10.0578C57.8711 10.2725 58.4492 10.4872 59.0933 10.7185C58.9281 11.1974 58.796 11.6103 58.6309 12.0397C57.9537 13.9224 57.2601 15.7886 56.583 17.6714C56.071 19.0917 55.8563 20.545 55.9719 22.0479C56.0049 22.5764 56.1866 23.171 56.4839 23.6004C57.8381 25.4171 57.9372 27.3824 57.3757 29.4798C57.2601 29.9092 57.194 30.3716 57.194 30.8176C57.194 40.3138 57.194 49.8101 57.194 59.3064C57.194 59.4716 57.1775 59.6367 57.161 59.8349C56.5334 59.8349 55.9223 59.8349 55.2452 59.8349C55.2452 52.0727 55.2452 44.294 55.2452 36.5153C55.2783 36.5153 55.2122 36.5153 55.1461 36.5153Z" fill="white"></path>
  <path d="M27.6156 26.1765C28.3093 26.2261 28.9203 26.2921 29.581 26.3417C29.4819 27.6629 29.4158 28.9015 29.2837 30.1567C28.7387 35.3095 29.1516 40.3797 30.3241 45.4168C31.4141 50.1237 31.5628 54.9131 31.0178 59.719C31.0013 59.8016 30.9847 59.8677 30.9352 59.9998C30.3241 59.9172 29.7131 59.8512 29.0359 59.7521C29.0855 59.2401 29.1185 58.7612 29.1681 58.2822C29.5975 53.4598 29.0855 48.7199 28.012 44.013C26.9881 39.5209 26.8394 34.9626 27.2688 30.3879C27.4009 29.0006 27.5 27.6299 27.6156 26.1765Z" fill="white"></path>
  <path d="M12.7 59.8513C12.0559 59.8513 11.4449 59.8513 10.8008 59.8513C10.8008 56.251 10.8008 52.6837 10.8008 49.0503C11.4118 49.0503 12.0394 49.0503 12.7 49.0503C12.7 52.6176 12.7 56.2179 12.7 59.8513Z" fill="white"></path>
  <path d="M46.4062 49.0339C47.0669 49.0339 47.6779 49.0339 48.3055 49.0339C48.3055 52.6343 48.3055 56.2181 48.3055 59.8349C47.6944 59.8349 47.0669 59.8349 46.4062 59.8349C46.4062 56.2511 46.4062 52.6673 46.4062 49.0339Z" fill="white"></path>
</svg>
