<?xml version="1.0" encoding="UTF-8"?>
<svg xmlns="http://www.w3.org/2000/svg" width="64" height="62" viewBox="0 0 64 62" fill="none">
  <path d="M11.2227 10.2275C16.6613 4.54134 24.3241 1 32.8137 1C49.3122 1 62.6864 14.5006 62.6864 30.9996M62.6864 30.9996C62.6864 31.0832 62.6873 30.9159 62.6864 30.9996ZM62.6864 30.9996C62.6864 47.498 49.3122 61 32.8137 61C24.916 61 17.7335 57.9351 12.3921 52.9297M51.4791 16.673C54.6012 20.6698 56.4627 25.7004 56.4627 31.1482M56.4627 31.1482C56.4627 31.214 56.4631 31.0828 56.4627 31.1482ZM56.4627 31.1482C56.4627 39.1998 52.3962 46.3395 46.2048 50.5787M35.0122 47.8908C38.7941 51.4386 41.5688 54.0416 41.5688 54.0416M18.7927 13.1465C18.7927 13.1465 33.6367 27.0717 41.4524 34.4033M50.2045 27.8788L22.8567 53.5333M46.9357 14.1808C43.811 17.112 38.9142 21.7059 34.3494 25.9877M15.1888 34.1618C15.0999 34.2677 15.2791 34.0567 15.1888 34.1618ZM15.1888 34.1618C-2.41672 54.7416 35.7687 51.7673 15.1888 34.1618ZM15.1888 34.1618C-5.39101 16.5562 -2.41672 54.7416 15.1888 34.1618ZM15.1888 34.1618C15.0986 34.2655 15.2782 34.0571 15.1888 34.1618ZM15.1888 34.1618C15.099 34.2672 15.2777 34.0558 15.1888 34.1618ZM15.1888 34.1618C-5.39101 16.5562 32.7948 13.5819 15.1888 34.1618ZM15.1888 34.1618C32.7948 13.5819 35.7687 51.7673 15.1888 34.1618Z" stroke="white" stroke-width="1.43161" stroke-miterlimit="10" stroke-linecap="round" stroke-linejoin="round"></path>
</svg>
