<?xml version="1.0" encoding="UTF-8"?>
<svg xmlns="http://www.w3.org/2000/svg" width="50" height="60" viewBox="0 0 50 60" fill="none">
  <path d="M26.5588 60C26.3092 59.9706 26.0595 59.9413 25.8098 59.9266C22.1822 59.8825 18.5399 59.8825 14.9123 59.765C11.6812 59.6622 8.5529 59.0013 5.64492 57.5326C3.54472 56.4752 1.73825 55.0653 0.754237 52.8476C-0.552883 49.9249 -0.126968 47.1785 1.76762 44.6377C2.10542 44.1824 2.48727 43.7565 2.88381 43.3599C3.39785 42.8459 4.08813 42.8165 4.5581 43.2424C5.02808 43.683 5.05745 44.3439 4.60216 44.9314C4.20562 45.4308 3.75033 45.9007 3.39785 46.4295C1.78231 48.75 2.10542 51.7167 4.16156 53.67C5.96803 55.3884 8.17104 56.3283 10.5503 56.7836C12.5183 57.1655 14.5304 57.4298 16.5278 57.4739C21.9178 57.6061 27.3079 57.6061 32.7126 57.6354C36.208 57.6648 39.5713 57.0773 42.6261 55.3296C43.6983 54.7128 44.7263 53.9491 45.5929 53.0679C48.0602 50.5564 48.119 47.34 45.8719 44.623C44.1389 42.5375 41.8771 41.2891 39.3216 40.5107C36.4724 39.6442 33.5791 39.791 30.6711 40.0995C26.647 40.5107 22.6228 40.9219 18.5986 41.1716C15.3382 41.3772 12.1658 40.9366 9.27255 39.2183C6.36457 37.4999 5.01339 34.3423 5.95334 31.3902C6.5555 29.4516 7.86262 28.0123 9.4341 26.7933C9.94814 26.3967 10.5062 26.0443 11.0056 25.7065C10.095 25.0896 9.12568 24.5462 8.27385 23.8412C6.83455 22.6369 6.08552 21.0654 6.10021 19.1709C6.10021 18.4218 6.52613 17.9225 7.18703 17.8784C7.89199 17.8344 8.40603 18.275 8.42072 19.0534C8.45009 20.9773 9.55159 22.167 11.1084 23.0041C13.5904 24.3259 16.2634 24.5609 18.9658 24.0615C22.9753 23.3125 26.9701 22.4754 30.9502 21.6235C32.742 21.2417 34.4016 20.522 35.8556 19.3765C38.1761 17.5406 38.1026 14.9264 35.6793 13.2227C33.961 12.0184 32.0076 11.5338 29.9662 11.3428C29.8193 11.3281 29.6577 11.3722 29.5109 11.4016C25.8098 12.18 22.1234 13.0612 18.393 13.7074C15.8816 14.148 13.3995 13.7661 11.1965 12.3121C8.1123 10.2707 7.74513 6.77525 10.3153 4.10226C11.9162 2.42797 13.9282 1.64957 16.19 1.35584C19.2155 0.959296 22.2263 0.548067 25.237 0.122152C28.3066 -0.303764 31.0677 0.35714 33.3441 2.53078C35.1946 4.29319 35.2093 7.09835 33.4616 8.94888C33.3294 9.09575 33.1973 9.22793 33.021 9.40417C33.726 9.66853 34.4016 9.88884 35.0625 10.1679C36.5752 10.8141 37.9264 11.7247 38.8663 13.1052C40.5847 15.6314 40.1881 18.554 37.8676 20.713C37.4564 21.0948 37.0011 21.4326 36.5311 21.8292C37.2949 22.0788 38.0292 22.2844 38.7488 22.5635C40.7315 23.3272 42.4646 24.4581 43.7717 26.1764C45.8278 28.8935 45.6957 32.3155 43.4927 34.915C42.3912 36.2222 41.0693 37.2209 39.4244 38.0727C39.9825 38.2489 40.4084 38.3811 40.8344 38.528C44.0948 39.6736 46.8706 41.48 48.6477 44.5349C50.601 47.9128 50.1311 51.6139 47.4874 54.4778C45.0348 57.1361 41.9212 58.5901 38.4698 59.3538C37.2214 59.6328 35.929 59.765 34.6659 59.9559C31.9489 60 29.2465 60 26.5588 60ZM18.0112 38.8952C18.8336 38.8364 19.6708 38.807 20.5079 38.7189C24.488 38.3517 28.4828 37.9699 32.4629 37.588C35.1506 37.3237 37.6767 36.6334 39.9091 35.0619C40.8637 34.3863 41.7009 33.5932 42.259 32.5652C43.4045 30.4503 42.9052 28.2766 40.9372 26.6023C38.3082 24.37 35.2093 23.5769 31.8608 23.9881C29.2171 24.3112 26.6029 24.9721 23.974 25.4568C21.5947 25.8974 19.2595 26.5877 16.8215 26.6023C16.2194 26.6023 15.5878 26.5142 15.0151 26.6464C12.4008 27.2486 10.2859 28.6438 8.75851 30.8615C7.65701 32.477 7.67169 34.3129 8.86132 35.7669C9.40473 36.4278 10.1244 37.0153 10.8734 37.4265C13.0911 38.6602 15.5438 38.8364 18.0112 38.8952ZM17.0418 11.5044C17.2915 11.475 17.8055 11.475 18.3049 11.3869C21.2129 10.8288 24.1208 10.256 27.0288 9.65385C28.6003 9.33074 30.113 8.80202 31.3614 7.72988C32.7273 6.56963 32.786 5.0569 31.4055 3.94071C29.6724 2.53078 27.6603 2.14892 25.472 2.47203C22.4172 2.91263 19.3623 3.30918 16.3075 3.7204C14.5157 3.97008 12.9002 4.58692 11.7399 6.0556C10.4915 7.62708 10.7853 9.33074 12.4889 10.3882C13.8108 11.196 15.2647 11.475 17.0418 11.5044Z" fill="white"></path>
  <path d="M37.1482 42.038C39.8947 42.4052 42.553 43.3158 44.4916 45.651C44.9322 46.1944 45.1819 46.9434 45.3875 47.6337C45.5637 48.2212 45.0791 48.7792 44.4622 48.9114C43.9188 49.0289 43.302 48.7205 43.1698 48.1624C42.9201 47.0168 42.0683 46.4 41.1871 45.8125C39.924 44.9901 38.5141 44.5642 37.0161 44.3732C36.1789 44.2704 35.753 43.9032 35.6942 43.2864C35.6208 42.5374 36.1495 42.0087 37.1482 42.038Z" fill="white"></path>
  <path d="M31.4053 13.825C32.404 13.869 33.3146 14.1334 34.1664 14.5887C34.8126 14.9265 35.0329 15.558 34.7539 16.1601C34.4895 16.7182 33.8286 17.012 33.2117 16.7036C32.1249 16.1601 31.0381 16.1748 29.9072 16.4539C29.6282 16.5273 29.3198 16.542 29.0407 16.4833C28.512 16.3658 28.2036 16.0133 28.1742 15.4552C28.1448 14.8824 28.3945 14.4271 28.9526 14.2949C29.7604 14.0893 30.5828 13.9718 31.4053 13.825Z" fill="white"></path>
  <path d="M7.46533 42.1997C7.43596 42.8753 6.81911 43.404 6.11415 43.3599C5.46793 43.3159 5.02733 42.7872 5.07139 42.1263C5.11545 41.4654 5.70292 40.966 6.3932 40.9954C7.02473 41.0247 7.50939 41.5535 7.46533 42.1997Z" fill="white"></path>
  <path d="M8.42002 17.1146C7.78849 17.1146 7.25977 16.6006 7.25977 15.9837C7.25977 15.3375 7.83255 14.75 8.47877 14.7354C9.09561 14.7354 9.63902 15.2641 9.65371 15.8809C9.65371 16.5124 9.06624 17.0999 8.42002 17.1146Z" fill="white"></path>
  <path d="M40.8351 29.2753C40.4533 29.6865 40.2183 30.0831 39.8805 30.3034C39.4692 30.553 38.9699 30.4649 38.6468 30.0831C37.1047 28.306 35.0779 28.0857 32.9336 28.2766C31.8615 28.3794 31.2594 28.115 31.1272 27.366C30.995 26.6023 31.465 26.0883 32.5812 25.9414C35.2101 25.6183 37.6921 26.0295 39.7483 27.8507C40.1742 28.2032 40.4239 28.7172 40.8351 29.2753Z" fill="white"></path>
  <path d="M22.0781 5.92344C22.3131 5.61502 22.4894 5.11567 22.7831 5.02755C24.6042 4.46945 26.4254 3.77918 28.3787 4.33727C28.7312 4.44008 29.0837 4.58695 29.3774 4.79256C29.818 5.0863 29.9355 5.67377 29.7005 6.15843C29.4656 6.64309 29.0103 6.99557 28.5109 6.80465C26.9394 6.1878 25.4854 6.71653 23.9874 7.05432C23.7084 7.11307 23.3999 7.15713 23.1209 7.12775C22.5628 7.05432 22.2103 6.59903 22.0781 5.92344Z" fill="white"></path>
</svg>
