<?xml version="1.0" encoding="UTF-8"?>
<svg xmlns="http://www.w3.org/2000/svg" width="60" height="60" viewBox="0 0 60 60" fill="none">
  <path d="M41.8008 23.4585C43.209 24.774 44.585 26.0594 45.7628 27.1595C47.7768 29.0408 48.1699 32.0877 46.6995 34.4187" stroke="white" stroke-width="1.75781" stroke-miterlimit="10" stroke-linecap="round" stroke-linejoin="round"></path>
  <path d="M40.207 14.7329C42.0727 16.3688 44.0063 17.9274 46.002 19.4028L54.0504 25.3501C55.0324 26.0767 55.8141 27.0142 56.3496 28.0759C56.8852 29.1376 57.1746 30.3224 57.1746 31.5435C57.1746 34.3501 56.9039 37.1345 56.3742 39.8603" stroke="white" stroke-width="1.75781" stroke-miterlimit="10" stroke-linecap="round" stroke-linejoin="round"></path>
  <path d="M47.3926 59.1209L48.2961 57.9314C51.5105 53.6963 53.9023 48.9385 55.3883 43.9053" stroke="white" stroke-width="1.75781" stroke-miterlimit="10" stroke-linecap="round" stroke-linejoin="round"></path>
  <path d="M25.9277 4.4318C26.1846 3.07605 27.3756 2.05078 28.8061 2.05078C30.4241 2.05078 31.7358 3.36246 31.7358 4.98047V5.42812C31.7358 6.2898 31.5352 7.13953 31.1498 7.91016C30.7645 8.68078 30.5639 9.53062 30.5639 10.3922V12.2306" stroke="white" stroke-width="1.75781" stroke-miterlimit="10" stroke-linecap="round" stroke-linejoin="round"></path>
  <path d="M22.0684 6.74133C22.3386 5.40258 23.5216 4.39453 24.94 4.39453C26.558 4.39453 27.8697 5.70621 27.8697 7.32422V7.77187C27.8697 8.63355 27.6691 9.48328 27.2838 10.2539C26.8985 11.0245 26.6979 11.8744 26.6979 12.7359V13.105" stroke="white" stroke-width="1.75781" stroke-miterlimit="10" stroke-linecap="round" stroke-linejoin="round"></path>
  <path d="M18.1406 9.97801V9.59375C18.1406 7.97574 19.4523 6.66406 21.0703 6.66406C22.6883 6.66406 24 7.97574 24 9.59375V10.0414C24 10.9031 23.7994 11.7528 23.4141 12.5234C23.1023 13.1469 22.9114 13.8222 22.8499 14.5136" stroke="white" stroke-width="1.75781" stroke-miterlimit="10" stroke-linecap="round" stroke-linejoin="round"></path>
  <path d="M15.9121 24.4814C15.9098 25.8877 16.1055 27.2893 16.4969 28.6416" stroke="white" stroke-width="1.75781" stroke-miterlimit="10" stroke-linecap="round" stroke-linejoin="round"></path>
  <path d="M19.7679 39.5709C19.5537 37.8482 19.1925 36.1455 18.6875 34.4822" stroke="white" stroke-width="1.75781" stroke-miterlimit="10" stroke-linecap="round" stroke-linejoin="round"></path>
  <path d="M20.1074 51.048C20.2246 51.566 20.3723 52.0769 20.5492 52.5785C20.7273 53.08 20.9348 53.571 21.1715 54.0515C21.9379 55.6031 23.1109 56.871 24.5266 57.7499C25.941 58.63 27.5969 59.121 29.3277 59.121C31.0891 59.121 32.7754 58.6218 34.2156 57.7289C35.657 56.8359 36.8523 55.5468 37.6363 53.9695C38.6652 51.8964 38.882 49.514 38.2445 47.2886L37.757 45.5906" stroke="white" stroke-width="1.75781" stroke-miterlimit="10" stroke-linecap="round" stroke-linejoin="round"></path>
  <path d="M36.5832 33.8694C36.3594 34.5409 36.1941 35.2334 36.091 35.9389C36.0078 36.5108 35.9668 37.0874 35.9668 37.6627C35.9668 38.776 36.1215 39.8858 36.4297 40.9616L36.6266 41.6483" stroke="white" stroke-width="1.75781" stroke-miterlimit="10" stroke-linecap="round" stroke-linejoin="round"></path>
  <path d="M40.5082 15.7533C39.912 14.1246 38.4569 12.9646 36.7363 12.7463L34.1222 12.4146C32.6661 12.23 31.1914 12.2482 29.7402 12.4691" stroke="white" stroke-width="1.75781" stroke-miterlimit="10" stroke-linecap="round" stroke-linejoin="round"></path>
  <path d="M42.7202 46.5718C41.8154 48.7792 40.506 50.8213 38.8581 52.5854L37.6348 53.9697" stroke="white" stroke-width="1.75781" stroke-miterlimit="10" stroke-linecap="round" stroke-linejoin="round"></path>
  <path d="M30.0986 29.3228C30.0486 27.6584 30.6527 26.0767 31.7994 24.8692C33.1756 23.4197 35.1013 22.784 36.958 22.9807" stroke="white" stroke-width="1.75781" stroke-miterlimit="10" stroke-linecap="round" stroke-linejoin="round"></path>
  <path d="M50.8761 35.7179C48.9749 35.7826 47.1258 35.0894 45.7357 33.7908L38.3734 26.913C37.1521 25.7721 35.2391 25.8294 34.0884 27.0415C32.9243 28.2675 32.9825 30.2073 34.2179 31.3614L36.6798 33.6613C38.4777 35.3408 39.6107 37.6117 39.8713 40.0582C40.132 42.5047 41.2649 44.7756 43.0628 46.4551L44.8331 48.1089" stroke="white" stroke-width="1.75781" stroke-miterlimit="10" stroke-linecap="round" stroke-linejoin="round"></path>
  <path d="M13.0885 45.8872C11.7526 43.7684 11.9553 41.059 13.5151 39.1711" stroke="white" stroke-width="1.75781" stroke-miterlimit="10" stroke-linecap="round" stroke-linejoin="round"></path>
  <path d="M18.5366 34.4143L16.5273 36.2915" stroke="white" stroke-width="1.75781" stroke-miterlimit="10" stroke-linecap="round" stroke-linejoin="round"></path>
  <path d="M5.99007 59.1209C4.37874 56.9823 3.44007 54.4123 3.29593 51.7381L2.83538 43.2139C2.6971 40.6627 3.85023 38.2135 5.90453 36.6959L13.7842 30.8717C14.702 30.1938 15.6065 29.4983 16.4971 28.7859" stroke="white" stroke-width="1.75781" stroke-miterlimit="10" stroke-linecap="round" stroke-linejoin="round"></path>
  <path d="M29.6895 40.7915C29.7395 39.1271 29.1352 37.5454 27.9887 36.3379C26.6125 34.8884 24.6868 34.2527 22.8301 34.4495" stroke="white" stroke-width="1.75781" stroke-miterlimit="10" stroke-linecap="round" stroke-linejoin="round"></path>
  <path d="M8.91406 47.1866C10.8152 47.2513 12.6641 46.5577 14.0534 45.2585L21.4742 38.32C22.6609 37.2105 24.5202 37.2656 25.6387 38.4439L25.6916 38.4995C26.8671 39.7376 26.8086 41.6794 25.5711 42.8339C24.7978 43.5555 23.9224 44.3727 23.1112 45.13C21.3126 46.8094 20.1794 49.0803 19.9187 51.5271L19.9066 51.6406C19.6537 54.014 18.5546 56.2169 16.8105 57.8461L15.446 59.1209" stroke="white" stroke-width="1.75781" stroke-miterlimit="10" stroke-linecap="round" stroke-linejoin="round"></path>
  <path d="M19.8065 39.5664C19.434 36.4798 18.5881 33.4571 17.2884 30.6075C16.0373 27.8646 15.6498 24.8063 16.177 21.8379C16.2512 21.0626 16.3773 20.1827 16.3684 19.3336C16.3684 17.3426 15.9629 15.3633 15.1672 13.5199C15.0277 13.1965 14.9609 12.8602 14.9609 12.5309C14.9609 11.4914 15.6137 10.5129 16.6672 10.1602C16.9309 10.0723 17.198 10.0301 17.4617 10.0301C18.5387 10.0301 19.5371 10.732 19.8582 11.8242L19.9285 12.0633C20.1008 12.6492 20.0914 13.2738 19.9004 13.8539C19.898 13.8621 19.8957 13.8691 19.8934 13.8762C19.5746 14.8711 20.6352 15.7535 21.5715 15.2871L21.984 15.082C24.4496 13.8539 27.0699 12.9738 29.7699 12.4641C30.4836 12.3281 31.2031 12.2191 31.9273 12.1359L32.3633 12.0867C33.0078 12.0129 33.4941 11.4668 33.4941 10.8188C33.4941 10.5258 33.4566 10.234 33.384 9.95156C33.3113 9.67031 33.2035 9.39727 33.0617 9.14063L32.7934 8.65313C32.0996 7.39687 31.7363 5.98594 31.7363 4.55039C31.7363 3.53672 32.1477 2.61914 32.8121 1.95469C33.4766 1.29023 34.3941 0.878906 35.4078 0.878906H36.4977C37.8887 0.878906 39.1602 1.66523 39.7824 2.90859C40.2031 3.75117 40.4152 4.66992 40.4152 5.58984C40.4152 6.35391 40.2688 7.11914 39.9758 7.84336L39.7578 8.38008C39.4133 9.23086 39.2363 10.1402 39.2363 11.0578C39.2363 11.4832 39.2738 11.9063 39.35 12.3234C39.425 12.7406 39.5363 13.1508 39.6852 13.5504L40.4949 15.7219C40.4996 15.7324 40.5043 15.743 40.5078 15.7535L41.0492 17.2055C41.9973 19.7461 42.0957 22.5258 41.3281 25.1273C41.1746 25.65 40.9859 26.1621 40.7656 26.659C40.5453 27.1559 40.2934 27.6387 40.0098 28.1039" stroke="white" stroke-width="1.75781" stroke-miterlimit="10" stroke-linecap="round" stroke-linejoin="round"></path>
</svg>
