<svg xmlns="http://www.w3.org/2000/svg" width="60" height="61" viewBox="0 0 60 61" fill="none"><path d="M31.1412 26.07C30.4828 26.6282 29.5173 26.6282 28.8589 26.07C22.6199 20.7811 19.4119 15.6483 19.4119 10.6063C19.4118 4.75853 24.1523 0.0180664 30 0.0180664C35.8477 0.0180664 40.5882 4.75853 40.5882 10.6063C40.5882 15.6483 37.3802 20.7811 31.1412 26.07ZM31.1412 33.9661C37.3802 39.255 40.5882 44.3878 40.5882 49.4298C40.5882 55.2776 35.8478 60.0181 30 60.0181C24.1522 60.0181 19.4118 55.2776 19.4118 49.4298C19.4118 44.3878 22.6198 39.255 28.8588 33.9661C29.5173 33.4079 30.4827 33.4079 31.1412 33.9661ZM33.948 31.1592C33.3899 30.5009 33.3899 29.5354 33.948 28.877C39.2371 22.638 44.3699 19.4299 49.4118 19.4299C55.2595 19.4298 60 24.1703 60 30.0181C60 35.8658 55.2595 40.6063 49.4118 40.6063C44.3698 40.6063 39.2369 37.3983 33.948 31.1592ZM26.052 31.1592C20.7629 37.3983 15.6301 40.6063 10.5882 40.6063C4.74047 40.6063 0 35.8658 0 30.0181C0 24.1703 4.74047 19.4298 10.5882 19.4298C15.6302 19.4298 20.763 22.6378 26.052 28.8769C26.6101 29.5354 26.6101 30.5008 26.052 31.1592Z" fill="#F4C6D0"></path></svg>