<svg xmlns="http://www.w3.org/2000/svg" width="61" height="61" viewBox="0 0 61 61" fill="none"><path d="M59.0195 26.0341C57.9528 24.9674 56.5513 24.3845 55.0505 24.3845C49.3699 24.3845 43.7637 25.3023 38.3807 27.1256L35.8753 27.969C35.7265 28.0186 35.6397 27.8078 35.7761 27.7457L38.1575 26.5674C43.2552 24.0496 47.8691 20.738 51.8877 16.7194C52.942 15.6651 53.5249 14.2884 53.5373 12.8248C53.5745 9.74884 51.0691 7.1814 47.9931 7.13178C46.4676 7.10698 45.0288 7.70233 43.9497 8.7814C39.9311 12.8 36.6195 17.414 34.1017 22.5116L32.9234 24.893C32.849 25.0295 32.6505 24.9426 32.7001 24.7938L33.5435 22.2884C35.3668 16.9054 36.2846 11.2992 36.2846 5.61861C36.2846 4.11783 35.7017 2.70388 34.635 1.64961C33.5683 0.582946 32.1668 0 30.666 0C29.1652 0 27.7513 0.582946 26.697 1.64961C25.6304 2.71628 25.0474 4.11783 25.0474 5.61861C25.0474 11.2992 25.9652 16.9054 27.7885 22.2884L28.6319 24.7938C28.6815 24.9426 28.4707 25.0295 28.4086 24.893L27.2304 22.5116C24.7125 17.414 21.4009 12.8 17.3823 8.7814C16.328 7.72713 14.9513 7.14419 13.4877 7.13178C10.3993 7.09457 7.83191 9.6 7.7947 12.676C7.76989 14.2016 8.36524 15.6403 9.44431 16.7194C13.4629 20.738 18.0769 24.0496 23.1745 26.5674L25.5559 27.7457C25.6924 27.8202 25.6056 28.0186 25.4567 27.969L22.9513 27.1256C17.5683 25.3023 11.9621 24.3845 6.28152 24.3845C4.78074 24.3845 3.36679 24.9674 2.31253 26.0341C0.117178 28.2295 0.117178 31.7891 2.31253 33.9845C3.37919 35.0512 4.78074 35.6341 6.28152 35.6341C11.9621 35.6341 17.5683 34.7163 22.9513 32.893L25.4567 32.0496C25.6056 32 25.6924 32.2109 25.5559 32.2729L23.1745 33.4512C18.0769 35.969 13.4629 39.2806 9.44431 43.2992C8.39005 44.3535 7.8071 45.7302 7.7947 47.1938C7.75749 50.2698 10.2629 52.8372 13.3389 52.8868C14.8645 52.9116 16.3032 52.3163 17.3823 51.2372C21.4009 47.2186 24.7125 42.6047 27.2304 37.507L28.4086 35.1256C28.4831 34.9891 28.6815 35.076 28.6319 35.2248L27.7885 37.7302C25.9652 43.1132 25.0474 48.7194 25.0474 54.4C25.0474 55.9008 25.6304 57.3147 26.697 58.369C27.7637 59.4357 29.1652 60.0186 30.666 60.0186C32.1668 60.0186 33.5807 59.4357 34.635 58.369C35.7017 57.3023 36.2846 55.9008 36.2846 54.4C36.2846 48.7194 35.3668 43.1132 33.5435 37.7302L32.7001 35.2248C32.6505 35.076 32.8614 34.9891 32.9234 35.1256L34.1017 37.507C36.6195 42.6047 39.9311 47.2186 43.9497 51.2372C45.004 52.2915 46.3807 52.8744 47.8443 52.8868C50.9203 52.924 53.4877 50.4186 53.5373 47.3426C53.5621 45.8171 52.9668 44.3783 51.8877 43.2992C47.8691 39.2806 43.2552 35.969 38.1575 33.4512L35.7761 32.2729C35.6397 32.1984 35.7265 32 35.8753 32.0496L38.3807 32.893C43.7637 34.7163 49.3699 35.6341 55.0505 35.6341C56.5513 35.6341 57.9652 35.0512 59.0195 33.9845C61.2149 31.7891 61.2149 28.2171 59.0195 26.0341Z" fill="#A8C5A0"></path></svg>