<svg xmlns="http://www.w3.org/2000/svg" xmlns:xlink="http://www.w3.org/1999/xlink" width="2000" zoomAndPan="magnify" viewBox="0 0 1500 1499.999933" height="2000" preserveAspectRatio="xMidYMid meet" version="1.0"><defs><g/><clipPath id="2aff8fb71f"><path d="M 344.246094 306 L 1155.746094 306 L 1155.746094 1204 L 344.246094 1204 Z M 344.246094 306 " clip-rule="nonzero"/></clipPath></defs><rect x="-150" width="1800" fill="#ffffff" y="-149.999993" height="1799.99992" fill-opacity="1"/><rect x="-150" width="1800" fill="#ffffff" y="-149.999993" height="1799.99992" fill-opacity="1"/><g clip-path="url(#2aff8fb71f)"><path fill="#000000" d="M 1043.300781 517.636719 C 1112.871094 590.464844 1155.621094 689.117188 1155.621094 797.671875 C 1155.621094 1021.535156 973.824219 1203.285156 749.898438 1203.285156 C 525.972656 1203.285156 344.175781 1021.535156 344.175781 797.671875 C 344.175781 711.023438 371.40625 630.6875 417.777344 564.753906 C 455.226562 511.507812 505.15625 467.660156 563.300781 437.46875 C 584.511719 426.457031 606.820312 417.261719 630.011719 410.089844 C 637.203125 407.863281 644.847656 411.894531 647.070312 419.085938 C 649.296875 426.277344 645.261719 433.917969 638.070312 436.140625 C 616.449219 442.828125 595.648438 451.402344 575.871094 461.667969 C 521.621094 489.835938 475.03125 530.757812 440.09375 580.4375 C 396.847656 641.933594 371.453125 716.859375 371.453125 797.671875 C 371.453125 797.886719 371.453125 798.105469 371.453125 798.324219 L 1128.34375 798.324219 C 1128.34375 798.105469 1128.34375 797.886719 1128.34375 797.671875 C 1128.34375 697.78125 1089.535156 606.878906 1026.1875 539.226562 C 964.828125 567.316406 890.8125 564.304688 830.230469 524.644531 C 766.472656 482.910156 733.925781 411.335938 739.074219 340.300781 C 739.417969 335.585938 742.171875 331.386719 746.363281 329.199219 C 809.464844 296.246094 888.078125 297.402344 951.820312 339.128906 C 1013.828125 379.722656 1046.183594 448.609375 1043.300781 517.636719 Z M 372.46875 825.59375 C 374.136719 848.410156 377.832031 870.671875 383.378906 892.191406 C 401.269531 895.808594 420.710938 894.414062 437.382812 887.957031 L 474.519531 873.566406 C 502.003906 862.917969 535.359375 862.917969 562.84375 873.566406 L 599.984375 887.957031 C 621.335938 896.226562 647.246094 896.226562 668.59375 887.957031 L 705.734375 873.566406 C 733.222656 862.917969 766.574219 862.917969 794.058594 873.566406 L 831.199219 887.957031 C 852.550781 896.226562 878.460938 896.226562 899.808594 887.957031 L 936.949219 873.566406 C 964.433594 862.917969 997.789062 862.917969 1025.273438 873.566406 L 1062.414062 887.957031 C 1079.082031 894.414062 1098.523438 895.808594 1116.417969 892.191406 C 1121.960938 870.671875 1125.65625 848.410156 1127.324219 825.59375 Z M 392.015625 920.910156 C 443.195312 1069.296875 584.179688 1176.015625 749.898438 1176.015625 C 915.617188 1176.015625 1056.597656 1069.296875 1107.78125 920.910156 C 1088.984375 922.519531 1069.636719 920 1052.558594 913.382812 L 1015.417969 898.992188 C 994.066406 890.722656 968.15625 890.722656 946.804688 898.992188 L 909.667969 913.382812 C 882.179688 924.03125 848.828125 924.03125 821.34375 913.382812 L 784.203125 898.992188 C 762.851562 890.722656 736.941406 890.722656 715.59375 898.992188 L 678.453125 913.382812 C 650.964844 924.03125 617.613281 924.03125 590.128906 913.382812 L 552.988281 898.992188 C 531.636719 890.722656 505.726562 890.722656 484.375 898.992188 L 447.234375 913.382812 C 430.15625 920 410.808594 922.519531 392.015625 920.910156 Z M 1015.261719 490.941406 C 1010.015625 440.179688 982.882812 392.0625 936.878906 361.945312 C 883.988281 327.320312 819.277344 324.980469 765.894531 349.957031 C 764.21875 408.871094 792.289062 467.214844 845.171875 501.832031 C 894.496094 534.121094 954.101562 538.332031 1005.214844 518.496094 C 970.746094 486.96875 930.433594 461.730469 886.097656 444.605469 C 879.074219 441.894531 875.578125 433.992188 878.289062 426.972656 C 881.003906 419.953125 888.90625 416.457031 895.929688 419.167969 C 939.917969 436.160156 980.214844 460.601562 1015.261719 490.941406 Z M 634.042969 980.136719 C 626.515625 980.136719 620.402344 974.023438 620.402344 966.5 C 620.402344 958.972656 626.515625 952.867188 634.042969 952.867188 L 700.683594 952.867188 C 708.210938 952.867188 714.324219 958.972656 714.324219 966.5 C 714.324219 974.023438 708.210938 980.136719 700.683594 980.136719 Z M 823.796875 1103.328125 C 816.269531 1103.328125 810.15625 1097.21875 810.15625 1089.695312 C 810.15625 1082.167969 816.269531 1076.058594 823.796875 1076.058594 L 882.222656 1076.058594 C 889.75 1076.058594 895.859375 1082.167969 895.859375 1089.695312 C 895.859375 1097.21875 889.75 1103.328125 882.222656 1103.328125 Z M 706.765625 1155.433594 C 699.238281 1155.433594 693.128906 1149.320312 693.128906 1141.796875 C 693.128906 1134.269531 699.238281 1128.164062 706.765625 1128.164062 L 757.886719 1128.164062 C 765.417969 1128.164062 771.527344 1134.269531 771.527344 1141.796875 C 771.527344 1149.320312 765.417969 1155.433594 757.886719 1155.433594 Z M 539.777344 1031.292969 C 532.25 1031.292969 526.136719 1025.183594 526.136719 1017.660156 C 526.136719 1010.132812 532.25 1004.023438 539.777344 1004.023438 L 579.03125 1004.023438 C 586.558594 1004.023438 592.667969 1010.132812 592.667969 1017.660156 C 592.667969 1025.183594 586.558594 1031.292969 579.03125 1031.292969 Z M 890.269531 1031.292969 C 882.742188 1031.292969 876.632812 1025.183594 876.632812 1017.660156 C 876.632812 1010.132812 882.742188 1004.023438 890.269531 1004.023438 L 957.828125 1004.023438 C 965.351562 1004.023438 971.464844 1010.132812 971.464844 1017.660156 C 971.464844 1025.183594 965.351562 1031.292969 957.828125 1031.292969 Z M 479.40625 962.671875 C 471.878906 962.671875 465.769531 956.5625 465.769531 949.039062 C 465.769531 941.511719 471.878906 935.402344 479.40625 935.402344 L 518.660156 935.402344 C 526.1875 935.402344 532.300781 941.511719 532.300781 949.039062 C 532.300781 956.5625 526.1875 962.671875 518.660156 962.671875 Z M 700.683594 1062.375 C 693.15625 1062.375 687.046875 1056.261719 687.046875 1048.738281 C 687.046875 1041.210938 693.15625 1035.105469 700.683594 1035.105469 L 739.9375 1035.105469 C 747.46875 1035.105469 753.578125 1041.210938 753.578125 1048.738281 C 753.578125 1056.261719 747.46875 1062.375 739.9375 1062.375 Z M 987.554688 962.671875 C 980.027344 962.671875 973.914062 956.5625 973.914062 949.039062 C 973.914062 941.511719 980.027344 935.402344 987.554688 935.402344 L 1026.8125 935.402344 C 1034.335938 935.402344 1040.449219 941.511719 1040.449219 949.039062 C 1040.449219 956.5625 1034.335938 962.671875 1026.8125 962.671875 Z M 583.441406 1103.328125 C 575.917969 1103.328125 569.804688 1097.21875 569.804688 1089.695312 C 569.804688 1082.167969 575.917969 1076.058594 583.441406 1076.058594 L 652.34375 1076.058594 C 659.871094 1076.058594 665.984375 1082.167969 665.984375 1089.695312 C 665.984375 1097.21875 659.871094 1103.328125 652.34375 1103.328125 Z M 791.949219 991.660156 C 784.425781 991.660156 778.3125 985.550781 778.3125 978.027344 C 778.3125 970.5 784.425781 964.390625 791.949219 964.390625 L 836.683594 964.390625 C 844.210938 964.390625 850.324219 970.5 850.324219 978.027344 C 850.324219 985.550781 844.210938 991.660156 836.683594 991.660156 Z M 603.378906 663.765625 C 616.738281 678.457031 635.207031 689.027344 658.910156 695.578125 C 663.878906 696.953125 667.648438 701.011719 668.652344 706.070312 C 669.65625 711.125 667.71875 716.316406 663.648438 719.480469 C 644.859375 734.097656 635.03125 751.699219 633.0625 772.007812 C 632.472656 778.074219 627.929688 783.011719 621.933594 784.105469 C 615.941406 785.199219 609.945312 782.183594 607.253906 776.71875 C 598.136719 758.226562 580.640625 750.058594 556.625 748.519531 C 551.148438 748.167969 546.417969 744.570312 544.613281 739.390625 C 542.8125 734.207031 544.292969 728.449219 548.371094 724.78125 C 565.648438 709.230469 576.21875 691.234375 579.855469 670.578125 C 580.757812 665.453125 584.496094 661.289062 589.492188 659.84375 C 594.492188 658.398438 599.878906 659.917969 603.378906 663.765625 Z M 600.421875 697.703125 C 596.535156 707.558594 591.253906 716.894531 584.558594 725.699219 C 595.582031 728.929688 605.097656 733.84375 613.074219 740.535156 C 616.988281 731.230469 622.449219 722.449219 629.578125 714.234375 C 618.710938 709.628906 609.011719 704.101562 600.421875 697.703125 Z M 856.027344 582.144531 C 859.664062 602.796875 870.234375 620.796875 887.511719 636.34375 C 891.589844 640.015625 893.070312 645.769531 891.269531 650.953125 C 889.46875 656.136719 884.734375 659.734375 879.257812 660.082031 C 855.242188 661.625 837.742188 669.792969 828.632812 688.285156 C 825.9375 693.75 819.941406 696.765625 813.945312 695.671875 C 807.949219 694.578125 803.410156 689.640625 802.820312 683.574219 C 800.851562 663.265625 791.027344 645.664062 772.230469 631.046875 C 768.160156 627.878906 766.226562 622.691406 767.230469 617.632812 C 768.230469 612.574219 772 608.515625 776.972656 607.144531 C 800.675781 600.59375 819.144531 590.023438 832.503906 575.332031 C 836.003906 571.484375 841.390625 569.960938 846.390625 571.40625 C 851.386719 572.855469 855.125 577.019531 856.027344 582.144531 Z M 835.460938 609.269531 C 826.871094 615.667969 817.167969 621.191406 806.304688 625.800781 C 813.4375 634.011719 818.894531 642.792969 822.804688 652.097656 C 830.785156 645.410156 840.300781 640.496094 851.324219 637.261719 C 844.632812 628.457031 839.347656 619.125 835.460938 609.269531 Z M 835.460938 609.269531 " fill-opacity="1" fill-rule="evenodd"/></g><g fill="#000000" fill-opacity="1"><g transform="translate(318.155279, 1382.249861)"><g><path d="M 64.765625 -23.140625 C 64.765625 -20.210938 64.207031 -17.253906 63.09375 -14.265625 C 61.976562 -11.285156 60.1875 -8.613281 57.71875 -6.25 C 55.257812 -3.894531 52.03125 -1.972656 48.03125 -0.484375 C 44.039062 0.992188 39.21875 1.734375 33.5625 1.734375 C 28.144531 1.734375 23.046875 1.101562 18.265625 -0.15625 C 13.484375 -1.414062 9.363281 -2.863281 5.90625 -4.5 C 5.800781 -6.382812 5.773438 -8.363281 5.828125 -10.4375 C 5.878906 -12.519531 5.96875 -14.5625 6.09375 -16.5625 C 6.21875 -18.570312 6.390625 -20.507812 6.609375 -22.375 C 6.835938 -24.25 7.09375 -25.953125 7.375 -27.484375 L 18.640625 -27.484375 L 20.671875 -13.921875 C 20.816406 -13.117188 21.046875 -12.382812 21.359375 -11.71875 C 21.671875 -11.0625 22.175781 -10.453125 22.875 -9.890625 C 23.925781 -8.953125 25.445312 -8.046875 27.4375 -7.171875 C 29.425781 -6.296875 31.625 -5.859375 34.03125 -5.859375 C 37.488281 -5.859375 40.1875 -6.816406 42.125 -8.734375 C 44.0625 -10.660156 45.03125 -13.175781 45.03125 -16.28125 C 45.03125 -18.476562 44.566406 -20.429688 43.640625 -22.140625 C 42.710938 -23.859375 41.453125 -25.414062 39.859375 -26.8125 C 38.273438 -28.207031 36.410156 -29.523438 34.265625 -30.765625 C 32.117188 -32.003906 29.859375 -33.234375 27.484375 -34.453125 C 24.765625 -35.890625 22.128906 -37.347656 19.578125 -38.828125 C 17.023438 -40.304688 14.789062 -41.976562 12.875 -43.84375 C 10.957031 -45.71875 9.410156 -47.898438 8.234375 -50.390625 C 7.066406 -52.890625 6.484375 -55.851562 6.484375 -59.28125 C 6.484375 -62.695312 7.101562 -65.878906 8.34375 -68.828125 C 9.582031 -71.773438 11.429688 -74.320312 13.890625 -76.46875 C 16.359375 -78.625 19.457031 -80.3125 23.1875 -81.53125 C 26.925781 -82.75 31.273438 -83.359375 36.234375 -83.359375 C 40.390625 -83.359375 44.59375 -82.957031 48.84375 -82.15625 C 53.101562 -81.351562 56.804688 -80.304688 59.953125 -79.015625 C 60.234375 -75.554688 60.257812 -71.929688 60.03125 -68.140625 C 59.800781 -64.359375 59.40625 -60.789062 58.84375 -57.4375 L 47.90625 -57.4375 L 45.703125 -69.328125 C 45.492188 -70.335938 45.222656 -71.175781 44.890625 -71.84375 C 44.566406 -72.507812 44.085938 -73.066406 43.453125 -73.515625 C 42.515625 -74.210938 41.285156 -74.769531 39.765625 -75.1875 C 38.242188 -75.613281 36.734375 -75.828125 35.234375 -75.828125 C 32.085938 -75.828125 29.632812 -74.941406 27.875 -73.171875 C 26.113281 -71.410156 25.234375 -69.097656 25.234375 -66.234375 C 25.234375 -64.242188 25.632812 -62.5 26.4375 -61 C 27.238281 -59.5 28.378906 -58.117188 29.859375 -56.859375 C 31.347656 -55.609375 33.175781 -54.390625 35.34375 -53.203125 C 37.507812 -52.015625 39.9375 -50.722656 42.625 -49.328125 C 45.625 -47.785156 48.46875 -46.160156 51.15625 -44.453125 C 53.84375 -42.742188 56.1875 -40.859375 58.1875 -38.796875 C 60.195312 -36.742188 61.796875 -34.429688 62.984375 -31.859375 C 64.171875 -29.296875 64.765625 -26.390625 64.765625 -23.140625 Z M 64.765625 -23.140625 "/></g></g></g><g fill="#000000" fill-opacity="1"><g transform="translate(387.380081, 1382.249861)"><g><path d="M 40.484375 1.78125 C 34.335938 1.78125 29.019531 0.820312 24.53125 -1.09375 C 20.039062 -3.019531 16.347656 -5.742188 13.453125 -9.265625 C 10.554688 -12.796875 8.410156 -17.109375 7.015625 -22.203125 C 5.617188 -27.296875 4.921875 -33.003906 4.921875 -39.328125 C 4.921875 -46.273438 5.738281 -52.488281 7.375 -57.96875 C 9.019531 -63.445312 11.445312 -68.070312 14.65625 -71.84375 C 17.875 -75.613281 21.878906 -78.492188 26.671875 -80.484375 C 31.472656 -82.472656 36.984375 -83.46875 43.203125 -83.46875 C 49.347656 -83.46875 54.671875 -82.503906 59.171875 -80.578125 C 63.671875 -78.660156 67.367188 -75.929688 70.265625 -72.390625 C 73.171875 -68.847656 75.320312 -64.523438 76.71875 -59.421875 C 78.113281 -54.328125 78.8125 -48.625 78.8125 -42.3125 C 78.8125 -35.394531 77.988281 -29.1875 76.34375 -23.6875 C 74.707031 -18.195312 72.28125 -13.570312 69.0625 -9.8125 C 65.851562 -6.0625 61.847656 -3.191406 57.046875 -1.203125 C 52.242188 0.785156 46.722656 1.78125 40.484375 1.78125 Z M 42.09375 -75.296875 C 37 -75.296875 33.160156 -72.570312 30.578125 -67.125 C 27.992188 -61.6875 26.703125 -52.75 26.703125 -40.3125 C 26.703125 -28.238281 27.929688 -19.554688 30.390625 -14.265625 C 32.859375 -8.984375 36.585938 -6.34375 41.578125 -6.34375 C 46.597656 -6.34375 50.414062 -9.097656 53.03125 -14.609375 C 55.65625 -20.128906 56.96875 -29.117188 56.96875 -41.578125 C 56.96875 -53.648438 55.738281 -62.285156 53.28125 -67.484375 C 50.820312 -72.691406 47.09375 -75.296875 42.09375 -75.296875 Z M 42.09375 -75.296875 "/></g></g></g><g fill="#000000" fill-opacity="1"><g transform="translate(469.957619, 1382.249861)"><g><path d="M 41.46875 -36.546875 C 43.28125 -36.546875 44.960938 -36.894531 46.515625 -37.59375 C 48.078125 -38.289062 49.425781 -39.453125 50.5625 -41.078125 C 51.695312 -42.703125 52.585938 -44.875 53.234375 -47.59375 C 53.878906 -50.320312 54.203125 -53.707031 54.203125 -57.75 C 54.203125 -63.726562 53.097656 -68.085938 50.890625 -70.828125 C 48.691406 -73.566406 45.5 -74.9375 41.3125 -74.9375 C 39.46875 -74.9375 38.148438 -74.859375 37.359375 -74.703125 C 36.578125 -74.546875 35.835938 -74.410156 35.140625 -74.296875 L 35.140625 -36.96875 C 36.117188 -36.863281 37.078125 -36.765625 38.015625 -36.671875 C 38.960938 -36.585938 40.113281 -36.546875 41.46875 -36.546875 Z M 50.375 -7.546875 L 50.375 0 L 4.65625 0 L 4.65625 -7.546875 L 12.984375 -9.109375 C 13.648438 -9.253906 14.191406 -9.5625 14.609375 -10.03125 C 15.023438 -10.5 15.234375 -11.066406 15.234375 -11.734375 L 15.234375 -69.640625 C 15.234375 -70.234375 15.039062 -70.773438 14.65625 -71.265625 C 14.269531 -71.753906 13.765625 -72.066406 13.140625 -72.203125 L 4.65625 -73.890625 L 4.65625 -81.796875 L 25.546875 -81.796875 C 27.859375 -81.796875 30.425781 -81.898438 33.25 -82.109375 C 36.082031 -82.316406 39.488281 -82.40625 43.46875 -82.375 C 49.4375 -82.332031 54.410156 -81.78125 58.390625 -80.71875 C 62.367188 -79.65625 65.535156 -78.101562 67.890625 -76.0625 C 70.242188 -74.019531 71.910156 -71.503906 72.890625 -68.515625 C 73.867188 -65.535156 74.359375 -62.125 74.359375 -58.28125 C 74.359375 -49.164062 71.609375 -42.007812 66.109375 -36.8125 C 60.609375 -31.613281 52.570312 -29.015625 42 -29.015625 C 40.8125 -29.015625 39.640625 -29.039062 38.484375 -29.09375 C 37.335938 -29.144531 36.222656 -29.203125 35.140625 -29.265625 L 35.140625 -11.734375 C 35.140625 -11.066406 35.351562 -10.488281 35.78125 -10 C 36.21875 -9.507812 36.789062 -9.226562 37.5 -9.15625 Z M 50.375 -7.546875 "/></g></g></g><g fill="#000000" fill-opacity="1"><g transform="translate(546.722795, 1382.249861)"><g><path d="M 94.25 -81.796875 L 94.25 -73.890625 L 86.03125 -72.3125 C 85.257812 -72.132812 84.664062 -71.773438 84.25 -71.234375 C 83.832031 -70.691406 83.625 -70.039062 83.625 -69.28125 L 83.625 -11.984375 C 83.625 -11.179688 83.832031 -10.535156 84.25 -10.046875 C 84.664062 -9.566406 85.273438 -9.238281 86.078125 -9.0625 L 94.25 -7.546875 L 94.25 0 L 55.5625 0 L 55.5625 -7.546875 L 61.375 -9.0625 C 62.132812 -9.269531 62.722656 -9.609375 63.140625 -10.078125 C 63.566406 -10.546875 63.78125 -11.179688 63.78125 -11.984375 L 63.78125 -36.765625 L 35.140625 -36.765625 L 35.140625 -11.984375 C 35.140625 -11.179688 35.335938 -10.535156 35.734375 -10.046875 C 36.140625 -9.566406 36.726562 -9.238281 37.5 -9.0625 L 44.03125 -7.546875 L 44.03125 0 L 4.65625 0 L 4.65625 -7.546875 L 12.828125 -9.0625 C 13.628906 -9.238281 14.226562 -9.566406 14.625 -10.046875 C 15.03125 -10.535156 15.234375 -11.179688 15.234375 -11.984375 L 15.234375 -69.28125 C 15.234375 -70.15625 15.03125 -70.832031 14.625 -71.3125 C 14.226562 -71.800781 13.644531 -72.132812 12.875 -72.3125 L 4.65625 -73.890625 L 4.65625 -81.796875 L 44.03125 -81.796875 L 44.03125 -73.890625 L 37.4375 -72.3125 C 36.664062 -72.132812 36.085938 -71.800781 35.703125 -71.3125 C 35.328125 -70.832031 35.140625 -70.15625 35.140625 -69.28125 L 35.140625 -46.34375 L 63.78125 -46.34375 L 63.78125 -69.28125 C 63.78125 -70.039062 63.578125 -70.679688 63.171875 -71.203125 C 62.773438 -71.734375 62.191406 -72.101562 61.421875 -72.3125 L 55.5 -73.890625 L 55.5 -81.796875 Z M 94.25 -81.796875 "/></g></g></g><g fill="#000000" fill-opacity="1"><g transform="translate(645.63778, 1382.249861)"><g><path d="M 35.03125 -74.515625 L 35.03125 -42.203125 C 36.5 -42.023438 38 -41.9375 39.53125 -41.9375 C 41.070312 -41.9375 42.242188 -41.9375 43.046875 -41.9375 C 46.460938 -41.976562 49.332031 -43.394531 51.65625 -46.1875 C 53.976562 -48.976562 55.140625 -53.445312 55.140625 -59.59375 C 55.140625 -65.207031 54.015625 -69.179688 51.765625 -71.515625 C 49.515625 -73.859375 46.082031 -75.03125 41.46875 -75.03125 C 40.28125 -75.03125 39.128906 -74.976562 38.015625 -74.875 C 36.898438 -74.769531 35.90625 -74.648438 35.03125 -74.515625 Z M 45.65625 -7.484375 L 45.65625 0 L 4.65625 0 L 4.65625 -7.546875 L 12.78125 -9.0625 C 13.539062 -9.238281 14.140625 -9.5625 14.578125 -10.03125 C 15.015625 -10.5 15.234375 -11.132812 15.234375 -11.9375 L 15.234375 -69.375 C 15.234375 -70.1875 15.023438 -70.832031 14.609375 -71.3125 C 14.191406 -71.800781 13.597656 -72.132812 12.828125 -72.3125 L 4.65625 -73.890625 L 4.65625 -81.796875 L 24.609375 -81.796875 C 27.648438 -81.796875 30.570312 -81.898438 33.375 -82.109375 C 36.1875 -82.316406 39.441406 -82.421875 43.140625 -82.421875 C 54.867188 -82.421875 63.289062 -80.734375 68.40625 -77.359375 C 73.519531 -73.992188 76.078125 -68.367188 76.078125 -60.484375 C 76.078125 -56.640625 75.5625 -53.40625 74.53125 -50.78125 C 73.507812 -48.164062 72.175781 -46.007812 70.53125 -44.3125 C 68.894531 -42.625 67.03125 -41.28125 64.9375 -40.28125 C 62.84375 -39.289062 60.742188 -38.5 58.640625 -37.90625 C 61.398438 -36.71875 63.757812 -35.113281 65.71875 -33.09375 C 67.675781 -31.070312 69.40625 -28.367188 70.90625 -24.984375 L 76.5625 -12.3125 C 77.113281 -11.125 77.648438 -10.300781 78.171875 -9.84375 C 78.703125 -9.382812 79.421875 -9.035156 80.328125 -8.796875 L 85.296875 -7.484375 L 85.296875 0 L 62.84375 0 C 61.300781 0 59.925781 -0.972656 58.71875 -2.921875 C 57.519531 -4.878906 56.289062 -7.429688 55.03125 -10.578125 L 49.75 -24.296875 C 48.800781 -26.640625 47.863281 -28.679688 46.9375 -30.421875 C 46.019531 -32.171875 45.070312 -33.585938 44.09375 -34.671875 L 35.03125 -34.671875 L 35.03125 -11.734375 C 35.03125 -10.929688 35.25 -10.289062 35.6875 -9.8125 C 36.125 -9.34375 36.742188 -9.039062 37.546875 -8.90625 Z M 45.65625 -7.484375 "/></g></g></g><g fill="#000000" fill-opacity="1"><g transform="translate(731.514238, 1382.249861)"><g><path d="M 40.484375 1.78125 C 34.335938 1.78125 29.019531 0.820312 24.53125 -1.09375 C 20.039062 -3.019531 16.347656 -5.742188 13.453125 -9.265625 C 10.554688 -12.796875 8.410156 -17.109375 7.015625 -22.203125 C 5.617188 -27.296875 4.921875 -33.003906 4.921875 -39.328125 C 4.921875 -46.273438 5.738281 -52.488281 7.375 -57.96875 C 9.019531 -63.445312 11.445312 -68.070312 14.65625 -71.84375 C 17.875 -75.613281 21.878906 -78.492188 26.671875 -80.484375 C 31.472656 -82.472656 36.984375 -83.46875 43.203125 -83.46875 C 49.347656 -83.46875 54.671875 -82.503906 59.171875 -80.578125 C 63.671875 -78.660156 67.367188 -75.929688 70.265625 -72.390625 C 73.171875 -68.847656 75.320312 -64.523438 76.71875 -59.421875 C 78.113281 -54.328125 78.8125 -48.625 78.8125 -42.3125 C 78.8125 -35.394531 77.988281 -29.1875 76.34375 -23.6875 C 74.707031 -18.195312 72.28125 -13.570312 69.0625 -9.8125 C 65.851562 -6.0625 61.847656 -3.191406 57.046875 -1.203125 C 52.242188 0.785156 46.722656 1.78125 40.484375 1.78125 Z M 42.09375 -75.296875 C 37 -75.296875 33.160156 -72.570312 30.578125 -67.125 C 27.992188 -61.6875 26.703125 -52.75 26.703125 -40.3125 C 26.703125 -28.238281 27.929688 -19.554688 30.390625 -14.265625 C 32.859375 -8.984375 36.585938 -6.34375 41.578125 -6.34375 C 46.597656 -6.34375 50.414062 -9.097656 53.03125 -14.609375 C 55.65625 -20.128906 56.96875 -29.117188 56.96875 -41.578125 C 56.96875 -53.648438 55.738281 -62.285156 53.28125 -67.484375 C 50.820312 -72.691406 47.09375 -75.296875 42.09375 -75.296875 Z M 42.09375 -75.296875 "/></g></g></g><g fill="#000000" fill-opacity="1"><g transform="translate(814.091776, 1382.249861)"><g><path d="M 56.703125 -13.359375 L 61.890625 -30.265625 L 71.796875 -28.90625 C 71.796875 -24.46875 71.707031 -19.785156 71.53125 -14.859375 C 71.351562 -9.941406 70.742188 -4.988281 69.703125 0 L 4.65625 0 L 4.65625 -7.546875 L 12.78125 -9.0625 C 13.582031 -9.195312 14.191406 -9.515625 14.609375 -10.015625 C 15.023438 -10.523438 15.234375 -11.179688 15.234375 -11.984375 L 15.234375 -69.375 C 15.234375 -70.1875 15.023438 -70.84375 14.609375 -71.34375 C 14.191406 -71.851562 13.597656 -72.175781 12.828125 -72.3125 L 4.65625 -73.890625 L 4.65625 -81.796875 L 48.328125 -81.796875 L 48.328125 -73.890625 L 37.59375 -72.15625 C 36.789062 -72.019531 36.179688 -71.707031 35.765625 -71.21875 C 35.347656 -70.726562 35.140625 -70.082031 35.140625 -69.28125 L 35.140625 -8.640625 L 44.1875 -8.640625 C 46.351562 -8.640625 48.25 -8.769531 49.875 -9.03125 C 51.5 -9.289062 52.765625 -9.597656 53.671875 -9.953125 C 54.441406 -10.265625 55.078125 -10.679688 55.578125 -11.203125 C 56.085938 -11.722656 56.460938 -12.441406 56.703125 -13.359375 Z M 56.703125 -13.359375 "/></g></g></g><g fill="#000000" fill-opacity="1"><g transform="translate(888.186405, 1382.249861)"><g><path d="M 40.484375 1.78125 C 34.335938 1.78125 29.019531 0.820312 24.53125 -1.09375 C 20.039062 -3.019531 16.347656 -5.742188 13.453125 -9.265625 C 10.554688 -12.796875 8.410156 -17.109375 7.015625 -22.203125 C 5.617188 -27.296875 4.921875 -33.003906 4.921875 -39.328125 C 4.921875 -46.273438 5.738281 -52.488281 7.375 -57.96875 C 9.019531 -63.445312 11.445312 -68.070312 14.65625 -71.84375 C 17.875 -75.613281 21.878906 -78.492188 26.671875 -80.484375 C 31.472656 -82.472656 36.984375 -83.46875 43.203125 -83.46875 C 49.347656 -83.46875 54.671875 -82.503906 59.171875 -80.578125 C 63.671875 -78.660156 67.367188 -75.929688 70.265625 -72.390625 C 73.171875 -68.847656 75.320312 -64.523438 76.71875 -59.421875 C 78.113281 -54.328125 78.8125 -48.625 78.8125 -42.3125 C 78.8125 -35.394531 77.988281 -29.1875 76.34375 -23.6875 C 74.707031 -18.195312 72.28125 -13.570312 69.0625 -9.8125 C 65.851562 -6.0625 61.847656 -3.191406 57.046875 -1.203125 C 52.242188 0.785156 46.722656 1.78125 40.484375 1.78125 Z M 42.09375 -75.296875 C 37 -75.296875 33.160156 -72.570312 30.578125 -67.125 C 27.992188 -61.6875 26.703125 -52.75 26.703125 -40.3125 C 26.703125 -28.238281 27.929688 -19.554688 30.390625 -14.265625 C 32.859375 -8.984375 36.585938 -6.34375 41.578125 -6.34375 C 46.597656 -6.34375 50.414062 -9.097656 53.03125 -14.609375 C 55.65625 -20.128906 56.96875 -29.117188 56.96875 -41.578125 C 56.96875 -53.648438 55.738281 -62.285156 53.28125 -67.484375 C 50.820312 -72.691406 47.09375 -75.296875 42.09375 -75.296875 Z M 42.09375 -75.296875 "/></g></g></g><g fill="#000000" fill-opacity="1"><g transform="translate(971.915951, 1382.249861)"><g><path d="M 71.15625 0.84375 L 60.90625 -6.8125 C 58.59375 -4.394531 55.578125 -2.375 51.859375 -0.75 C 48.148438 0.863281 43.765625 1.671875 38.703125 1.671875 C 33.253906 1.671875 28.425781 0.722656 24.21875 -1.171875 C 20.007812 -3.078125 16.484375 -5.8125 13.640625 -9.375 C 10.796875 -12.9375 8.640625 -17.304688 7.171875 -22.484375 C 5.703125 -27.671875 4.96875 -33.53125 4.96875 -40.0625 C 4.96875 -54.789062 8.597656 -65.6875 15.859375 -72.75 C 23.128906 -79.820312 33.359375 -83.359375 46.546875 -83.359375 C 51.328125 -83.359375 56.054688 -82.894531 60.734375 -81.96875 C 65.421875 -81.050781 69.523438 -79.894531 73.046875 -78.5 C 73.285156 -75.070312 73.300781 -71.515625 73.09375 -67.828125 C 72.882812 -64.148438 72.503906 -60.476562 71.953125 -56.8125 L 59.90625 -56.8125 L 57.03125 -68.8125 C 56.75 -69.882812 56.414062 -70.703125 56.03125 -71.265625 C 55.644531 -71.828125 55.117188 -72.367188 54.453125 -72.890625 C 53.546875 -73.585938 52.375 -74.1875 50.9375 -74.6875 C 49.507812 -75.195312 47.835938 -75.453125 45.921875 -75.453125 C 39.953125 -75.453125 35.472656 -72.613281 32.484375 -66.9375 C 29.503906 -61.269531 28.015625 -52.171875 28.015625 -39.640625 C 28.015625 -29.617188 29.203125 -21.925781 31.578125 -16.5625 C 33.953125 -11.207031 38.398438 -8.53125 44.921875 -8.53125 C 47.160156 -8.53125 49.210938 -8.816406 51.078125 -9.390625 C 52.941406 -9.972656 54.609375 -10.769531 56.078125 -11.78125 L 56.078125 -33.140625 L 46.125 -34.25 L 46.125 -42.359375 L 80.171875 -42.359375 L 80.171875 -34.25 L 74.828125 -33.359375 L 74.828125 -1.25 Z M 71.15625 0.84375 "/></g></g></g><g fill="#000000" fill-opacity="1"><g transform="translate(1055.436024, 1382.249861)"><g><path d="M 45.71875 -81.796875 L 45.71875 -73.890625 L 37.546875 -72.3125 C 36.742188 -72.132812 36.140625 -71.789062 35.734375 -71.28125 C 35.335938 -70.78125 35.140625 -70.128906 35.140625 -69.328125 L 35.140625 -12.046875 C 35.140625 -11.242188 35.335938 -10.585938 35.734375 -10.078125 C 36.140625 -9.578125 36.742188 -9.253906 37.546875 -9.109375 L 45.71875 -7.546875 L 45.71875 0 L 4.65625 0 L 4.65625 -7.546875 L 12.828125 -9.0625 C 13.628906 -9.195312 14.226562 -9.515625 14.625 -10.015625 C 15.03125 -10.523438 15.234375 -11.179688 15.234375 -11.984375 L 15.234375 -69.328125 C 15.234375 -70.128906 15.03125 -70.78125 14.625 -71.28125 C 14.226562 -71.789062 13.628906 -72.132812 12.828125 -72.3125 L 4.65625 -73.890625 L 4.65625 -81.796875 Z M 45.71875 -81.796875 "/></g></g></g><g fill="#000000" fill-opacity="1"><g transform="translate(1105.809936, 1382.249861)"><g><path d="M 67.921875 -59.4375 L 58.59375 -59.4375 L 55.765625 -69.125 C 55.523438 -70.03125 55.140625 -70.742188 54.609375 -71.265625 C 54.085938 -71.785156 53.441406 -72.207031 52.671875 -72.53125 C 51.804688 -72.875 50.566406 -73.148438 48.953125 -73.359375 C 47.347656 -73.566406 45.691406 -73.671875 43.984375 -73.671875 L 35.140625 -73.671875 L 35.140625 -46.1875 L 57.65625 -47.015625 L 57.65625 -36.28125 L 35.140625 -36.859375 L 35.140625 -8.53125 L 46.1875 -8.53125 C 47.894531 -8.53125 49.679688 -8.632812 51.546875 -8.84375 C 53.421875 -9.050781 54.789062 -9.332031 55.65625 -9.6875 C 56.425781 -10 57.003906 -10.40625 57.390625 -10.90625 C 57.773438 -11.414062 58.140625 -12.144531 58.484375 -13.09375 L 63 -26.078125 L 72.265625 -24.609375 C 72.265625 -20.421875 72.101562 -16.335938 71.78125 -12.359375 C 71.46875 -8.378906 70.984375 -4.257812 70.328125 0 L 4.65625 0 L 4.65625 -7.546875 L 12.828125 -9.0625 C 13.628906 -9.195312 14.226562 -9.515625 14.625 -10.015625 C 15.03125 -10.523438 15.234375 -11.179688 15.234375 -11.984375 L 15.234375 -69.328125 C 15.234375 -70.128906 15.03125 -70.78125 14.625 -71.28125 C 14.226562 -71.789062 13.628906 -72.132812 12.828125 -72.3125 L 4.65625 -73.890625 L 4.65625 -81.796875 L 67.59375 -81.796875 C 68.050781 -78.128906 68.296875 -74.4375 68.328125 -70.71875 C 68.367188 -67 68.234375 -63.238281 67.921875 -59.4375 Z M 67.921875 -59.4375 "/></g></g></g></svg>