<svg xmlns="http://www.w3.org/2000/svg" xmlns:xlink="http://www.w3.org/1999/xlink" width="2000" zoomAndPan="magnify" viewBox="0 0 1500 1499.999933" height="2000" preserveAspectRatio="xMidYMid meet" version="1.0"><defs><g/></defs><rect x="-150" width="1800" fill="#ffffff" y="-149.999993" height="1799.99992" fill-opacity="1"/><rect x="-150" width="1800" fill="#ffffff" y="-149.999993" height="1799.99992" fill-opacity="1"/><path fill="#000000" d="M 993.773438 984.769531 C 990.832031 985.027344 921.289062 991.632812 880.722656 1038.25 C 839.824219 1085.246094 845.871094 1152.53125 846.15625 1155.371094 C 847.160156 1165.4375 856.414062 1173.0625 866.464844 1172.238281 C 869.40625 1171.980469 938.953125 1165.375 979.519531 1118.757812 C 1020.414062 1071.761719 1014.367188 1004.476562 1014.085938 1001.636719 C 1013.085938 991.394531 1004.042969 983.972656 993.773438 984.769531 Z M 951.210938 1094.132812 C 932.308594 1115.851562 903.230469 1126.277344 883.71875 1131.066406 C 885.191406 1112.140625 890.679688 1083.972656 909.03125 1062.875 C 927.929688 1041.15625 957.007812 1030.730469 976.523438 1025.9375 C 975.046875 1044.863281 969.558594 1073.035156 951.210938 1094.132812 Z M 951.210938 1094.132812 " fill-opacity="1" fill-rule="nonzero"/><path fill="#000000" d="M 464.066406 609.46875 L 507.027344 609.46875 C 515.8125 595.601562 527.421875 581.667969 542.75 571.214844 C 570.851562 552.050781 605.792969 548.972656 627.890625 548.667969 C 621.148438 566.027344 608.734375 590.632812 588.453125 609.46875 L 637.890625 609.46875 C 662.535156 574.332031 670.875 537.765625 671.359375 535.5625 C 673.589844 525.382812 666.265625 514.691406 656.027344 513.03125 C 652.910156 512.546875 578.949219 501.097656 521.605469 540.214844 C 493.699219 559.246094 475.515625 586.3125 464.066406 609.46875 Z M 464.066406 609.46875 " fill-opacity="1" fill-rule="nonzero"/><path fill="#000000" d="M 966.417969 355.632812 C 930.285156 339.085938 886.601562 346.175781 857.699219 373.210938 C 839.691406 390.054688 831.375 414.0625 831.25 438.28125 C 831.230469 444.574219 831.195312 451.085938 829.773438 452.917969 L 693.5 609.46875 L 743.230469 609.46875 L 858.652344 476.867188 C 868.664062 464.1875 868.730469 449.308594 868.773438 438.4375 C 868.835938 424.285156 872.695312 410.570312 883.332031 400.621094 C 900.976562 384.113281 928.726562 379.652344 950.804688 389.746094 C 971.777344 399.339844 985.738281 419.765625 986.378906 441.796875 C 986.753906 454.328125 982.476562 467.878906 974.9375 478.027344 C 968.667969 486.46875 960.355469 491.207031 950.328125 493.722656 C 938.601562 496.652344 920.886719 501.078125 911.191406 517 C 911.089844 517.164062 887.007812 556.78125 854.980469 609.46875 L 898.894531 609.46875 C 924.558594 567.25 942.90625 537.0625 943.222656 536.542969 C 946.621094 530.996094 957.144531 530.734375 962.851562 529.257812 C 979.929688 524.832031 994.128906 515.121094 1005.058594 500.398438 C 1017.648438 483.445312 1024.511719 461.675781 1023.886719 440.691406 C 1022.832031 404.503906 1000.277344 371.113281 966.417969 355.632812 Z M 966.417969 355.632812 " fill-opacity="1" fill-rule="nonzero"/><path fill="#000000" d="M 1014.550781 665.753906 C 1014.550781 655.390625 1006.148438 646.992188 995.789062 646.992188 L 170.234375 646.992188 C 159.871094 646.992188 151.472656 655.390625 151.472656 665.753906 C 151.472656 831.125 242.484375 980.160156 389.003906 1054.722656 C 392.023438 1056.261719 393.898438 1059.15625 393.898438 1063.105469 C 393.898438 1102.632812 421.320312 1134.789062 455.027344 1134.789062 L 710.996094 1134.789062 C 744.703125 1134.789062 772.121094 1102.632812 772.121094 1062.269531 C 772.121094 1059.15625 774 1056.261719 777.023438 1054.722656 C 923.53125 980.171875 1014.550781 831.125 1014.550781 665.753906 Z M 976.59375 684.515625 C 976.015625 697.175781 974.648438 709.65625 972.921875 722.039062 L 193.101562 722.039062 C 191.375 709.65625 190.007812 697.175781 189.425781 684.515625 Z M 760.003906 1021.285156 C 744.335938 1029.253906 734.601562 1044.957031 734.601562 1063.105469 C 734.601562 1081.617188 723.789062 1097.265625 710.996094 1097.265625 L 455.027344 1097.265625 C 442.234375 1097.265625 431.421875 1081.617188 431.421875 1062.269531 C 431.421875 1044.957031 421.6875 1029.253906 406.023438 1021.285156 C 300.605469 967.640625 226.734375 871.71875 200.054688 759.558594 L 965.964844 759.558594 C 939.289062 871.71875 865.421875 967.640625 760.003906 1021.285156 Z M 760.003906 1021.285156 " fill-opacity="1" fill-rule="nonzero"/><path fill="#000000" d="M 942.625 443.742188 C 942.625 444.355469 942.59375 444.96875 942.535156 445.582031 C 942.472656 446.191406 942.382812 446.800781 942.265625 447.402344 C 942.144531 448.003906 941.996094 448.597656 941.816406 449.1875 C 941.636719 449.773438 941.433594 450.351562 941.195312 450.917969 C 940.960938 451.488281 940.699219 452.042969 940.410156 452.582031 C 940.121094 453.125 939.804688 453.652344 939.460938 454.164062 C 939.121094 454.671875 938.753906 455.164062 938.367188 455.640625 C 937.976562 456.117188 937.5625 456.570312 937.128906 457.003906 C 936.695312 457.4375 936.238281 457.851562 935.765625 458.238281 C 935.289062 458.628906 934.796875 458.996094 934.285156 459.335938 C 933.773438 459.679688 933.25 459.992188 932.707031 460.28125 C 932.164062 460.570312 931.609375 460.835938 931.042969 461.070312 C 930.476562 461.304688 929.898438 461.511719 929.308594 461.691406 C 928.722656 461.867188 928.125 462.015625 927.523438 462.136719 C 926.921875 462.257812 926.3125 462.347656 925.703125 462.40625 C 925.089844 462.46875 924.476562 462.496094 923.863281 462.496094 C 923.246094 462.496094 922.636719 462.46875 922.023438 462.40625 C 921.410156 462.347656 920.804688 462.257812 920.203125 462.136719 C 919.597656 462.015625 919.003906 461.867188 918.414062 461.691406 C 917.828125 461.511719 917.25 461.304688 916.683594 461.070312 C 916.113281 460.835938 915.558594 460.570312 915.019531 460.28125 C 914.476562 459.992188 913.949219 459.675781 913.4375 459.335938 C 912.925781 458.996094 912.433594 458.628906 911.960938 458.238281 C 911.484375 457.851562 911.03125 457.4375 910.59375 457.003906 C 910.160156 456.570312 909.75 456.117188 909.359375 455.640625 C 908.96875 455.164062 908.601562 454.671875 908.261719 454.164062 C 907.921875 453.652344 907.605469 453.125 907.316406 452.582031 C 907.027344 452.042969 906.761719 451.488281 906.527344 450.917969 C 906.292969 450.351562 906.085938 449.773438 905.90625 449.1875 C 905.730469 448.597656 905.578125 448.003906 905.460938 447.402344 C 905.339844 446.800781 905.25 446.191406 905.191406 445.582031 C 905.128906 444.96875 905.101562 444.355469 905.101562 443.742188 C 905.101562 443.128906 905.128906 442.515625 905.191406 441.90625 C 905.25 441.292969 905.339844 440.6875 905.460938 440.085938 C 905.578125 439.480469 905.730469 438.886719 905.90625 438.300781 C 906.085938 437.710938 906.292969 437.132812 906.527344 436.566406 C 906.761719 436 907.027344 435.445312 907.316406 434.902344 C 907.605469 434.359375 907.921875 433.835938 908.261719 433.324219 C 908.601562 432.8125 908.96875 432.320312 909.359375 431.84375 C 909.75 431.371094 910.160156 430.917969 910.59375 430.480469 C 911.03125 430.046875 911.484375 429.636719 911.960938 429.246094 C 912.433594 428.855469 912.925781 428.492188 913.4375 428.148438 C 913.949219 427.808594 914.476562 427.492188 915.019531 427.203125 C 915.558594 426.914062 916.113281 426.652344 916.683594 426.417969 C 917.25 426.179688 917.828125 425.976562 918.414062 425.796875 C 919.003906 425.617188 919.597656 425.46875 920.203125 425.347656 C 920.804688 425.230469 921.410156 425.140625 922.023438 425.078125 C 922.636719 425.019531 923.246094 424.988281 923.863281 424.988281 C 924.476562 424.988281 925.089844 425.019531 925.703125 425.078125 C 926.3125 425.140625 926.921875 425.230469 927.523438 425.347656 C 928.125 425.46875 928.722656 425.617188 929.308594 425.796875 C 929.898438 425.976562 930.476562 426.179688 931.042969 426.417969 C 931.609375 426.652344 932.164062 426.914062 932.707031 427.203125 C 933.25 427.492188 933.773438 427.808594 934.285156 428.148438 C 934.796875 428.492188 935.289062 428.855469 935.765625 429.246094 C 936.238281 429.636719 936.695312 430.046875 937.128906 430.480469 C 937.5625 430.917969 937.976562 431.371094 938.367188 431.84375 C 938.753906 432.320312 939.121094 432.8125 939.460938 433.324219 C 939.804688 433.835938 940.121094 434.359375 940.410156 434.902344 C 940.699219 435.445312 940.960938 436 941.195312 436.566406 C 941.433594 437.132812 941.636719 437.710938 941.816406 438.300781 C 941.996094 438.886719 942.144531 439.480469 942.265625 440.085938 C 942.382812 440.6875 942.472656 441.292969 942.535156 441.90625 C 942.59375 442.515625 942.625 443.128906 942.625 443.742188 Z M 942.625 443.742188 " fill-opacity="1" fill-rule="nonzero"/><path fill="#000000" d="M 1295.992188 668.222656 L 1295.992188 609.46875 C 1295.992188 588.773438 1279.160156 571.945312 1258.464844 571.945312 L 1258.464844 440.617188 C 1258.464844 409.578125 1233.214844 384.332031 1202.175781 384.332031 C 1171.136719 384.332031 1145.890625 409.578125 1145.890625 440.617188 L 1145.890625 571.945312 C 1125.195312 571.945312 1108.363281 588.773438 1108.363281 609.46875 L 1108.363281 668.222656 C 1076.046875 676.585938 1052.078125 705.90625 1052.078125 740.796875 L 1052.078125 1059.742188 C 1052.078125 1090.777344 1077.324219 1116.027344 1108.363281 1116.027344 L 1295.992188 1116.027344 C 1327.027344 1116.027344 1352.277344 1090.777344 1352.277344 1059.742188 L 1352.277344 740.796875 C 1352.277344 705.90625 1328.304688 676.585938 1295.992188 668.222656 Z M 1183.414062 440.617188 C 1183.414062 430.273438 1191.835938 421.855469 1202.175781 421.855469 C 1212.519531 421.855469 1220.941406 430.273438 1220.941406 440.617188 L 1220.941406 571.945312 L 1183.414062 571.945312 Z M 1258.464844 609.46875 L 1258.464844 665.753906 L 1145.890625 665.753906 L 1145.890625 609.46875 Z M 1314.753906 1059.742188 C 1314.753906 1070.085938 1306.332031 1078.503906 1295.992188 1078.503906 L 1108.363281 1078.503906 C 1098.019531 1078.503906 1089.601562 1070.085938 1089.601562 1059.742188 L 1089.601562 740.796875 C 1089.601562 720.105469 1106.429688 703.277344 1127.125 703.277344 L 1277.226562 703.277344 C 1297.921875 703.277344 1314.753906 720.105469 1314.753906 740.796875 Z M 1314.753906 1059.742188 " fill-opacity="1" fill-rule="nonzero"/><path fill="#000000" d="M 1202.175781 797.082031 C 1195.433594 797.082031 1189.203125 800.703125 1185.871094 806.5625 C 1174.289062 826.917969 1136.507812 895.425781 1136.507812 922.355469 C 1136.507812 956.730469 1165.972656 984.695312 1202.175781 984.695312 C 1238.382812 984.695312 1267.847656 956.730469 1267.847656 922.355469 C 1267.847656 895.425781 1230.066406 826.917969 1218.484375 806.5625 C 1215.148438 800.703125 1208.921875 797.082031 1202.175781 797.082031 Z M 1202.175781 947.175781 C 1186.65625 947.175781 1174.035156 936.042969 1174.035156 922.355469 C 1174.0625 913.808594 1186.8125 884.972656 1202.175781 855.226562 C 1217.542969 884.972656 1230.292969 913.808594 1230.320312 922.355469 C 1230.320312 936.042969 1217.695312 947.175781 1202.175781 947.175781 Z M 1202.175781 947.175781 " fill-opacity="1" fill-rule="nonzero"/><path fill="#000000" d="M 441.6875 911.832031 C 383.792969 881.199219 356.183594 826.820312 355.910156 826.277344 C 351.320312 817.007812 340.058594 813.167969 330.8125 817.777344 C 321.511719 822.347656 317.6875 833.597656 322.261719 842.894531 C 323.574219 845.554688 355.164062 908.503906 424.132812 944.992188 C 433.015625 949.691406 444.6875 946.277344 449.492188 937.1875 C 454.339844 928.027344 450.84375 916.675781 441.6875 911.832031 Z M 441.6875 911.832031 " fill-opacity="1" fill-rule="nonzero"/><path fill="#000000" d="M 424.257812 511.664062 C 423.832031 506.804688 423.53125 501.898438 423.53125 496.902344 C 423.53125 447.761719 445.722656 403.863281 461.085938 379.359375 C 476.449219 403.789062 498.578125 447.542969 498.578125 496.902344 C 498.578125 501.738281 498.207031 506.476562 497.804688 511.195312 C 498.714844 510.550781 499.539062 509.84375 500.46875 509.214844 C 511.964844 501.371094 523.902344 495.300781 535.847656 490.441406 C 533.121094 404.832031 477.855469 337.648438 475.4375 334.761719 C 468.308594 326.242188 453.796875 326.242188 446.671875 334.761719 C 444.25 337.652344 388.863281 404.980469 386.25 490.722656 C 397.972656 495.542969 409.683594 501.515625 420.96875 509.214844 C 422.113281 509.996094 423.136719 510.863281 424.257812 511.664062 Z M 424.257812 511.664062 " fill-opacity="1" fill-rule="nonzero"/><path fill="#000000" d="M 283.539062 609.46875 L 332.972656 609.46875 C 312.660156 590.605469 300.238281 565.960938 293.507812 548.605469 C 315.914062 548.742188 350.402344 551.921875 378.675781 571.214844 C 393.941406 581.621094 405.417969 595.5625 414.195312 609.46875 L 422.84375 609.46875 C 426.824219 599.875 431.902344 589.183594 438.3125 578.082031 C 428.195312 564.332031 415.601562 550.976562 399.820312 540.214844 C 342.488281 501.097656 268.507812 512.539062 265.394531 513.03125 C 254.921875 514.699219 247.800781 525.21875 250.0625 535.558594 C 250.539062 537.730469 258.878906 574.316406 283.539062 609.46875 Z M 283.539062 609.46875 " fill-opacity="1" fill-rule="nonzero"/><g fill="#000000" fill-opacity="1"><g transform="translate(261.000011, 1382.249861)"><g><path d="M 38.171875 -7.546875 L 38.171875 0 L 4.65625 0 L 4.65625 -7.546875 L 12.828125 -9 C 13.628906 -9.144531 14.226562 -9.46875 14.625 -9.96875 C 15.03125 -10.476562 15.234375 -11.132812 15.234375 -11.9375 L 15.234375 -69.328125 C 15.234375 -70.128906 15.03125 -70.78125 14.625 -71.28125 C 14.226562 -71.789062 13.628906 -72.132812 12.828125 -72.3125 L 4.65625 -73.890625 L 4.65625 -81.796875 L 35.65625 -81.796875 L 69.953125 -26.03125 L 69.953125 -69.328125 C 69.953125 -70.128906 69.742188 -70.789062 69.328125 -71.3125 C 68.910156 -71.84375 68.316406 -72.175781 67.546875 -72.3125 L 58.859375 -73.890625 L 58.859375 -81.796875 L 90.953125 -81.796875 L 90.953125 -73.890625 L 83.359375 -72.3125 C 82.554688 -72.132812 81.953125 -71.789062 81.546875 -71.28125 C 81.148438 -70.78125 80.953125 -70.128906 80.953125 -69.328125 L 80.953125 0 L 63 0 L 26.234375 -60.328125 L 26.234375 -11.984375 C 26.234375 -11.179688 26.441406 -10.523438 26.859375 -10.015625 C 27.273438 -9.515625 27.867188 -9.195312 28.640625 -9.0625 Z M 38.171875 -7.546875 "/></g></g></g><g fill="#000000" fill-opacity="1"><g transform="translate(354.102645, 1382.249861)"><g><path d="M 48.0625 -32.890625 L 37.328125 -67.34375 L 26.921875 -32.890625 Z M 29.6875 -7.546875 L 29.6875 0 L -0.890625 0 L -0.890625 -7.546875 L 6.234375 -9.265625 C 6.929688 -9.441406 7.5 -9.726562 7.9375 -10.125 C 8.375 -10.53125 8.710938 -11.082031 8.953125 -11.78125 L 32.78125 -82.046875 L 51.375 -82.046875 L 75.34375 -11.78125 C 75.59375 -11.082031 75.953125 -10.539062 76.421875 -10.15625 C 76.890625 -9.769531 77.457031 -9.472656 78.125 -9.265625 L 84.671875 -7.546875 L 84.671875 0 L 45.40625 0 L 45.40625 -7.546875 L 55.40625 -9.15625 L 50.84375 -23.9375 L 24.1875 -23.9375 L 19.6875 -9.15625 Z M 29.6875 -7.546875 "/></g></g></g><g fill="#000000" fill-opacity="1"><g transform="translate(431.705631, 1382.249861)"><g><path d="M 67.03125 0 L 17.640625 0 L 17.640625 -7.484375 L 29.90625 -9.484375 C 30.707031 -9.617188 31.320312 -9.921875 31.75 -10.390625 C 32.1875 -10.859375 32.40625 -11.5 32.40625 -12.3125 L 32.40625 -73.671875 L 27.96875 -73.671875 C 26.5625 -73.671875 25.210938 -73.582031 23.921875 -73.40625 C 22.628906 -73.238281 21.582031 -73 20.78125 -72.6875 C 20.050781 -72.40625 19.492188 -72.035156 19.109375 -71.578125 C 18.722656 -71.128906 18.460938 -70.570312 18.328125 -69.90625 L 13.875 -51.84375 L 4.1875 -51.84375 C 3.59375 -57.21875 3.234375 -62.207031 3.109375 -66.8125 C 2.992188 -71.425781 3.210938 -76.421875 3.765625 -81.796875 L 80.84375 -81.796875 C 81.40625 -76.421875 81.625 -71.390625 81.5 -66.703125 C 81.375 -62.023438 81.035156 -57.070312 80.484375 -51.84375 L 70.796875 -51.84375 L 66.140625 -69.953125 C 65.960938 -70.617188 65.679688 -71.171875 65.296875 -71.609375 C 64.910156 -72.046875 64.367188 -72.40625 63.671875 -72.6875 C 62.867188 -73.03125 61.820312 -73.28125 60.53125 -73.4375 C 59.238281 -73.59375 57.894531 -73.671875 56.5 -73.671875 L 52.265625 -73.671875 L 52.265625 -12.3125 C 52.265625 -11.5 52.476562 -10.859375 52.90625 -10.390625 C 53.34375 -9.921875 53.960938 -9.617188 54.765625 -9.484375 L 67.03125 -7.484375 Z M 67.03125 0 "/></g></g></g><g fill="#000000" fill-opacity="1"><g transform="translate(516.011158, 1382.249861)"><g><path d="M 54.765625 -81.796875 L 86.140625 -81.796875 L 86.140625 -73.890625 L 80.375 -72.421875 C 79.601562 -72.210938 79.015625 -71.84375 78.609375 -71.3125 C 78.210938 -70.789062 78.015625 -70.144531 78.015625 -69.375 L 78.015625 -30.265625 C 78.015625 -24.535156 77.253906 -19.65625 75.734375 -15.625 C 74.222656 -11.59375 72.070312 -8.328125 69.28125 -5.828125 C 66.488281 -3.335938 63.101562 -1.523438 59.125 -0.390625 C 55.144531 0.742188 50.707031 1.3125 45.8125 1.3125 C 34.46875 1.3125 25.984375 -1.207031 20.359375 -6.25 C 14.742188 -11.300781 11.9375 -19.535156 11.9375 -30.953125 L 11.9375 -69.375 C 11.9375 -70.144531 11.742188 -70.78125 11.359375 -71.28125 C 10.972656 -71.789062 10.398438 -72.171875 9.640625 -72.421875 L 4.40625 -73.890625 L 4.40625 -81.796875 L 43.203125 -81.796875 L 43.203125 -73.890625 L 34.875 -72.109375 C 34.101562 -71.960938 33.507812 -71.628906 33.09375 -71.109375 C 32.675781 -70.585938 32.46875 -69.941406 32.46875 -69.171875 L 32.46875 -29.265625 C 32.46875 -22.148438 33.6875 -16.566406 36.125 -12.515625 C 38.570312 -8.460938 42.847656 -6.4375 48.953125 -6.4375 C 52.171875 -6.4375 54.859375 -6.992188 57.015625 -8.109375 C 59.179688 -9.234375 60.921875 -10.796875 62.234375 -12.796875 C 63.546875 -14.804688 64.476562 -17.207031 65.03125 -20 C 65.59375 -22.789062 65.875 -25.847656 65.875 -29.171875 L 65.875 -69.328125 C 65.875 -70.128906 65.660156 -70.78125 65.234375 -71.28125 C 64.816406 -71.789062 64.226562 -72.117188 63.46875 -72.265625 L 54.765625 -73.890625 Z M 54.765625 -81.796875 "/></g></g></g><g fill="#000000" fill-opacity="1"><g transform="translate(606.547993, 1382.249861)"><g><path d="M 35.03125 -74.515625 L 35.03125 -42.203125 C 36.5 -42.023438 38 -41.9375 39.53125 -41.9375 C 41.070312 -41.9375 42.242188 -41.9375 43.046875 -41.9375 C 46.460938 -41.976562 49.332031 -43.394531 51.65625 -46.1875 C 53.976562 -48.976562 55.140625 -53.445312 55.140625 -59.59375 C 55.140625 -65.207031 54.015625 -69.179688 51.765625 -71.515625 C 49.515625 -73.859375 46.082031 -75.03125 41.46875 -75.03125 C 40.28125 -75.03125 39.128906 -74.976562 38.015625 -74.875 C 36.898438 -74.769531 35.90625 -74.648438 35.03125 -74.515625 Z M 45.65625 -7.484375 L 45.65625 0 L 4.65625 0 L 4.65625 -7.546875 L 12.78125 -9.0625 C 13.539062 -9.238281 14.140625 -9.5625 14.578125 -10.03125 C 15.015625 -10.5 15.234375 -11.132812 15.234375 -11.9375 L 15.234375 -69.375 C 15.234375 -70.1875 15.023438 -70.832031 14.609375 -71.3125 C 14.191406 -71.800781 13.597656 -72.132812 12.828125 -72.3125 L 4.65625 -73.890625 L 4.65625 -81.796875 L 24.609375 -81.796875 C 27.648438 -81.796875 30.570312 -81.898438 33.375 -82.109375 C 36.1875 -82.316406 39.441406 -82.421875 43.140625 -82.421875 C 54.867188 -82.421875 63.289062 -80.734375 68.40625 -77.359375 C 73.519531 -73.992188 76.078125 -68.367188 76.078125 -60.484375 C 76.078125 -56.640625 75.5625 -53.40625 74.53125 -50.78125 C 73.507812 -48.164062 72.175781 -46.007812 70.53125 -44.3125 C 68.894531 -42.625 67.03125 -41.28125 64.9375 -40.28125 C 62.84375 -39.289062 60.742188 -38.5 58.640625 -37.90625 C 61.398438 -36.71875 63.757812 -35.113281 65.71875 -33.09375 C 67.675781 -31.070312 69.40625 -28.367188 70.90625 -24.984375 L 76.5625 -12.3125 C 77.113281 -11.125 77.648438 -10.300781 78.171875 -9.84375 C 78.703125 -9.382812 79.421875 -9.035156 80.328125 -8.796875 L 85.296875 -7.484375 L 85.296875 0 L 62.84375 0 C 61.300781 0 59.925781 -0.972656 58.71875 -2.921875 C 57.519531 -4.878906 56.289062 -7.429688 55.03125 -10.578125 L 49.75 -24.296875 C 48.800781 -26.640625 47.863281 -28.679688 46.9375 -30.421875 C 46.019531 -32.171875 45.070312 -33.585938 44.09375 -34.671875 L 35.03125 -34.671875 L 35.03125 -11.734375 C 35.03125 -10.929688 35.25 -10.289062 35.6875 -9.8125 C 36.125 -9.34375 36.742188 -9.039062 37.546875 -8.90625 Z M 45.65625 -7.484375 "/></g></g></g><g fill="#000000" fill-opacity="1"><g transform="translate(692.424473, 1382.249861)"><g><path d="M 40.484375 1.78125 C 34.335938 1.78125 29.019531 0.820312 24.53125 -1.09375 C 20.039062 -3.019531 16.347656 -5.742188 13.453125 -9.265625 C 10.554688 -12.796875 8.410156 -17.109375 7.015625 -22.203125 C 5.617188 -27.296875 4.921875 -33.003906 4.921875 -39.328125 C 4.921875 -46.273438 5.738281 -52.488281 7.375 -57.96875 C 9.019531 -63.445312 11.445312 -68.070312 14.65625 -71.84375 C 17.875 -75.613281 21.878906 -78.492188 26.671875 -80.484375 C 31.472656 -82.472656 36.984375 -83.46875 43.203125 -83.46875 C 49.347656 -83.46875 54.671875 -82.503906 59.171875 -80.578125 C 63.671875 -78.660156 67.367188 -75.929688 70.265625 -72.390625 C 73.171875 -68.847656 75.320312 -64.523438 76.71875 -59.421875 C 78.113281 -54.328125 78.8125 -48.625 78.8125 -42.3125 C 78.8125 -35.394531 77.988281 -29.1875 76.34375 -23.6875 C 74.707031 -18.195312 72.28125 -13.570312 69.0625 -9.8125 C 65.851562 -6.0625 61.847656 -3.191406 57.046875 -1.203125 C 52.242188 0.785156 46.722656 1.78125 40.484375 1.78125 Z M 42.09375 -75.296875 C 37 -75.296875 33.160156 -72.570312 30.578125 -67.125 C 27.992188 -61.6875 26.703125 -52.75 26.703125 -40.3125 C 26.703125 -28.238281 27.929688 -19.554688 30.390625 -14.265625 C 32.859375 -8.984375 36.585938 -6.34375 41.578125 -6.34375 C 46.597656 -6.34375 50.414062 -9.097656 53.03125 -14.609375 C 55.65625 -20.128906 56.96875 -29.117188 56.96875 -41.578125 C 56.96875 -53.648438 55.738281 -62.285156 53.28125 -67.484375 C 50.820312 -72.691406 47.09375 -75.296875 42.09375 -75.296875 Z M 42.09375 -75.296875 "/></g></g></g><g fill="#000000" fill-opacity="1"><g transform="translate(775.002012, 1382.249861)"><g><path d="M 41.46875 -36.546875 C 43.28125 -36.546875 44.960938 -36.894531 46.515625 -37.59375 C 48.078125 -38.289062 49.425781 -39.453125 50.5625 -41.078125 C 51.695312 -42.703125 52.585938 -44.875 53.234375 -47.59375 C 53.878906 -50.320312 54.203125 -53.707031 54.203125 -57.75 C 54.203125 -63.726562 53.097656 -68.085938 50.890625 -70.828125 C 48.691406 -73.566406 45.5 -74.9375 41.3125 -74.9375 C 39.46875 -74.9375 38.148438 -74.859375 37.359375 -74.703125 C 36.578125 -74.546875 35.835938 -74.410156 35.140625 -74.296875 L 35.140625 -36.96875 C 36.117188 -36.863281 37.078125 -36.765625 38.015625 -36.671875 C 38.960938 -36.585938 40.113281 -36.546875 41.46875 -36.546875 Z M 50.375 -7.546875 L 50.375 0 L 4.65625 0 L 4.65625 -7.546875 L 12.984375 -9.109375 C 13.648438 -9.253906 14.191406 -9.5625 14.609375 -10.03125 C 15.023438 -10.5 15.234375 -11.066406 15.234375 -11.734375 L 15.234375 -69.640625 C 15.234375 -70.234375 15.039062 -70.773438 14.65625 -71.265625 C 14.269531 -71.753906 13.765625 -72.066406 13.140625 -72.203125 L 4.65625 -73.890625 L 4.65625 -81.796875 L 25.546875 -81.796875 C 27.859375 -81.796875 30.425781 -81.898438 33.25 -82.109375 C 36.082031 -82.316406 39.488281 -82.40625 43.46875 -82.375 C 49.4375 -82.332031 54.410156 -81.78125 58.390625 -80.71875 C 62.367188 -79.65625 65.535156 -78.101562 67.890625 -76.0625 C 70.242188 -74.019531 71.910156 -71.503906 72.890625 -68.515625 C 73.867188 -65.535156 74.359375 -62.125 74.359375 -58.28125 C 74.359375 -49.164062 71.609375 -42.007812 66.109375 -36.8125 C 60.609375 -31.613281 52.570312 -29.015625 42 -29.015625 C 40.8125 -29.015625 39.640625 -29.039062 38.484375 -29.09375 C 37.335938 -29.144531 36.222656 -29.203125 35.140625 -29.265625 L 35.140625 -11.734375 C 35.140625 -11.066406 35.351562 -10.488281 35.78125 -10 C 36.21875 -9.507812 36.789062 -9.226562 37.5 -9.15625 Z M 50.375 -7.546875 "/></g></g></g><g fill="#000000" fill-opacity="1"><g transform="translate(851.767142, 1382.249861)"><g><path d="M 48.0625 -32.890625 L 37.328125 -67.34375 L 26.921875 -32.890625 Z M 29.6875 -7.546875 L 29.6875 0 L -0.890625 0 L -0.890625 -7.546875 L 6.234375 -9.265625 C 6.929688 -9.441406 7.5 -9.726562 7.9375 -10.125 C 8.375 -10.53125 8.710938 -11.082031 8.953125 -11.78125 L 32.78125 -82.046875 L 51.375 -82.046875 L 75.34375 -11.78125 C 75.59375 -11.082031 75.953125 -10.539062 76.421875 -10.15625 C 76.890625 -9.769531 77.457031 -9.472656 78.125 -9.265625 L 84.671875 -7.546875 L 84.671875 0 L 45.40625 0 L 45.40625 -7.546875 L 55.40625 -9.15625 L 50.84375 -23.9375 L 24.1875 -23.9375 L 19.6875 -9.15625 Z M 29.6875 -7.546875 "/></g></g></g><g fill="#000000" fill-opacity="1"><g transform="translate(929.370163, 1382.249861)"><g><path d="M 67.03125 0 L 17.640625 0 L 17.640625 -7.484375 L 29.90625 -9.484375 C 30.707031 -9.617188 31.320312 -9.921875 31.75 -10.390625 C 32.1875 -10.859375 32.40625 -11.5 32.40625 -12.3125 L 32.40625 -73.671875 L 27.96875 -73.671875 C 26.5625 -73.671875 25.210938 -73.582031 23.921875 -73.40625 C 22.628906 -73.238281 21.582031 -73 20.78125 -72.6875 C 20.050781 -72.40625 19.492188 -72.035156 19.109375 -71.578125 C 18.722656 -71.128906 18.460938 -70.570312 18.328125 -69.90625 L 13.875 -51.84375 L 4.1875 -51.84375 C 3.59375 -57.21875 3.234375 -62.207031 3.109375 -66.8125 C 2.992188 -71.425781 3.210938 -76.421875 3.765625 -81.796875 L 80.84375 -81.796875 C 81.40625 -76.421875 81.625 -71.390625 81.5 -66.703125 C 81.375 -62.023438 81.035156 -57.070312 80.484375 -51.84375 L 70.796875 -51.84375 L 66.140625 -69.953125 C 65.960938 -70.617188 65.679688 -71.171875 65.296875 -71.609375 C 64.910156 -72.046875 64.367188 -72.40625 63.671875 -72.6875 C 62.867188 -73.03125 61.820312 -73.28125 60.53125 -73.4375 C 59.238281 -73.59375 57.894531 -73.671875 56.5 -73.671875 L 52.265625 -73.671875 L 52.265625 -12.3125 C 52.265625 -11.5 52.476562 -10.859375 52.90625 -10.390625 C 53.34375 -9.921875 53.960938 -9.617188 54.765625 -9.484375 L 67.03125 -7.484375 Z M 67.03125 0 "/></g></g></g><g fill="#000000" fill-opacity="1"><g transform="translate(1013.675667, 1382.249861)"><g><path d="M 94.25 -81.796875 L 94.25 -73.890625 L 86.03125 -72.3125 C 85.257812 -72.132812 84.664062 -71.773438 84.25 -71.234375 C 83.832031 -70.691406 83.625 -70.039062 83.625 -69.28125 L 83.625 -11.984375 C 83.625 -11.179688 83.832031 -10.535156 84.25 -10.046875 C 84.664062 -9.566406 85.273438 -9.238281 86.078125 -9.0625 L 94.25 -7.546875 L 94.25 0 L 55.5625 0 L 55.5625 -7.546875 L 61.375 -9.0625 C 62.132812 -9.269531 62.722656 -9.609375 63.140625 -10.078125 C 63.566406 -10.546875 63.78125 -11.179688 63.78125 -11.984375 L 63.78125 -36.765625 L 35.140625 -36.765625 L 35.140625 -11.984375 C 35.140625 -11.179688 35.335938 -10.535156 35.734375 -10.046875 C 36.140625 -9.566406 36.726562 -9.238281 37.5 -9.0625 L 44.03125 -7.546875 L 44.03125 0 L 4.65625 0 L 4.65625 -7.546875 L 12.828125 -9.0625 C 13.628906 -9.238281 14.226562 -9.566406 14.625 -10.046875 C 15.03125 -10.535156 15.234375 -11.179688 15.234375 -11.984375 L 15.234375 -69.28125 C 15.234375 -70.15625 15.03125 -70.832031 14.625 -71.3125 C 14.226562 -71.800781 13.644531 -72.132812 12.875 -72.3125 L 4.65625 -73.890625 L 4.65625 -81.796875 L 44.03125 -81.796875 L 44.03125 -73.890625 L 37.4375 -72.3125 C 36.664062 -72.132812 36.085938 -71.800781 35.703125 -71.3125 C 35.328125 -70.832031 35.140625 -70.15625 35.140625 -69.28125 L 35.140625 -46.34375 L 63.78125 -46.34375 L 63.78125 -69.28125 C 63.78125 -70.039062 63.578125 -70.679688 63.171875 -71.203125 C 62.773438 -71.734375 62.191406 -72.101562 61.421875 -72.3125 L 55.5 -73.890625 L 55.5 -81.796875 Z M 94.25 -81.796875 "/></g></g></g><g fill="#000000" fill-opacity="1"><g transform="translate(1112.590698, 1382.249861)"><g><path d="M 45.71875 -81.796875 L 45.71875 -73.890625 L 37.546875 -72.3125 C 36.742188 -72.132812 36.140625 -71.789062 35.734375 -71.28125 C 35.335938 -70.78125 35.140625 -70.128906 35.140625 -69.328125 L 35.140625 -12.046875 C 35.140625 -11.242188 35.335938 -10.585938 35.734375 -10.078125 C 36.140625 -9.578125 36.742188 -9.253906 37.546875 -9.109375 L 45.71875 -7.546875 L 45.71875 0 L 4.65625 0 L 4.65625 -7.546875 L 12.828125 -9.0625 C 13.628906 -9.195312 14.226562 -9.515625 14.625 -10.015625 C 15.03125 -10.523438 15.234375 -11.179688 15.234375 -11.984375 L 15.234375 -69.328125 C 15.234375 -70.128906 15.03125 -70.78125 14.625 -71.28125 C 14.226562 -71.789062 13.628906 -72.132812 12.828125 -72.3125 L 4.65625 -73.890625 L 4.65625 -81.796875 Z M 45.71875 -81.796875 "/></g></g></g><g fill="#000000" fill-opacity="1"><g transform="translate(1162.964564, 1382.249861)"><g><path d="M 67.921875 -59.4375 L 58.59375 -59.4375 L 55.765625 -69.125 C 55.523438 -70.03125 55.140625 -70.742188 54.609375 -71.265625 C 54.085938 -71.785156 53.441406 -72.207031 52.671875 -72.53125 C 51.804688 -72.875 50.566406 -73.148438 48.953125 -73.359375 C 47.347656 -73.566406 45.691406 -73.671875 43.984375 -73.671875 L 35.140625 -73.671875 L 35.140625 -46.1875 L 57.65625 -47.015625 L 57.65625 -36.28125 L 35.140625 -36.859375 L 35.140625 -8.53125 L 46.1875 -8.53125 C 47.894531 -8.53125 49.679688 -8.632812 51.546875 -8.84375 C 53.421875 -9.050781 54.789062 -9.332031 55.65625 -9.6875 C 56.425781 -10 57.003906 -10.40625 57.390625 -10.90625 C 57.773438 -11.414062 58.140625 -12.144531 58.484375 -13.09375 L 63 -26.078125 L 72.265625 -24.609375 C 72.265625 -20.421875 72.101562 -16.335938 71.78125 -12.359375 C 71.46875 -8.378906 70.984375 -4.257812 70.328125 0 L 4.65625 0 L 4.65625 -7.546875 L 12.828125 -9.0625 C 13.628906 -9.195312 14.226562 -9.515625 14.625 -10.015625 C 15.03125 -10.523438 15.234375 -11.179688 15.234375 -11.984375 L 15.234375 -69.328125 C 15.234375 -70.128906 15.03125 -70.78125 14.625 -71.28125 C 14.226562 -71.789062 13.628906 -72.132812 12.828125 -72.3125 L 4.65625 -73.890625 L 4.65625 -81.796875 L 67.59375 -81.796875 C 68.050781 -78.128906 68.296875 -74.4375 68.328125 -70.71875 C 68.367188 -67 68.234375 -63.238281 67.921875 -59.4375 Z M 67.921875 -59.4375 "/></g></g></g></svg>