<svg xmlns="http://www.w3.org/2000/svg" xmlns:xlink="http://www.w3.org/1999/xlink" width="2000" zoomAndPan="magnify" viewBox="0 0 1500 1499.999933" height="2000" preserveAspectRatio="xMidYMid meet" version="1.0"><defs><g/><clipPath id="f9c3d6e03e"><path d="M 421 295.371094 L 621 295.371094 L 621 494 L 421 494 Z M 421 295.371094 " clip-rule="nonzero"/></clipPath><clipPath id="b4afaa49cd"><path d="M 335.71875 436 L 1161 436 L 1161 1204.371094 L 335.71875 1204.371094 Z M 335.71875 436 " clip-rule="nonzero"/></clipPath></defs><path fill="currentColor" d="M 748.136719 635.808594 C 747.203125 635.808594 746.277344 635.898438 745.363281 636.082031 C 744.445312 636.261719 743.554688 636.53125 742.695312 636.890625 C 741.832031 637.246094 741.011719 637.683594 740.234375 638.203125 C 739.457031 638.722656 738.738281 639.3125 738.078125 639.96875 C 737.417969 640.628906 736.828125 641.347656 736.3125 642.125 C 735.792969 642.902344 735.355469 643.71875 734.996094 644.582031 C 734.640625 645.445312 734.371094 646.332031 734.1875 647.25 C 734.003906 648.164062 733.914062 649.089844 733.914062 650.023438 L 733.914062 678.449219 C 733.914062 679.382812 734.007812 680.308594 734.1875 681.222656 C 734.371094 682.140625 734.640625 683.027344 734.996094 683.890625 C 735.355469 684.753906 735.792969 685.570312 736.3125 686.347656 C 736.832031 687.125 737.421875 687.839844 738.082031 688.5 C 738.742188 689.160156 739.460938 689.75 740.234375 690.269531 C 741.011719 690.789062 741.832031 691.226562 742.695312 691.582031 C 743.558594 691.941406 744.445312 692.210938 745.363281 692.390625 C 746.277344 692.574219 747.203125 692.664062 748.136719 692.664062 C 749.070312 692.664062 749.996094 692.574219 750.910156 692.390625 C 751.828125 692.210938 752.714844 691.941406 753.578125 691.582031 C 754.441406 691.226562 755.261719 690.789062 756.039062 690.269531 C 756.8125 689.75 757.53125 689.160156 758.191406 688.5 C 758.851562 687.839844 759.441406 687.125 759.960938 686.347656 C 760.480469 685.570312 760.917969 684.753906 761.273438 683.890625 C 761.632812 683.027344 761.902344 682.140625 762.085938 681.222656 C 762.265625 680.308594 762.359375 679.382812 762.359375 678.449219 L 762.359375 650.023438 C 762.359375 649.089844 762.265625 648.164062 762.085938 647.25 C 761.902344 646.332031 761.632812 645.445312 761.277344 644.582031 C 760.917969 643.71875 760.480469 642.902344 759.960938 642.125 C 759.441406 641.347656 758.855469 640.628906 758.195312 639.96875 C 757.53125 639.3125 756.816406 638.722656 756.039062 638.203125 C 755.261719 637.683594 754.441406 637.246094 753.578125 636.890625 C 752.714844 636.53125 751.828125 636.261719 750.910156 636.082031 C 749.996094 635.898438 749.070312 635.808594 748.136719 635.808594 Z M 748.136719 635.808594 " fill-opacity="1" fill-rule="nonzero"/><path fill="currentColor" d="M 687.085938 668.402344 C 686.425781 667.742188 685.707031 667.152344 684.929688 666.636719 C 684.152344 666.117188 683.335938 665.679688 682.472656 665.324219 C 681.609375 664.96875 680.722656 664.699219 679.804688 664.515625 C 678.890625 664.335938 677.964844 664.246094 677.03125 664.246094 C 676.097656 664.246094 675.175781 664.335938 674.261719 664.519531 C 673.34375 664.703125 672.457031 664.972656 671.59375 665.328125 C 670.730469 665.6875 669.914062 666.125 669.136719 666.640625 C 668.359375 667.160156 667.644531 667.75 666.984375 668.410156 C 666.324219 669.066406 665.734375 669.785156 665.214844 670.5625 C 664.695312 671.335938 664.257812 672.15625 663.902344 673.015625 C 663.542969 673.878906 663.273438 674.765625 663.09375 675.679688 C 662.910156 676.597656 662.820312 677.519531 662.816406 678.453125 C 662.816406 679.386719 662.910156 680.308594 663.089844 681.222656 C 663.273438 682.140625 663.539062 683.027344 663.898438 683.890625 C 664.253906 684.75 664.691406 685.570312 665.210938 686.347656 C 665.726562 687.121094 666.316406 687.839844 666.976562 688.5 L 681.195312 702.714844 C 681.855469 703.375 682.574219 703.960938 683.351562 704.480469 C 684.128906 704.996094 684.945312 705.433594 685.808594 705.789062 C 686.671875 706.148438 687.5625 706.414062 688.476562 706.597656 C 689.390625 706.777344 690.316406 706.871094 691.25 706.871094 C 692.183594 706.867188 693.105469 706.777344 694.023438 706.59375 C 694.9375 706.414062 695.824219 706.144531 696.6875 705.785156 C 697.550781 705.429688 698.367188 704.992188 699.144531 704.472656 C 699.921875 703.953125 700.640625 703.367188 701.296875 702.707031 C 701.957031 702.046875 702.546875 701.328125 703.066406 700.554688 C 703.585938 699.777344 704.023438 698.960938 704.378906 698.097656 C 704.738281 697.238281 705.007812 696.347656 705.1875 695.433594 C 705.371094 694.519531 705.464844 693.59375 705.464844 692.664062 C 705.464844 691.730469 705.375 690.804688 705.191406 689.890625 C 705.011719 688.976562 704.742188 688.085938 704.382812 687.226562 C 704.027344 686.363281 703.589844 685.542969 703.074219 684.769531 C 702.554688 683.992188 701.964844 683.273438 701.304688 682.613281 Z M 687.085938 668.402344 " fill-opacity="1" fill-rule="nonzero"/><path fill="currentColor" d="M 809.1875 668.402344 L 794.964844 682.613281 C 794.304688 683.273438 793.71875 683.992188 793.199219 684.769531 C 792.679688 685.542969 792.242188 686.363281 791.882812 687.226562 C 791.527344 688.085938 791.257812 688.976562 791.074219 689.890625 C 790.894531 690.808594 790.800781 691.730469 790.800781 692.664062 C 790.800781 693.597656 790.894531 694.523438 791.074219 695.4375 C 791.257812 696.351562 791.527344 697.242188 791.882812 698.101562 C 792.242188 698.964844 792.679688 699.785156 793.199219 700.558594 C 793.71875 701.335938 794.304688 702.054688 794.964844 702.714844 C 795.625 703.375 796.34375 703.964844 797.121094 704.480469 C 797.898438 705 798.71875 705.4375 799.578125 705.796875 C 800.441406 706.152344 801.332031 706.421875 802.246094 706.605469 C 803.164062 706.785156 804.085938 706.875 805.019531 706.875 C 805.953125 706.875 806.878906 706.785156 807.796875 706.605469 C 808.710938 706.421875 809.601562 706.152344 810.464844 705.796875 C 811.324219 705.4375 812.144531 705 812.921875 704.480469 C 813.699219 703.964844 814.414062 703.375 815.078125 702.714844 L 829.296875 688.5 C 829.957031 687.839844 830.546875 687.121094 831.066406 686.347656 C 831.585938 685.570312 832.023438 684.75 832.378906 683.890625 C 832.738281 683.027344 833.007812 682.136719 833.1875 681.222656 C 833.371094 680.308594 833.460938 679.382812 833.460938 678.449219 C 833.460938 677.515625 833.371094 676.59375 833.1875 675.679688 C 833.007812 674.761719 832.738281 673.875 832.378906 673.011719 C 832.023438 672.148438 831.585938 671.332031 831.066406 670.554688 C 830.546875 669.777344 829.957031 669.0625 829.296875 668.402344 C 828.636719 667.742188 827.917969 667.152344 827.144531 666.632812 C 826.367188 666.113281 825.546875 665.675781 824.683594 665.320312 C 823.820312 664.960938 822.933594 664.691406 822.015625 664.511719 C 821.101562 664.328125 820.175781 664.238281 819.242188 664.238281 C 818.308594 664.238281 817.382812 664.328125 816.46875 664.511719 C 815.554688 664.691406 814.664062 664.960938 813.800781 665.320312 C 812.9375 665.675781 812.117188 666.113281 811.34375 666.632812 C 810.566406 667.152344 809.847656 667.742188 809.1875 668.402344 Z M 809.1875 668.402344 " fill-opacity="1" fill-rule="nonzero"/><g clip-path="url(#f9c3d6e03e)"><path fill="currentColor" d="M 506.375 493.667969 C 569.105469 493.667969 620.144531 442.65625 620.144531 379.957031 C 620.144531 349.585938 608.3125 321.027344 586.828125 299.546875 C 586.167969 298.886719 585.449219 298.296875 584.671875 297.777344 C 583.898438 297.257812 583.078125 296.820312 582.214844 296.464844 C 581.351562 296.105469 580.464844 295.835938 579.546875 295.652344 C 578.632812 295.472656 577.707031 295.382812 576.773438 295.382812 C 575.839844 295.382812 574.914062 295.472656 574 295.652344 C 573.082031 295.835938 572.195312 296.105469 571.332031 296.464844 C 570.46875 296.820312 569.648438 297.257812 568.871094 297.777344 C 568.097656 298.296875 567.378906 298.886719 566.71875 299.546875 L 425.921875 440.269531 C 425.261719 440.929688 424.671875 441.648438 424.152344 442.421875 C 423.632812 443.199219 423.195312 444.019531 422.839844 444.882812 C 422.480469 445.746094 422.210938 446.632812 422.03125 447.546875 C 421.847656 448.464844 421.757812 449.390625 421.757812 450.324219 C 421.757812 451.257812 421.847656 452.179688 422.03125 453.097656 C 422.210938 454.011719 422.480469 454.902344 422.839844 455.761719 C 423.195312 456.625 423.632812 457.445312 424.152344 458.222656 C 424.671875 458.996094 425.261719 459.714844 425.921875 460.375 C 447.421875 481.84375 475.988281 493.667969 506.375 493.667969 Z M 575.941406 330.527344 C 586.175781 344.867188 591.703125 361.988281 591.703125 379.957031 C 591.703125 426.984375 553.425781 465.242188 506.375 465.242188 C 488.40625 465.242188 471.265625 459.722656 456.921875 449.484375 Z M 575.941406 330.527344 " fill-opacity="1" fill-rule="nonzero"/></g><path fill="currentColor" d="M 1046.78125 422.597656 C 1078.15625 422.597656 1103.667969 397.09375 1103.667969 365.742188 C 1103.667969 334.394531 1078.15625 308.886719 1046.78125 308.886719 C 1015.410156 308.886719 989.898438 334.394531 989.898438 365.742188 C 989.898438 397.09375 1015.410156 422.597656 1046.78125 422.597656 Z M 1046.78125 337.316406 C 1062.460938 337.316406 1075.226562 350.066406 1075.226562 365.742188 C 1075.226562 381.421875 1062.460938 394.171875 1046.78125 394.171875 C 1031.101562 394.171875 1018.339844 381.421875 1018.339844 365.742188 C 1018.339844 350.066406 1031.101562 337.316406 1046.78125 337.316406 Z M 1046.78125 337.316406 " fill-opacity="1" fill-rule="nonzero"/><path fill="currentColor" d="M 705.472656 365.742188 C 705.472656 366.675781 705.382812 367.601562 705.199219 368.515625 C 705.015625 369.429688 704.746094 370.320312 704.390625 371.183594 C 704.03125 372.042969 703.59375 372.863281 703.074219 373.640625 C 702.558594 374.414062 701.96875 375.132812 701.308594 375.792969 C 700.648438 376.453125 699.929688 377.042969 699.152344 377.5625 C 698.375 378.078125 697.554688 378.519531 696.695312 378.875 C 695.832031 379.230469 694.941406 379.5 694.027344 379.683594 C 693.109375 379.867188 692.183594 379.957031 691.25 379.957031 C 690.316406 379.957031 689.394531 379.867188 688.476562 379.683594 C 687.5625 379.5 686.671875 379.230469 685.808594 378.875 C 684.945312 378.519531 684.128906 378.078125 683.351562 377.5625 C 682.574219 377.042969 681.855469 376.453125 681.195312 375.792969 C 680.535156 375.132812 679.945312 374.414062 679.425781 373.640625 C 678.90625 372.863281 678.46875 372.042969 678.113281 371.183594 C 677.753906 370.320312 677.484375 369.429688 677.304688 368.515625 C 677.121094 367.601562 677.03125 366.675781 677.03125 365.742188 C 677.03125 364.808594 677.121094 363.886719 677.304688 362.96875 C 677.484375 362.054688 677.753906 361.164062 678.113281 360.304688 C 678.46875 359.441406 678.90625 358.621094 679.425781 357.847656 C 679.945312 357.070312 680.535156 356.351562 681.195312 355.691406 C 681.855469 355.03125 682.574219 354.441406 683.351562 353.925781 C 684.128906 353.40625 684.945312 352.96875 685.808594 352.609375 C 686.671875 352.253906 687.5625 351.984375 688.476562 351.800781 C 689.394531 351.621094 690.316406 351.527344 691.25 351.527344 C 692.183594 351.527344 693.109375 351.621094 694.027344 351.800781 C 694.941406 351.984375 695.832031 352.253906 696.695312 352.609375 C 697.554688 352.96875 698.375 353.40625 699.152344 353.925781 C 699.929688 354.441406 700.648438 355.03125 701.308594 355.691406 C 701.96875 356.351562 702.558594 357.070312 703.074219 357.847656 C 703.59375 358.621094 704.03125 359.441406 704.390625 360.304688 C 704.746094 361.164062 705.015625 362.054688 705.199219 362.96875 C 705.382812 363.886719 705.472656 364.808594 705.472656 365.742188 Z M 705.472656 365.742188 " fill-opacity="1" fill-rule="nonzero"/><path fill="currentColor" d="M 876.128906 337.316406 C 876.128906 338.25 876.035156 339.171875 875.855469 340.089844 C 875.671875 341.003906 875.402344 341.890625 875.046875 342.753906 C 874.6875 343.617188 874.25 344.4375 873.730469 345.210938 C 873.210938 345.988281 872.621094 346.707031 871.960938 347.367188 C 871.300781 348.027344 870.582031 348.613281 869.808594 349.132812 C 869.03125 349.652344 868.210938 350.089844 867.347656 350.445312 C 866.484375 350.804688 865.597656 351.074219 864.679688 351.253906 C 863.765625 351.4375 862.839844 351.527344 861.90625 351.527344 C 860.972656 351.527344 860.046875 351.4375 859.132812 351.253906 C 858.214844 351.074219 857.328125 350.804688 856.464844 350.445312 C 855.601562 350.089844 854.78125 349.652344 854.003906 349.132812 C 853.230469 348.613281 852.511719 348.027344 851.851562 347.367188 C 851.191406 346.707031 850.601562 345.988281 850.082031 345.210938 C 849.5625 344.4375 849.125 343.617188 848.769531 342.753906 C 848.410156 341.890625 848.140625 341.003906 847.957031 340.089844 C 847.777344 339.171875 847.683594 338.25 847.683594 337.316406 C 847.683594 336.382812 847.777344 335.457031 847.957031 334.542969 C 848.140625 333.625 848.410156 332.738281 848.769531 331.875 C 849.125 331.011719 849.5625 330.195312 850.082031 329.417969 C 850.601562 328.640625 851.191406 327.925781 851.851562 327.265625 C 852.511719 326.605469 853.230469 326.015625 854.003906 325.496094 C 854.78125 324.976562 855.601562 324.539062 856.464844 324.183594 C 857.328125 323.824219 858.214844 323.554688 859.132812 323.375 C 860.046875 323.191406 860.972656 323.101562 861.90625 323.101562 C 862.839844 323.101562 863.765625 323.191406 864.679688 323.375 C 865.597656 323.554688 866.484375 323.824219 867.347656 324.183594 C 868.210938 324.539062 869.03125 324.976562 869.808594 325.496094 C 870.582031 326.015625 871.300781 326.605469 871.960938 327.265625 C 872.621094 327.925781 873.210938 328.640625 873.730469 329.417969 C 874.25 330.195312 874.6875 331.011719 875.046875 331.875 C 875.402344 332.738281 875.671875 333.625 875.855469 334.542969 C 876.035156 335.457031 876.128906 336.382812 876.128906 337.316406 Z M 876.128906 337.316406 " fill-opacity="1" fill-rule="nonzero"/><path fill="currentColor" d="M 406.828125 564.738281 C 406.828125 565.671875 406.734375 566.597656 406.554688 567.511719 C 406.371094 568.425781 406.101562 569.316406 405.742188 570.179688 C 405.386719 571.039062 404.949219 571.859375 404.429688 572.636719 C 403.910156 573.410156 403.320312 574.128906 402.660156 574.789062 C 402 575.449219 401.28125 576.039062 400.507812 576.558594 C 399.730469 577.074219 398.910156 577.511719 398.046875 577.871094 C 397.183594 578.226562 396.296875 578.496094 395.378906 578.679688 C 394.464844 578.863281 393.539062 578.953125 392.605469 578.953125 C 391.671875 578.953125 390.746094 578.863281 389.832031 578.679688 C 388.914062 578.496094 388.027344 578.226562 387.164062 577.871094 C 386.300781 577.511719 385.480469 577.074219 384.703125 576.558594 C 383.929688 576.039062 383.210938 575.449219 382.550781 574.789062 C 381.890625 574.128906 381.300781 573.410156 380.78125 572.636719 C 380.261719 571.859375 379.824219 571.039062 379.464844 570.179688 C 379.109375 569.316406 378.839844 568.425781 378.65625 567.511719 C 378.476562 566.597656 378.382812 565.671875 378.382812 564.738281 C 378.382812 563.804688 378.476562 562.882812 378.65625 561.964844 C 378.839844 561.050781 379.109375 560.160156 379.464844 559.300781 C 379.824219 558.4375 380.261719 557.617188 380.78125 556.84375 C 381.300781 556.066406 381.890625 555.347656 382.550781 554.6875 C 383.210938 554.027344 383.929688 553.4375 384.703125 552.921875 C 385.480469 552.402344 386.300781 551.964844 387.164062 551.605469 C 388.027344 551.25 388.914062 550.980469 389.832031 550.796875 C 390.746094 550.617188 391.671875 550.523438 392.605469 550.523438 C 393.539062 550.523438 394.464844 550.617188 395.378906 550.796875 C 396.296875 550.980469 397.183594 551.25 398.046875 551.605469 C 398.910156 551.964844 399.730469 552.402344 400.507812 552.921875 C 401.28125 553.4375 402 554.027344 402.660156 554.6875 C 403.320312 555.347656 403.910156 556.066406 404.429688 556.84375 C 404.949219 557.617188 405.386719 558.4375 405.742188 559.300781 C 406.101562 560.160156 406.371094 561.050781 406.554688 561.964844 C 406.734375 562.882812 406.828125 563.804688 406.828125 564.738281 Z M 406.828125 564.738281 " fill-opacity="1" fill-rule="nonzero"/><path fill="currentColor" d="M 1103.667969 479.453125 C 1103.667969 480.386719 1103.578125 481.3125 1103.394531 482.226562 C 1103.210938 483.144531 1102.941406 484.03125 1102.585938 484.894531 C 1102.226562 485.757812 1101.789062 486.574219 1101.269531 487.351562 C 1100.753906 488.128906 1100.164062 488.84375 1099.503906 489.503906 C 1098.84375 490.164062 1098.125 490.753906 1097.347656 491.273438 C 1096.570312 491.792969 1095.75 492.230469 1094.886719 492.585938 C 1094.027344 492.945312 1093.136719 493.214844 1092.21875 493.394531 C 1091.304688 493.578125 1090.378906 493.667969 1089.445312 493.667969 C 1088.511719 493.667969 1087.585938 493.578125 1086.671875 493.394531 C 1085.757812 493.214844 1084.867188 492.945312 1084.003906 492.585938 C 1083.140625 492.230469 1082.320312 491.792969 1081.546875 491.273438 C 1080.769531 490.753906 1080.050781 490.164062 1079.390625 489.503906 C 1078.730469 488.84375 1078.140625 488.128906 1077.621094 487.351562 C 1077.101562 486.574219 1076.664062 485.757812 1076.308594 484.894531 C 1075.949219 484.03125 1075.679688 483.144531 1075.5 482.226562 C 1075.316406 481.3125 1075.226562 480.386719 1075.226562 479.453125 C 1075.226562 478.523438 1075.316406 477.597656 1075.5 476.683594 C 1075.679688 475.765625 1075.949219 474.878906 1076.308594 474.015625 C 1076.664062 473.152344 1077.101562 472.332031 1077.621094 471.558594 C 1078.140625 470.78125 1078.730469 470.0625 1079.390625 469.402344 C 1080.050781 468.742188 1080.769531 468.15625 1081.546875 467.636719 C 1082.320312 467.117188 1083.140625 466.679688 1084.003906 466.324219 C 1084.867188 465.964844 1085.757812 465.695312 1086.671875 465.515625 C 1087.585938 465.332031 1088.511719 465.242188 1089.445312 465.242188 C 1090.378906 465.242188 1091.304688 465.332031 1092.21875 465.515625 C 1093.136719 465.695312 1094.027344 465.964844 1094.886719 466.324219 C 1095.75 466.679688 1096.570312 467.117188 1097.347656 467.636719 C 1098.125 468.15625 1098.84375 468.742188 1099.503906 469.402344 C 1100.164062 470.0625 1100.75 470.78125 1101.269531 471.558594 C 1101.789062 472.332031 1102.226562 473.152344 1102.585938 474.015625 C 1102.941406 474.878906 1103.210938 475.765625 1103.394531 476.683594 C 1103.578125 477.597656 1103.667969 478.523438 1103.667969 479.453125 Z M 1103.667969 479.453125 " fill-opacity="1" fill-rule="nonzero"/><g clip-path="url(#b4afaa49cd)"><path fill="currentColor" d="M 1146.332031 721.09375 L 1145.8125 721.09375 C 1147.6875 717.765625 1149.390625 714.347656 1150.917969 710.847656 C 1152.449219 707.347656 1153.796875 703.777344 1154.964844 700.140625 C 1156.132812 696.503906 1157.109375 692.816406 1157.902344 689.078125 C 1158.695312 685.339844 1159.296875 681.574219 1159.707031 677.773438 C 1160.117188 673.976562 1160.332031 670.167969 1160.355469 666.347656 C 1160.378906 662.527344 1160.210938 658.714844 1159.84375 654.914062 C 1159.480469 651.109375 1158.925781 647.335938 1158.179688 643.589844 C 1157.429688 639.839844 1156.496094 636.144531 1155.371094 632.492188 C 1141.332031 586.773438 1100.902344 555.382812 1054.210938 552.300781 C 1053.484375 545.011719 1052.03125 537.867188 1049.851562 530.871094 C 1031.492188 470.996094 967.789062 437.152344 907.792969 455.488281 C 897.359375 458.699219 887.597656 463.320312 878.503906 469.351562 C 859.828125 448.820312 833.347656 436.8125 805.019531 436.8125 C 768.453125 436.8125 735.234375 456.933594 717.917969 488.253906 C 711.492188 485.347656 704.835938 483.152344 697.945312 481.667969 C 691.050781 480.1875 684.082031 479.449219 677.03125 479.453125 C 626.464844 479.453125 584.671875 517.367188 578.386719 566.230469 C 565.382812 547.925781 544.242188 536.3125 520.597656 536.3125 C 481.390625 536.3125 449.492188 568.195312 449.492188 607.378906 C 449.492188 612.9375 450.332031 618.351562 451.582031 623.65625 C 446.277344 622.414062 440.851562 621.59375 435.269531 621.59375 C 396.0625 621.59375 364.164062 653.480469 364.164062 692.664062 C 364.167969 697.558594 364.679688 702.402344 365.691406 707.191406 C 366.703125 711.980469 368.195312 716.613281 370.171875 721.09375 L 349.941406 721.09375 C 349.007812 721.09375 348.082031 721.183594 347.167969 721.363281 C 346.25 721.546875 345.363281 721.816406 344.5 722.171875 C 343.636719 722.53125 342.816406 722.96875 342.039062 723.488281 C 341.261719 724.003906 340.546875 724.59375 339.882812 725.253906 C 339.222656 725.914062 338.632812 726.632812 338.117188 727.410156 C 337.597656 728.183594 337.160156 729.003906 336.800781 729.867188 C 336.445312 730.730469 336.175781 731.617188 335.992188 732.53125 C 335.8125 733.449219 335.71875 734.375 335.71875 735.304688 L 335.71875 763.734375 C 335.71875 915.121094 417.304688 1053.519531 549.039062 1127.277344 L 549.039062 1190.152344 C 549.039062 1191.085938 549.128906 1192.011719 549.3125 1192.925781 C 549.492188 1193.84375 549.761719 1194.730469 550.121094 1195.59375 C 550.476562 1196.457031 550.914062 1197.273438 551.433594 1198.050781 C 551.953125 1198.828125 552.542969 1199.546875 553.203125 1200.207031 C 553.863281 1200.867188 554.582031 1201.453125 555.359375 1201.972656 C 556.136719 1202.492188 556.953125 1202.929688 557.816406 1203.285156 C 558.679688 1203.644531 559.570312 1203.914062 560.484375 1204.09375 C 561.402344 1204.277344 562.328125 1204.367188 563.261719 1204.367188 L 933.011719 1204.367188 C 933.945312 1204.367188 934.871094 1204.277344 935.789062 1204.09375 C 936.703125 1203.914062 937.59375 1203.644531 938.457031 1203.285156 C 939.316406 1202.929688 940.136719 1202.492188 940.914062 1201.972656 C 941.691406 1201.453125 942.410156 1200.867188 943.070312 1200.207031 C 943.730469 1199.546875 944.320312 1198.828125 944.839844 1198.050781 C 945.355469 1197.273438 945.796875 1196.457031 946.152344 1195.59375 C 946.507812 1194.730469 946.777344 1193.84375 946.960938 1192.925781 C 947.144531 1192.011719 947.234375 1191.085938 947.234375 1190.152344 L 947.234375 1127.277344 C 1078.96875 1053.519531 1160.550781 915.121094 1160.550781 763.734375 L 1160.550781 735.304688 C 1160.550781 734.371094 1160.460938 733.449219 1160.28125 732.53125 C 1160.097656 731.617188 1159.828125 730.730469 1159.472656 729.867188 C 1159.113281 729.003906 1158.675781 728.183594 1158.15625 727.410156 C 1157.636719 726.632812 1157.046875 725.914062 1156.386719 725.253906 C 1155.726562 724.59375 1155.007812 724.003906 1154.234375 723.488281 C 1153.457031 722.96875 1152.636719 722.53125 1151.773438 722.171875 C 1150.910156 721.816406 1150.023438 721.546875 1149.105469 721.363281 C 1148.191406 721.183594 1147.265625 721.09375 1146.332031 721.09375 Z M 916.109375 482.675781 C 961.191406 468.917969 1008.894531 494.308594 1022.671875 539.261719 C 1025.375 547.988281 1026.582031 556.914062 1026.296875 566.042969 C 1026.242188 568.035156 1026.589844 569.957031 1027.34375 571.800781 C 1028.09375 573.648438 1029.1875 575.265625 1030.617188 576.65625 C 1033.476562 579.417969 1037.378906 580.921875 1041.367188 580.632812 C 1081.058594 578.347656 1116.570312 603.027344 1128.179688 640.832031 C 1136.808594 668.894531 1130.101562 699.070312 1110.992188 721.09375 L 1003.96875 721.09375 L 979.605469 641.597656 C 979.332031 640.703125 978.976562 639.84375 978.535156 639.023438 C 978.09375 638.199219 977.574219 637.429688 976.980469 636.707031 C 976.386719 635.984375 975.726562 635.332031 975.003906 634.738281 C 974.28125 634.148438 973.503906 633.632812 972.679688 633.195312 C 971.855469 632.757812 970.996094 632.402344 970.101562 632.132812 C 969.207031 631.863281 968.292969 631.6875 967.363281 631.597656 C 966.433594 631.507812 965.503906 631.511719 964.574219 631.605469 C 963.644531 631.699219 962.730469 631.882812 961.839844 632.15625 C 960.945312 632.429688 960.085938 632.789062 959.265625 633.230469 C 958.441406 633.671875 957.671875 634.191406 956.949219 634.785156 C 956.230469 635.382812 955.574219 636.039062 954.984375 636.765625 C 954.394531 637.488281 953.878906 638.261719 953.441406 639.085938 C 953.003906 639.914062 952.652344 640.773438 952.382812 641.667969 C 952.113281 642.5625 951.9375 643.476562 951.847656 644.40625 C 951.761719 645.335938 951.765625 646.265625 951.859375 647.191406 C 951.953125 648.121094 952.140625 649.03125 952.414062 649.925781 L 974.222656 721.09375 L 918.089844 721.09375 C 915.003906 683.234375 899.570312 648.179688 873.84375 620.289062 C 873.597656 617.90625 872.96875 615.582031 871.574219 613.578125 C 866.167969 605.875 862.140625 597.679688 859.574219 589.15625 C 845.839844 544.1875 871.199219 496.417969 916.109375 482.675781 Z M 522.035156 721.09375 C 528.640625 688.695312 557.367188 664.238281 591.703125 664.238281 C 592.144531 664.238281 592.5625 664.316406 593 664.324219 C 588.90625 673.289062 585.609375 682.535156 583.113281 692.066406 C 580.617188 701.597656 578.960938 711.273438 578.140625 721.09375 Z M 464.804688 721.09375 C 467.199219 699.480469 474.722656 678.945312 487.53125 661.113281 C 511.515625 627.464844 550.457031 607.378906 591.703125 607.378906 C 604.511719 607.378906 617.128906 609.515625 629.164062 613.230469 C 621.511719 620.640625 614.632812 628.707031 608.523438 637.433594 C 602.972656 636.464844 597.367188 635.808594 591.703125 635.808594 C 541.65625 635.808594 500.226562 672.957031 493.289062 721.09375 Z M 626.992188 660.730469 C 631.875 652.816406 637.488281 645.457031 643.824219 638.648438 C 650.164062 631.839844 657.109375 625.71875 664.65625 620.28125 C 688.972656 602.542969 717.847656 593.167969 748.136719 593.167969 C 785.535156 593.167969 820.785156 607.527344 847.449219 633.644531 C 871.699219 657.160156 886.386719 687.804688 889.648438 721.09375 L 606.90625 721.09375 C 609.050781 699.785156 615.714844 679.128906 626.992188 660.730469 Z M 677.03125 507.882812 C 680.535156 507.878906 684.019531 508.136719 687.484375 508.652344 C 690.953125 509.167969 694.359375 509.9375 697.710938 510.960938 C 701.0625 511.984375 704.320312 513.25 707.484375 514.757812 C 710.644531 516.265625 713.679688 518 716.582031 519.960938 C 717.03125 520.261719 717.496094 520.535156 717.976562 520.785156 C 718.457031 521.035156 718.953125 521.257812 719.457031 521.449219 C 719.964844 521.640625 720.480469 521.804688 721.003906 521.9375 C 721.527344 522.074219 722.058594 522.175781 722.597656 522.25 C 723.132812 522.324219 723.671875 522.367188 724.210938 522.378906 C 724.753906 522.390625 725.292969 522.371094 725.832031 522.320312 C 726.371094 522.269531 726.90625 522.191406 727.4375 522.078125 C 727.96875 521.96875 728.488281 521.828125 729.003906 521.65625 C 729.519531 521.488281 730.019531 521.289062 730.511719 521.058594 C 731.003906 520.832031 731.480469 520.578125 731.941406 520.296875 C 732.402344 520.011719 732.847656 519.703125 733.273438 519.371094 C 733.703125 519.039062 734.109375 518.683594 734.492188 518.304688 C 734.878906 517.921875 735.242188 517.523438 735.582031 517.101562 C 735.925781 516.679688 736.238281 516.242188 736.53125 515.785156 C 736.820312 515.328125 737.082031 514.855469 737.320312 514.371094 C 737.554688 513.882812 737.761719 513.382812 737.941406 512.871094 C 747.941406 484.382812 774.898438 465.242188 805.019531 465.242188 C 825.007812 465.242188 843.679688 473.613281 856.976562 487.9375 C 833.667969 513.746094 822.617188 549.605469 829.414062 585.363281 C 823.203125 581.984375 816.808594 579.007812 810.222656 576.425781 C 803.640625 573.847656 796.921875 571.691406 790.070312 569.953125 C 783.21875 568.210938 776.28125 566.90625 769.265625 566.035156 C 762.25 565.164062 755.207031 564.730469 748.136719 564.738281 C 714.574219 564.738281 682.515625 574.449219 654.855469 592.640625 C 639.285156 585.652344 623 581.371094 606 579.804688 C 605.996094 579.515625 605.925781 579.242188 605.925781 578.953125 C 605.925781 539.765625 637.824219 507.882812 677.03125 507.882812 Z M 520.597656 564.738281 C 522.320312 564.738281 524.035156 564.839844 525.746094 565.046875 C 527.453125 565.253906 529.144531 565.5625 530.816406 565.976562 C 532.492188 566.390625 534.132812 566.902344 535.742188 567.515625 C 537.351562 568.128906 538.917969 568.835938 540.441406 569.636719 C 541.964844 570.441406 543.433594 571.335938 544.847656 572.316406 C 546.261719 573.296875 547.613281 574.363281 548.898438 575.507812 C 550.183594 576.652344 551.394531 577.875 552.53125 579.167969 C 553.667969 580.460938 554.722656 581.820312 555.695312 583.238281 C 527.742188 589.890625 502.167969 604.304688 481.695312 624.625 C 479.289062 619.21875 477.933594 613.398438 477.933594 607.378906 C 477.933594 583.867188 497.070312 564.738281 520.597656 564.738281 Z M 392.605469 692.664062 C 392.605469 669.148438 411.742188 650.023438 435.269531 650.023438 C 443.027344 650.023438 450.390625 652.242188 456.917969 656.105469 C 451.039062 666.015625 446.332031 676.457031 442.796875 687.425781 C 439.261719 698.390625 436.984375 709.613281 435.96875 721.09375 L 403.863281 721.09375 C 396.78125 713.289062 392.605469 703.261719 392.605469 692.664062 Z M 918.792969 1175.941406 L 577.480469 1175.941406 L 577.480469 1133.296875 L 918.792969 1133.296875 Z M 929.214844 1104.871094 L 567.058594 1104.871094 C 463.039062 1048.273438 391.980469 948.699219 370.871094 834.804688 L 890.347656 834.804688 C 891.28125 834.804688 892.207031 834.714844 893.125 834.53125 C 894.039062 834.347656 894.929688 834.078125 895.789062 833.722656 C 896.652344 833.363281 897.472656 832.925781 898.25 832.410156 C 899.027344 831.890625 899.746094 831.300781 900.40625 830.640625 C 901.066406 829.980469 901.65625 829.261719 902.171875 828.488281 C 902.691406 827.710938 903.128906 826.890625 903.488281 826.03125 C 903.84375 825.167969 904.113281 824.277344 904.296875 823.363281 C 904.480469 822.449219 904.570312 821.523438 904.570312 820.589844 C 904.570312 819.65625 904.480469 818.734375 904.296875 817.816406 C 904.113281 816.902344 903.84375 816.011719 903.488281 815.152344 C 903.128906 814.289062 902.691406 813.46875 902.171875 812.691406 C 901.65625 811.917969 901.066406 811.199219 900.40625 810.539062 C 899.746094 809.878906 899.027344 809.289062 898.25 808.773438 C 897.472656 808.253906 896.652344 807.816406 895.789062 807.457031 C 894.929688 807.101562 894.039062 806.832031 893.125 806.648438 C 892.207031 806.46875 891.28125 806.375 890.347656 806.375 L 366.707031 806.375 C 365.164062 792.304688 364.164062 778.105469 364.164062 763.734375 L 364.164062 749.519531 L 993.410156 749.519531 C 993.425781 749.519531 993.4375 749.527344 993.453125 749.527344 C 993.46875 749.527344 993.484375 749.519531 993.5 749.519531 L 1132.109375 749.519531 L 1132.109375 763.734375 C 1132.109375 778.105469 1131.109375 792.304688 1129.5625 806.375 L 975.675781 806.375 C 974.742188 806.375 973.816406 806.46875 972.902344 806.648438 C 971.984375 806.832031 971.097656 807.101562 970.234375 807.457031 C 969.371094 807.816406 968.550781 808.253906 967.773438 808.773438 C 967 809.289062 966.28125 809.878906 965.621094 810.539062 C 964.960938 811.199219 964.371094 811.917969 963.851562 812.691406 C 963.332031 813.46875 962.894531 814.289062 962.539062 815.152344 C 962.179688 816.011719 961.910156 816.902344 961.726562 817.816406 C 961.546875 818.734375 961.453125 819.65625 961.453125 820.589844 C 961.453125 821.523438 961.546875 822.449219 961.726562 823.363281 C 961.910156 824.277344 962.179688 825.167969 962.539062 826.03125 C 962.894531 826.890625 963.332031 827.710938 963.851562 828.488281 C 964.371094 829.261719 964.960938 829.980469 965.621094 830.640625 C 966.28125 831.300781 967 831.890625 967.773438 832.410156 C 968.550781 832.925781 969.371094 833.363281 970.234375 833.722656 C 971.097656 834.078125 971.984375 834.347656 972.902344 834.53125 C 973.816406 834.714844 974.742188 834.804688 975.675781 834.804688 L 1125.402344 834.804688 C 1104.292969 948.699219 1033.230469 1048.273438 929.214844 1104.871094 Z M 929.214844 1104.871094 " fill-opacity="1" fill-rule="nonzero"/></g></svg>