<svg xmlns="http://www.w3.org/2000/svg" xmlns:xlink="http://www.w3.org/1999/xlink" width="2000" zoomAndPan="magnify" viewBox="0 0 1500 1499.999933" height="2000" preserveAspectRatio="xMidYMid meet" version="1.0"><defs><g/><clipPath id="300f9ef1b8"><path d="M 348 308 L 1130.277344 308 L 1130.277344 1229 L 348 1229 Z M 348 308 " clip-rule="nonzero"/></clipPath></defs><g clip-path="url(#300f9ef1b8)"><path fill="currentColor" d="M 756.117188 502.722656 L 774.402344 517.027344 L 799.117188 485.460938 L 725.980469 428.238281 L 701.265625 459.804688 Z M 496.390625 1137.367188 C 492.023438 1135.699219 487.71875 1133.644531 483.503906 1131.242188 C 477.035156 1127.84375 474.421875 1122.027344 475.820312 1114.5625 L 475.832031 1114.5625 C 483.066406 1079.140625 507.769531 1052.734375 541.164062 1043.152344 C 527.816406 1040.347656 513.960938 1038.578125 499.597656 1037.835938 C 469.1875 1089.8125 396.3125 1101.125 352.621094 1056.078125 C 348.117188 1051.398438 347.410156 1044.460938 350.429688 1039.070312 C 355.628906 1029.175781 359.816406 1022.714844 367.84375 1014.554688 C 385.835938 996.28125 409.460938 986.917969 433.140625 986.550781 C 455.058594 986.210938 477.023438 993.621094 494.613281 1008.851562 C 497.078125 1008.929688 499.535156 1009.035156 501.972656 1009.164062 C 477.125 978.738281 473.554688 935.125 495.375 901.085938 C 498.703125 895.902344 504.796875 893.566406 510.488281 894.769531 C 567.828125 906.941406 600.792969 969.214844 576.964844 1023.019531 C 587.566406 1026.542969 597.851562 1030.71875 607.828125 1035.542969 C 591.703125 988.929688 612.640625 936.328125 657.039062 915.148438 L 657.019531 915.101562 L 659.734375 913.84375 C 665.632812 911.183594 672.378906 912.824219 676.453125 917.429688 C 684.039062 925.589844 689.792969 933.058594 694.738281 943.414062 L 694.78125 943.390625 L 695.28125 944.484375 C 716.457031 989.960938 701.632812 1042.816406 660.503906 1069.4375 C 673.515625 1080.175781 685.816406 1092.328125 697.414062 1105.890625 C 702.710938 1076.617188 721 1051.054688 747.101562 1036.855469 L 747.101562 856.074219 C 747.101562 795.371094 791.949219 744.0625 850.984375 734.914062 L 850.984375 669.050781 C 844.773438 667.4375 840.183594 661.796875 840.183594 655.082031 L 840.183594 593.363281 C 840.183594 585.394531 846.648438 578.929688 854.621094 578.929688 L 1022.695312 578.929688 C 1030.671875 578.929688 1037.136719 585.394531 1037.136719 593.363281 L 1037.136719 655.082031 C 1037.136719 661.796875 1032.546875 667.441406 1026.335938 669.050781 L 1026.335938 734.914062 C 1085.371094 744.0625 1130.21875 795.371094 1130.21875 856.070312 L 1130.21875 1172.589844 C 1130.21875 1203.449219 1105.011719 1228.648438 1074.140625 1228.648438 L 803.175781 1228.648438 C 772.304688 1228.648438 747.101562 1203.449219 747.101562 1172.589844 L 747.101562 1170.597656 C 745.613281 1171.214844 744.101562 1171.792969 742.570312 1172.335938 C 743.0625 1173.234375 743.546875 1174.132812 744.03125 1175.039062 C 747.769531 1182.042969 745.117188 1190.75 738.109375 1194.488281 C 731.101562 1198.222656 722.390625 1195.574219 718.652344 1188.570312 C 715.960938 1183.546875 713.210938 1178.652344 710.398438 1173.882812 C 708.769531 1172.488281 707.445312 1170.730469 706.566406 1168.714844 L 703.476562 1162.574219 C 688.539062 1205.960938 644.058594 1231.46875 597.6875 1222.84375 C 586.566406 1220.882812 578.722656 1217.332031 569.09375 1212.273438 C 562.628906 1208.875 560.011719 1203.054688 561.410156 1195.589844 C 566.183594 1170.121094 581.300781 1148.902344 601.554688 1135.695312 C 621.175781 1122.898438 645.722656 1117.460938 670.648438 1122.34375 L 674.226562 1123.097656 C 657.585938 1103.921875 639.535156 1088.074219 619.792969 1075.300781 C 607.304688 1122.132812 560.898438 1150.890625 512.097656 1141.816406 C 507.023438 1140.921875 500.792969 1139.050781 496.394531 1137.371094 Z M 506.664062 1110.421875 C 540.21875 1123.246094 578.40625 1106.796875 590.492188 1072.703125 C 556.933594 1059.878906 518.746094 1076.332031 506.664062 1110.421875 Z M 592.25 1191.449219 C 625.808594 1204.277344 663.996094 1187.824219 676.078125 1153.734375 C 642.523438 1140.902344 604.332031 1157.363281 592.25 1191.449219 Z M 388.203125 1034.917969 C 385.714844 1037.457031 383.433594 1040.21875 381.375 1043.15625 C 410.335938 1064.570312 451.214844 1057.136719 471.976562 1027.570312 C 446.539062 1008.757812 410.917969 1011.8125 388.203125 1034.914062 Z M 796.941406 1034.304688 C 803.851562 1048.019531 807.523438 1063.199219 807.667969 1078.523438 L 1101.339844 1078.523438 L 1101.339844 874.214844 L 775.976562 874.214844 L 775.976562 1026.667969 L 782.03125 1025.757812 C 788.496094 1024.992188 794.464844 1028.632812 796.941406 1034.300781 Z M 803.664062 1107.390625 C 798.625 1124.542969 789.023438 1140.023438 775.976562 1152.105469 L 775.976562 1172.589844 C 775.976562 1187.515625 788.242188 1199.78125 803.171875 1199.78125 L 1074.140625 1199.78125 C 1089.066406 1199.78125 1101.335938 1187.515625 1101.335938 1172.589844 L 1101.335938 1107.390625 L 803.660156 1107.390625 Z M 775.375 1057.367188 L 775.070312 1056.449219 C 736.921875 1067.082031 715.648438 1107.855469 728.433594 1146.566406 C 766.5625 1135.941406 787.5625 1095.132812 775.375 1057.367188 Z M 662.914062 946 L 662.304688 945.152344 C 632.910156 964.332031 623.023438 1002.578125 638.5 1034.335938 L 638.457031 1034.359375 L 645.039062 1045.203125 C 674.414062 1026.039062 684.34375 987.761719 668.839844 956.019531 L 668.886719 955.996094 C 667.183594 952.523438 665.179688 949.183594 662.917969 946 Z M 514.71875 926.050781 L 514.667969 926.03125 C 500.675781 959.074219 517.515625 997.433594 551.050781 1010.433594 C 565.089844 977.273438 548.191406 939.238281 514.71875 926.050781 Z M 581.042969 730.132812 C 575.648438 720.511719 561.632812 720.261719 556.019531 729.96875 L 518.652344 794.664062 C 502.304688 822.96875 512.960938 857.589844 539.476562 872.890625 L 539.488281 872.867188 C 556.886719 883.046875 580.039062 882.964844 597.488281 872.890625 L 597.476562 872.867188 C 605.996094 867.941406 613.132812 860.824219 618.3125 851.855469 L 618.289062 851.84375 C 628.84375 833.816406 628.734375 812.6875 618.3125 794.660156 L 581.042969 730.128906 Z M 593.222656 808.820312 L 568.480469 765.984375 L 543.582031 809.097656 C 535.355469 823.335938 541.023438 840.53125 553.914062 847.972656 L 553.898438 847.996094 C 562.292969 852.816406 574.652344 852.820312 583.050781 847.972656 L 583.0625 847.996094 C 587.222656 845.5625 590.667969 842.128906 593.382812 837.425781 L 593.40625 837.441406 C 598.726562 828.191406 598.542969 818.019531 593.222656 808.820312 Z M 951.21875 897.574219 C 945.828125 887.953125 931.808594 887.699219 926.191406 897.40625 L 885.066406 968.617188 L 885.070312 968.617188 C 873.511719 987.976562 873.605469 1011.089844 884.890625 1030.625 L 884.914062 1030.613281 C 890.566406 1040.378906 898.25 1048.070312 907.355469 1053.324219 L 907.371094 1053.300781 C 916.46875 1058.621094 927.234375 1061.476562 938.304688 1061.476562 C 961.160156 1061.476562 980.9375 1050.519531 992.429688 1030.625 L 992.402344 1030.613281 C 1003.847656 1011.472656 1003.59375 988.21875 992.429688 968.925781 Z M 967.320312 983.050781 L 938.65625 933.421875 L 909.816406 983.355469 C 903.769531 993.828125 903.769531 1005.71875 909.816406 1016.191406 L 909.792969 1016.207031 C 913.007812 1021.582031 916.730469 1025.480469 921.792969 1028.402344 L 921.777344 1028.425781 C 931.515625 1034.027344 945.761719 1034.046875 955.523438 1028.402344 C 960.335938 1025.625 964.4375 1021.492188 967.496094 1016.191406 L 967.519531 1016.207031 C 973.683594 1005.503906 973.484375 993.699219 967.320312 983.050781 Z M 776.589844 845.351562 L 1100.722656 845.351562 C 1095.328125 798.597656 1055.265625 762.335938 1007.570312 762.335938 L 869.742188 762.335938 C 822.050781 762.335938 781.984375 798.597656 776.589844 845.351562 Z M 879.855469 733.472656 L 997.457031 733.472656 L 997.457031 669.515625 L 879.855469 669.515625 Z M 1008.257812 607.796875 L 869.058594 607.796875 L 869.058594 640.648438 L 1008.257812 640.648438 Z M 749.726562 534.242188 L 641.144531 672.925781 C 638.851562 675.863281 635.636719 677.667969 632.230469 678.246094 L 632.234375 678.277344 L 629.285156 678.789062 L 621.363281 688.90625 L 621.371094 688.914062 C 620.894531 689.632812 620.359375 690.296875 619.78125 690.898438 C 614.339844 697.527344 607.910156 702.554688 600.632812 704.871094 C 591.628906 707.738281 581.707031 706.570312 572.714844 699.308594 C 555.09375 685.078125 559.144531 666.648438 571.398438 650.996094 L 579.414062 640.757812 C 578.613281 635.019531 578.082031 631.160156 582.351562 625.988281 L 690.480469 487.886719 L 672.222656 473.597656 C 665.960938 468.710938 664.847656 459.671875 669.738281 453.414062 L 712.1875 399.199219 C 717.074219 392.941406 726.117188 391.832031 732.378906 396.71875 L 733.53125 397.621094 C 735.277344 395.753906 737.429688 394.445312 739.746094 393.726562 L 739.738281 393.699219 L 765.808594 385.527344 L 813.644531 324.429688 C 836.359375 295.433594 882.925781 308.457031 887.378906 344.988281 C 888.65625 355.453125 885.921875 366.449219 878.875 375.449219 L 831.109375 436.457031 L 829.945312 462.828125 C 829.8125 465.835938 828.769531 468.585938 827.09375 470.824219 L 828.167969 471.667969 C 834.429688 476.558594 835.542969 485.59375 830.652344 491.855469 L 788.203125 546.066406 C 783.316406 552.328125 774.273438 553.4375 768.011719 548.546875 L 749.730469 534.242188 Z M 713.132812 505.613281 L 727.070312 516.515625 L 621.925781 650.808594 C 621.035156 651.339844 614.554688 650.46875 609.476562 657.429688 L 598.015625 672.0625 C 595.773438 674.925781 593.660156 676.925781 591.945312 677.472656 L 589.792969 676.117188 C 590.125 674.265625 591.761719 671.652344 594.070312 668.703125 L 605.859375 653.648438 C 608.351562 650.453125 609.285156 646.542969 608.769531 642.824219 L 608.792969 642.820312 L 608.324219 639.476562 Z M 759.28125 417.773438 L 772.171875 413.734375 L 802.25 437.265625 L 801.648438 450.917969 L 759.285156 417.773438 Z M 854.699219 340.542969 C 851.609375 338.402344 849.421875 336.902344 844.679688 337.480469 C 839.996094 338.050781 838.097656 340.125 835.550781 343.113281 L 794.917969 395.007812 L 814.832031 410.585938 L 856.203125 357.746094 C 860.214844 352.625 859.558594 344.914062 854.703125 340.542969 Z M 854.699219 340.542969 " fill-opacity="1" fill-rule="evenodd"/></g></svg>