<svg xmlns="http://www.w3.org/2000/svg" width="29.246" height="16.094" viewBox="0 0 29.246 16.094"><g id="icon-semons-la-vie" transform="translate(-171.275 -774.067)"><path id="Trac&#xE9;_24915" data-name="Trac&#xE9; 24915" d="M186.191,783.519a.594.594,0,0,1-.792-.106c-.273-.31-.145-.7-.188-1.057-.269-2.2-.456-4.379-.622-6.6-.022-.295-.213-.389-.066-.819a1.243,1.243,0,0,1,1.125-.874c.69,0,1,.422,1.063,1.063a21.524,21.524,0,0,1-.135,2.862,41.269,41.269,0,0,1-.244,5.108,1.967,1.967,0,0,1-.141.419" fill="#ffcf00"></path><path id="Trac&#xE9;_24916" data-name="Trac&#xE9; 24916" d="M196.387,778.765c.187.836-.725,1.5-1.283,2.036-.86.821-1.847,1.561-2.741,2.36-.7.621-1.351,1.312-2.047,1.935-.43.218-1.192-.028-.936-.563a5.04,5.04,0,0,1,.935-1.18c1.371-1.728,2.752-3.462,4.162-5.171a1.2,1.2,0,0,1,1.91.583" fill="#ffcf00"></path><path id="Trac&#xE9;_24917" data-name="Trac&#xE9; 24917" d="M200.492,788.224a1.177,1.177,0,0,1-.6,1.355,4.933,4.933,0,0,1-.714.156c-.141.011-.29-.1-.469-.1-2.162,0-4.3-.269-6.471-.246-.454-.181-1.186.01-1.191-.683,0-.5.745-.509,1.061-.563,2.042-.349,4.262-.4,6.345-.621a2.937,2.937,0,0,1,1.228-.1,1.605,1.605,0,0,1,.806.811" fill="#ffcf00"></path><path id="Trac&#xE9;_24918" data-name="Trac&#xE9; 24918" d="M182.212,784.486c.15.743-.162.95-.858.734-1.82-1.5-3.622-3.006-5.406-4.548-.393-.34-1.07-.745-.918-1.409a1.21,1.21,0,0,1,1.916-.71c.211.152.278.408.428.568,1.655,1.761,3.178,3.6,4.838,5.365" fill="#ffcf00"></path><path id="Trac&#xE9;_24919" data-name="Trac&#xE9; 24919" d="M171.553,789.862a5.6,5.6,0,0,1-.253-.557,1.06,1.06,0,0,1,.79-1.287,15.6,15.6,0,0,1,2.12-.006c1.638.055,3.341.234,4.972.377.573.05,1.707-.209,1.42.8-.047.168-.718.295-.927.317-1.611.169-3.233.227-4.846.378-.482.045-1.134.223-1.615.252a7.185,7.185,0,0,1-1.127,0,3.381,3.381,0,0,1-.534-.275" fill="#ffcf00"></path><path id="Trac&#xE9;_24920" data-name="Trac&#xE9; 24920" d="M191.288,778.4c.091.6-.383,1.085-.626,1.569-.777,1.549-1.528,3.093-2.366,4.6-.118.212-.119.61-.423.7-.618.178-.778-.221-.65-.776.165-.711.595-1.577.825-2.285.287-.881.575-1.745.871-2.614.239-.7.342-2.085,1.335-2.034a1.044,1.044,0,0,1,1.034.84" fill="#ffcf00"></path><path id="Trac&#xE9;_24921" data-name="Trac&#xE9; 24921" d="M197.133,784.242c.2.9-.219,1.206-.969,1.478-1.167.422-2.451.744-3.616,1.111a15.867,15.867,0,0,1-2.549.812c-.73.079-.88-.659-.229-.978l6.1-2.984c.506-.1,1.141-.005,1.265.561" fill="#ffcf00"></path><path id="Trac&#xE9;_24922" data-name="Trac&#xE9; 24922" d="M184.692,784.62c.114.757-.617.87-.955.207l-2.982-5.978a1.011,1.011,0,0,1,1.873-.754Z" fill="#ffcf00"></path><path id="Trac&#xE9;_24923" data-name="Trac&#xE9; 24923" d="M182.341,786.846c.13.44-.061.775-.546.672-1.959-.835-4.536-1.281-6.411-2.174a1,1,0,0,1,.542-1.912c.888.417,1.735.931,2.608,1.374,1.044.53,2.13,1.013,3.158,1.569a2.451,2.451,0,0,1,.649.471" fill="#ffcf00"></path></g></svg>