<svg xmlns="http://www.w3.org/2000/svg" width="153.25" height="184.579" viewBox="0 0 153.25 184.579"><g id="logo-footer" transform="translate(-816.915 -694.463)"><g id="Groupe_25285" data-name="Groupe 25285"><path id="Trac&#xE9;_25003" data-name="Trac&#xE9; 25003" d="M933.892,805.9a1.1,1.1,0,0,1,.66-1.316c.7-.289,1.309.171,1.951.308,3.982.848,7.9,1.834,11.853,2.874.527.139.8-.136,1.464.376a2.289,2.289,0,0,1,.847,2.484,1.855,1.855,0,0,1-2.487,1.212,39.463,39.463,0,0,1-4.9-1.953,75.86,75.86,0,0,1-8.743-3.488,3.618,3.618,0,0,1-.644-.5" fill="#ffcf00"></path><path id="Trac&#xE9;_25004" data-name="Trac&#xE9; 25004" d="M936.049,826.494c-1.566-.176-2.181-2.163-2.774-3.454-.912-1.99-1.608-4.151-2.462-6.187-.663-1.581-1.473-3.137-2.139-4.723-.122-.878.763-2.056,1.541-1.291a9.329,9.329,0,0,1,1.493,2.336c2.184,3.423,4.373,6.865,6.5,10.345a2.209,2.209,0,0,1-2.16,2.974" fill="#ffcf00"></path><path id="Trac&#xE9;_25005" data-name="Trac&#xE9; 25005" d="M917.125,827.962c-.913-.1-2.017-.857-2-1.849a9.254,9.254,0,0,1,.158-1.335c.065-.253.357-.442.465-.753,1.3-3.762,3.048-7.326,4.309-11.114.587-.682.693-2.071,1.9-1.662.872.295.438,1.6.343,2.183-.618,3.763-1.864,7.656-2.726,11.415a5.4,5.4,0,0,1-.555,2.2,2.965,2.965,0,0,1-1.9.915" fill="#ffcf00"></path><path id="Trac&#xE9;_25006" data-name="Trac&#xE9; 25006" d="M934.6,798.393c-1.383-.184-1.557-.852-.763-1.934,3.7-2.267,7.4-4.5,11.158-6.678.827-.48,1.938-1.415,3-.753a2.227,2.227,0,0,1,.085,3.76c-.39.277-.876.239-1.244.4-4.057,1.824-8.179,3.368-12.239,5.2" fill="#ffcf00"></path><path id="Trac&#xE9;_25007" data-name="Trac&#xE9; 25007" d="M931.636,776.619a10.278,10.278,0,0,1,1.12-.107,1.953,1.953,0,0,1,1.767,2.147,28.893,28.893,0,0,1-1.262,3.693c-1.079,2.819-2.411,5.675-3.638,8.428-.431.966-.661,3.094-2.25,1.988-.264-.183-.082-1.426.006-1.8.67-2.9,1.543-5.763,2.248-8.661.21-.864.292-2.106.53-2.96a13.117,13.117,0,0,1,.681-1.961,6.173,6.173,0,0,1,.8-.764" fill="#ffcf00"></path><path id="Trac&#xE9;_25008" data-name="Trac&#xE9; 25008" d="M939.75,817.84c-1.093-.2-1.659-1.317-2.355-2.03-2.229-2.282-4.466-4.515-6.589-6.879-.3-.332-.99-.574-.96-1.154.06-1.183.85-1.223,1.739-.666,1.138.713,2.388,1.981,3.482,2.807,1.36,1.027,2.692,2.046,4.026,3.084,1.075.836,3.423,1.845,2.739,3.543a1.921,1.921,0,0,1-2.082,1.3" fill="#ffcf00"></path><path id="Trac&#xE9;_25009" data-name="Trac&#xE9; 25009" d="M926.07,824.506c-1.68-.2-1.967-1.1-1.99-2.573-.035-2.284.175-4.711.235-6.96a29.283,29.283,0,0,1,.116-4.922c.3-1.317,1.675-1.135,1.839.188l1.534,12.4c-.131.939-.675,1.989-1.734,1.865" fill="#ffcf00"></path><path id="Trac&#xE9;_25010" data-name="Trac&#xE9; 25010" d="M932.876,802.628c-1.385-.254-1.145-1.6.213-1.784l12.192-1.6a1.859,1.859,0,0,1,.188,3.71Z" fill="#ffcf00"></path><path id="Trac&#xE9;_25011" data-name="Trac&#xE9; 25011" d="M930.413,797.2c-.844-.038-1.312-.571-.842-1.354,2.629-2.907,4.951-7.125,7.63-9.852a1.832,1.832,0,0,1,3,2.091c-1.259,1.295-2.66,2.46-3.955,3.713-1.549,1.5-3.042,3.1-4.626,4.555a4.519,4.519,0,0,1-1.208.847" fill="#ffcf00"></path></g><g id="Groupe_25286" data-name="Groupe 25286"><path id="Trac&#xE9;_25012" data-name="Trac&#xE9; 25012" d="M969.921,747.63c-6.011-1.927-12.279-.621-18.341.643-4.879,1.015-9.921,2.067-14.744,1.4-3.8-.528-7.526-2.134-11.133-3.689-5.051-2.18-10.278-4.435-15.885-3.813-5.794.644-11.363,4.443-15.27,10.42a46.106,46.106,0,0,0-4.893,10.558l-.312.013c-1.793.076-3.648.153-5.079-.652a9.52,9.52,0,0,1-3.019-3.533,383.694,383.694,0,0,0-33.275-46.311c-6.174-7.365-13.6-15.424-23.626-17.761a6.377,6.377,0,0,0-4.175.115c-1.759.817-2.8,2.815-3.029,5.781-.412,5.471.824,10.909,2.129,16.008a302.406,302.406,0,0,0,12.75,38.73c3.083,7.6,6.687,15.523,12.135,22.059,6.017,7.214,13.578,11.707,21.326,12.676-8.437,8.815-14.1,21.426-15.758,35.774-1.943,16.854,1.472,33.635,5.005,49.912l.781,2.829,1.678.057,1,.03a57.171,57.171,0,0,0,31.232-8.832,58.4,58.4,0,0,0,22.639-26.2l1.071-2.507-2.346,1.385a26.824,26.824,0,0,1-26.307.285,26.091,26.091,0,0,1-8.059-7.091,26.027,26.027,0,0,0,9.758-3.53,62.158,62.158,0,0,0,24.23-27,135.321,135.321,0,0,0,5.954-16.674c3.774-12.208,7.335-23.74,17.014-30.76l-1.046-1.449c-10.165,7.37-13.983,19.727-17.675,31.679a134.106,134.106,0,0,1-5.87,16.455,60.341,60.341,0,0,1-23.529,26.215,23.614,23.614,0,0,1-9.993,3.407,26.532,26.532,0,0,1-4.263-13.845c-.034-2.17-.934-4.969-2.538-5.877a2.428,2.428,0,0,0-2.493.057,4.231,4.231,0,0,0-1.735,3.079c-1.022,4.888-1.851,10.441,1.23,14.5,2.132,2.814,5.348,3.929,8.861,3.891a28.025,28.025,0,0,0,9.278,8.5,28.715,28.715,0,0,0,25.74.93,56.883,56.883,0,0,1-20.871,23.034,55.147,55.147,0,0,1-31.671,8.51c-3.611-16.587-7.262-33.723-5.292-50.785,1.679-14.565,7.583-27.269,16.346-35.827,6.8,0,14.11-3.6,15.393-10.229l.327-1.7-1.573.711c-1.971.891-4.01,1.81-5.963,2.884a43.575,43.575,0,0,0-8.89,6.528c-.4-.019-.791-.048-1.185-.095-7.383-.841-14.637-5.131-20.428-12.077-5.29-6.344-8.821-14.124-11.85-21.584A300.937,300.937,0,0,1,821,716.358c-1.269-4.953-2.472-10.226-2.081-15.428.119-1.589.566-3.623,2-4.292a4.838,4.838,0,0,1,3.015.005c9.5,2.217,16.675,10.023,22.66,17.165a382.23,382.23,0,0,1,33.123,46.1,10.952,10.952,0,0,0,3.665,4.159,10.483,10.483,0,0,0,5.677.9c-.509,1.6-.98,3.2-1.445,4.788-.654,2.232-1.07,4.544.289,6.318,1.165,1.52,3.071,1.881,4.917,2.126,2.978.391,6.685.878,9.94-.487a8.345,8.345,0,0,0,4.383-4.41,5.654,5.654,0,0,0,.036-4.441c-.884-2.049-2.947-3.5-6.3-4.433a35.644,35.644,0,0,0-9.323-1.312,43.382,43.382,0,0,1,4.488-9.541c3.614-5.529,8.706-9.035,13.972-9.622,5.131-.568,9.916,1.5,14.978,3.678,3.71,1.6,7.552,3.258,11.593,3.819,5.132.713,10.329-.369,15.356-1.416,6.1-1.272,11.867-2.473,17.43-.689l.039.012.55-1.7ZM866.88,831.086c-2.625-3.464-1.843-8.555-.905-13.058.161-.762.372-1.6.882-1.894a.684.684,0,0,1,.578-.111.7.7,0,0,1,.136.061c.827.468,1.605,2.54,1.632,4.35a28.193,28.193,0,0,0,3.957,13.816,8.344,8.344,0,0,1-6.28-3.164M876.9,783.658c1.3-.721,2.669-1.375,4.027-2-1.726,3.971-6.294,6.329-11,6.859a41.087,41.087,0,0,1,6.976-4.859M900.4,766.142c2.8.776,4.484,1.9,5.139,3.42a3.947,3.947,0,0,1-.052,3.061,6.5,6.5,0,0,1-3.418,3.429c-2.809,1.179-6.1.744-9.015.364-1.474-.194-2.978-.467-3.726-1.44-.878-1.143-.516-2.947.007-4.725s1.047-3.571,1.623-5.354a34.011,34.011,0,0,1,9.442,1.245" fill="#6e70cc"></path><path id="Trac&#xE9;_25013" data-name="Trac&#xE9; 25013" d="M969.921,747.63c-6.011-1.927-12.279-.621-18.341.643-4.879,1.015-9.921,2.067-14.744,1.4-3.8-.528-7.526-2.134-11.133-3.689-5.051-2.18-10.278-4.435-15.885-3.813-5.794.644-11.363,4.443-15.27,10.42a46.106,46.106,0,0,0-4.893,10.558l-.312.013c-1.793.076-3.648.153-5.079-.652a9.52,9.52,0,0,1-3.019-3.533,383.694,383.694,0,0,0-33.275-46.311c-6.174-7.365-13.6-15.424-23.626-17.761a6.377,6.377,0,0,0-4.175.115c-1.759.817-2.8,2.815-3.029,5.781-.412,5.471.824,10.909,2.129,16.008a302.406,302.406,0,0,0,12.75,38.73c3.083,7.6,6.687,15.523,12.135,22.059,6.017,7.214,13.578,11.707,21.326,12.676-8.437,8.815-14.1,21.426-15.758,35.774-1.943,16.854,1.472,33.635,5.005,49.912l.781,2.829,1.678.057,1,.03a57.171,57.171,0,0,0,31.232-8.832,58.4,58.4,0,0,0,22.639-26.2l1.071-2.507-2.346,1.385a26.824,26.824,0,0,1-26.307.285,26.091,26.091,0,0,1-8.059-7.091,26.027,26.027,0,0,0,9.758-3.53,62.158,62.158,0,0,0,24.23-27,135.321,135.321,0,0,0,5.954-16.674c3.774-12.208,7.335-23.74,17.014-30.76l-1.046-1.449c-10.165,7.37-13.983,19.727-17.675,31.679a134.106,134.106,0,0,1-5.87,16.455,60.341,60.341,0,0,1-23.529,26.215,23.614,23.614,0,0,1-9.993,3.407,26.532,26.532,0,0,1-4.263-13.845c-.034-2.17-.934-4.969-2.538-5.877a2.428,2.428,0,0,0-2.493.057,4.231,4.231,0,0,0-1.735,3.079c-1.022,4.888-1.851,10.441,1.23,14.5,2.132,2.814,5.348,3.929,8.861,3.891a28.025,28.025,0,0,0,9.278,8.5,28.715,28.715,0,0,0,25.74.93,56.883,56.883,0,0,1-20.871,23.034,55.147,55.147,0,0,1-31.671,8.51c-3.611-16.587-7.262-33.723-5.292-50.785,1.679-14.565,7.583-27.269,16.346-35.827,6.8,0,14.11-3.6,15.393-10.229l.327-1.7-1.573.711c-1.971.891-4.01,1.81-5.963,2.884a43.575,43.575,0,0,0-8.89,6.528c-.4-.019-.791-.048-1.185-.095-7.383-.841-14.637-5.131-20.428-12.077-5.29-6.344-8.821-14.124-11.85-21.584A300.937,300.937,0,0,1,821,716.358c-1.269-4.953-2.472-10.226-2.081-15.428.119-1.589.566-3.623,2-4.292a4.838,4.838,0,0,1,3.015.005c9.5,2.217,16.675,10.023,22.66,17.165a382.23,382.23,0,0,1,33.123,46.1,10.952,10.952,0,0,0,3.665,4.159,10.483,10.483,0,0,0,5.677.9c-.509,1.6-.98,3.2-1.445,4.788-.654,2.232-1.07,4.544.289,6.318,1.165,1.52,3.071,1.881,4.917,2.126,2.978.391,6.685.878,9.94-.487a8.345,8.345,0,0,0,4.383-4.41,5.654,5.654,0,0,0,.036-4.441c-.884-2.049-2.947-3.5-6.3-4.433a35.644,35.644,0,0,0-9.323-1.312,43.382,43.382,0,0,1,4.488-9.541c3.614-5.529,8.706-9.035,13.972-9.622,5.131-.568,9.916,1.5,14.978,3.678,3.71,1.6,7.552,3.258,11.593,3.819,5.132.713,10.329-.369,15.356-1.416,6.1-1.272,11.867-2.473,17.43-.689l.039.012.55-1.7ZM866.88,831.086c-2.625-3.464-1.843-8.555-.905-13.058.161-.762.372-1.6.882-1.894a.684.684,0,0,1,.578-.111.7.7,0,0,1,.136.061c.827.468,1.605,2.54,1.632,4.35a28.193,28.193,0,0,0,3.957,13.816A8.344,8.344,0,0,1,866.88,831.086ZM876.9,783.658c1.3-.721,2.669-1.375,4.027-2-1.726,3.971-6.294,6.329-11,6.859A41.087,41.087,0,0,1,876.9,783.658ZM900.4,766.142c2.8.776,4.484,1.9,5.139,3.42a3.947,3.947,0,0,1-.052,3.061,6.5,6.5,0,0,1-3.418,3.429c-2.809,1.179-6.1.744-9.015.364-1.474-.194-2.978-.467-3.726-1.44-.878-1.143-.516-2.947.007-4.725s1.047-3.571,1.623-5.354A34.011,34.011,0,0,1,900.4,766.142Z" fill="none" stroke="#6e70cc" stroke-miterlimit="10" stroke-width="0.318"></path><path id="Trac&#xE9;_25014" data-name="Trac&#xE9; 25014" d="M885.245,760.63c-1.514-8.823-3.4-17.778-5.593-26.615q-.385-1.554-.764-3.128c-1.673-6.914-3.4-14.065-6.9-20.242a29.021,29.021,0,0,0-8.9-9.862c-2.135-1.429-6.79-3.948-9.129-3.243a1.686,1.686,0,0,0-1.133,1.04c-.984,2.352-.906,5.4-.838,8.085l.006.251a37.958,37.958,0,0,0,1.352,9.134l-1.636.451a39.558,39.558,0,0,1-1.412-9.543l-.006-.25c-.069-2.716-.156-6.1.968-8.782a3.4,3.4,0,0,1,2.21-2.011c3.539-1.066,9.42,2.693,10.562,3.458a30.727,30.727,0,0,1,9.435,10.435c3.616,6.384,5.375,13.651,7.077,20.68q.378,1.568.761,3.117c2.208,8.877,4.1,17.873,5.619,26.738Z" fill="#6e70cc"></path><path id="Trac&#xE9;_25015" data-name="Trac&#xE9; 25015" d="M885.116,760.813l-.027-.156c-1.514-8.822-3.4-17.773-5.59-26.6-.252-1.009-.5-2.025-.744-3.045l-.021-.084c-1.671-6.905-3.4-14.044-6.888-20.2a28.864,28.864,0,0,0-8.852-9.809c-2.113-1.415-6.714-3.91-8.995-3.222a1.534,1.534,0,0,0-1.032.948c-.97,2.321-.893,5.348-.826,8.019l.007.252a37.653,37.653,0,0,0,1.346,9.1l.042.153-1.943.536-.042-.153a39.789,39.789,0,0,1-1.418-9.581l-.006-.25c-.069-2.734-.156-6.131.981-8.848a3.55,3.55,0,0,1,2.311-2.1c3.616-1.09,9.544,2.705,10.7,3.477a30.9,30.9,0,0,1,9.485,10.49c3.626,6.4,5.387,13.676,7.091,20.713.254,1.052.506,2.091.763,3.123,2.208,8.879,4.1,17.879,5.621,26.75l.027.157Zm-30.252-63.552c2.534,0,6.409,2.119,8.307,3.389a29.2,29.2,0,0,1,8.952,9.916c3.51,6.2,5.243,13.357,6.92,20.282l.02.085q.371,1.53.744,3.043c2.185,8.787,4.058,17.692,5.568,26.47l1.36-.233c-1.516-8.812-3.4-17.75-5.589-26.57q-.387-1.55-.762-3.118c-1.7-7.023-3.456-14.277-7.061-20.639a30.576,30.576,0,0,0-9.385-10.382c-1.131-.758-6.948-4.483-10.428-3.437a3.245,3.245,0,0,0-2.11,1.919c-1.109,2.655-1.024,6.015-.955,8.714l.006.254a39.421,39.421,0,0,0,1.365,9.352l1.33-.368a38.035,38.035,0,0,1-1.316-9.019l-.006-.25c-.069-2.7-.147-5.768.85-8.151a1.828,1.828,0,0,1,1.234-1.13,3.316,3.316,0,0,1,.956-.127" fill="#6e70cc"></path></g></g></svg>