<svg xmlns="http://www.w3.org/2000/svg" xmlns:xlink="http://www.w3.org/1999/xlink" width="2000" zoomAndPan="magnify" viewBox="0 0 1500 1499.999933" height="2000" preserveAspectRatio="xMidYMid meet" version="1.0"><defs><g/><clipPath id="e081327e20"><path d="M 772 295.371094 L 1294 295.371094 L 1294 1204 L 772 1204 Z M 772 295.371094 " clip-rule="nonzero"/></clipPath><clipPath id="ccfc8982c9"><path d="M 208 295.371094 L 730 295.371094 L 730 1204 L 208 1204 Z M 208 295.371094 " clip-rule="nonzero"/></clipPath></defs><rect x="-150" width="1800" fill="#ffffff" y="-149.999993" height="1799.99992" fill-opacity="1"/><rect x="-150" width="1800" fill="#ffffff" y="-149.999993" height="1799.99992" fill-opacity="1"/><g clip-path="url(#e081327e20)"><path fill="#000000" d="M 1292.777344 540.277344 C 1292.214844 509.503906 1277.683594 481.273438 1252.902344 462.839844 L 1241.027344 454.003906 L 1241.027344 392.976562 C 1241.027344 368.851562 1222.988281 348.105469 1199.074219 344.742188 C 1192.53125 343.820312 1185.96875 344.253906 1179.75 345.917969 L 1179.75 334.769531 C 1179.75 312.574219 1161.691406 294.523438 1139.496094 294.523438 L 1131.128906 294.523438 C 1113.195312 294.523438 1097.273438 306.578125 1092.390625 323.796875 L 1089.644531 333.503906 C 1087.816406 339.9375 1086.171875 346.441406 1084.691406 352.984375 C 1067.300781 348.085938 1047.5625 356.019531 1038.90625 371.617188 C 987.644531 463.816406 940.882812 678.652344 919.101562 789.59375 C 909.035156 759.070312 903.230469 733.445312 900.863281 709.15625 C 890.378906 601.324219 801.070312 562.46875 797.273438 560.863281 C 791.453125 558.402344 784.746094 559.179688 779.59375 562.902344 C 774.480469 566.625 771.679688 572.769531 772.238281 579.09375 C 778.761719 653.640625 788.578125 767.347656 788.832031 774.757812 C 788.832031 990.675781 955.902344 1188.722656 963.023438 1197.054688 C 966.496094 1201.117188 971.539062 1203.394531 976.761719 1203.394531 C 977.957031 1203.394531 979.167969 1203.269531 980.359375 1203.015625 L 1244.804688 1149.273438 C 1249.558594 1148.3125 1253.734375 1145.476562 1256.371094 1141.394531 C 1259.011719 1137.308594 1259.914062 1132.355469 1258.847656 1127.621094 L 1251.058594 1092.761719 C 1239.253906 1039.992188 1241.207031 982.453125 1256.699219 926.359375 C 1293.246094 794.058594 1294.078125 612.257812 1292.757812 540.222656 Z M 1221.882812 916.761719 C 1204.820312 978.550781 1202.707031 1042.144531 1215.8125 1100.675781 L 1219.589844 1117.554688 L 983.921875 1165.445312 C 953.066406 1126.429688 825 953.703125 825 774.773438 C 825 768.972656 816.722656 672.886719 811.425781 612.167969 C 833.042969 629.824219 859.941406 661.59375 864.910156 712.664062 C 867.621094 740.566406 874.292969 769.679688 885.898438 804.25 L 906.972656 867.03125 C 909.613281 874.875 917.257812 879.84375 925.480469 879.300781 C 933.742188 878.6875 940.503906 872.523438 941.929688 864.375 C 942.546875 860.832031 1004.34375 508.253906 1070.554688 389.199219 C 1071.605469 387.339844 1075.78125 387.789062 1076.847656 388.984375 C 1077.40625 389.597656 1078.039062 390.644531 1077.894531 392.144531 L 1077.242188 398.742188 C 1077.207031 399.15625 1077.171875 399.589844 1077.117188 400.023438 L 1048.035156 695.621094 C 1047.058594 705.542969 1054.324219 714.398438 1064.246094 715.375 C 1074.28125 716.457031 1083.027344 709.101562 1084.003906 699.164062 L 1113.214844 402.375 C 1115.238281 382.496094 1119.035156 362.652344 1124.492188 343.371094 L 1127.242188 333.664062 C 1127.730469 331.914062 1129.355469 330.683594 1131.179688 330.683594 L 1139.550781 330.683594 C 1141.808594 330.683594 1143.652344 332.527344 1143.652344 334.785156 L 1143.652344 647.949219 C 1143.652344 657.925781 1151.75 666.019531 1161.730469 666.019531 C 1171.707031 666.019531 1179.804688 657.925781 1179.804688 647.949219 L 1179.804688 392.996094 C 1179.804688 388.023438 1182.515625 384.917969 1184.125 383.523438 C 1185.75 382.117188 1189.148438 379.929688 1194.121094 380.5625 C 1200.285156 381.429688 1204.949219 386.777344 1204.949219 392.996094 L 1204.949219 641.515625 C 1204.949219 651.492188 1213.046875 659.585938 1223.023438 659.585938 C 1233 659.585938 1241.097656 651.492188 1241.097656 641.515625 L 1241.097656 500.773438 C 1250.859375 511.816406 1256.410156 525.910156 1256.679688 540.964844 C 1257.980469 611.40625 1257.222656 789.050781 1221.9375 916.78125 Z M 1221.882812 916.761719 " fill-opacity="1" fill-rule="nonzero"/></g><g clip-path="url(#ccfc8982c9)"><path fill="#000000" d="M 524.949219 1203.394531 C 530.171875 1203.394531 535.214844 1201.117188 538.683594 1197.054688 C 545.804688 1188.722656 712.878906 990.675781 712.878906 775.046875 C 713.132812 767.347656 722.945312 653.640625 729.472656 579.09375 C 730.03125 572.769531 727.230469 566.644531 722.113281 562.902344 C 717 559.179688 710.3125 558.386719 704.4375 560.863281 C 700.640625 562.453125 611.3125 601.304688 600.847656 709.15625 C 598.476562 733.445312 592.675781 759.070312 582.609375 789.59375 C 560.808594 678.632812 514.066406 463.816406 462.804688 371.617188 C 454.144531 356.019531 434.371094 348.160156 417.019531 352.984375 C 415.535156 346.441406 413.875 339.9375 412.066406 333.484375 L 409.320312 323.796875 C 404.4375 306.558594 388.511719 294.503906 370.582031 294.503906 L 362.214844 294.503906 C 340.015625 294.503906 321.960938 312.558594 321.960938 334.75 L 321.960938 345.898438 C 315.742188 344.253906 309.164062 343.820312 302.617188 344.726562 C 278.703125 348.085938 260.683594 368.816406 260.683594 392.957031 L 260.683594 453.984375 L 248.808594 462.824219 C 224.027344 481.273438 209.511719 509.503906 208.933594 540.261719 C 207.597656 612.273438 208.445312 794.074219 244.996094 926.394531 C 260.484375 982.488281 262.4375 1040.027344 250.632812 1092.796875 L 242.84375 1127.660156 C 241.777344 1132.394531 242.679688 1137.34375 245.320312 1141.429688 C 247.957031 1145.511719 252.117188 1148.351562 256.886719 1149.308594 L 521.332031 1203.054688 C 522.523438 1203.304688 523.734375 1203.433594 524.929688 1203.433594 Z M 282.15625 1117.554688 L 285.933594 1100.675781 C 299.023438 1042.160156 296.925781 978.550781 279.863281 916.761719 C 244.578125 789.03125 243.800781 611.390625 245.121094 540.945312 C 245.390625 525.894531 250.960938 511.796875 260.703125 500.753906 L 260.703125 641.496094 C 260.703125 651.472656 268.800781 659.566406 278.777344 659.566406 C 288.753906 659.566406 296.851562 651.472656 296.851562 641.496094 L 296.851562 392.976562 C 296.851562 386.742188 301.5 381.394531 307.660156 380.542969 C 312.613281 379.910156 316.050781 382.097656 317.65625 383.507812 C 319.265625 384.917969 321.976562 388.007812 321.976562 392.976562 L 321.976562 647.929688 C 321.976562 657.90625 330.074219 666 340.054688 666 C 350.03125 666 358.128906 657.90625 358.128906 647.929688 L 358.128906 334.769531 C 358.128906 332.507812 359.972656 330.664062 362.230469 330.664062 L 370.601562 330.664062 C 372.425781 330.664062 374.035156 331.894531 374.542969 333.648438 L 377.289062 343.332031 C 382.746094 362.597656 386.527344 382.441406 388.566406 402.300781 L 417.777344 699.128906 C 418.753906 709.066406 427.574219 716.441406 437.535156 715.335938 C 447.476562 714.359375 454.742188 705.523438 453.75 695.585938 L 424.664062 399.96875 C 424.628906 399.554688 424.59375 399.140625 424.539062 398.722656 L 423.886719 392.109375 C 423.742188 390.609375 424.375 389.5625 424.9375 388.945312 C 426.003906 387.753906 430.175781 387.300781 431.226562 389.164062 C 497.417969 508.199219 559.238281 860.796875 559.851562 864.335938 C 561.277344 872.488281 568.039062 878.648438 576.300781 879.265625 C 584.414062 879.824219 592.171875 874.835938 594.808594 866.992188 L 615.886719 804.214844 C 627.488281 769.640625 634.160156 740.527344 636.871094 712.625 C 641.839844 661.539062 668.738281 629.769531 690.355469 612.128906 C 685.078125 672.832031 676.78125 768.917969 676.78125 774.738281 C 676.78125 953.664062 548.734375 1126.394531 517.863281 1165.410156 L 282.195312 1117.519531 Z M 282.15625 1117.554688 " fill-opacity="1" fill-rule="nonzero"/></g><path fill="#000000" d="M 679.980469 506.015625 C 684.609375 506.015625 689.234375 504.242188 692.761719 500.71875 C 699.828125 493.652344 699.828125 482.230469 692.761719 475.167969 L 665.59375 448.003906 C 658.523438 440.9375 647.101562 440.9375 640.035156 448.003906 C 632.964844 455.070312 632.964844 466.492188 640.035156 473.558594 L 667.203125 500.71875 C 670.726562 504.242188 675.355469 506.015625 679.980469 506.015625 Z M 679.980469 506.015625 " fill-opacity="1" fill-rule="nonzero"/><path fill="#000000" d="M 768.949219 468.28125 L 768.949219 429.878906 C 768.949219 419.902344 760.851562 411.808594 750.871094 411.808594 C 740.894531 411.808594 732.796875 419.902344 732.796875 429.878906 L 732.796875 468.28125 C 732.796875 478.257812 740.894531 486.351562 750.871094 486.351562 C 760.851562 486.351562 768.949219 478.257812 768.949219 468.28125 Z M 768.949219 468.28125 " fill-opacity="1" fill-rule="nonzero"/><path fill="#000000" d="M 834.542969 500.71875 L 861.710938 473.558594 C 868.78125 466.492188 868.78125 455.070312 861.710938 448.003906 C 854.644531 440.9375 843.222656 440.9375 836.152344 448.003906 L 808.984375 475.167969 C 801.917969 482.230469 801.917969 493.652344 808.984375 500.71875 C 812.511719 504.242188 817.136719 506.015625 821.765625 506.015625 C 826.390625 506.015625 831.019531 504.242188 834.542969 500.71875 Z M 834.542969 500.71875 " fill-opacity="1" fill-rule="nonzero"/><g fill="#000000" fill-opacity="1"><g transform="translate(29.847687, 1376.999861)"><g><path d="M 40.0625 -27.40625 L 31.109375 -56.109375 L 22.421875 -27.40625 Z M 24.734375 -6.28125 L 24.734375 0 L -0.734375 0 L -0.734375 -6.28125 L 5.1875 -7.71875 C 5.769531 -7.863281 6.242188 -8.101562 6.609375 -8.4375 C 6.972656 -8.78125 7.257812 -9.238281 7.46875 -9.8125 L 27.3125 -68.375 L 42.8125 -68.375 L 62.796875 -9.8125 C 62.992188 -9.238281 63.289062 -8.789062 63.6875 -8.46875 C 64.082031 -8.144531 64.554688 -7.894531 65.109375 -7.71875 L 70.5625 -6.28125 L 70.5625 0 L 37.828125 0 L 37.828125 -6.28125 L 46.171875 -7.640625 L 42.375 -19.9375 L 20.15625 -19.9375 L 16.40625 -7.640625 Z M 24.734375 -6.28125 "/></g></g></g><g fill="#000000" fill-opacity="1"><g transform="translate(99.971251, 1376.999861)"><g><path d="M 29.1875 -62.09375 L 29.1875 -35.171875 C 30.414062 -35.023438 31.664062 -34.953125 32.9375 -34.953125 C 34.21875 -34.953125 35.195312 -34.953125 35.875 -34.953125 C 38.71875 -34.984375 41.109375 -36.160156 43.046875 -38.484375 C 44.984375 -40.816406 45.953125 -44.539062 45.953125 -49.65625 C 45.953125 -54.34375 45.007812 -57.660156 43.125 -59.609375 C 41.25 -61.554688 38.394531 -62.53125 34.5625 -62.53125 C 33.570312 -62.53125 32.609375 -62.484375 31.671875 -62.390625 C 30.742188 -62.304688 29.914062 -62.207031 29.1875 -62.09375 Z M 38.046875 -6.234375 L 38.046875 0 L 3.890625 0 L 3.890625 -6.28125 L 10.640625 -7.546875 C 11.285156 -7.691406 11.789062 -7.960938 12.15625 -8.359375 C 12.519531 -8.753906 12.703125 -9.285156 12.703125 -9.953125 L 12.703125 -57.8125 C 12.703125 -58.488281 12.523438 -59.03125 12.171875 -59.4375 C 11.828125 -59.84375 11.332031 -60.117188 10.6875 -60.265625 L 3.890625 -61.578125 L 3.890625 -68.15625 L 20.515625 -68.15625 C 23.046875 -68.15625 25.476562 -68.242188 27.8125 -68.421875 C 30.15625 -68.597656 32.867188 -68.6875 35.953125 -68.6875 C 45.734375 -68.6875 52.753906 -67.28125 57.015625 -64.46875 C 61.273438 -61.664062 63.40625 -56.976562 63.40625 -50.40625 C 63.40625 -47.195312 62.972656 -44.5 62.109375 -42.3125 C 61.253906 -40.132812 60.144531 -38.34375 58.78125 -36.9375 C 57.414062 -35.53125 55.859375 -34.410156 54.109375 -33.578125 C 52.359375 -32.742188 50.613281 -32.082031 48.875 -31.59375 C 51.164062 -30.601562 53.125 -29.265625 54.75 -27.578125 C 56.382812 -25.890625 57.828125 -23.632812 59.078125 -20.8125 L 63.796875 -10.25 C 64.265625 -9.257812 64.710938 -8.578125 65.140625 -8.203125 C 65.578125 -7.828125 66.175781 -7.535156 66.9375 -7.328125 L 71.078125 -6.234375 L 71.078125 0 L 52.359375 0 C 51.078125 0 49.9375 -0.8125 48.9375 -2.4375 C 47.9375 -4.070312 46.910156 -6.195312 45.859375 -8.8125 L 41.453125 -20.25 C 40.671875 -22.195312 39.894531 -23.894531 39.125 -25.34375 C 38.351562 -26.800781 37.554688 -27.984375 36.734375 -28.890625 L 29.1875 -28.890625 L 29.1875 -9.78125 C 29.1875 -9.101562 29.367188 -8.566406 29.734375 -8.171875 C 30.097656 -7.785156 30.613281 -7.535156 31.28125 -7.421875 Z M 38.046875 -6.234375 "/></g></g></g><g fill="#000000" fill-opacity="1"><g transform="translate(171.534813, 1376.999861)"><g><path d="M 33.734375 1.484375 C 28.609375 1.484375 24.175781 0.6875 20.4375 -0.90625 C 16.707031 -2.507812 13.632812 -4.78125 11.21875 -7.71875 C 8.800781 -10.65625 7.007812 -14.25 5.84375 -18.5 C 4.6875 -22.75 4.109375 -27.503906 4.109375 -32.765625 C 4.109375 -38.554688 4.789062 -43.734375 6.15625 -48.296875 C 7.519531 -52.867188 9.539062 -56.722656 12.21875 -59.859375 C 14.894531 -63.003906 18.234375 -65.40625 22.234375 -67.0625 C 26.234375 -68.726562 30.820312 -69.5625 36 -69.5625 C 41.125 -69.5625 45.5625 -68.757812 49.3125 -67.15625 C 53.0625 -65.550781 56.144531 -63.269531 58.5625 -60.3125 C 60.976562 -57.363281 62.765625 -53.765625 63.921875 -49.515625 C 65.085938 -45.273438 65.671875 -40.523438 65.671875 -35.265625 C 65.671875 -29.503906 64.988281 -24.332031 63.625 -19.75 C 62.257812 -15.164062 60.238281 -11.304688 57.5625 -8.171875 C 54.882812 -5.046875 51.546875 -2.65625 47.546875 -1 C 43.546875 0.65625 38.941406 1.484375 33.734375 1.484375 Z M 35.078125 -62.75 C 30.835938 -62.75 27.640625 -60.476562 25.484375 -55.9375 C 23.328125 -51.40625 22.25 -43.957031 22.25 -33.59375 C 22.25 -23.53125 23.273438 -16.296875 25.328125 -11.890625 C 27.378906 -7.484375 30.484375 -5.28125 34.640625 -5.28125 C 38.835938 -5.28125 42.023438 -7.578125 44.203125 -12.171875 C 46.378906 -16.765625 47.46875 -24.253906 47.46875 -34.640625 C 47.46875 -44.710938 46.441406 -51.914062 44.390625 -56.25 C 42.347656 -60.582031 39.242188 -62.75 35.078125 -62.75 Z M 35.078125 -62.75 "/></g></g></g><g fill="#000000" fill-opacity="1"><g transform="translate(240.218366, 1376.999861)"><g><path d="M 28.96875 -6.28125 L 28.96875 0 L 1.75 0 L 1.75 -6.28125 L 8.515625 -7.71875 C 9.148438 -7.832031 9.632812 -8.085938 9.96875 -8.484375 C 10.300781 -8.878906 10.515625 -9.410156 10.609375 -10.078125 L 16.3125 -57.640625 C 16.40625 -58.335938 16.285156 -58.921875 15.953125 -59.390625 C 15.617188 -59.859375 15.113281 -60.148438 14.4375 -60.265625 L 6.984375 -61.578125 L 6.984375 -68.15625 L 38.625 -68.15625 L 50.40625 -22.828125 L 61.046875 -68.15625 L 92.8125 -68.15625 L 92.8125 -61.578125 L 84.921875 -60.265625 C 84.222656 -60.148438 83.710938 -59.859375 83.390625 -59.390625 C 83.066406 -58.921875 82.960938 -58.335938 83.078125 -57.640625 L 90.15625 -10.03125 C 90.238281 -9.394531 90.460938 -8.878906 90.828125 -8.484375 C 91.191406 -8.085938 91.679688 -7.832031 92.296875 -7.71875 L 98.796875 -6.28125 L 98.796875 0 L 65.9375 0 L 65.9375 -6.28125 L 73.78125 -7.59375 L 66.984375 -57.78125 L 53.9375 -2.40625 L 40.625 -2.40625 L 24.953125 -57.375 L 19.421875 -7.59375 Z M 28.96875 -6.28125 "/></g></g></g><g fill="#000000" fill-opacity="1"><g transform="translate(340.407353, 1376.999861)"><g><path d="M 40.0625 -27.40625 L 31.109375 -56.109375 L 22.421875 -27.40625 Z M 24.734375 -6.28125 L 24.734375 0 L -0.734375 0 L -0.734375 -6.28125 L 5.1875 -7.71875 C 5.769531 -7.863281 6.242188 -8.101562 6.609375 -8.4375 C 6.972656 -8.78125 7.257812 -9.238281 7.46875 -9.8125 L 27.3125 -68.375 L 42.8125 -68.375 L 62.796875 -9.8125 C 62.992188 -9.238281 63.289062 -8.789062 63.6875 -8.46875 C 64.082031 -8.144531 64.554688 -7.894531 65.109375 -7.71875 L 70.5625 -6.28125 L 70.5625 0 L 37.828125 0 L 37.828125 -6.28125 L 46.171875 -7.640625 L 42.375 -19.9375 L 20.15625 -19.9375 L 16.40625 -7.640625 Z M 24.734375 -6.28125 "/></g></g></g><g fill="#000000" fill-opacity="1"><g transform="translate(405.076399, 1376.999861)"><g><path d="M 55.84375 0 L 14.703125 0 L 14.703125 -6.234375 L 24.90625 -7.890625 C 25.582031 -8.015625 26.097656 -8.269531 26.453125 -8.65625 C 26.816406 -9.050781 27 -9.582031 27 -10.25 L 27 -61.390625 L 23.296875 -61.390625 C 22.128906 -61.390625 21.007812 -61.316406 19.9375 -61.171875 C 18.863281 -61.023438 17.988281 -60.820312 17.3125 -60.5625 C 16.707031 -60.332031 16.242188 -60.023438 15.921875 -59.640625 C 15.597656 -59.265625 15.378906 -58.800781 15.265625 -58.25 L 11.5625 -43.203125 L 3.484375 -43.203125 C 2.992188 -47.679688 2.695312 -51.835938 2.59375 -55.671875 C 2.488281 -59.515625 2.671875 -63.675781 3.140625 -68.15625 L 67.375 -68.15625 C 67.832031 -63.675781 68.007812 -59.488281 67.90625 -55.59375 C 67.8125 -51.695312 67.53125 -47.566406 67.0625 -43.203125 L 58.984375 -43.203125 L 55.109375 -58.296875 C 54.960938 -58.847656 54.726562 -59.304688 54.40625 -59.671875 C 54.082031 -60.035156 53.632812 -60.332031 53.0625 -60.5625 C 52.382812 -60.851562 51.507812 -61.0625 50.4375 -61.1875 C 49.363281 -61.320312 48.242188 -61.390625 47.078125 -61.390625 L 43.546875 -61.390625 L 43.546875 -10.25 C 43.546875 -9.582031 43.726562 -9.050781 44.09375 -8.65625 C 44.457031 -8.269531 44.972656 -8.015625 45.640625 -7.890625 L 55.84375 -6.234375 Z M 55.84375 0 "/></g></g></g><g fill="#000000" fill-opacity="1"><g transform="translate(474.545418, 1376.999861)"><g><path d="M 33.734375 1.484375 C 28.609375 1.484375 24.175781 0.6875 20.4375 -0.90625 C 16.707031 -2.507812 13.632812 -4.78125 11.21875 -7.71875 C 8.800781 -10.65625 7.007812 -14.25 5.84375 -18.5 C 4.6875 -22.75 4.109375 -27.503906 4.109375 -32.765625 C 4.109375 -38.554688 4.789062 -43.734375 6.15625 -48.296875 C 7.519531 -52.867188 9.539062 -56.722656 12.21875 -59.859375 C 14.894531 -63.003906 18.234375 -65.40625 22.234375 -67.0625 C 26.234375 -68.726562 30.820312 -69.5625 36 -69.5625 C 41.125 -69.5625 45.5625 -68.757812 49.3125 -67.15625 C 53.0625 -65.550781 56.144531 -63.269531 58.5625 -60.3125 C 60.976562 -57.363281 62.765625 -53.765625 63.921875 -49.515625 C 65.085938 -45.273438 65.671875 -40.523438 65.671875 -35.265625 C 65.671875 -29.503906 64.988281 -24.332031 63.625 -19.75 C 62.257812 -15.164062 60.238281 -11.304688 57.5625 -8.171875 C 54.882812 -5.046875 51.546875 -2.65625 47.546875 -1 C 43.546875 0.65625 38.941406 1.484375 33.734375 1.484375 Z M 35.078125 -62.75 C 30.835938 -62.75 27.640625 -60.476562 25.484375 -55.9375 C 23.328125 -51.40625 22.25 -43.957031 22.25 -33.59375 C 22.25 -23.53125 23.273438 -16.296875 25.328125 -11.890625 C 27.378906 -7.484375 30.484375 -5.28125 34.640625 -5.28125 C 38.835938 -5.28125 42.023438 -7.578125 44.203125 -12.171875 C 46.378906 -16.765625 47.46875 -24.253906 47.46875 -34.640625 C 47.46875 -44.710938 46.441406 -51.914062 44.390625 -56.25 C 42.347656 -60.582031 39.242188 -62.75 35.078125 -62.75 Z M 35.078125 -62.75 "/></g></g></g><g fill="#000000" fill-opacity="1"><g transform="translate(543.752596, 1376.999861)"><g><path d="M 45.640625 -68.15625 L 71.78125 -68.15625 L 71.78125 -61.578125 L 66.984375 -60.34375 C 66.335938 -60.175781 65.847656 -59.875 65.515625 -59.4375 C 65.179688 -59 65.015625 -58.457031 65.015625 -57.8125 L 65.015625 -25.21875 C 65.015625 -20.445312 64.378906 -16.378906 63.109375 -13.015625 C 61.847656 -9.660156 60.050781 -6.941406 57.71875 -4.859375 C 55.394531 -2.785156 52.578125 -1.273438 49.265625 -0.328125 C 45.953125 0.617188 42.257812 1.09375 38.1875 1.09375 C 28.726562 1.09375 21.65625 -1.003906 16.96875 -5.203125 C 12.289062 -9.410156 9.953125 -16.273438 9.953125 -25.796875 L 9.953125 -57.8125 C 9.953125 -58.457031 9.789062 -58.988281 9.46875 -59.40625 C 9.144531 -59.832031 8.664062 -60.144531 8.03125 -60.34375 L 3.671875 -61.578125 L 3.671875 -68.15625 L 36 -68.15625 L 36 -61.578125 L 29.0625 -60.09375 C 28.425781 -59.96875 27.929688 -59.6875 27.578125 -59.25 C 27.222656 -58.820312 27.046875 -58.285156 27.046875 -57.640625 L 27.046875 -24.390625 C 27.046875 -18.453125 28.0625 -13.796875 30.09375 -10.421875 C 32.132812 -7.054688 35.703125 -5.375 40.796875 -5.375 C 43.472656 -5.375 45.710938 -5.835938 47.515625 -6.765625 C 49.316406 -7.691406 50.765625 -8.988281 51.859375 -10.65625 C 52.953125 -12.332031 53.726562 -14.332031 54.1875 -16.65625 C 54.65625 -18.988281 54.890625 -21.539062 54.890625 -24.3125 L 54.890625 -57.78125 C 54.890625 -58.445312 54.710938 -58.988281 54.359375 -59.40625 C 54.015625 -59.832031 53.523438 -60.101562 52.890625 -60.21875 L 45.640625 -61.578125 Z M 45.640625 -68.15625 "/></g></g></g><g fill="#000000" fill-opacity="1"><g transform="translate(618.501597, 1376.999861)"><g><path d="M 35.296875 1.53125 C 24.828125 1.53125 17.007812 -1.410156 11.84375 -7.296875 C 6.6875 -13.191406 4.109375 -21.625 4.109375 -32.59375 C 4.109375 -38.875 4.914062 -44.34375 6.53125 -49 C 8.144531 -53.65625 10.421875 -57.492188 13.359375 -60.515625 C 16.296875 -63.546875 19.847656 -65.796875 24.015625 -67.265625 C 28.191406 -68.734375 32.8125 -69.46875 37.875 -69.46875 C 41.332031 -69.46875 44.957031 -69.144531 48.75 -68.5 C 52.550781 -67.863281 56.023438 -66.960938 59.171875 -65.796875 C 59.367188 -62.921875 59.394531 -59.820312 59.25 -56.5 C 59.113281 -53.1875 58.765625 -49.710938 58.203125 -46.078125 L 48.484375 -46.078125 L 45.90625 -57.515625 C 45.789062 -58.066406 45.570312 -58.65625 45.25 -59.28125 C 44.925781 -59.90625 44.375 -60.476562 43.59375 -61 C 42.78125 -61.550781 41.75 -62 40.5 -62.34375 C 39.25 -62.695312 37.9375 -62.875 36.5625 -62.875 C 32.195312 -62.875 28.789062 -60.675781 26.34375 -56.28125 C 23.90625 -51.894531 22.6875 -44.566406 22.6875 -34.296875 C 22.6875 -24.785156 23.832031 -17.554688 26.125 -12.609375 C 28.425781 -7.660156 32.035156 -5.1875 36.953125 -5.1875 C 38.378906 -5.1875 39.785156 -5.394531 41.171875 -5.8125 C 42.554688 -6.238281 43.695312 -6.890625 44.59375 -7.765625 C 44.96875 -8.117188 45.304688 -8.546875 45.609375 -9.046875 C 45.921875 -9.554688 46.222656 -10.265625 46.515625 -11.171875 L 49.609375 -21.296875 L 59.171875 -20.46875 C 59.316406 -17.789062 59.351562 -14.898438 59.28125 -11.796875 C 59.207031 -8.703125 58.9375 -5.507812 58.46875 -2.21875 C 56.894531 -1.695312 55.160156 -1.203125 53.265625 -0.734375 C 51.378906 -0.273438 49.429688 0.117188 47.421875 0.453125 C 45.421875 0.785156 43.378906 1.046875 41.296875 1.234375 C 39.222656 1.429688 37.222656 1.53125 35.296875 1.53125 Z M 35.296875 1.53125 "/></g></g></g><g fill="#000000" fill-opacity="1"><g transform="translate(682.166997, 1376.999861)"><g><path d="M 78.546875 -68.15625 L 78.546875 -61.578125 L 71.6875 -60.265625 C 71.050781 -60.117188 70.554688 -59.816406 70.203125 -59.359375 C 69.859375 -58.910156 69.6875 -58.367188 69.6875 -57.734375 L 69.6875 -10 C 69.6875 -9.320312 69.859375 -8.78125 70.203125 -8.375 C 70.554688 -7.96875 71.066406 -7.691406 71.734375 -7.546875 L 78.546875 -6.28125 L 78.546875 0 L 46.296875 0 L 46.296875 -6.28125 L 51.140625 -7.546875 C 51.785156 -7.722656 52.28125 -8.003906 52.625 -8.390625 C 52.976562 -8.785156 53.15625 -9.320312 53.15625 -10 L 53.15625 -30.625 L 29.28125 -30.625 L 29.28125 -10 C 29.28125 -9.320312 29.445312 -8.78125 29.78125 -8.375 C 30.113281 -7.96875 30.601562 -7.691406 31.25 -7.546875 L 36.703125 -6.28125 L 36.703125 0 L 3.890625 0 L 3.890625 -6.28125 L 10.6875 -7.546875 C 11.351562 -7.691406 11.851562 -7.96875 12.1875 -8.375 C 12.53125 -8.78125 12.703125 -9.320312 12.703125 -10 L 12.703125 -57.734375 C 12.703125 -58.460938 12.53125 -59.03125 12.1875 -59.4375 C 11.851562 -59.84375 11.367188 -60.117188 10.734375 -60.265625 L 3.890625 -61.578125 L 3.890625 -68.15625 L 36.703125 -68.15625 L 36.703125 -61.578125 L 31.203125 -60.265625 C 30.554688 -60.117188 30.070312 -59.84375 29.75 -59.4375 C 29.4375 -59.03125 29.28125 -58.460938 29.28125 -57.734375 L 29.28125 -38.625 L 53.15625 -38.625 L 53.15625 -57.734375 C 53.15625 -58.367188 52.984375 -58.90625 52.640625 -59.34375 C 52.304688 -59.78125 51.820312 -60.085938 51.1875 -60.265625 L 46.25 -61.578125 L 46.25 -68.15625 Z M 78.546875 -68.15625 "/></g></g></g><g fill="#000000" fill-opacity="1"><g transform="translate(787.156002, 1376.999861)"><g><path d="M 55.84375 0 L 14.703125 0 L 14.703125 -6.234375 L 24.90625 -7.890625 C 25.582031 -8.015625 26.097656 -8.269531 26.453125 -8.65625 C 26.816406 -9.050781 27 -9.582031 27 -10.25 L 27 -61.390625 L 23.296875 -61.390625 C 22.128906 -61.390625 21.007812 -61.316406 19.9375 -61.171875 C 18.863281 -61.023438 17.988281 -60.820312 17.3125 -60.5625 C 16.707031 -60.332031 16.242188 -60.023438 15.921875 -59.640625 C 15.597656 -59.265625 15.378906 -58.800781 15.265625 -58.25 L 11.5625 -43.203125 L 3.484375 -43.203125 C 2.992188 -47.679688 2.695312 -51.835938 2.59375 -55.671875 C 2.488281 -59.515625 2.671875 -63.675781 3.140625 -68.15625 L 67.375 -68.15625 C 67.832031 -63.675781 68.007812 -59.488281 67.90625 -55.59375 C 67.8125 -51.695312 67.53125 -47.566406 67.0625 -43.203125 L 58.984375 -43.203125 L 55.109375 -58.296875 C 54.960938 -58.847656 54.726562 -59.304688 54.40625 -59.671875 C 54.082031 -60.035156 53.632812 -60.332031 53.0625 -60.5625 C 52.382812 -60.851562 51.507812 -61.0625 50.4375 -61.1875 C 49.363281 -61.320312 48.242188 -61.390625 47.078125 -61.390625 L 43.546875 -61.390625 L 43.546875 -10.25 C 43.546875 -9.582031 43.726562 -9.050781 44.09375 -8.65625 C 44.457031 -8.269531 44.972656 -8.015625 45.640625 -7.890625 L 55.84375 -6.234375 Z M 55.84375 0 "/></g></g></g><g fill="#000000" fill-opacity="1"><g transform="translate(857.410451, 1376.999861)"><g><path d="M 56.59375 -49.53125 L 48.828125 -49.53125 L 46.46875 -57.59375 C 46.269531 -58.351562 45.953125 -58.953125 45.515625 -59.390625 C 45.078125 -59.828125 44.535156 -60.175781 43.890625 -60.4375 C 43.171875 -60.726562 42.140625 -60.957031 40.796875 -61.125 C 39.460938 -61.300781 38.082031 -61.390625 36.65625 -61.390625 L 29.28125 -61.390625 L 29.28125 -38.484375 L 48.046875 -39.1875 L 48.046875 -30.234375 L 29.28125 -30.71875 L 29.28125 -7.109375 L 38.484375 -7.109375 C 39.910156 -7.109375 41.398438 -7.195312 42.953125 -7.375 C 44.515625 -7.550781 45.660156 -7.785156 46.390625 -8.078125 C 47.023438 -8.335938 47.503906 -8.675781 47.828125 -9.09375 C 48.148438 -9.519531 48.453125 -10.125 48.734375 -10.90625 L 52.5 -21.734375 L 60.21875 -20.515625 C 60.21875 -17.015625 60.085938 -13.609375 59.828125 -10.296875 C 59.566406 -6.984375 59.160156 -3.550781 58.609375 0 L 3.890625 0 L 3.890625 -6.28125 L 10.6875 -7.546875 C 11.351562 -7.660156 11.851562 -7.925781 12.1875 -8.34375 C 12.53125 -8.769531 12.703125 -9.320312 12.703125 -10 L 12.703125 -57.78125 C 12.703125 -58.445312 12.53125 -58.988281 12.1875 -59.40625 C 11.851562 -59.832031 11.351562 -60.117188 10.6875 -60.265625 L 3.890625 -61.578125 L 3.890625 -68.15625 L 56.328125 -68.15625 C 56.710938 -65.101562 56.914062 -62.023438 56.9375 -58.921875 C 56.96875 -55.828125 56.851562 -52.695312 56.59375 -49.53125 Z M 56.59375 -49.53125 "/></g></g></g><g fill="#000000" fill-opacity="1"><g transform="translate(920.770431, 1376.999861)"><g><path d="M 35.296875 1.53125 C 24.828125 1.53125 17.007812 -1.410156 11.84375 -7.296875 C 6.6875 -13.191406 4.109375 -21.625 4.109375 -32.59375 C 4.109375 -38.875 4.914062 -44.34375 6.53125 -49 C 8.144531 -53.65625 10.421875 -57.492188 13.359375 -60.515625 C 16.296875 -63.546875 19.847656 -65.796875 24.015625 -67.265625 C 28.191406 -68.734375 32.8125 -69.46875 37.875 -69.46875 C 41.332031 -69.46875 44.957031 -69.144531 48.75 -68.5 C 52.550781 -67.863281 56.023438 -66.960938 59.171875 -65.796875 C 59.367188 -62.921875 59.394531 -59.820312 59.25 -56.5 C 59.113281 -53.1875 58.765625 -49.710938 58.203125 -46.078125 L 48.484375 -46.078125 L 45.90625 -57.515625 C 45.789062 -58.066406 45.570312 -58.65625 45.25 -59.28125 C 44.925781 -59.90625 44.375 -60.476562 43.59375 -61 C 42.78125 -61.550781 41.75 -62 40.5 -62.34375 C 39.25 -62.695312 37.9375 -62.875 36.5625 -62.875 C 32.195312 -62.875 28.789062 -60.675781 26.34375 -56.28125 C 23.90625 -51.894531 22.6875 -44.566406 22.6875 -34.296875 C 22.6875 -24.785156 23.832031 -17.554688 26.125 -12.609375 C 28.425781 -7.660156 32.035156 -5.1875 36.953125 -5.1875 C 38.378906 -5.1875 39.785156 -5.394531 41.171875 -5.8125 C 42.554688 -6.238281 43.695312 -6.890625 44.59375 -7.765625 C 44.96875 -8.117188 45.304688 -8.546875 45.609375 -9.046875 C 45.921875 -9.554688 46.222656 -10.265625 46.515625 -11.171875 L 49.609375 -21.296875 L 59.171875 -20.46875 C 59.316406 -17.789062 59.351562 -14.898438 59.28125 -11.796875 C 59.207031 -8.703125 58.9375 -5.507812 58.46875 -2.21875 C 56.894531 -1.695312 55.160156 -1.203125 53.265625 -0.734375 C 51.378906 -0.273438 49.429688 0.117188 47.421875 0.453125 C 45.421875 0.785156 43.378906 1.046875 41.296875 1.234375 C 39.222656 1.429688 37.222656 1.53125 35.296875 1.53125 Z M 35.296875 1.53125 "/></g></g></g><g fill="#000000" fill-opacity="1"><g transform="translate(984.435739, 1376.999861)"><g><path d="M 78.546875 -68.15625 L 78.546875 -61.578125 L 71.6875 -60.265625 C 71.050781 -60.117188 70.554688 -59.816406 70.203125 -59.359375 C 69.859375 -58.910156 69.6875 -58.367188 69.6875 -57.734375 L 69.6875 -10 C 69.6875 -9.320312 69.859375 -8.78125 70.203125 -8.375 C 70.554688 -7.96875 71.066406 -7.691406 71.734375 -7.546875 L 78.546875 -6.28125 L 78.546875 0 L 46.296875 0 L 46.296875 -6.28125 L 51.140625 -7.546875 C 51.785156 -7.722656 52.28125 -8.003906 52.625 -8.390625 C 52.976562 -8.785156 53.15625 -9.320312 53.15625 -10 L 53.15625 -30.625 L 29.28125 -30.625 L 29.28125 -10 C 29.28125 -9.320312 29.445312 -8.78125 29.78125 -8.375 C 30.113281 -7.96875 30.601562 -7.691406 31.25 -7.546875 L 36.703125 -6.28125 L 36.703125 0 L 3.890625 0 L 3.890625 -6.28125 L 10.6875 -7.546875 C 11.351562 -7.691406 11.851562 -7.96875 12.1875 -8.375 C 12.53125 -8.78125 12.703125 -9.320312 12.703125 -10 L 12.703125 -57.734375 C 12.703125 -58.460938 12.53125 -59.03125 12.1875 -59.4375 C 11.851562 -59.84375 11.367188 -60.117188 10.734375 -60.265625 L 3.890625 -61.578125 L 3.890625 -68.15625 L 36.703125 -68.15625 L 36.703125 -61.578125 L 31.203125 -60.265625 C 30.554688 -60.117188 30.070312 -59.84375 29.75 -59.4375 C 29.4375 -59.03125 29.28125 -58.460938 29.28125 -57.734375 L 29.28125 -38.625 L 53.15625 -38.625 L 53.15625 -57.734375 C 53.15625 -58.367188 52.984375 -58.90625 52.640625 -59.34375 C 52.304688 -59.78125 51.820312 -60.085938 51.1875 -60.265625 L 46.25 -61.578125 L 46.25 -68.15625 Z M 78.546875 -68.15625 "/></g></g></g><g fill="#000000" fill-opacity="1"><g transform="translate(1066.864779, 1376.999861)"><g><path d="M 31.8125 -6.28125 L 31.8125 0 L 3.890625 0 L 3.890625 -6.28125 L 10.6875 -7.5 C 11.351562 -7.625 11.851562 -7.894531 12.1875 -8.3125 C 12.53125 -8.738281 12.703125 -9.285156 12.703125 -9.953125 L 12.703125 -57.78125 C 12.703125 -58.445312 12.53125 -58.988281 12.1875 -59.40625 C 11.851562 -59.832031 11.351562 -60.117188 10.6875 -60.265625 L 3.890625 -61.578125 L 3.890625 -68.15625 L 29.71875 -68.15625 L 58.296875 -21.6875 L 58.296875 -57.78125 C 58.296875 -58.445312 58.117188 -59 57.765625 -59.4375 C 57.421875 -59.875 56.929688 -60.148438 56.296875 -60.265625 L 49.046875 -61.578125 L 49.046875 -68.15625 L 75.796875 -68.15625 L 75.796875 -61.578125 L 69.46875 -60.265625 C 68.800781 -60.117188 68.300781 -59.832031 67.96875 -59.40625 C 67.632812 -58.988281 67.46875 -58.445312 67.46875 -57.78125 L 67.46875 0 L 52.5 0 L 21.859375 -50.265625 L 21.859375 -10 C 21.859375 -9.320312 22.03125 -8.769531 22.375 -8.34375 C 22.726562 -7.925781 23.226562 -7.660156 23.875 -7.546875 Z M 31.8125 -6.28125 "/></g></g></g><g fill="#000000" fill-opacity="1"><g transform="translate(1145.715571, 1376.999861)"><g><path d="M 38.09375 -68.15625 L 38.09375 -61.578125 L 31.28125 -60.265625 C 30.613281 -60.117188 30.113281 -59.832031 29.78125 -59.40625 C 29.445312 -58.988281 29.28125 -58.445312 29.28125 -57.78125 L 29.28125 -10.03125 C 29.28125 -9.363281 29.445312 -8.816406 29.78125 -8.390625 C 30.113281 -7.972656 30.613281 -7.707031 31.28125 -7.59375 L 38.09375 -6.28125 L 38.09375 0 L 3.890625 0 L 3.890625 -6.28125 L 10.6875 -7.546875 C 11.351562 -7.660156 11.851562 -7.925781 12.1875 -8.34375 C 12.53125 -8.769531 12.703125 -9.320312 12.703125 -10 L 12.703125 -57.78125 C 12.703125 -58.445312 12.53125 -58.988281 12.1875 -59.40625 C 11.851562 -59.832031 11.351562 -60.117188 10.6875 -60.265625 L 3.890625 -61.578125 L 3.890625 -68.15625 Z M 38.09375 -68.15625 "/></g></g></g><g fill="#000000" fill-opacity="1"><g transform="translate(1186.733756, 1376.999861)"><g><path d="M 59.390625 18.453125 C 56.046875 18.453125 53.226562 17.816406 50.9375 16.546875 C 48.65625 15.285156 46.578125 13.769531 44.703125 12 C 42.828125 10.226562 40.941406 8.363281 39.046875 6.40625 C 37.160156 4.457031 34.921875 2.816406 32.328125 1.484375 C 27.472656 1.335938 23.253906 0.414062 19.671875 -1.28125 C 16.097656 -2.988281 13.171875 -5.316406 10.890625 -8.265625 C 8.609375 -11.222656 6.90625 -14.78125 5.78125 -18.9375 C 4.664062 -23.09375 4.109375 -27.703125 4.109375 -32.765625 C 4.109375 -38.441406 4.789062 -43.5625 6.15625 -48.125 C 7.519531 -52.695312 9.539062 -56.5625 12.21875 -59.71875 C 14.894531 -62.875 18.234375 -65.300781 22.234375 -67 C 26.234375 -68.707031 30.820312 -69.5625 36 -69.5625 C 41.125 -69.5625 45.5625 -68.742188 49.3125 -67.109375 C 53.0625 -65.484375 56.144531 -63.1875 58.5625 -60.21875 C 60.976562 -57.25 62.765625 -53.640625 63.921875 -49.390625 C 65.085938 -45.148438 65.671875 -40.441406 65.671875 -35.265625 C 65.671875 -26.242188 63.863281 -18.691406 60.25 -12.609375 C 56.644531 -6.523438 51.570312 -2.394531 45.03125 -0.21875 C 46.601562 0.25 48.085938 0.804688 49.484375 1.453125 C 50.878906 2.109375 52.347656 2.859375 53.890625 3.703125 C 56.210938 5.015625 58.40625 5.984375 60.46875 6.609375 C 62.539062 7.234375 64.65625 7.546875 66.8125 7.546875 C 67.820312 7.546875 68.753906 7.492188 69.609375 7.390625 C 70.472656 7.296875 71.269531 7.175781 72 7.03125 L 73.484375 12.265625 C 72.285156 13.691406 70.382812 15.078125 67.78125 16.421875 C 65.1875 17.773438 62.390625 18.453125 59.390625 18.453125 Z M 35.046875 -62.75 C 30.828125 -62.75 27.628906 -60.476562 25.453125 -55.9375 C 23.285156 -51.40625 22.203125 -43.957031 22.203125 -33.59375 C 22.203125 -23.53125 23.226562 -16.296875 25.28125 -11.890625 C 27.332031 -7.484375 30.441406 -5.28125 34.609375 -5.28125 C 38.828125 -5.28125 42.023438 -7.578125 44.203125 -12.171875 C 46.378906 -16.765625 47.46875 -24.253906 47.46875 -34.640625 C 47.46875 -44.710938 46.4375 -51.914062 44.375 -56.25 C 42.3125 -60.582031 39.203125 -62.75 35.046875 -62.75 Z M 35.046875 -62.75 "/></g></g></g><g fill="#000000" fill-opacity="1"><g transform="translate(1255.897355, 1376.999861)"><g><path d="M 45.640625 -68.15625 L 71.78125 -68.15625 L 71.78125 -61.578125 L 66.984375 -60.34375 C 66.335938 -60.175781 65.847656 -59.875 65.515625 -59.4375 C 65.179688 -59 65.015625 -58.457031 65.015625 -57.8125 L 65.015625 -25.21875 C 65.015625 -20.445312 64.378906 -16.378906 63.109375 -13.015625 C 61.847656 -9.660156 60.050781 -6.941406 57.71875 -4.859375 C 55.394531 -2.785156 52.578125 -1.273438 49.265625 -0.328125 C 45.953125 0.617188 42.257812 1.09375 38.1875 1.09375 C 28.726562 1.09375 21.65625 -1.003906 16.96875 -5.203125 C 12.289062 -9.410156 9.953125 -16.273438 9.953125 -25.796875 L 9.953125 -57.8125 C 9.953125 -58.457031 9.789062 -58.988281 9.46875 -59.40625 C 9.144531 -59.832031 8.664062 -60.144531 8.03125 -60.34375 L 3.671875 -61.578125 L 3.671875 -68.15625 L 36 -68.15625 L 36 -61.578125 L 29.0625 -60.09375 C 28.425781 -59.96875 27.929688 -59.6875 27.578125 -59.25 C 27.222656 -58.820312 27.046875 -58.285156 27.046875 -57.640625 L 27.046875 -24.390625 C 27.046875 -18.453125 28.0625 -13.796875 30.09375 -10.421875 C 32.132812 -7.054688 35.703125 -5.375 40.796875 -5.375 C 43.472656 -5.375 45.710938 -5.835938 47.515625 -6.765625 C 49.316406 -7.691406 50.765625 -8.988281 51.859375 -10.65625 C 52.953125 -12.332031 53.726562 -14.332031 54.1875 -16.65625 C 54.65625 -18.988281 54.890625 -21.539062 54.890625 -24.3125 L 54.890625 -57.78125 C 54.890625 -58.445312 54.710938 -58.988281 54.359375 -59.40625 C 54.015625 -59.832031 53.523438 -60.101562 52.890625 -60.21875 L 45.640625 -61.578125 Z M 45.640625 -68.15625 "/></g></g></g><g fill="#000000" fill-opacity="1"><g transform="translate(1331.344492, 1376.999861)"><g><path d="M 56.59375 -49.53125 L 48.828125 -49.53125 L 46.46875 -57.59375 C 46.269531 -58.351562 45.953125 -58.953125 45.515625 -59.390625 C 45.078125 -59.828125 44.535156 -60.175781 43.890625 -60.4375 C 43.171875 -60.726562 42.140625 -60.957031 40.796875 -61.125 C 39.460938 -61.300781 38.082031 -61.390625 36.65625 -61.390625 L 29.28125 -61.390625 L 29.28125 -38.484375 L 48.046875 -39.1875 L 48.046875 -30.234375 L 29.28125 -30.71875 L 29.28125 -7.109375 L 38.484375 -7.109375 C 39.910156 -7.109375 41.398438 -7.195312 42.953125 -7.375 C 44.515625 -7.550781 45.660156 -7.785156 46.390625 -8.078125 C 47.023438 -8.335938 47.503906 -8.675781 47.828125 -9.09375 C 48.148438 -9.519531 48.453125 -10.125 48.734375 -10.90625 L 52.5 -21.734375 L 60.21875 -20.515625 C 60.21875 -17.015625 60.085938 -13.609375 59.828125 -10.296875 C 59.566406 -6.984375 59.160156 -3.550781 58.609375 0 L 3.890625 0 L 3.890625 -6.28125 L 10.6875 -7.546875 C 11.351562 -7.660156 11.851562 -7.925781 12.1875 -8.34375 C 12.53125 -8.769531 12.703125 -9.320312 12.703125 -10 L 12.703125 -57.78125 C 12.703125 -58.445312 12.53125 -58.988281 12.1875 -59.40625 C 11.851562 -59.832031 11.351562 -60.117188 10.6875 -60.265625 L 3.890625 -61.578125 L 3.890625 -68.15625 L 56.328125 -68.15625 C 56.710938 -65.101562 56.914062 -62.023438 56.9375 -58.921875 C 56.96875 -55.828125 56.851562 -52.695312 56.59375 -49.53125 Z M 56.59375 -49.53125 "/></g></g></g><g fill="#000000" fill-opacity="1"><g transform="translate(1394.704472, 1376.999861)"><g><path d="M 3.890625 -47.609375 C 3.890625 -52.460938 4.738281 -56.960938 6.4375 -61.109375 C 8.132812 -65.253906 10.488281 -68.820312 13.5 -71.8125 C 16.507812 -74.8125 20.09375 -77.15625 24.25 -78.84375 C 28.414062 -80.53125 32.925781 -81.375 37.78125 -81.375 C 42.644531 -81.375 47.148438 -80.53125 51.296875 -78.84375 C 55.441406 -77.15625 59.003906 -74.8125 61.984375 -71.8125 C 64.960938 -68.820312 67.296875 -65.253906 68.984375 -61.109375 C 70.671875 -56.960938 71.515625 -52.460938 71.515625 -47.609375 C 71.515625 -42.742188 70.671875 -38.234375 68.984375 -34.078125 C 67.296875 -29.921875 64.960938 -26.347656 61.984375 -23.359375 C 59.003906 -20.378906 55.441406 -18.039062 51.296875 -16.34375 C 47.148438 -14.644531 42.644531 -13.796875 37.78125 -13.796875 C 32.925781 -13.796875 28.414062 -14.644531 24.25 -16.34375 C 20.09375 -18.039062 16.507812 -20.378906 13.5 -23.359375 C 10.488281 -26.347656 8.132812 -29.921875 6.4375 -34.078125 C 4.738281 -38.234375 3.890625 -42.742188 3.890625 -47.609375 Z M 10.171875 -47.609375 C 10.171875 -43.453125 10.851562 -39.625 12.21875 -36.125 C 13.582031 -32.632812 15.476562 -29.640625 17.90625 -27.140625 C 20.34375 -24.640625 23.257812 -22.691406 26.65625 -21.296875 C 30.0625 -19.898438 33.785156 -19.203125 37.828125 -19.203125 C 41.847656 -19.203125 45.550781 -19.898438 48.9375 -21.296875 C 52.320312 -22.691406 55.210938 -24.628906 57.609375 -27.109375 C 60.015625 -29.597656 61.894531 -32.597656 63.25 -36.109375 C 64.601562 -39.617188 65.28125 -43.453125 65.28125 -47.609375 C 65.28125 -51.765625 64.609375 -55.585938 63.265625 -59.078125 C 61.929688 -62.566406 60.054688 -65.5625 57.640625 -68.0625 C 55.222656 -70.570312 52.320312 -72.523438 48.9375 -73.921875 C 45.550781 -75.316406 41.832031 -76.015625 37.78125 -76.015625 C 33.738281 -76.015625 30.015625 -75.316406 26.609375 -73.921875 C 23.210938 -72.523438 20.304688 -70.570312 17.890625 -68.0625 C 15.472656 -65.5625 13.582031 -62.566406 12.21875 -59.078125 C 10.851562 -55.585938 10.171875 -51.765625 10.171875 -47.609375 Z M 38.1875 -48.390625 C 39.46875 -48.390625 40.585938 -48.957031 41.546875 -50.09375 C 42.503906 -51.226562 42.984375 -52.914062 42.984375 -55.15625 C 42.984375 -57.476562 42.523438 -59.140625 41.609375 -60.140625 C 40.691406 -61.148438 39.257812 -61.65625 37.3125 -61.65625 C 36.8125 -61.65625 36.285156 -61.617188 35.734375 -61.546875 C 35.179688 -61.472656 34.628906 -61.378906 34.078125 -61.265625 L 34.078125 -48.53125 C 34.890625 -48.46875 35.625 -48.425781 36.28125 -48.40625 C 36.9375 -48.394531 37.570312 -48.390625 38.1875 -48.390625 Z M 38 -33.25 L 38 -29.453125 L 20.90625 -29.453125 L 20.90625 -33.25 L 23.265625 -33.953125 C 23.671875 -34.066406 23.972656 -34.269531 24.171875 -34.5625 C 24.378906 -34.851562 24.484375 -35.21875 24.484375 -35.65625 L 24.484375 -59.609375 C 24.484375 -60.078125 24.375 -60.453125 24.15625 -60.734375 C 23.9375 -61.023438 23.625 -61.21875 23.21875 -61.3125 L 20.90625 -61.875 L 20.90625 -66.203125 L 29.328125 -66.203125 C 30.867188 -66.171875 32.3125 -66.179688 33.65625 -66.234375 C 35.007812 -66.296875 36.472656 -66.328125 38.046875 -66.328125 C 43.460938 -66.328125 47.316406 -65.5 49.609375 -63.84375 C 51.910156 -62.1875 53.0625 -59.476562 53.0625 -55.71875 C 53.0625 -53.59375 52.519531 -51.59375 51.4375 -49.71875 C 50.363281 -47.84375 48.269531 -46.5 45.15625 -45.6875 C 46.320312 -45.3125 47.242188 -44.773438 47.921875 -44.078125 C 48.609375 -43.378906 49.171875 -42.488281 49.609375 -41.40625 L 51.75 -36.34375 C 52.125 -35.5 52.582031 -34.925781 53.125 -34.625 C 53.664062 -34.320312 54.601562 -33.976562 55.9375 -33.59375 L 55.9375 -29.453125 L 46.203125 -29.453125 C 45.367188 -29.453125 44.664062 -29.875 44.09375 -30.71875 C 43.53125 -31.5625 43.03125 -32.625 42.59375 -33.90625 L 40.671875 -39.484375 C 40.347656 -40.453125 40.007812 -41.285156 39.65625 -41.984375 C 39.3125 -42.679688 38.953125 -43.273438 38.578125 -43.765625 L 34.078125 -43.71875 L 34.078125 -35.515625 C 34.078125 -35.054688 34.1875 -34.679688 34.40625 -34.390625 C 34.625 -34.097656 34.953125 -33.90625 35.390625 -33.8125 Z M 38 -33.25 "/></g></g></g></svg>