<svg xmlns="http://www.w3.org/2000/svg" xmlns:xlink="http://www.w3.org/1999/xlink" width="2000" zoomAndPan="magnify" viewBox="0 0 1500 1499.999933" height="2000" preserveAspectRatio="xMidYMid meet" version="1.0"><defs><g/><clipPath id="ed3aca64f8"><path d="M 296.320312 295.371094 L 1202 295.371094 L 1202 1204 L 296.320312 1204 Z M 296.320312 295.371094 " clip-rule="nonzero"/></clipPath></defs><rect x="-150" width="1800" fill="#ffffff" y="-149.999993" height="1799.99992" fill-opacity="1"/><rect x="-150" width="1800" fill="#ffffff" y="-149.999993" height="1799.99992" fill-opacity="1"/><g clip-path="url(#ed3aca64f8)"><path fill="#000000" d="M 527.5625 788.214844 C 519.960938 788.214844 513.847656 782.105469 513.847656 774.507812 C 513.847656 766.96875 519.960938 760.800781 527.5625 760.800781 L 606.414062 760.800781 C 614.015625 760.800781 620.125 766.96875 620.125 774.507812 C 620.125 782.105469 614.015625 788.214844 606.414062 788.214844 Z M 598.027344 833 C 605.628906 833 611.742188 839.109375 611.742188 846.648438 C 611.742188 854.246094 605.628906 860.355469 598.027344 860.355469 L 527.5625 860.355469 C 519.960938 860.355469 513.847656 854.246094 513.847656 846.648438 C 513.847656 839.109375 519.960938 833 527.5625 833 Z M 651.84375 788.214844 C 644.28125 788.214844 638.1875 782.105469 638.1875 774.507812 C 638.1875 766.96875 644.300781 760.800781 651.84375 760.800781 L 792.835938 760.800781 C 800.4375 760.800781 806.546875 766.96875 806.546875 774.507812 C 806.546875 782.105469 800.4375 788.214844 792.835938 788.214844 Z M 866.359375 1099.492188 C 862.578125 1092.949219 864.808594 1084.550781 871.351562 1080.789062 C 877.898438 1077.011719 886.242188 1079.242188 890.003906 1085.785156 L 908.988281 1118.640625 C 912.828125 1125.183594 910.59375 1133.582031 904.050781 1137.34375 C 897.507812 1141.121094 889.101562 1138.890625 885.339844 1132.347656 Z M 1036.792969 1017.617188 L 1029.410156 1004.519531 C 1011.914062 972.480469 985.253906 970.660156 947.285156 995.136719 C 902.699219 1023.84375 844.554688 1084.902344 770.464844 1173.257812 C 769.347656 1175.527344 772.1875 1176.253906 772.636719 1176.253906 C 884.929688 1156.554688 966.171875 1137.011719 1013.421875 1113.199219 C 1053.898438 1092.714844 1066.511719 1069.175781 1049.136719 1038.589844 Z M 1047.960938 973.929688 C 1057.738281 957.285156 1070.726562 944.125 1086.105469 934.902344 C 1088.160156 919.746094 1085.652344 904.375 1079.777344 889.882812 C 1052.722656 910.992188 1040.671875 940.972656 1047.960938 973.929688 Z M 1114.15625 923.253906 C 1132.53125 918.53125 1155.746094 918.316406 1177.140625 924.25 C 1184.410156 926.25 1188.640625 933.808594 1186.640625 941.070312 C 1180.429688 963.21875 1169.929688 981.703125 1156.101562 995.804688 C 1173.984375 1006.359375 1188.699219 1021.945312 1199.804688 1040.765625 C 1203.683594 1047.304688 1201.472656 1055.746094 1194.691406 1059.640625 C 1166.972656 1075.25 1138.429688 1079.96875 1112.121094 1074.582031 C 1102.953125 1072.742188 1094.078125 1069.648438 1085.632812 1065.359375 C 1086.300781 1093.949219 1065.925781 1117.308594 1025.765625 1137.636719 C 975.28125 1163.054688 890.769531 1183.4375 774.539062 1203.804688 C 770.484375 1204.46875 765.546875 1202.921875 761.765625 1201.355469 C 746.269531 1194.972656 739.273438 1179.933594 744.78125 1163.777344 C 735.21875 1162.449219 726.167969 1159.511719 717.628906 1155.222656 L 347.09375 1155.222656 C 319.335938 1155.222656 296.609375 1132.527344 296.609375 1104.757812 L 296.609375 476.644531 C 296.609375 448.894531 319.316406 426.179688 347.09375 426.179688 L 419.226562 426.179688 L 419.226562 409.242188 C 419.226562 387.585938 436.878906 369.941406 458.542969 369.941406 L 515.808594 369.941406 C 522.46875 327.429688 559.296875 295.390625 603.101562 295.390625 C 646.867188 295.390625 683.675781 327.429688 690.339844 369.941406 L 747.601562 369.941406 C 769.269531 369.941406 786.976562 387.585938 786.976562 409.242188 L 786.976562 426.179688 L 859.050781 426.179688 C 886.808594 426.179688 909.535156 448.875 909.535156 476.644531 L 909.535156 826.066406 C 964.839844 839.441406 988.289062 895.71875 992.714844 949.296875 C 1001.980469 949.023438 1010.542969 950.804688 1018.535156 954.621094 C 1018.8125 914.207031 1040.871094 880.523438 1077.796875 858.140625 C 1084.691406 853.929688 1093.292969 856.203125 1097.113281 862.976562 C 1107.769531 882.011719 1113.921875 902.4375 1114.15625 923.253906 Z M 1131.925781 1014.230469 C 1116.273438 1022.945312 1098.386719 1027.605469 1079.050781 1027.78125 C 1103.988281 1050.59375 1135.960938 1055.136719 1167.796875 1042.273438 C 1158.136719 1029.953125 1146.070312 1020.066406 1131.925781 1014.230469 Z M 1065.671875 999.640625 C 1106.261719 1004.578125 1139.410156 985.484375 1155.355469 947.847656 C 1114.824219 942.914062 1081.65625 962.003906 1065.671875 999.640625 Z M 933.457031 1078.519531 C 929.675781 1071.976562 931.945312 1063.636719 938.507812 1059.875 C 945.011719 1056.097656 953.398438 1058.367188 957.121094 1064.929688 L 981.394531 1106.894531 C 985.171875 1113.394531 982.902344 1121.773438 976.339844 1125.496094 C 969.796875 1129.273438 961.449219 1127.003906 957.726562 1120.503906 Z M 968.542969 1015.347656 C 964.761719 1008.804688 966.992188 1000.40625 973.535156 996.644531 C 980.082031 992.867188 988.425781 995.097656 992.1875 1001.640625 L 1011.230469 1034.496094 C 1015.011719 1041.039062 1012.777344 1049.4375 1006.234375 1053.199219 C 999.691406 1056.976562 991.285156 1054.746094 987.523438 1048.207031 Z M 765.683594 1136.460938 C 835.03125 1055.039062 908.242188 976.164062 965.757812 954.957031 C 963.371094 920.039062 951.988281 880.015625 923.050781 861.195312 C 893.511719 841.988281 855.035156 851.757812 823.257812 866.796875 C 821.59375 879.839844 821.417969 893.15625 822.808594 906.488281 C 832.25 904.648438 841.242188 900.554688 849.078125 894.230469 C 854.917969 889.453125 863.515625 890.355469 868.296875 896.171875 C 873.078125 902.042969 872.175781 910.660156 866.300781 915.4375 C 834.09375 941.640625 788.113281 941.640625 755.90625 915.4375 C 750.070312 910.660156 749.1875 902.0625 753.910156 896.171875 C 758.6875 890.335938 767.289062 889.453125 773.1875 894.230469 C 779.789062 899.617188 787.351562 903.394531 795.226562 905.550781 C 794.167969 892.957031 794.285156 880.347656 795.558594 867.972656 C 748.128906 844.765625 714.707031 846.492188 692.945312 862.703125 C 669.394531 880.191406 657.894531 914.890625 656.171875 953.957031 C 654.449219 994.707031 663.5 1039.433594 680.933594 1074.972656 C 700.269531 1114.214844 729.8125 1141.574219 765.683594 1136.460938 Z M 800.457031 840.105469 C 810.289062 800.746094 831.878906 764.734375 863.085938 737.359375 C 868.628906 732.523438 877.074219 732.972656 882.070312 738.359375 L 882.070312 476.644531 C 882.070312 463.992188 871.6875 453.613281 859.03125 453.613281 L 786.957031 453.613281 L 786.957031 461.449219 C 786.957031 483.046875 769.25 500.75 747.582031 500.75 L 458.542969 500.75 C 436.878906 500.75 419.226562 483.105469 419.226562 461.449219 L 419.226562 453.613281 L 347.09375 453.613281 C 334.4375 453.613281 324.054688 463.992188 324.054688 476.644531 L 324.054688 1104.777344 C 324.054688 1117.429688 334.4375 1127.804688 347.09375 1127.804688 L 683.167969 1127.804688 C 672.941406 1116.214844 663.949219 1102.332031 656.40625 1086.957031 C 637.03125 1047.5 626.925781 997.820312 628.863281 952.800781 C 630.921875 906.058594 645.847656 863.664062 676.625 840.734375 C 705.109375 819.507812 745.855469 815.355469 800.457031 840.105469 Z M 882.089844 757.019531 C 881.757812 757.351562 881.480469 757.625 881.089844 757.960938 C 857.425781 778.65625 840.222656 805.09375 830.664062 834.054688 C 849.492188 827.007812 866.59375 823.617188 882.089844 823.226562 Z M 527.5625 987.8125 C 519.960938 987.8125 513.847656 981.644531 513.847656 974.105469 C 513.847656 966.566406 519.960938 960.398438 527.5625 960.398438 L 572.207031 960.398438 C 579.769531 960.398438 585.921875 966.566406 585.921875 974.105469 C 585.921875 981.664062 579.75 987.8125 572.207031 987.8125 Z M 607.648438 1032.558594 C 615.1875 1032.558594 621.300781 1038.726562 621.300781 1046.265625 C 621.300781 1053.863281 615.1875 1059.972656 607.648438 1059.972656 L 527.5625 1059.972656 C 519.960938 1059.972656 513.847656 1053.863281 513.847656 1046.265625 C 513.847656 1038.707031 519.960938 1032.558594 527.5625 1032.558594 Z M 527.5625 588.59375 C 519.960938 588.59375 513.847656 582.484375 513.847656 574.886719 C 513.847656 567.347656 519.960938 561.179688 527.5625 561.179688 L 606.414062 561.179688 C 614.015625 561.179688 620.125 567.347656 620.125 574.886719 C 620.125 582.484375 614.015625 588.59375 606.414062 588.59375 Z M 668.554688 633.398438 C 676.117188 633.398438 682.207031 639.507812 682.207031 647.105469 C 682.207031 654.664062 676.097656 660.753906 668.554688 660.753906 L 527.5625 660.753906 C 519.960938 660.753906 513.847656 654.644531 513.847656 647.105469 C 513.847656 639.507812 519.960938 633.398438 527.5625 633.398438 Z M 792.835938 633.398438 C 800.4375 633.398438 806.546875 639.507812 806.546875 647.105469 C 806.546875 654.664062 800.4375 660.753906 792.835938 660.753906 L 713.984375 660.753906 C 706.382812 660.753906 700.269531 654.644531 700.269531 647.105469 C 700.269531 639.507812 706.382812 633.398438 713.984375 633.398438 Z M 651.84375 588.59375 C 644.28125 588.59375 638.1875 582.484375 638.1875 574.886719 C 638.1875 567.347656 644.300781 561.179688 651.84375 561.179688 L 792.835938 561.179688 C 800.4375 561.179688 806.546875 567.347656 806.546875 574.886719 C 806.546875 582.484375 800.4375 588.59375 792.835938 588.59375 Z M 372.796875 944.125 L 477.527344 944.125 C 485.128906 944.125 491.242188 950.296875 491.242188 957.835938 L 491.242188 1062.578125 C 491.242188 1070.136719 485.128906 1076.285156 477.527344 1076.285156 L 372.796875 1076.285156 C 365.195312 1076.285156 359.082031 1070.117188 359.082031 1062.578125 L 359.082031 957.835938 C 359.082031 950.296875 365.195312 944.125 372.796875 944.125 Z M 463.8125 971.542969 L 386.511719 971.542969 L 386.511719 1048.871094 L 463.8125 1048.871094 Z M 372.796875 744.527344 L 477.527344 744.527344 C 485.128906 744.527344 491.242188 750.695312 491.242188 758.234375 L 491.242188 862.976562 C 491.242188 870.519531 485.128906 876.6875 477.527344 876.6875 L 372.796875 876.6875 C 365.195312 876.6875 359.082031 870.519531 359.082031 862.976562 L 359.082031 758.234375 C 359.082031 750.675781 365.195312 744.527344 372.796875 744.527344 Z M 463.8125 771.941406 L 386.511719 771.941406 L 386.511719 849.269531 L 463.8125 849.269531 Z M 372.796875 544.90625 L 477.527344 544.90625 C 485.128906 544.90625 491.242188 551.074219 491.242188 558.613281 L 491.242188 663.359375 C 491.242188 670.898438 485.128906 677.066406 477.527344 677.066406 L 372.796875 677.066406 C 365.195312 677.066406 359.082031 670.898438 359.082031 663.359375 L 359.082031 558.613281 C 359.082031 551.074219 365.195312 544.90625 372.796875 544.90625 Z M 463.8125 572.339844 L 386.511719 572.339844 L 386.511719 649.671875 L 463.8125 649.671875 Z M 528.460938 397.375 L 458.542969 397.375 C 452 397.375 446.613281 402.761719 446.613281 409.261719 L 446.613281 461.449219 C 446.613281 467.949219 452 473.335938 458.542969 473.335938 L 747.582031 473.335938 C 754.125 473.335938 759.511719 467.949219 759.511719 461.449219 L 759.511719 409.261719 C 759.511719 402.761719 754.125 397.375 747.582031 397.375 L 677.664062 397.375 C 670.101562 397.375 663.949219 391.207031 663.949219 383.667969 C 663.949219 350.027344 636.679688 322.769531 603.082031 322.769531 C 569.425781 322.769531 542.15625 350.027344 542.15625 383.667969 C 542.175781 391.207031 536.0625 397.375 528.460938 397.375 Z M 528.460938 397.375 " fill-opacity="1" fill-rule="nonzero"/></g><g fill="#000000" fill-opacity="1"><g transform="translate(24.111359, 1368.249702)"><g><path d="M 26.765625 -56.921875 L 26.765625 -32.234375 C 27.878906 -32.109375 29.019531 -32.046875 30.1875 -32.046875 C 31.363281 -32.046875 32.257812 -32.046875 32.875 -32.046875 C 35.488281 -32.066406 37.679688 -33.144531 39.453125 -35.28125 C 41.234375 -37.414062 42.125 -40.828125 42.125 -45.515625 C 42.125 -49.804688 41.257812 -52.84375 39.53125 -54.625 C 37.8125 -56.414062 35.195312 -57.3125 31.6875 -57.3125 C 30.769531 -57.3125 29.882812 -57.269531 29.03125 -57.1875 C 28.1875 -57.113281 27.429688 -57.023438 26.765625 -56.921875 Z M 34.875 -5.71875 L 34.875 0 L 3.5625 0 L 3.5625 -5.765625 L 9.765625 -6.921875 C 10.347656 -7.054688 10.804688 -7.300781 11.140625 -7.65625 C 11.472656 -8.019531 11.640625 -8.507812 11.640625 -9.125 L 11.640625 -53 C 11.640625 -53.613281 11.476562 -54.109375 11.15625 -54.484375 C 10.84375 -54.859375 10.390625 -55.109375 9.796875 -55.234375 L 3.5625 -56.4375 L 3.5625 -62.484375 L 18.796875 -62.484375 C 21.117188 -62.484375 23.351562 -62.5625 25.5 -62.71875 C 27.644531 -62.875 30.128906 -62.953125 32.953125 -62.953125 C 41.921875 -62.953125 48.359375 -61.664062 52.265625 -59.09375 C 56.171875 -56.519531 58.125 -52.222656 58.125 -46.203125 C 58.125 -43.265625 57.726562 -40.796875 56.9375 -38.796875 C 56.15625 -36.796875 55.132812 -35.148438 53.875 -33.859375 C 52.625 -32.566406 51.195312 -31.539062 49.59375 -30.78125 C 48 -30.019531 46.398438 -29.410156 44.796875 -28.953125 C 46.898438 -28.046875 48.695312 -26.816406 50.1875 -25.265625 C 51.6875 -23.722656 53.007812 -21.660156 54.15625 -19.078125 L 58.484375 -9.40625 C 58.910156 -8.5 59.320312 -7.867188 59.71875 -7.515625 C 60.113281 -7.171875 60.660156 -6.90625 61.359375 -6.71875 L 65.15625 -5.71875 L 65.15625 0 L 48 0 C 46.820312 0 45.773438 -0.742188 44.859375 -2.234375 C 43.941406 -3.734375 43.003906 -5.679688 42.046875 -8.078125 L 38 -18.5625 C 37.28125 -20.34375 36.566406 -21.898438 35.859375 -23.234375 C 35.148438 -24.566406 34.425781 -25.648438 33.6875 -26.484375 L 26.765625 -26.484375 L 26.765625 -8.953125 C 26.765625 -8.347656 26.929688 -7.863281 27.265625 -7.5 C 27.597656 -7.132812 28.070312 -6.898438 28.6875 -6.796875 Z M 34.875 -5.71875 "/></g></g></g><g fill="#000000" fill-opacity="1"><g transform="translate(90.306555, 1368.249702)"><g><path d="M 51.875 -45.40625 L 44.765625 -45.40625 L 42.59375 -52.796875 C 42.40625 -53.492188 42.113281 -54.039062 41.71875 -54.4375 C 41.320312 -54.84375 40.828125 -55.164062 40.234375 -55.40625 C 39.566406 -55.664062 38.617188 -55.875 37.390625 -56.03125 C 36.171875 -56.195312 34.90625 -56.28125 33.59375 -56.28125 L 26.84375 -56.28125 L 26.84375 -35.28125 L 44.046875 -35.921875 L 44.046875 -27.71875 L 26.84375 -28.15625 L 26.84375 -6.515625 L 35.28125 -6.515625 C 36.582031 -6.515625 37.945312 -6.59375 39.375 -6.75 C 40.800781 -6.914062 41.847656 -7.132812 42.515625 -7.40625 C 43.109375 -7.644531 43.550781 -7.957031 43.84375 -8.34375 C 44.132812 -8.726562 44.414062 -9.28125 44.6875 -10 L 48.125 -19.921875 L 55.203125 -18.796875 C 55.203125 -15.597656 55.082031 -12.476562 54.84375 -9.4375 C 54.601562 -6.394531 54.226562 -3.25 53.71875 0 L 3.5625 0 L 3.5625 -5.765625 L 9.796875 -6.921875 C 10.410156 -7.023438 10.867188 -7.269531 11.171875 -7.65625 C 11.484375 -8.039062 11.640625 -8.539062 11.640625 -9.15625 L 11.640625 -52.953125 C 11.640625 -53.566406 11.484375 -54.066406 11.171875 -54.453125 C 10.867188 -54.847656 10.410156 -55.109375 9.796875 -55.234375 L 3.5625 -56.4375 L 3.5625 -62.484375 L 51.640625 -62.484375 C 51.984375 -59.679688 52.164062 -56.859375 52.1875 -54.015625 C 52.21875 -51.179688 52.113281 -48.3125 51.875 -45.40625 Z M 46.328125 -76.359375 C 44.890625 -75.335938 43.160156 -74.359375 41.140625 -73.421875 C 39.128906 -72.492188 37.015625 -71.625 34.796875 -70.8125 C 32.585938 -70 30.335938 -69.242188 28.046875 -68.546875 C 25.753906 -67.859375 23.609375 -67.234375 21.609375 -66.671875 L 19.078125 -71.71875 L 40.28125 -85.3125 Z M 46.328125 -76.359375 "/></g></g></g><g fill="#000000" fill-opacity="1"><g transform="translate(148.382341, 1368.249702)"><g><path d="M 51.875 -45.40625 L 44.765625 -45.40625 L 42.59375 -52.796875 C 42.40625 -53.492188 42.113281 -54.039062 41.71875 -54.4375 C 41.320312 -54.84375 40.828125 -55.164062 40.234375 -55.40625 C 39.566406 -55.664062 38.617188 -55.875 37.390625 -56.03125 C 36.171875 -56.195312 34.90625 -56.28125 33.59375 -56.28125 L 26.84375 -56.28125 L 26.84375 -35.28125 L 44.046875 -35.921875 L 44.046875 -27.71875 L 26.84375 -28.15625 L 26.84375 -6.515625 L 35.28125 -6.515625 C 36.582031 -6.515625 37.945312 -6.59375 39.375 -6.75 C 40.800781 -6.914062 41.847656 -7.132812 42.515625 -7.40625 C 43.109375 -7.644531 43.550781 -7.957031 43.84375 -8.34375 C 44.132812 -8.726562 44.414062 -9.28125 44.6875 -10 L 48.125 -19.921875 L 55.203125 -18.796875 C 55.203125 -15.597656 55.082031 -12.476562 54.84375 -9.4375 C 54.601562 -6.394531 54.226562 -3.25 53.71875 0 L 3.5625 0 L 3.5625 -5.765625 L 9.796875 -6.921875 C 10.410156 -7.023438 10.867188 -7.269531 11.171875 -7.65625 C 11.484375 -8.039062 11.640625 -8.539062 11.640625 -9.15625 L 11.640625 -52.953125 C 11.640625 -53.566406 11.484375 -54.066406 11.171875 -54.453125 C 10.867188 -54.847656 10.410156 -55.109375 9.796875 -55.234375 L 3.5625 -56.4375 L 3.5625 -62.484375 L 51.640625 -62.484375 C 51.984375 -59.679688 52.164062 -56.859375 52.1875 -54.015625 C 52.21875 -51.179688 52.113281 -48.3125 51.875 -45.40625 Z M 46.328125 -76.359375 C 44.890625 -75.335938 43.160156 -74.359375 41.140625 -73.421875 C 39.128906 -72.492188 37.015625 -71.625 34.796875 -70.8125 C 32.585938 -70 30.335938 -69.242188 28.046875 -68.546875 C 25.753906 -67.859375 23.609375 -67.234375 21.609375 -66.671875 L 19.078125 -71.71875 L 40.28125 -85.3125 Z M 46.328125 -76.359375 "/></g></g></g><g fill="#000000" fill-opacity="1"><g transform="translate(206.458126, 1368.249702)"><g><path d="M 54.4375 16.921875 C 51.375 16.921875 48.796875 16.335938 46.703125 15.171875 C 44.609375 14.015625 42.703125 12.625 40.984375 11 C 39.265625 9.375 37.535156 7.664062 35.796875 5.875 C 34.066406 4.09375 32.015625 2.585938 29.640625 1.359375 C 25.179688 1.222656 21.3125 0.378906 18.03125 -1.171875 C 14.757812 -2.734375 12.078125 -4.867188 9.984375 -7.578125 C 7.890625 -10.285156 6.328125 -13.546875 5.296875 -17.359375 C 4.273438 -21.171875 3.765625 -25.398438 3.765625 -30.046875 C 3.765625 -35.242188 4.390625 -39.9375 5.640625 -44.125 C 6.890625 -48.3125 8.738281 -51.847656 11.1875 -54.734375 C 13.644531 -57.628906 16.707031 -59.859375 20.375 -61.421875 C 24.039062 -62.984375 28.25 -63.765625 33 -63.765625 C 37.695312 -63.765625 41.765625 -63.015625 45.203125 -61.515625 C 48.640625 -60.023438 51.460938 -57.921875 53.671875 -55.203125 C 55.890625 -52.484375 57.53125 -49.175781 58.59375 -45.28125 C 59.664062 -41.382812 60.203125 -37.0625 60.203125 -32.3125 C 60.203125 -24.050781 58.546875 -17.132812 55.234375 -11.5625 C 51.929688 -5.988281 47.28125 -2.203125 41.28125 -0.203125 C 42.71875 0.222656 44.078125 0.734375 45.359375 1.328125 C 46.640625 1.929688 47.988281 2.625 49.40625 3.40625 C 51.53125 4.601562 53.539062 5.488281 55.4375 6.0625 C 57.332031 6.632812 59.265625 6.921875 61.234375 6.921875 C 62.171875 6.921875 63.03125 6.875 63.8125 6.78125 C 64.601562 6.6875 65.332031 6.570312 66 6.4375 L 67.359375 11.234375 C 66.265625 12.546875 64.523438 13.820312 62.140625 15.0625 C 59.753906 16.300781 57.1875 16.921875 54.4375 16.921875 Z M 32.125 -57.515625 C 28.25 -57.515625 25.316406 -55.4375 23.328125 -51.28125 C 21.347656 -47.125 20.359375 -40.296875 20.359375 -30.796875 C 20.359375 -21.566406 21.296875 -14.929688 23.171875 -10.890625 C 25.054688 -6.859375 27.90625 -4.84375 31.71875 -4.84375 C 35.582031 -4.84375 38.515625 -6.945312 40.515625 -11.15625 C 42.515625 -15.375 43.515625 -22.242188 43.515625 -31.765625 C 43.515625 -40.984375 42.566406 -47.578125 40.671875 -51.546875 C 38.785156 -55.523438 35.9375 -57.515625 32.125 -57.515625 Z M 32.125 -57.515625 "/></g></g></g><g fill="#000000" fill-opacity="1"><g transform="translate(269.853479, 1368.249702)"><g><path d="M 41.84375 -62.484375 L 65.796875 -62.484375 L 65.796875 -56.4375 L 61.40625 -55.3125 C 60.8125 -55.15625 60.359375 -54.875 60.046875 -54.46875 C 59.742188 -54.070312 59.59375 -53.582031 59.59375 -53 L 59.59375 -23.125 C 59.59375 -18.75 59.015625 -15.019531 57.859375 -11.9375 C 56.703125 -8.851562 55.054688 -6.359375 52.921875 -4.453125 C 50.785156 -2.546875 48.195312 -1.160156 45.15625 -0.296875 C 42.113281 0.566406 38.726562 1 35 1 C 26.332031 1 19.851562 -0.925781 15.5625 -4.78125 C 11.269531 -8.632812 9.125 -14.921875 9.125 -23.640625 L 9.125 -53 C 9.125 -53.582031 8.972656 -54.066406 8.671875 -54.453125 C 8.378906 -54.847656 7.941406 -55.132812 7.359375 -55.3125 L 3.359375 -56.4375 L 3.359375 -62.484375 L 33 -62.484375 L 33 -56.4375 L 26.640625 -55.078125 C 26.054688 -54.972656 25.601562 -54.71875 25.28125 -54.3125 C 24.957031 -53.914062 24.796875 -53.425781 24.796875 -52.84375 L 24.796875 -22.359375 C 24.796875 -16.921875 25.726562 -12.65625 27.59375 -9.5625 C 29.46875 -6.46875 32.738281 -4.921875 37.40625 -4.921875 C 39.851562 -4.921875 41.90625 -5.347656 43.5625 -6.203125 C 45.21875 -7.054688 46.546875 -8.25 47.546875 -9.78125 C 48.546875 -11.3125 49.253906 -13.144531 49.671875 -15.28125 C 50.097656 -17.414062 50.3125 -19.75 50.3125 -22.28125 L 50.3125 -52.953125 C 50.3125 -53.566406 50.148438 -54.066406 49.828125 -54.453125 C 49.515625 -54.847656 49.066406 -55.097656 48.484375 -55.203125 L 41.84375 -56.4375 Z M 41.84375 -62.484375 "/></g></g></g><g fill="#000000" fill-opacity="1"><g transform="translate(339.008472, 1368.249702)"><g><path d="M 34.921875 -62.484375 L 34.921875 -56.4375 L 28.6875 -55.234375 C 28.070312 -55.109375 27.609375 -54.847656 27.296875 -54.453125 C 26.992188 -54.066406 26.84375 -53.566406 26.84375 -52.953125 L 26.84375 -9.203125 C 26.84375 -8.585938 26.992188 -8.085938 27.296875 -7.703125 C 27.609375 -7.316406 28.070312 -7.066406 28.6875 -6.953125 L 34.921875 -5.765625 L 34.921875 0 L 3.5625 0 L 3.5625 -5.765625 L 9.796875 -6.921875 C 10.410156 -7.023438 10.867188 -7.269531 11.171875 -7.65625 C 11.484375 -8.039062 11.640625 -8.539062 11.640625 -9.15625 L 11.640625 -52.953125 C 11.640625 -53.566406 11.484375 -54.066406 11.171875 -54.453125 C 10.867188 -54.847656 10.410156 -55.109375 9.796875 -55.234375 L 3.5625 -56.4375 L 3.5625 -62.484375 Z M 34.921875 -62.484375 "/></g></g></g><g fill="#000000" fill-opacity="1"><g transform="translate(377.485656, 1368.249702)"><g><path d="M 43.3125 -10.203125 L 47.28125 -23.125 L 54.84375 -22.078125 C 54.84375 -18.691406 54.773438 -15.117188 54.640625 -11.359375 C 54.503906 -7.597656 54.035156 -3.8125 53.234375 0 L 3.5625 0 L 3.5625 -5.765625 L 9.765625 -6.921875 C 10.378906 -7.023438 10.84375 -7.269531 11.15625 -7.65625 C 11.476562 -8.039062 11.640625 -8.539062 11.640625 -9.15625 L 11.640625 -53 C 11.640625 -53.613281 11.476562 -54.113281 11.15625 -54.5 C 10.84375 -54.882812 10.390625 -55.128906 9.796875 -55.234375 L 3.5625 -56.4375 L 3.5625 -62.484375 L 36.921875 -62.484375 L 36.921875 -56.4375 L 28.71875 -55.125 C 28.101562 -55.007812 27.632812 -54.765625 27.3125 -54.390625 C 27 -54.023438 26.84375 -53.535156 26.84375 -52.921875 L 26.84375 -6.59375 L 33.765625 -6.59375 C 35.410156 -6.59375 36.851562 -6.691406 38.09375 -6.890625 C 39.332031 -7.097656 40.300781 -7.332031 41 -7.59375 C 41.582031 -7.832031 42.066406 -8.148438 42.453125 -8.546875 C 42.847656 -8.953125 43.132812 -9.503906 43.3125 -10.203125 Z M 43.3125 -10.203125 "/></g></g></g><g fill="#000000" fill-opacity="1"><g transform="translate(434.161555, 1368.249702)"><g><path d="M 34.921875 -62.484375 L 34.921875 -56.4375 L 28.6875 -55.234375 C 28.070312 -55.109375 27.609375 -54.847656 27.296875 -54.453125 C 26.992188 -54.066406 26.84375 -53.566406 26.84375 -52.953125 L 26.84375 -9.203125 C 26.84375 -8.585938 26.992188 -8.085938 27.296875 -7.703125 C 27.609375 -7.316406 28.070312 -7.066406 28.6875 -6.953125 L 34.921875 -5.765625 L 34.921875 0 L 3.5625 0 L 3.5625 -5.765625 L 9.796875 -6.921875 C 10.410156 -7.023438 10.867188 -7.269531 11.171875 -7.65625 C 11.484375 -8.039062 11.640625 -8.539062 11.640625 -9.15625 L 11.640625 -52.953125 C 11.640625 -53.566406 11.484375 -54.066406 11.171875 -54.453125 C 10.867188 -54.847656 10.410156 -55.109375 9.796875 -55.234375 L 3.5625 -56.4375 L 3.5625 -62.484375 Z M 34.921875 -62.484375 "/></g></g></g><g fill="#000000" fill-opacity="1"><g transform="translate(472.638786, 1368.249702)"><g><path d="M 33.59375 0.484375 C 32.101562 0.484375 30.757812 0.453125 29.5625 0.390625 C 28.363281 0.335938 27.226562 0.285156 26.15625 0.234375 C 25.09375 0.179688 24.015625 0.128906 22.921875 0.078125 C 21.828125 0.0234375 20.625 0 19.3125 0 L 3.5625 0 L 3.5625 -5.765625 L 10.046875 -6.953125 C 10.523438 -7.035156 10.910156 -7.253906 11.203125 -7.609375 C 11.492188 -7.972656 11.640625 -8.410156 11.640625 -8.921875 L 11.640625 -53.203125 C 11.640625 -53.703125 11.492188 -54.125 11.203125 -54.46875 C 10.910156 -54.820312 10.523438 -55.050781 10.046875 -55.15625 L 3.5625 -56.4375 L 3.5625 -62.484375 L 19.125 -62.484375 C 21.675781 -62.484375 24.078125 -62.5625 26.328125 -62.71875 C 28.585938 -62.875 31.101562 -62.953125 33.875 -62.953125 C 38.25 -62.953125 41.875 -62.640625 44.75 -62.015625 C 47.632812 -61.390625 49.921875 -60.460938 51.609375 -59.234375 C 53.304688 -58.015625 54.492188 -56.484375 55.171875 -54.640625 C 55.859375 -52.796875 56.203125 -50.660156 56.203125 -48.234375 C 56.203125 -44.128906 55.179688 -40.820312 53.140625 -38.3125 C 51.097656 -35.8125 48.382812 -34.132812 45 -33.28125 C 47.1875 -33.125 49.222656 -32.703125 51.109375 -32.015625 C 53.003906 -31.335938 54.640625 -30.382812 56.015625 -29.15625 C 57.390625 -27.925781 58.460938 -26.414062 59.234375 -24.625 C 60.015625 -22.84375 60.40625 -20.796875 60.40625 -18.484375 C 60.40625 -15.785156 59.96875 -13.273438 59.09375 -10.953125 C 58.226562 -8.640625 56.769531 -6.632812 54.71875 -4.9375 C 52.664062 -3.25 49.910156 -1.921875 46.453125 -0.953125 C 43.003906 0.00390625 38.71875 0.484375 33.59375 0.484375 Z M 32.796875 -35.3125 C 35.734375 -35.3125 37.867188 -36.316406 39.203125 -38.328125 C 40.535156 -40.347656 41.203125 -43.222656 41.203125 -46.953125 C 41.203125 -50.640625 40.445312 -53.296875 38.9375 -54.921875 C 37.4375 -56.546875 35.125 -57.359375 32 -57.359375 C 31.789062 -57.359375 31.441406 -57.34375 30.953125 -57.3125 C 30.472656 -57.289062 29.957031 -57.257812 29.40625 -57.21875 C 28.863281 -57.175781 28.347656 -57.132812 27.859375 -57.09375 C 27.367188 -57.0625 27.003906 -57.015625 26.765625 -56.953125 L 26.765625 -35.40625 C 27.960938 -35.375 29.082031 -35.347656 30.125 -35.328125 C 31.164062 -35.316406 32.054688 -35.3125 32.796875 -35.3125 Z M 32.796875 -5.359375 C 36.660156 -5.359375 39.441406 -6.476562 41.140625 -8.71875 C 42.835938 -10.957031 43.6875 -14.078125 43.6875 -18.078125 C 43.6875 -22.109375 42.816406 -24.914062 41.078125 -26.5 C 39.347656 -28.082031 36.816406 -28.875 33.484375 -28.875 C 32.578125 -28.875 31.535156 -28.851562 30.359375 -28.8125 C 29.179688 -28.78125 27.984375 -28.75 26.765625 -28.71875 L 26.765625 -5.921875 C 27.503906 -5.785156 28.425781 -5.65625 29.53125 -5.53125 C 30.644531 -5.414062 31.734375 -5.359375 32.796875 -5.359375 Z M 32.796875 -5.359375 "/></g></g></g><g fill="#000000" fill-opacity="1"><g transform="translate(535.794145, 1368.249702)"><g><path d="M 26.765625 -56.921875 L 26.765625 -32.234375 C 27.878906 -32.109375 29.019531 -32.046875 30.1875 -32.046875 C 31.363281 -32.046875 32.257812 -32.046875 32.875 -32.046875 C 35.488281 -32.066406 37.679688 -33.144531 39.453125 -35.28125 C 41.234375 -37.414062 42.125 -40.828125 42.125 -45.515625 C 42.125 -49.804688 41.257812 -52.84375 39.53125 -54.625 C 37.8125 -56.414062 35.195312 -57.3125 31.6875 -57.3125 C 30.769531 -57.3125 29.882812 -57.269531 29.03125 -57.1875 C 28.1875 -57.113281 27.429688 -57.023438 26.765625 -56.921875 Z M 34.875 -5.71875 L 34.875 0 L 3.5625 0 L 3.5625 -5.765625 L 9.765625 -6.921875 C 10.347656 -7.054688 10.804688 -7.300781 11.140625 -7.65625 C 11.472656 -8.019531 11.640625 -8.507812 11.640625 -9.125 L 11.640625 -53 C 11.640625 -53.613281 11.476562 -54.109375 11.15625 -54.484375 C 10.84375 -54.859375 10.390625 -55.109375 9.796875 -55.234375 L 3.5625 -56.4375 L 3.5625 -62.484375 L 18.796875 -62.484375 C 21.117188 -62.484375 23.351562 -62.5625 25.5 -62.71875 C 27.644531 -62.875 30.128906 -62.953125 32.953125 -62.953125 C 41.921875 -62.953125 48.359375 -61.664062 52.265625 -59.09375 C 56.171875 -56.519531 58.125 -52.222656 58.125 -46.203125 C 58.125 -43.265625 57.726562 -40.796875 56.9375 -38.796875 C 56.15625 -36.796875 55.132812 -35.148438 53.875 -33.859375 C 52.625 -32.566406 51.195312 -31.539062 49.59375 -30.78125 C 48 -30.019531 46.398438 -29.410156 44.796875 -28.953125 C 46.898438 -28.046875 48.695312 -26.816406 50.1875 -25.265625 C 51.6875 -23.722656 53.007812 -21.660156 54.15625 -19.078125 L 58.484375 -9.40625 C 58.910156 -8.5 59.320312 -7.867188 59.71875 -7.515625 C 60.113281 -7.171875 60.660156 -6.90625 61.359375 -6.71875 L 65.15625 -5.71875 L 65.15625 0 L 48 0 C 46.820312 0 45.773438 -0.742188 44.859375 -2.234375 C 43.941406 -3.734375 43.003906 -5.679688 42.046875 -8.078125 L 38 -18.5625 C 37.28125 -20.34375 36.566406 -21.898438 35.859375 -23.234375 C 35.148438 -24.566406 34.425781 -25.648438 33.6875 -26.484375 L 26.765625 -26.484375 L 26.765625 -8.953125 C 26.765625 -8.347656 26.929688 -7.863281 27.265625 -7.5 C 27.597656 -7.132812 28.070312 -6.898438 28.6875 -6.796875 Z M 34.875 -5.71875 "/></g></g></g><g fill="#000000" fill-opacity="1"><g transform="translate(601.98933, 1368.249702)"><g><path d="M 36.71875 -25.125 L 28.515625 -51.4375 L 20.5625 -25.125 Z M 22.6875 -5.765625 L 22.6875 0 L -0.6875 0 L -0.6875 -5.765625 L 4.765625 -7.078125 C 5.296875 -7.210938 5.726562 -7.429688 6.0625 -7.734375 C 6.394531 -8.046875 6.65625 -8.46875 6.84375 -9 L 25.046875 -62.6875 L 39.234375 -62.6875 L 57.5625 -9 C 57.75 -8.46875 58.019531 -8.050781 58.375 -7.75 C 58.738281 -7.457031 59.175781 -7.234375 59.6875 -7.078125 L 64.6875 -5.765625 L 64.6875 0 L 34.6875 0 L 34.6875 -5.765625 L 42.3125 -7 L 38.84375 -18.28125 L 18.484375 -18.28125 L 15.046875 -7 Z M 22.6875 -5.765625 "/></g></g></g><g fill="#000000" fill-opacity="1"><g transform="translate(665.184652, 1368.249702)"><g><path d="M 54.359375 0.640625 L 46.515625 -5.203125 C 44.753906 -3.359375 42.453125 -1.816406 39.609375 -0.578125 C 36.773438 0.660156 33.425781 1.28125 29.5625 1.28125 C 25.394531 1.28125 21.707031 0.554688 18.5 -0.890625 C 15.289062 -2.347656 12.597656 -4.4375 10.421875 -7.15625 C 8.242188 -9.875 6.59375 -13.210938 5.46875 -17.171875 C 4.351562 -21.140625 3.796875 -25.613281 3.796875 -30.59375 C 3.796875 -41.851562 6.566406 -50.179688 12.109375 -55.578125 C 17.660156 -60.984375 25.476562 -63.6875 35.5625 -63.6875 C 39.21875 -63.6875 42.832031 -63.332031 46.40625 -62.625 C 49.976562 -61.914062 53.109375 -61.023438 55.796875 -59.953125 C 55.984375 -57.347656 55.992188 -54.632812 55.828125 -51.8125 C 55.671875 -49 55.378906 -46.195312 54.953125 -43.40625 L 45.765625 -43.40625 L 43.5625 -52.5625 C 43.34375 -53.382812 43.085938 -54.007812 42.796875 -54.4375 C 42.503906 -54.863281 42.101562 -55.28125 41.59375 -55.6875 C 40.90625 -56.21875 40.015625 -56.675781 38.921875 -57.0625 C 37.828125 -57.445312 36.546875 -57.640625 35.078125 -57.640625 C 30.515625 -57.640625 27.09375 -55.472656 24.8125 -51.140625 C 22.539062 -46.804688 21.40625 -39.851562 21.40625 -30.28125 C 21.40625 -22.625 22.3125 -16.75 24.125 -12.65625 C 25.9375 -8.5625 29.332031 -6.515625 34.3125 -6.515625 C 36.019531 -6.515625 37.585938 -6.734375 39.015625 -7.171875 C 40.441406 -7.617188 41.71875 -8.226562 42.84375 -9 L 42.84375 -25.3125 L 35.234375 -26.15625 L 35.234375 -32.359375 L 61.234375 -32.359375 L 61.234375 -26.15625 L 57.15625 -25.484375 L 57.15625 -0.953125 Z M 54.359375 0.640625 "/></g></g></g><g fill="#000000" fill-opacity="1"><g transform="translate(728.980011, 1368.249702)"><g><path d="M 51.875 -45.40625 L 44.765625 -45.40625 L 42.59375 -52.796875 C 42.40625 -53.492188 42.113281 -54.039062 41.71875 -54.4375 C 41.320312 -54.84375 40.828125 -55.164062 40.234375 -55.40625 C 39.566406 -55.664062 38.617188 -55.875 37.390625 -56.03125 C 36.171875 -56.195312 34.90625 -56.28125 33.59375 -56.28125 L 26.84375 -56.28125 L 26.84375 -35.28125 L 44.046875 -35.921875 L 44.046875 -27.71875 L 26.84375 -28.15625 L 26.84375 -6.515625 L 35.28125 -6.515625 C 36.582031 -6.515625 37.945312 -6.59375 39.375 -6.75 C 40.800781 -6.914062 41.847656 -7.132812 42.515625 -7.40625 C 43.109375 -7.644531 43.550781 -7.957031 43.84375 -8.34375 C 44.132812 -8.726562 44.414062 -9.28125 44.6875 -10 L 48.125 -19.921875 L 55.203125 -18.796875 C 55.203125 -15.597656 55.082031 -12.476562 54.84375 -9.4375 C 54.601562 -6.394531 54.226562 -3.25 53.71875 0 L 3.5625 0 L 3.5625 -5.765625 L 9.796875 -6.921875 C 10.410156 -7.023438 10.867188 -7.269531 11.171875 -7.65625 C 11.484375 -8.039062 11.640625 -8.539062 11.640625 -9.15625 L 11.640625 -52.953125 C 11.640625 -53.566406 11.484375 -54.066406 11.171875 -54.453125 C 10.867188 -54.847656 10.410156 -55.109375 9.796875 -55.234375 L 3.5625 -56.4375 L 3.5625 -62.484375 L 51.640625 -62.484375 C 51.984375 -59.679688 52.164062 -56.859375 52.1875 -54.015625 C 52.21875 -51.179688 52.113281 -48.3125 51.875 -45.40625 Z M 51.875 -45.40625 "/></g></g></g><g fill="#000000" fill-opacity="1"><g transform="translate(787.055796, 1368.249702)"><g/></g></g><g fill="#000000" fill-opacity="1"><g transform="translate(807.734307, 1368.249702)"><g><path d="M 36.71875 -25.125 L 28.515625 -51.4375 L 20.5625 -25.125 Z M 22.6875 -5.765625 L 22.6875 0 L -0.6875 0 L -0.6875 -5.765625 L 4.765625 -7.078125 C 5.296875 -7.210938 5.726562 -7.429688 6.0625 -7.734375 C 6.394531 -8.046875 6.65625 -8.46875 6.84375 -9 L 25.046875 -62.6875 L 39.234375 -62.6875 L 57.5625 -9 C 57.75 -8.46875 58.019531 -8.050781 58.375 -7.75 C 58.738281 -7.457031 59.175781 -7.234375 59.6875 -7.078125 L 64.6875 -5.765625 L 64.6875 0 L 34.6875 0 L 34.6875 -5.765625 L 42.3125 -7 L 38.84375 -18.28125 L 18.484375 -18.28125 L 15.046875 -7 Z M 22.6875 -5.765625 "/></g></g></g><g fill="#000000" fill-opacity="1"><g transform="translate(872.009631, 1368.249702)"><g><path d="M 43.3125 -10.203125 L 47.28125 -23.125 L 54.84375 -22.078125 C 54.84375 -18.691406 54.773438 -15.117188 54.640625 -11.359375 C 54.503906 -7.597656 54.035156 -3.8125 53.234375 0 L 3.5625 0 L 3.5625 -5.765625 L 9.765625 -6.921875 C 10.378906 -7.023438 10.84375 -7.269531 11.15625 -7.65625 C 11.476562 -8.039062 11.640625 -8.539062 11.640625 -9.15625 L 11.640625 -53 C 11.640625 -53.613281 11.476562 -54.113281 11.15625 -54.5 C 10.84375 -54.882812 10.390625 -55.128906 9.796875 -55.234375 L 3.5625 -56.4375 L 3.5625 -62.484375 L 36.921875 -62.484375 L 36.921875 -56.4375 L 28.71875 -55.125 C 28.101562 -55.007812 27.632812 -54.765625 27.3125 -54.390625 C 27 -54.023438 26.84375 -53.535156 26.84375 -52.921875 L 26.84375 -6.59375 L 33.765625 -6.59375 C 35.410156 -6.59375 36.851562 -6.691406 38.09375 -6.890625 C 39.332031 -7.097656 40.300781 -7.332031 41 -7.59375 C 41.582031 -7.832031 42.066406 -8.148438 42.453125 -8.546875 C 42.847656 -8.953125 43.132812 -9.503906 43.3125 -10.203125 Z M 43.3125 -10.203125 "/></g></g></g><g fill="#000000" fill-opacity="1"><g transform="translate(928.685529, 1368.249702)"><g><path d="M 34.921875 -62.484375 L 34.921875 -56.4375 L 28.6875 -55.234375 C 28.070312 -55.109375 27.609375 -54.847656 27.296875 -54.453125 C 26.992188 -54.066406 26.84375 -53.566406 26.84375 -52.953125 L 26.84375 -9.203125 C 26.84375 -8.585938 26.992188 -8.085938 27.296875 -7.703125 C 27.609375 -7.316406 28.070312 -7.066406 28.6875 -6.953125 L 34.921875 -5.765625 L 34.921875 0 L 3.5625 0 L 3.5625 -5.765625 L 9.796875 -6.921875 C 10.410156 -7.023438 10.867188 -7.269531 11.171875 -7.65625 C 11.484375 -8.039062 11.640625 -8.539062 11.640625 -9.15625 L 11.640625 -52.953125 C 11.640625 -53.566406 11.484375 -54.066406 11.171875 -54.453125 C 10.867188 -54.847656 10.410156 -55.109375 9.796875 -55.234375 L 3.5625 -56.4375 L 3.5625 -62.484375 Z M 34.921875 -62.484375 "/></g></g></g><g fill="#000000" fill-opacity="1"><g transform="translate(967.16276, 1368.249702)"><g><path d="M 26.5625 -5.765625 L 26.5625 0 L 1.59375 0 L 1.59375 -5.765625 L 7.796875 -7.078125 C 8.390625 -7.179688 8.835938 -7.410156 9.140625 -7.765625 C 9.441406 -8.128906 9.632812 -8.617188 9.71875 -9.234375 L 14.953125 -52.84375 C 15.035156 -53.476562 14.921875 -54.007812 14.609375 -54.4375 C 14.304688 -54.863281 13.847656 -55.128906 13.234375 -55.234375 L 6.40625 -56.4375 L 6.40625 -62.484375 L 35.40625 -62.484375 L 46.203125 -20.921875 L 55.953125 -62.484375 L 85.078125 -62.484375 L 85.078125 -56.4375 L 77.84375 -55.234375 C 77.195312 -55.128906 76.726562 -54.863281 76.4375 -54.4375 C 76.144531 -54.007812 76.050781 -53.476562 76.15625 -52.84375 L 82.640625 -9.203125 C 82.722656 -8.609375 82.929688 -8.128906 83.265625 -7.765625 C 83.597656 -7.410156 84.039062 -7.179688 84.59375 -7.078125 L 90.5625 -5.765625 L 90.5625 0 L 60.4375 0 L 60.4375 -5.765625 L 67.640625 -6.953125 L 61.40625 -52.953125 L 49.4375 -2.203125 L 37.234375 -2.203125 L 22.875 -52.59375 L 17.796875 -6.953125 Z M 26.5625 -5.765625 "/></g></g></g><g fill="#000000" fill-opacity="1"><g transform="translate(1058.996096, 1368.249702)"><g><path d="M 51.875 -45.40625 L 44.765625 -45.40625 L 42.59375 -52.796875 C 42.40625 -53.492188 42.113281 -54.039062 41.71875 -54.4375 C 41.320312 -54.84375 40.828125 -55.164062 40.234375 -55.40625 C 39.566406 -55.664062 38.617188 -55.875 37.390625 -56.03125 C 36.171875 -56.195312 34.90625 -56.28125 33.59375 -56.28125 L 26.84375 -56.28125 L 26.84375 -35.28125 L 44.046875 -35.921875 L 44.046875 -27.71875 L 26.84375 -28.15625 L 26.84375 -6.515625 L 35.28125 -6.515625 C 36.582031 -6.515625 37.945312 -6.59375 39.375 -6.75 C 40.800781 -6.914062 41.847656 -7.132812 42.515625 -7.40625 C 43.109375 -7.644531 43.550781 -7.957031 43.84375 -8.34375 C 44.132812 -8.726562 44.414062 -9.28125 44.6875 -10 L 48.125 -19.921875 L 55.203125 -18.796875 C 55.203125 -15.597656 55.082031 -12.476562 54.84375 -9.4375 C 54.601562 -6.394531 54.226562 -3.25 53.71875 0 L 3.5625 0 L 3.5625 -5.765625 L 9.796875 -6.921875 C 10.410156 -7.023438 10.867188 -7.269531 11.171875 -7.65625 C 11.484375 -8.039062 11.640625 -8.539062 11.640625 -9.15625 L 11.640625 -52.953125 C 11.640625 -53.566406 11.484375 -54.066406 11.171875 -54.453125 C 10.867188 -54.847656 10.410156 -55.109375 9.796875 -55.234375 L 3.5625 -56.4375 L 3.5625 -62.484375 L 51.640625 -62.484375 C 51.984375 -59.679688 52.164062 -56.859375 52.1875 -54.015625 C 52.21875 -51.179688 52.113281 -48.3125 51.875 -45.40625 Z M 51.875 -45.40625 "/></g></g></g><g fill="#000000" fill-opacity="1"><g transform="translate(1117.071835, 1368.249702)"><g><path d="M 29.15625 -5.765625 L 29.15625 0 L 3.5625 0 L 3.5625 -5.765625 L 9.796875 -6.875 C 10.410156 -6.988281 10.867188 -7.238281 11.171875 -7.625 C 11.484375 -8.007812 11.640625 -8.507812 11.640625 -9.125 L 11.640625 -52.953125 C 11.640625 -53.566406 11.484375 -54.066406 11.171875 -54.453125 C 10.867188 -54.847656 10.410156 -55.109375 9.796875 -55.234375 L 3.5625 -56.4375 L 3.5625 -62.484375 L 27.234375 -62.484375 L 53.4375 -19.875 L 53.4375 -52.953125 C 53.4375 -53.566406 53.273438 -54.070312 52.953125 -54.46875 C 52.640625 -54.875 52.1875 -55.128906 51.59375 -55.234375 L 44.953125 -56.4375 L 44.953125 -62.484375 L 69.484375 -62.484375 L 69.484375 -56.4375 L 63.6875 -55.234375 C 63.070312 -55.109375 62.609375 -54.847656 62.296875 -54.453125 C 61.992188 -54.066406 61.84375 -53.566406 61.84375 -52.953125 L 61.84375 0 L 48.125 0 L 20.046875 -46.078125 L 20.046875 -9.15625 C 20.046875 -8.539062 20.203125 -8.039062 20.515625 -7.65625 C 20.835938 -7.269531 21.289062 -7.023438 21.875 -6.921875 Z M 29.15625 -5.765625 "/></g></g></g><g fill="#000000" fill-opacity="1"><g transform="translate(1189.346579, 1368.249702)"><g><path d="M 51.203125 0 L 13.484375 0 L 13.484375 -5.71875 L 22.84375 -7.234375 C 23.457031 -7.347656 23.929688 -7.582031 24.265625 -7.9375 C 24.597656 -8.300781 24.765625 -8.789062 24.765625 -9.40625 L 24.765625 -56.28125 L 21.359375 -56.28125 C 20.296875 -56.28125 19.269531 -56.210938 18.28125 -56.078125 C 17.300781 -55.941406 16.503906 -55.753906 15.890625 -55.515625 C 15.328125 -55.304688 14.898438 -55.023438 14.609375 -54.671875 C 14.316406 -54.328125 14.113281 -53.90625 14 -53.40625 L 10.609375 -39.59375 L 3.203125 -39.59375 C 2.753906 -43.707031 2.484375 -47.519531 2.390625 -51.03125 C 2.296875 -54.550781 2.460938 -58.367188 2.890625 -62.484375 L 61.765625 -62.484375 C 62.191406 -58.367188 62.359375 -54.523438 62.265625 -50.953125 C 62.171875 -47.378906 61.910156 -43.59375 61.484375 -39.59375 L 54.078125 -39.59375 L 50.53125 -53.4375 C 50.394531 -53.945312 50.175781 -54.367188 49.875 -54.703125 C 49.582031 -55.035156 49.171875 -55.304688 48.640625 -55.515625 C 48.023438 -55.785156 47.222656 -55.976562 46.234375 -56.09375 C 45.253906 -56.21875 44.234375 -56.28125 43.171875 -56.28125 L 39.921875 -56.28125 L 39.921875 -9.40625 C 39.921875 -8.789062 40.085938 -8.300781 40.421875 -7.9375 C 40.753906 -7.582031 41.226562 -7.347656 41.84375 -7.234375 L 51.203125 -5.71875 Z M 51.203125 0 "/></g></g></g><g fill="#000000" fill-opacity="1"><g transform="translate(1248.861802, 1368.249702)"><g><path d="M 36.71875 -25.125 L 28.515625 -51.4375 L 20.5625 -25.125 Z M 22.6875 -5.765625 L 22.6875 0 L -0.6875 0 L -0.6875 -5.765625 L 4.765625 -7.078125 C 5.296875 -7.210938 5.726562 -7.429688 6.0625 -7.734375 C 6.394531 -8.046875 6.65625 -8.46875 6.84375 -9 L 25.046875 -62.6875 L 39.234375 -62.6875 L 57.5625 -9 C 57.75 -8.46875 58.019531 -8.050781 58.375 -7.75 C 58.738281 -7.457031 59.175781 -7.234375 59.6875 -7.078125 L 64.6875 -5.765625 L 64.6875 0 L 34.6875 0 L 34.6875 -5.765625 L 42.3125 -7 L 38.84375 -18.28125 L 18.484375 -18.28125 L 15.046875 -7 Z M 22.6875 -5.765625 "/></g></g></g><g fill="#000000" fill-opacity="1"><g transform="translate(1313.137126, 1368.249702)"><g><path d="M 34.921875 -62.484375 L 34.921875 -56.4375 L 28.6875 -55.234375 C 28.070312 -55.109375 27.609375 -54.847656 27.296875 -54.453125 C 26.992188 -54.066406 26.84375 -53.566406 26.84375 -52.953125 L 26.84375 -9.203125 C 26.84375 -8.585938 26.992188 -8.085938 27.296875 -7.703125 C 27.609375 -7.316406 28.070312 -7.066406 28.6875 -6.953125 L 34.921875 -5.765625 L 34.921875 0 L 3.5625 0 L 3.5625 -5.765625 L 9.796875 -6.921875 C 10.410156 -7.023438 10.867188 -7.269531 11.171875 -7.65625 C 11.484375 -8.039062 11.640625 -8.539062 11.640625 -9.15625 L 11.640625 -52.953125 C 11.640625 -53.566406 11.484375 -54.066406 11.171875 -54.453125 C 10.867188 -54.847656 10.410156 -55.109375 9.796875 -55.234375 L 3.5625 -56.4375 L 3.5625 -62.484375 Z M 34.921875 -62.484375 "/></g></g></g><g fill="#000000" fill-opacity="1"><g transform="translate(1351.614357, 1368.249702)"><g><path d="M 26.765625 -56.921875 L 26.765625 -32.234375 C 27.878906 -32.109375 29.019531 -32.046875 30.1875 -32.046875 C 31.363281 -32.046875 32.257812 -32.046875 32.875 -32.046875 C 35.488281 -32.066406 37.679688 -33.144531 39.453125 -35.28125 C 41.234375 -37.414062 42.125 -40.828125 42.125 -45.515625 C 42.125 -49.804688 41.257812 -52.84375 39.53125 -54.625 C 37.8125 -56.414062 35.195312 -57.3125 31.6875 -57.3125 C 30.769531 -57.3125 29.882812 -57.269531 29.03125 -57.1875 C 28.1875 -57.113281 27.429688 -57.023438 26.765625 -56.921875 Z M 34.875 -5.71875 L 34.875 0 L 3.5625 0 L 3.5625 -5.765625 L 9.765625 -6.921875 C 10.347656 -7.054688 10.804688 -7.300781 11.140625 -7.65625 C 11.472656 -8.019531 11.640625 -8.507812 11.640625 -9.125 L 11.640625 -53 C 11.640625 -53.613281 11.476562 -54.109375 11.15625 -54.484375 C 10.84375 -54.859375 10.390625 -55.109375 9.796875 -55.234375 L 3.5625 -56.4375 L 3.5625 -62.484375 L 18.796875 -62.484375 C 21.117188 -62.484375 23.351562 -62.5625 25.5 -62.71875 C 27.644531 -62.875 30.128906 -62.953125 32.953125 -62.953125 C 41.921875 -62.953125 48.359375 -61.664062 52.265625 -59.09375 C 56.171875 -56.519531 58.125 -52.222656 58.125 -46.203125 C 58.125 -43.265625 57.726562 -40.796875 56.9375 -38.796875 C 56.15625 -36.796875 55.132812 -35.148438 53.875 -33.859375 C 52.625 -32.566406 51.195312 -31.539062 49.59375 -30.78125 C 48 -30.019531 46.398438 -29.410156 44.796875 -28.953125 C 46.898438 -28.046875 48.695312 -26.816406 50.1875 -25.265625 C 51.6875 -23.722656 53.007812 -21.660156 54.15625 -19.078125 L 58.484375 -9.40625 C 58.910156 -8.5 59.320312 -7.867188 59.71875 -7.515625 C 60.113281 -7.171875 60.660156 -6.90625 61.359375 -6.71875 L 65.15625 -5.71875 L 65.15625 0 L 48 0 C 46.820312 0 45.773438 -0.742188 44.859375 -2.234375 C 43.941406 -3.734375 43.003906 -5.679688 42.046875 -8.078125 L 38 -18.5625 C 37.28125 -20.34375 36.566406 -21.898438 35.859375 -23.234375 C 35.148438 -24.566406 34.425781 -25.648438 33.6875 -26.484375 L 26.765625 -26.484375 L 26.765625 -8.953125 C 26.765625 -8.347656 26.929688 -7.863281 27.265625 -7.5 C 27.597656 -7.132812 28.070312 -6.898438 28.6875 -6.796875 Z M 34.875 -5.71875 "/></g></g></g><g fill="#000000" fill-opacity="1"><g transform="translate(1417.809542, 1368.249702)"><g><path d="M 51.875 -45.40625 L 44.765625 -45.40625 L 42.59375 -52.796875 C 42.40625 -53.492188 42.113281 -54.039062 41.71875 -54.4375 C 41.320312 -54.84375 40.828125 -55.164062 40.234375 -55.40625 C 39.566406 -55.664062 38.617188 -55.875 37.390625 -56.03125 C 36.171875 -56.195312 34.90625 -56.28125 33.59375 -56.28125 L 26.84375 -56.28125 L 26.84375 -35.28125 L 44.046875 -35.921875 L 44.046875 -27.71875 L 26.84375 -28.15625 L 26.84375 -6.515625 L 35.28125 -6.515625 C 36.582031 -6.515625 37.945312 -6.59375 39.375 -6.75 C 40.800781 -6.914062 41.847656 -7.132812 42.515625 -7.40625 C 43.109375 -7.644531 43.550781 -7.957031 43.84375 -8.34375 C 44.132812 -8.726562 44.414062 -9.28125 44.6875 -10 L 48.125 -19.921875 L 55.203125 -18.796875 C 55.203125 -15.597656 55.082031 -12.476562 54.84375 -9.4375 C 54.601562 -6.394531 54.226562 -3.25 53.71875 0 L 3.5625 0 L 3.5625 -5.765625 L 9.796875 -6.921875 C 10.410156 -7.023438 10.867188 -7.269531 11.171875 -7.65625 C 11.484375 -8.039062 11.640625 -8.539062 11.640625 -9.15625 L 11.640625 -52.953125 C 11.640625 -53.566406 11.484375 -54.066406 11.171875 -54.453125 C 10.867188 -54.847656 10.410156 -55.109375 9.796875 -55.234375 L 3.5625 -56.4375 L 3.5625 -62.484375 L 51.640625 -62.484375 C 51.984375 -59.679688 52.164062 -56.859375 52.1875 -54.015625 C 52.21875 -51.179688 52.113281 -48.3125 51.875 -45.40625 Z M 51.875 -45.40625 "/></g></g></g></svg>