<svg xmlns="http://www.w3.org/2000/svg" xmlns:xlink="http://www.w3.org/1999/xlink" width="2000" zoomAndPan="magnify" viewBox="0 0 1500 1499.999933" height="2000" preserveAspectRatio="xMidYMid meet" version="1.0"><defs><g/><clipPath id="300f9ef1b8"><path d="M 348 308 L 1130.277344 308 L 1130.277344 1229 L 348 1229 Z M 348 308 " clip-rule="nonzero"/></clipPath></defs><rect x="-150" width="1800" fill="#ffffff" y="-149.999993" height="1799.99992" fill-opacity="1"/><rect x="-150" width="1800" fill="#ffffff" y="-149.999993" height="1799.99992" fill-opacity="1"/><g clip-path="url(#300f9ef1b8)"><path fill="#000000" d="M 756.117188 502.722656 L 774.402344 517.027344 L 799.117188 485.460938 L 725.980469 428.238281 L 701.265625 459.804688 Z M 496.390625 1137.367188 C 492.023438 1135.699219 487.71875 1133.644531 483.503906 1131.242188 C 477.035156 1127.84375 474.421875 1122.027344 475.820312 1114.5625 L 475.832031 1114.5625 C 483.066406 1079.140625 507.769531 1052.734375 541.164062 1043.152344 C 527.816406 1040.347656 513.960938 1038.578125 499.597656 1037.835938 C 469.1875 1089.8125 396.3125 1101.125 352.621094 1056.078125 C 348.117188 1051.398438 347.410156 1044.460938 350.429688 1039.070312 C 355.628906 1029.175781 359.816406 1022.714844 367.84375 1014.554688 C 385.835938 996.28125 409.460938 986.917969 433.140625 986.550781 C 455.058594 986.210938 477.023438 993.621094 494.613281 1008.851562 C 497.078125 1008.929688 499.535156 1009.035156 501.972656 1009.164062 C 477.125 978.738281 473.554688 935.125 495.375 901.085938 C 498.703125 895.902344 504.796875 893.566406 510.488281 894.769531 C 567.828125 906.941406 600.792969 969.214844 576.964844 1023.019531 C 587.566406 1026.542969 597.851562 1030.71875 607.828125 1035.542969 C 591.703125 988.929688 612.640625 936.328125 657.039062 915.148438 L 657.019531 915.101562 L 659.734375 913.84375 C 665.632812 911.183594 672.378906 912.824219 676.453125 917.429688 C 684.039062 925.589844 689.792969 933.058594 694.738281 943.414062 L 694.78125 943.390625 L 695.28125 944.484375 C 716.457031 989.960938 701.632812 1042.816406 660.503906 1069.4375 C 673.515625 1080.175781 685.816406 1092.328125 697.414062 1105.890625 C 702.710938 1076.617188 721 1051.054688 747.101562 1036.855469 L 747.101562 856.074219 C 747.101562 795.371094 791.949219 744.0625 850.984375 734.914062 L 850.984375 669.050781 C 844.773438 667.4375 840.183594 661.796875 840.183594 655.082031 L 840.183594 593.363281 C 840.183594 585.394531 846.648438 578.929688 854.621094 578.929688 L 1022.695312 578.929688 C 1030.671875 578.929688 1037.136719 585.394531 1037.136719 593.363281 L 1037.136719 655.082031 C 1037.136719 661.796875 1032.546875 667.441406 1026.335938 669.050781 L 1026.335938 734.914062 C 1085.371094 744.0625 1130.21875 795.371094 1130.21875 856.070312 L 1130.21875 1172.589844 C 1130.21875 1203.449219 1105.011719 1228.648438 1074.140625 1228.648438 L 803.175781 1228.648438 C 772.304688 1228.648438 747.101562 1203.449219 747.101562 1172.589844 L 747.101562 1170.597656 C 745.613281 1171.214844 744.101562 1171.792969 742.570312 1172.335938 C 743.0625 1173.234375 743.546875 1174.132812 744.03125 1175.039062 C 747.769531 1182.042969 745.117188 1190.75 738.109375 1194.488281 C 731.101562 1198.222656 722.390625 1195.574219 718.652344 1188.570312 C 715.960938 1183.546875 713.210938 1178.652344 710.398438 1173.882812 C 708.769531 1172.488281 707.445312 1170.730469 706.566406 1168.714844 L 703.476562 1162.574219 C 688.539062 1205.960938 644.058594 1231.46875 597.6875 1222.84375 C 586.566406 1220.882812 578.722656 1217.332031 569.09375 1212.273438 C 562.628906 1208.875 560.011719 1203.054688 561.410156 1195.589844 C 566.183594 1170.121094 581.300781 1148.902344 601.554688 1135.695312 C 621.175781 1122.898438 645.722656 1117.460938 670.648438 1122.34375 L 674.226562 1123.097656 C 657.585938 1103.921875 639.535156 1088.074219 619.792969 1075.300781 C 607.304688 1122.132812 560.898438 1150.890625 512.097656 1141.816406 C 507.023438 1140.921875 500.792969 1139.050781 496.394531 1137.371094 Z M 506.664062 1110.421875 C 540.21875 1123.246094 578.40625 1106.796875 590.492188 1072.703125 C 556.933594 1059.878906 518.746094 1076.332031 506.664062 1110.421875 Z M 592.25 1191.449219 C 625.808594 1204.277344 663.996094 1187.824219 676.078125 1153.734375 C 642.523438 1140.902344 604.332031 1157.363281 592.25 1191.449219 Z M 388.203125 1034.917969 C 385.714844 1037.457031 383.433594 1040.21875 381.375 1043.15625 C 410.335938 1064.570312 451.214844 1057.136719 471.976562 1027.570312 C 446.539062 1008.757812 410.917969 1011.8125 388.203125 1034.914062 Z M 796.941406 1034.304688 C 803.851562 1048.019531 807.523438 1063.199219 807.667969 1078.523438 L 1101.339844 1078.523438 L 1101.339844 874.214844 L 775.976562 874.214844 L 775.976562 1026.667969 L 782.03125 1025.757812 C 788.496094 1024.992188 794.464844 1028.632812 796.941406 1034.300781 Z M 803.664062 1107.390625 C 798.625 1124.542969 789.023438 1140.023438 775.976562 1152.105469 L 775.976562 1172.589844 C 775.976562 1187.515625 788.242188 1199.78125 803.171875 1199.78125 L 1074.140625 1199.78125 C 1089.066406 1199.78125 1101.335938 1187.515625 1101.335938 1172.589844 L 1101.335938 1107.390625 L 803.660156 1107.390625 Z M 775.375 1057.367188 L 775.070312 1056.449219 C 736.921875 1067.082031 715.648438 1107.855469 728.433594 1146.566406 C 766.5625 1135.941406 787.5625 1095.132812 775.375 1057.367188 Z M 662.914062 946 L 662.304688 945.152344 C 632.910156 964.332031 623.023438 1002.578125 638.5 1034.335938 L 638.457031 1034.359375 L 645.039062 1045.203125 C 674.414062 1026.039062 684.34375 987.761719 668.839844 956.019531 L 668.886719 955.996094 C 667.183594 952.523438 665.179688 949.183594 662.917969 946 Z M 514.71875 926.050781 L 514.667969 926.03125 C 500.675781 959.074219 517.515625 997.433594 551.050781 1010.433594 C 565.089844 977.273438 548.191406 939.238281 514.71875 926.050781 Z M 581.042969 730.132812 C 575.648438 720.511719 561.632812 720.261719 556.019531 729.96875 L 518.652344 794.664062 C 502.304688 822.96875 512.960938 857.589844 539.476562 872.890625 L 539.488281 872.867188 C 556.886719 883.046875 580.039062 882.964844 597.488281 872.890625 L 597.476562 872.867188 C 605.996094 867.941406 613.132812 860.824219 618.3125 851.855469 L 618.289062 851.84375 C 628.84375 833.816406 628.734375 812.6875 618.3125 794.660156 L 581.042969 730.128906 Z M 593.222656 808.820312 L 568.480469 765.984375 L 543.582031 809.097656 C 535.355469 823.335938 541.023438 840.53125 553.914062 847.972656 L 553.898438 847.996094 C 562.292969 852.816406 574.652344 852.820312 583.050781 847.972656 L 583.0625 847.996094 C 587.222656 845.5625 590.667969 842.128906 593.382812 837.425781 L 593.40625 837.441406 C 598.726562 828.191406 598.542969 818.019531 593.222656 808.820312 Z M 951.21875 897.574219 C 945.828125 887.953125 931.808594 887.699219 926.191406 897.40625 L 885.066406 968.617188 L 885.070312 968.617188 C 873.511719 987.976562 873.605469 1011.089844 884.890625 1030.625 L 884.914062 1030.613281 C 890.566406 1040.378906 898.25 1048.070312 907.355469 1053.324219 L 907.371094 1053.300781 C 916.46875 1058.621094 927.234375 1061.476562 938.304688 1061.476562 C 961.160156 1061.476562 980.9375 1050.519531 992.429688 1030.625 L 992.402344 1030.613281 C 1003.847656 1011.472656 1003.59375 988.21875 992.429688 968.925781 Z M 967.320312 983.050781 L 938.65625 933.421875 L 909.816406 983.355469 C 903.769531 993.828125 903.769531 1005.71875 909.816406 1016.191406 L 909.792969 1016.207031 C 913.007812 1021.582031 916.730469 1025.480469 921.792969 1028.402344 L 921.777344 1028.425781 C 931.515625 1034.027344 945.761719 1034.046875 955.523438 1028.402344 C 960.335938 1025.625 964.4375 1021.492188 967.496094 1016.191406 L 967.519531 1016.207031 C 973.683594 1005.503906 973.484375 993.699219 967.320312 983.050781 Z M 776.589844 845.351562 L 1100.722656 845.351562 C 1095.328125 798.597656 1055.265625 762.335938 1007.570312 762.335938 L 869.742188 762.335938 C 822.050781 762.335938 781.984375 798.597656 776.589844 845.351562 Z M 879.855469 733.472656 L 997.457031 733.472656 L 997.457031 669.515625 L 879.855469 669.515625 Z M 1008.257812 607.796875 L 869.058594 607.796875 L 869.058594 640.648438 L 1008.257812 640.648438 Z M 749.726562 534.242188 L 641.144531 672.925781 C 638.851562 675.863281 635.636719 677.667969 632.230469 678.246094 L 632.234375 678.277344 L 629.285156 678.789062 L 621.363281 688.90625 L 621.371094 688.914062 C 620.894531 689.632812 620.359375 690.296875 619.78125 690.898438 C 614.339844 697.527344 607.910156 702.554688 600.632812 704.871094 C 591.628906 707.738281 581.707031 706.570312 572.714844 699.308594 C 555.09375 685.078125 559.144531 666.648438 571.398438 650.996094 L 579.414062 640.757812 C 578.613281 635.019531 578.082031 631.160156 582.351562 625.988281 L 690.480469 487.886719 L 672.222656 473.597656 C 665.960938 468.710938 664.847656 459.671875 669.738281 453.414062 L 712.1875 399.199219 C 717.074219 392.941406 726.117188 391.832031 732.378906 396.71875 L 733.53125 397.621094 C 735.277344 395.753906 737.429688 394.445312 739.746094 393.726562 L 739.738281 393.699219 L 765.808594 385.527344 L 813.644531 324.429688 C 836.359375 295.433594 882.925781 308.457031 887.378906 344.988281 C 888.65625 355.453125 885.921875 366.449219 878.875 375.449219 L 831.109375 436.457031 L 829.945312 462.828125 C 829.8125 465.835938 828.769531 468.585938 827.09375 470.824219 L 828.167969 471.667969 C 834.429688 476.558594 835.542969 485.59375 830.652344 491.855469 L 788.203125 546.066406 C 783.316406 552.328125 774.273438 553.4375 768.011719 548.546875 L 749.730469 534.242188 Z M 713.132812 505.613281 L 727.070312 516.515625 L 621.925781 650.808594 C 621.035156 651.339844 614.554688 650.46875 609.476562 657.429688 L 598.015625 672.0625 C 595.773438 674.925781 593.660156 676.925781 591.945312 677.472656 L 589.792969 676.117188 C 590.125 674.265625 591.761719 671.652344 594.070312 668.703125 L 605.859375 653.648438 C 608.351562 650.453125 609.285156 646.542969 608.769531 642.824219 L 608.792969 642.820312 L 608.324219 639.476562 Z M 759.28125 417.773438 L 772.171875 413.734375 L 802.25 437.265625 L 801.648438 450.917969 L 759.285156 417.773438 Z M 854.699219 340.542969 C 851.609375 338.402344 849.421875 336.902344 844.679688 337.480469 C 839.996094 338.050781 838.097656 340.125 835.550781 343.113281 L 794.917969 395.007812 L 814.832031 410.585938 L 856.203125 357.746094 C 860.214844 352.625 859.558594 344.914062 854.703125 340.542969 Z M 854.699219 340.542969 " fill-opacity="1" fill-rule="evenodd"/></g><g fill="#000000" fill-opacity="1"><g transform="translate(347.323245, 1368.249582)"><g><path d="M 31.6875 -27.921875 C 33.070312 -27.921875 34.351562 -28.1875 35.53125 -28.71875 C 36.71875 -29.25 37.742188 -30.132812 38.609375 -31.375 C 39.484375 -32.613281 40.164062 -34.273438 40.65625 -36.359375 C 41.15625 -38.441406 41.40625 -41.03125 41.40625 -44.125 C 41.40625 -48.675781 40.5625 -52 38.875 -54.09375 C 37.195312 -56.1875 34.757812 -57.234375 31.5625 -57.234375 C 30.144531 -57.234375 29.132812 -57.171875 28.53125 -57.046875 C 27.9375 -56.929688 27.375 -56.835938 26.84375 -56.765625 L 26.84375 -28.234375 C 27.582031 -28.160156 28.3125 -28.085938 29.03125 -28.015625 C 29.757812 -27.953125 30.644531 -27.921875 31.6875 -27.921875 Z M 38.484375 -5.765625 L 38.484375 0 L 3.5625 0 L 3.5625 -5.765625 L 9.921875 -6.953125 C 10.429688 -7.066406 10.84375 -7.300781 11.15625 -7.65625 C 11.476562 -8.019531 11.640625 -8.453125 11.640625 -8.953125 L 11.640625 -53.203125 C 11.640625 -53.648438 11.492188 -54.0625 11.203125 -54.4375 C 10.910156 -54.8125 10.523438 -55.050781 10.046875 -55.15625 L 3.5625 -56.4375 L 3.5625 -62.484375 L 19.515625 -62.484375 C 21.273438 -62.484375 23.234375 -62.5625 25.390625 -62.71875 C 27.554688 -62.875 30.160156 -62.941406 33.203125 -62.921875 C 37.765625 -62.890625 41.5625 -62.46875 44.59375 -61.65625 C 47.632812 -60.84375 50.054688 -59.65625 51.859375 -58.09375 C 53.660156 -56.539062 54.929688 -54.625 55.671875 -52.34375 C 56.421875 -50.0625 56.796875 -47.453125 56.796875 -44.515625 C 56.796875 -37.554688 54.695312 -32.085938 50.5 -28.109375 C 46.300781 -24.140625 40.160156 -22.15625 32.078125 -22.15625 C 31.171875 -22.15625 30.273438 -22.175781 29.390625 -22.21875 C 28.515625 -22.257812 27.664062 -22.304688 26.84375 -22.359375 L 26.84375 -8.953125 C 26.84375 -8.453125 27.007812 -8.015625 27.34375 -7.640625 C 27.675781 -7.265625 28.109375 -7.050781 28.640625 -7 Z M 38.484375 -5.765625 "/></g></g></g><g fill="#000000" fill-opacity="1"><g transform="translate(405.95899, 1368.249582)"><g><path d="M 72 -62.484375 L 72 -56.4375 L 65.71875 -55.234375 C 65.132812 -55.109375 64.679688 -54.835938 64.359375 -54.421875 C 64.035156 -54.003906 63.875 -53.503906 63.875 -52.921875 L 63.875 -9.15625 C 63.875 -8.539062 64.035156 -8.046875 64.359375 -7.671875 C 64.679688 -7.304688 65.148438 -7.054688 65.765625 -6.921875 L 72 -5.765625 L 72 0 L 42.4375 0 L 42.4375 -5.765625 L 46.875 -6.921875 C 47.46875 -7.078125 47.921875 -7.332031 48.234375 -7.6875 C 48.554688 -8.050781 48.71875 -8.539062 48.71875 -9.15625 L 48.71875 -28.078125 L 26.84375 -28.078125 L 26.84375 -9.15625 C 26.84375 -8.539062 26.992188 -8.046875 27.296875 -7.671875 C 27.609375 -7.304688 28.054688 -7.054688 28.640625 -6.921875 L 33.640625 -5.765625 L 33.640625 0 L 3.5625 0 L 3.5625 -5.765625 L 9.796875 -6.921875 C 10.410156 -7.054688 10.867188 -7.304688 11.171875 -7.671875 C 11.484375 -8.046875 11.640625 -8.539062 11.640625 -9.15625 L 11.640625 -52.921875 C 11.640625 -53.585938 11.484375 -54.109375 11.171875 -54.484375 C 10.867188 -54.859375 10.425781 -55.109375 9.84375 -55.234375 L 3.5625 -56.4375 L 3.5625 -62.484375 L 33.640625 -62.484375 L 33.640625 -56.4375 L 28.59375 -55.234375 C 28.007812 -55.109375 27.570312 -54.859375 27.28125 -54.484375 C 26.988281 -54.109375 26.84375 -53.585938 26.84375 -52.921875 L 26.84375 -35.40625 L 48.71875 -35.40625 L 48.71875 -52.921875 C 48.71875 -53.503906 48.5625 -53.992188 48.25 -54.390625 C 47.945312 -54.796875 47.503906 -55.078125 46.921875 -55.234375 L 42.40625 -56.4375 L 42.40625 -62.484375 Z M 72 -62.484375 "/></g></g></g><g fill="#000000" fill-opacity="1"><g transform="translate(481.513507, 1368.249582)"><g><path d="M 47.921875 0 L 13.28125 0 L 13.28125 -5.71875 L 20.875 -7.234375 C 21.488281 -7.347656 21.957031 -7.582031 22.28125 -7.9375 C 22.601562 -8.300781 22.765625 -8.789062 22.765625 -9.40625 L 22.765625 -24.484375 L 6.234375 -53.5625 C 5.972656 -54.007812 5.660156 -54.367188 5.296875 -54.640625 C 4.941406 -54.910156 4.507812 -55.097656 4 -55.203125 L -0.953125 -56.4375 L -0.953125 -62.484375 L 29.484375 -62.484375 L 29.484375 -56.4375 L 23.203125 -54.84375 L 34.359375 -33.234375 L 44.765625 -54.875 L 37.765625 -56.4375 L 37.765625 -62.484375 L 60.078125 -62.484375 L 60.078125 -56.4375 L 55.484375 -55.28125 C 54.972656 -55.175781 54.53125 -54.992188 54.15625 -54.734375 C 53.78125 -54.484375 53.472656 -54.117188 53.234375 -53.640625 L 38.4375 -24.484375 L 38.4375 -9.40625 C 38.4375 -8.789062 38.597656 -8.300781 38.921875 -7.9375 C 39.242188 -7.582031 39.707031 -7.347656 40.3125 -7.234375 L 47.921875 -5.71875 Z M 47.921875 0 "/></g></g></g><g fill="#000000" fill-opacity="1"><g transform="translate(541.949121, 1368.249582)"><g><path d="M 51.203125 0 L 13.484375 0 L 13.484375 -5.71875 L 22.84375 -7.234375 C 23.457031 -7.347656 23.929688 -7.582031 24.265625 -7.9375 C 24.597656 -8.300781 24.765625 -8.789062 24.765625 -9.40625 L 24.765625 -56.28125 L 21.359375 -56.28125 C 20.296875 -56.28125 19.269531 -56.210938 18.28125 -56.078125 C 17.300781 -55.941406 16.503906 -55.753906 15.890625 -55.515625 C 15.328125 -55.304688 14.898438 -55.023438 14.609375 -54.671875 C 14.316406 -54.328125 14.113281 -53.90625 14 -53.40625 L 10.609375 -39.59375 L 3.203125 -39.59375 C 2.753906 -43.707031 2.484375 -47.519531 2.390625 -51.03125 C 2.296875 -54.550781 2.460938 -58.367188 2.890625 -62.484375 L 61.765625 -62.484375 C 62.191406 -58.367188 62.359375 -54.523438 62.265625 -50.953125 C 62.171875 -47.378906 61.910156 -43.59375 61.484375 -39.59375 L 54.078125 -39.59375 L 50.53125 -53.4375 C 50.394531 -53.945312 50.175781 -54.367188 49.875 -54.703125 C 49.582031 -55.035156 49.171875 -55.304688 48.640625 -55.515625 C 48.023438 -55.785156 47.222656 -55.976562 46.234375 -56.09375 C 45.253906 -56.21875 44.234375 -56.28125 43.171875 -56.28125 L 39.921875 -56.28125 L 39.921875 -9.40625 C 39.921875 -8.789062 40.085938 -8.300781 40.421875 -7.9375 C 40.753906 -7.582031 41.226562 -7.347656 41.84375 -7.234375 L 51.203125 -5.71875 Z M 51.203125 0 "/></g></g></g><g fill="#000000" fill-opacity="1"><g transform="translate(605.624432, 1368.249582)"><g><path d="M 30.921875 1.359375 C 26.222656 1.359375 22.160156 0.625 18.734375 -0.84375 C 15.304688 -2.3125 12.484375 -4.390625 10.265625 -7.078125 C 8.054688 -9.773438 6.421875 -13.066406 5.359375 -16.953125 C 4.296875 -20.847656 3.765625 -25.210938 3.765625 -30.046875 C 3.765625 -35.347656 4.390625 -40.09375 5.640625 -44.28125 C 6.890625 -48.46875 8.738281 -52 11.1875 -54.875 C 13.644531 -57.757812 16.707031 -59.960938 20.375 -61.484375 C 24.039062 -63.003906 28.25 -63.765625 33 -63.765625 C 37.695312 -63.765625 41.765625 -63.03125 45.203125 -61.5625 C 48.640625 -60.09375 51.460938 -58.003906 53.671875 -55.296875 C 55.890625 -52.585938 57.53125 -49.285156 58.59375 -45.390625 C 59.664062 -41.503906 60.203125 -37.144531 60.203125 -32.3125 C 60.203125 -27.039062 59.570312 -22.300781 58.3125 -18.09375 C 57.0625 -13.894531 55.207031 -10.363281 52.75 -7.5 C 50.300781 -4.632812 47.242188 -2.441406 43.578125 -0.921875 C 39.910156 0.597656 35.691406 1.359375 30.921875 1.359375 Z M 32.15625 -57.515625 C 28.257812 -57.515625 25.328125 -55.4375 23.359375 -51.28125 C 21.390625 -47.125 20.40625 -40.296875 20.40625 -30.796875 C 20.40625 -21.566406 21.34375 -14.929688 23.21875 -10.890625 C 25.101562 -6.859375 27.953125 -4.84375 31.765625 -4.84375 C 35.597656 -4.84375 38.515625 -6.945312 40.515625 -11.15625 C 42.515625 -15.375 43.515625 -22.242188 43.515625 -31.765625 C 43.515625 -40.984375 42.570312 -47.578125 40.6875 -51.546875 C 38.8125 -55.523438 35.96875 -57.515625 32.15625 -57.515625 Z M 32.15625 -57.515625 "/></g></g></g><g fill="#000000" fill-opacity="1"><g transform="translate(668.979788, 1368.249582)"><g><path d="M 51.203125 0 L 13.484375 0 L 13.484375 -5.71875 L 22.84375 -7.234375 C 23.457031 -7.347656 23.929688 -7.582031 24.265625 -7.9375 C 24.597656 -8.300781 24.765625 -8.789062 24.765625 -9.40625 L 24.765625 -56.28125 L 21.359375 -56.28125 C 20.296875 -56.28125 19.269531 -56.210938 18.28125 -56.078125 C 17.300781 -55.941406 16.503906 -55.753906 15.890625 -55.515625 C 15.328125 -55.304688 14.898438 -55.023438 14.609375 -54.671875 C 14.316406 -54.328125 14.113281 -53.90625 14 -53.40625 L 10.609375 -39.59375 L 3.203125 -39.59375 C 2.753906 -43.707031 2.484375 -47.519531 2.390625 -51.03125 C 2.296875 -54.550781 2.460938 -58.367188 2.890625 -62.484375 L 61.765625 -62.484375 C 62.191406 -58.367188 62.359375 -54.523438 62.265625 -50.953125 C 62.171875 -47.378906 61.910156 -43.59375 61.484375 -39.59375 L 54.078125 -39.59375 L 50.53125 -53.4375 C 50.394531 -53.945312 50.175781 -54.367188 49.875 -54.703125 C 49.582031 -55.035156 49.171875 -55.304688 48.640625 -55.515625 C 48.023438 -55.785156 47.222656 -55.976562 46.234375 -56.09375 C 45.253906 -56.21875 44.234375 -56.28125 43.171875 -56.28125 L 39.921875 -56.28125 L 39.921875 -9.40625 C 39.921875 -8.789062 40.085938 -8.300781 40.421875 -7.9375 C 40.753906 -7.582031 41.226562 -7.347656 41.84375 -7.234375 L 51.203125 -5.71875 Z M 51.203125 0 "/></g></g></g><g fill="#000000" fill-opacity="1"><g transform="translate(733.375092, 1368.249582)"><g><path d="M 72 -62.484375 L 72 -56.4375 L 65.71875 -55.234375 C 65.132812 -55.109375 64.679688 -54.835938 64.359375 -54.421875 C 64.035156 -54.003906 63.875 -53.503906 63.875 -52.921875 L 63.875 -9.15625 C 63.875 -8.539062 64.035156 -8.046875 64.359375 -7.671875 C 64.679688 -7.304688 65.148438 -7.054688 65.765625 -6.921875 L 72 -5.765625 L 72 0 L 42.4375 0 L 42.4375 -5.765625 L 46.875 -6.921875 C 47.46875 -7.078125 47.921875 -7.332031 48.234375 -7.6875 C 48.554688 -8.050781 48.71875 -8.539062 48.71875 -9.15625 L 48.71875 -28.078125 L 26.84375 -28.078125 L 26.84375 -9.15625 C 26.84375 -8.539062 26.992188 -8.046875 27.296875 -7.671875 C 27.609375 -7.304688 28.054688 -7.054688 28.640625 -6.921875 L 33.640625 -5.765625 L 33.640625 0 L 3.5625 0 L 3.5625 -5.765625 L 9.796875 -6.921875 C 10.410156 -7.054688 10.867188 -7.304688 11.171875 -7.671875 C 11.484375 -8.046875 11.640625 -8.539062 11.640625 -9.15625 L 11.640625 -52.921875 C 11.640625 -53.585938 11.484375 -54.109375 11.171875 -54.484375 C 10.867188 -54.859375 10.425781 -55.109375 9.84375 -55.234375 L 3.5625 -56.4375 L 3.5625 -62.484375 L 33.640625 -62.484375 L 33.640625 -56.4375 L 28.59375 -55.234375 C 28.007812 -55.109375 27.570312 -54.859375 27.28125 -54.484375 C 26.988281 -54.109375 26.84375 -53.585938 26.84375 -52.921875 L 26.84375 -35.40625 L 48.71875 -35.40625 L 48.71875 -52.921875 C 48.71875 -53.503906 48.5625 -53.992188 48.25 -54.390625 C 47.945312 -54.796875 47.503906 -55.078125 46.921875 -55.234375 L 42.40625 -56.4375 L 42.40625 -62.484375 Z M 72 -62.484375 "/></g></g></g><g fill="#000000" fill-opacity="1"><g transform="translate(808.929621, 1368.249582)"><g><path d="M 51.875 -45.40625 L 44.765625 -45.40625 L 42.59375 -52.796875 C 42.40625 -53.492188 42.113281 -54.039062 41.71875 -54.4375 C 41.320312 -54.84375 40.828125 -55.164062 40.234375 -55.40625 C 39.566406 -55.664062 38.617188 -55.875 37.390625 -56.03125 C 36.171875 -56.195312 34.90625 -56.28125 33.59375 -56.28125 L 26.84375 -56.28125 L 26.84375 -35.28125 L 44.046875 -35.921875 L 44.046875 -27.71875 L 26.84375 -28.15625 L 26.84375 -6.515625 L 35.28125 -6.515625 C 36.582031 -6.515625 37.945312 -6.59375 39.375 -6.75 C 40.800781 -6.914062 41.847656 -7.132812 42.515625 -7.40625 C 43.109375 -7.644531 43.550781 -7.957031 43.84375 -8.34375 C 44.132812 -8.726562 44.414062 -9.28125 44.6875 -10 L 48.125 -19.921875 L 55.203125 -18.796875 C 55.203125 -15.597656 55.082031 -12.476562 54.84375 -9.4375 C 54.601562 -6.394531 54.226562 -3.25 53.71875 0 L 3.5625 0 L 3.5625 -5.765625 L 9.796875 -6.921875 C 10.410156 -7.023438 10.867188 -7.269531 11.171875 -7.65625 C 11.484375 -8.039062 11.640625 -8.539062 11.640625 -9.15625 L 11.640625 -52.953125 C 11.640625 -53.566406 11.484375 -54.066406 11.171875 -54.453125 C 10.867188 -54.847656 10.410156 -55.109375 9.796875 -55.234375 L 3.5625 -56.4375 L 3.5625 -62.484375 L 51.640625 -62.484375 C 51.984375 -59.679688 52.164062 -56.859375 52.1875 -54.015625 C 52.21875 -51.179688 52.113281 -48.3125 51.875 -45.40625 Z M 46.328125 -76.359375 C 44.890625 -75.335938 43.160156 -74.359375 41.140625 -73.421875 C 39.128906 -72.492188 37.015625 -71.625 34.796875 -70.8125 C 32.585938 -70 30.335938 -69.242188 28.046875 -68.546875 C 25.753906 -67.859375 23.609375 -67.234375 21.609375 -66.671875 L 19.078125 -71.71875 L 40.28125 -85.3125 Z M 46.328125 -76.359375 "/></g></g></g><g fill="#000000" fill-opacity="1"><g transform="translate(867.005406, 1368.249582)"><g><path d="M 26.765625 -56.921875 L 26.765625 -32.234375 C 27.878906 -32.109375 29.019531 -32.046875 30.1875 -32.046875 C 31.363281 -32.046875 32.257812 -32.046875 32.875 -32.046875 C 35.488281 -32.066406 37.679688 -33.144531 39.453125 -35.28125 C 41.234375 -37.414062 42.125 -40.828125 42.125 -45.515625 C 42.125 -49.804688 41.257812 -52.84375 39.53125 -54.625 C 37.8125 -56.414062 35.195312 -57.3125 31.6875 -57.3125 C 30.769531 -57.3125 29.882812 -57.269531 29.03125 -57.1875 C 28.1875 -57.113281 27.429688 -57.023438 26.765625 -56.921875 Z M 34.875 -5.71875 L 34.875 0 L 3.5625 0 L 3.5625 -5.765625 L 9.765625 -6.921875 C 10.347656 -7.054688 10.804688 -7.300781 11.140625 -7.65625 C 11.472656 -8.019531 11.640625 -8.507812 11.640625 -9.125 L 11.640625 -53 C 11.640625 -53.613281 11.476562 -54.109375 11.15625 -54.484375 C 10.84375 -54.859375 10.390625 -55.109375 9.796875 -55.234375 L 3.5625 -56.4375 L 3.5625 -62.484375 L 18.796875 -62.484375 C 21.117188 -62.484375 23.351562 -62.5625 25.5 -62.71875 C 27.644531 -62.875 30.128906 -62.953125 32.953125 -62.953125 C 41.921875 -62.953125 48.359375 -61.664062 52.265625 -59.09375 C 56.171875 -56.519531 58.125 -52.222656 58.125 -46.203125 C 58.125 -43.265625 57.726562 -40.796875 56.9375 -38.796875 C 56.15625 -36.796875 55.132812 -35.148438 53.875 -33.859375 C 52.625 -32.566406 51.195312 -31.539062 49.59375 -30.78125 C 48 -30.019531 46.398438 -29.410156 44.796875 -28.953125 C 46.898438 -28.046875 48.695312 -26.816406 50.1875 -25.265625 C 51.6875 -23.722656 53.007812 -21.660156 54.15625 -19.078125 L 58.484375 -9.40625 C 58.910156 -8.5 59.320312 -7.867188 59.71875 -7.515625 C 60.113281 -7.171875 60.660156 -6.90625 61.359375 -6.71875 L 65.15625 -5.71875 L 65.15625 0 L 48 0 C 46.820312 0 45.773438 -0.742188 44.859375 -2.234375 C 43.941406 -3.734375 43.003906 -5.679688 42.046875 -8.078125 L 38 -18.5625 C 37.28125 -20.34375 36.566406 -21.898438 35.859375 -23.234375 C 35.148438 -24.566406 34.425781 -25.648438 33.6875 -26.484375 L 26.765625 -26.484375 L 26.765625 -8.953125 C 26.765625 -8.347656 26.929688 -7.863281 27.265625 -7.5 C 27.597656 -7.132812 28.070312 -6.898438 28.6875 -6.796875 Z M 34.875 -5.71875 "/></g></g></g><g fill="#000000" fill-opacity="1"><g transform="translate(933.200591, 1368.249582)"><g><path d="M 36.71875 -25.125 L 28.515625 -51.4375 L 20.5625 -25.125 Z M 22.6875 -5.765625 L 22.6875 0 L -0.6875 0 L -0.6875 -5.765625 L 4.765625 -7.078125 C 5.296875 -7.210938 5.726562 -7.429688 6.0625 -7.734375 C 6.394531 -8.046875 6.65625 -8.46875 6.84375 -9 L 25.046875 -62.6875 L 39.234375 -62.6875 L 57.5625 -9 C 57.75 -8.46875 58.019531 -8.050781 58.375 -7.75 C 58.738281 -7.457031 59.175781 -7.234375 59.6875 -7.078125 L 64.6875 -5.765625 L 64.6875 0 L 34.6875 0 L 34.6875 -5.765625 L 42.3125 -7 L 38.84375 -18.28125 L 18.484375 -18.28125 L 15.046875 -7 Z M 22.6875 -5.765625 "/></g></g></g><g fill="#000000" fill-opacity="1"><g transform="translate(997.47596, 1368.249582)"><g><path d="M 31.6875 -27.921875 C 33.070312 -27.921875 34.351562 -28.1875 35.53125 -28.71875 C 36.71875 -29.25 37.742188 -30.132812 38.609375 -31.375 C 39.484375 -32.613281 40.164062 -34.273438 40.65625 -36.359375 C 41.15625 -38.441406 41.40625 -41.03125 41.40625 -44.125 C 41.40625 -48.675781 40.5625 -52 38.875 -54.09375 C 37.195312 -56.1875 34.757812 -57.234375 31.5625 -57.234375 C 30.144531 -57.234375 29.132812 -57.171875 28.53125 -57.046875 C 27.9375 -56.929688 27.375 -56.835938 26.84375 -56.765625 L 26.84375 -28.234375 C 27.582031 -28.160156 28.3125 -28.085938 29.03125 -28.015625 C 29.757812 -27.953125 30.644531 -27.921875 31.6875 -27.921875 Z M 38.484375 -5.765625 L 38.484375 0 L 3.5625 0 L 3.5625 -5.765625 L 9.921875 -6.953125 C 10.429688 -7.066406 10.84375 -7.300781 11.15625 -7.65625 C 11.476562 -8.019531 11.640625 -8.453125 11.640625 -8.953125 L 11.640625 -53.203125 C 11.640625 -53.648438 11.492188 -54.0625 11.203125 -54.4375 C 10.910156 -54.8125 10.523438 -55.050781 10.046875 -55.15625 L 3.5625 -56.4375 L 3.5625 -62.484375 L 19.515625 -62.484375 C 21.273438 -62.484375 23.234375 -62.5625 25.390625 -62.71875 C 27.554688 -62.875 30.160156 -62.941406 33.203125 -62.921875 C 37.765625 -62.890625 41.5625 -62.46875 44.59375 -61.65625 C 47.632812 -60.84375 50.054688 -59.65625 51.859375 -58.09375 C 53.660156 -56.539062 54.929688 -54.625 55.671875 -52.34375 C 56.421875 -50.0625 56.796875 -47.453125 56.796875 -44.515625 C 56.796875 -37.554688 54.695312 -32.085938 50.5 -28.109375 C 46.300781 -24.140625 40.160156 -22.15625 32.078125 -22.15625 C 31.171875 -22.15625 30.273438 -22.175781 29.390625 -22.21875 C 28.515625 -22.257812 27.664062 -22.304688 26.84375 -22.359375 L 26.84375 -8.953125 C 26.84375 -8.453125 27.007812 -8.015625 27.34375 -7.640625 C 27.675781 -7.265625 28.109375 -7.050781 28.640625 -7 Z M 38.484375 -5.765625 "/></g></g></g><g fill="#000000" fill-opacity="1"><g transform="translate(1056.111682, 1368.249582)"><g><path d="M 34.921875 -62.484375 L 34.921875 -56.4375 L 28.6875 -55.234375 C 28.070312 -55.109375 27.609375 -54.847656 27.296875 -54.453125 C 26.992188 -54.066406 26.84375 -53.566406 26.84375 -52.953125 L 26.84375 -9.203125 C 26.84375 -8.585938 26.992188 -8.085938 27.296875 -7.703125 C 27.609375 -7.316406 28.070312 -7.066406 28.6875 -6.953125 L 34.921875 -5.765625 L 34.921875 0 L 3.5625 0 L 3.5625 -5.765625 L 9.796875 -6.921875 C 10.410156 -7.023438 10.867188 -7.269531 11.171875 -7.65625 C 11.484375 -8.039062 11.640625 -8.539062 11.640625 -9.15625 L 11.640625 -52.953125 C 11.640625 -53.566406 11.484375 -54.066406 11.171875 -54.453125 C 10.867188 -54.847656 10.410156 -55.109375 9.796875 -55.234375 L 3.5625 -56.4375 L 3.5625 -62.484375 Z M 34.921875 -62.484375 "/></g></g></g><g fill="#000000" fill-opacity="1"><g transform="translate(1094.588866, 1368.249582)"><g><path d="M 51.875 -45.40625 L 44.765625 -45.40625 L 42.59375 -52.796875 C 42.40625 -53.492188 42.113281 -54.039062 41.71875 -54.4375 C 41.320312 -54.84375 40.828125 -55.164062 40.234375 -55.40625 C 39.566406 -55.664062 38.617188 -55.875 37.390625 -56.03125 C 36.171875 -56.195312 34.90625 -56.28125 33.59375 -56.28125 L 26.84375 -56.28125 L 26.84375 -35.28125 L 44.046875 -35.921875 L 44.046875 -27.71875 L 26.84375 -28.15625 L 26.84375 -6.515625 L 35.28125 -6.515625 C 36.582031 -6.515625 37.945312 -6.59375 39.375 -6.75 C 40.800781 -6.914062 41.847656 -7.132812 42.515625 -7.40625 C 43.109375 -7.644531 43.550781 -7.957031 43.84375 -8.34375 C 44.132812 -8.726562 44.414062 -9.28125 44.6875 -10 L 48.125 -19.921875 L 55.203125 -18.796875 C 55.203125 -15.597656 55.082031 -12.476562 54.84375 -9.4375 C 54.601562 -6.394531 54.226562 -3.25 53.71875 0 L 3.5625 0 L 3.5625 -5.765625 L 9.796875 -6.921875 C 10.410156 -7.023438 10.867188 -7.269531 11.171875 -7.65625 C 11.484375 -8.039062 11.640625 -8.539062 11.640625 -9.15625 L 11.640625 -52.953125 C 11.640625 -53.566406 11.484375 -54.066406 11.171875 -54.453125 C 10.867188 -54.847656 10.410156 -55.109375 9.796875 -55.234375 L 3.5625 -56.4375 L 3.5625 -62.484375 L 51.640625 -62.484375 C 51.984375 -59.679688 52.164062 -56.859375 52.1875 -54.015625 C 52.21875 -51.179688 52.113281 -48.3125 51.875 -45.40625 Z M 51.875 -45.40625 "/></g></g></g></svg>