<svg xmlns="http://www.w3.org/2000/svg" xmlns:xlink="http://www.w3.org/1999/xlink" zoomAndPan="magnify" viewBox="188 275 1126 949" preserveAspectRatio="xMidYMid meet" version="1.0"><defs><g/><clipPath id="e081327e20"><path d="M 772 295.371094 L 1294 295.371094 L 1294 1204 L 772 1204 Z M 772 295.371094 " clip-rule="nonzero"/></clipPath><clipPath id="ccfc8982c9"><path d="M 208 295.371094 L 730 295.371094 L 730 1204 L 208 1204 Z M 208 295.371094 " clip-rule="nonzero"/></clipPath></defs><g clip-path="url(#e081327e20)"><path fill="currentColor" d="M 1292.777344 540.277344 C 1292.214844 509.503906 1277.683594 481.273438 1252.902344 462.839844 L 1241.027344 454.003906 L 1241.027344 392.976562 C 1241.027344 368.851562 1222.988281 348.105469 1199.074219 344.742188 C 1192.53125 343.820312 1185.96875 344.253906 1179.75 345.917969 L 1179.75 334.769531 C 1179.75 312.574219 1161.691406 294.523438 1139.496094 294.523438 L 1131.128906 294.523438 C 1113.195312 294.523438 1097.273438 306.578125 1092.390625 323.796875 L 1089.644531 333.503906 C 1087.816406 339.9375 1086.171875 346.441406 1084.691406 352.984375 C 1067.300781 348.085938 1047.5625 356.019531 1038.90625 371.617188 C 987.644531 463.816406 940.882812 678.652344 919.101562 789.59375 C 909.035156 759.070312 903.230469 733.445312 900.863281 709.15625 C 890.378906 601.324219 801.070312 562.46875 797.273438 560.863281 C 791.453125 558.402344 784.746094 559.179688 779.59375 562.902344 C 774.480469 566.625 771.679688 572.769531 772.238281 579.09375 C 778.761719 653.640625 788.578125 767.347656 788.832031 774.757812 C 788.832031 990.675781 955.902344 1188.722656 963.023438 1197.054688 C 966.496094 1201.117188 971.539062 1203.394531 976.761719 1203.394531 C 977.957031 1203.394531 979.167969 1203.269531 980.359375 1203.015625 L 1244.804688 1149.273438 C 1249.558594 1148.3125 1253.734375 1145.476562 1256.371094 1141.394531 C 1259.011719 1137.308594 1259.914062 1132.355469 1258.847656 1127.621094 L 1251.058594 1092.761719 C 1239.253906 1039.992188 1241.207031 982.453125 1256.699219 926.359375 C 1293.246094 794.058594 1294.078125 612.257812 1292.757812 540.222656 Z M 1221.882812 916.761719 C 1204.820312 978.550781 1202.707031 1042.144531 1215.8125 1100.675781 L 1219.589844 1117.554688 L 983.921875 1165.445312 C 953.066406 1126.429688 825 953.703125 825 774.773438 C 825 768.972656 816.722656 672.886719 811.425781 612.167969 C 833.042969 629.824219 859.941406 661.59375 864.910156 712.664062 C 867.621094 740.566406 874.292969 769.679688 885.898438 804.25 L 906.972656 867.03125 C 909.613281 874.875 917.257812 879.84375 925.480469 879.300781 C 933.742188 878.6875 940.503906 872.523438 941.929688 864.375 C 942.546875 860.832031 1004.34375 508.253906 1070.554688 389.199219 C 1071.605469 387.339844 1075.78125 387.789062 1076.847656 388.984375 C 1077.40625 389.597656 1078.039062 390.644531 1077.894531 392.144531 L 1077.242188 398.742188 C 1077.207031 399.15625 1077.171875 399.589844 1077.117188 400.023438 L 1048.035156 695.621094 C 1047.058594 705.542969 1054.324219 714.398438 1064.246094 715.375 C 1074.28125 716.457031 1083.027344 709.101562 1084.003906 699.164062 L 1113.214844 402.375 C 1115.238281 382.496094 1119.035156 362.652344 1124.492188 343.371094 L 1127.242188 333.664062 C 1127.730469 331.914062 1129.355469 330.683594 1131.179688 330.683594 L 1139.550781 330.683594 C 1141.808594 330.683594 1143.652344 332.527344 1143.652344 334.785156 L 1143.652344 647.949219 C 1143.652344 657.925781 1151.75 666.019531 1161.730469 666.019531 C 1171.707031 666.019531 1179.804688 657.925781 1179.804688 647.949219 L 1179.804688 392.996094 C 1179.804688 388.023438 1182.515625 384.917969 1184.125 383.523438 C 1185.75 382.117188 1189.148438 379.929688 1194.121094 380.5625 C 1200.285156 381.429688 1204.949219 386.777344 1204.949219 392.996094 L 1204.949219 641.515625 C 1204.949219 651.492188 1213.046875 659.585938 1223.023438 659.585938 C 1233 659.585938 1241.097656 651.492188 1241.097656 641.515625 L 1241.097656 500.773438 C 1250.859375 511.816406 1256.410156 525.910156 1256.679688 540.964844 C 1257.980469 611.40625 1257.222656 789.050781 1221.9375 916.78125 Z M 1221.882812 916.761719 " fill-opacity="1" fill-rule="nonzero"/></g><g clip-path="url(#ccfc8982c9)"><path fill="currentColor" d="M 524.949219 1203.394531 C 530.171875 1203.394531 535.214844 1201.117188 538.683594 1197.054688 C 545.804688 1188.722656 712.878906 990.675781 712.878906 775.046875 C 713.132812 767.347656 722.945312 653.640625 729.472656 579.09375 C 730.03125 572.769531 727.230469 566.644531 722.113281 562.902344 C 717 559.179688 710.3125 558.386719 704.4375 560.863281 C 700.640625 562.453125 611.3125 601.304688 600.847656 709.15625 C 598.476562 733.445312 592.675781 759.070312 582.609375 789.59375 C 560.808594 678.632812 514.066406 463.816406 462.804688 371.617188 C 454.144531 356.019531 434.371094 348.160156 417.019531 352.984375 C 415.535156 346.441406 413.875 339.9375 412.066406 333.484375 L 409.320312 323.796875 C 404.4375 306.558594 388.511719 294.503906 370.582031 294.503906 L 362.214844 294.503906 C 340.015625 294.503906 321.960938 312.558594 321.960938 334.75 L 321.960938 345.898438 C 315.742188 344.253906 309.164062 343.820312 302.617188 344.726562 C 278.703125 348.085938 260.683594 368.816406 260.683594 392.957031 L 260.683594 453.984375 L 248.808594 462.824219 C 224.027344 481.273438 209.511719 509.503906 208.933594 540.261719 C 207.597656 612.273438 208.445312 794.074219 244.996094 926.394531 C 260.484375 982.488281 262.4375 1040.027344 250.632812 1092.796875 L 242.84375 1127.660156 C 241.777344 1132.394531 242.679688 1137.34375 245.320312 1141.429688 C 247.957031 1145.511719 252.117188 1148.351562 256.886719 1149.308594 L 521.332031 1203.054688 C 522.523438 1203.304688 523.734375 1203.433594 524.929688 1203.433594 Z M 282.15625 1117.554688 L 285.933594 1100.675781 C 299.023438 1042.160156 296.925781 978.550781 279.863281 916.761719 C 244.578125 789.03125 243.800781 611.390625 245.121094 540.945312 C 245.390625 525.894531 250.960938 511.796875 260.703125 500.753906 L 260.703125 641.496094 C 260.703125 651.472656 268.800781 659.566406 278.777344 659.566406 C 288.753906 659.566406 296.851562 651.472656 296.851562 641.496094 L 296.851562 392.976562 C 296.851562 386.742188 301.5 381.394531 307.660156 380.542969 C 312.613281 379.910156 316.050781 382.097656 317.65625 383.507812 C 319.265625 384.917969 321.976562 388.007812 321.976562 392.976562 L 321.976562 647.929688 C 321.976562 657.90625 330.074219 666 340.054688 666 C 350.03125 666 358.128906 657.90625 358.128906 647.929688 L 358.128906 334.769531 C 358.128906 332.507812 359.972656 330.664062 362.230469 330.664062 L 370.601562 330.664062 C 372.425781 330.664062 374.035156 331.894531 374.542969 333.648438 L 377.289062 343.332031 C 382.746094 362.597656 386.527344 382.441406 388.566406 402.300781 L 417.777344 699.128906 C 418.753906 709.066406 427.574219 716.441406 437.535156 715.335938 C 447.476562 714.359375 454.742188 705.523438 453.75 695.585938 L 424.664062 399.96875 C 424.628906 399.554688 424.59375 399.140625 424.539062 398.722656 L 423.886719 392.109375 C 423.742188 390.609375 424.375 389.5625 424.9375 388.945312 C 426.003906 387.753906 430.175781 387.300781 431.226562 389.164062 C 497.417969 508.199219 559.238281 860.796875 559.851562 864.335938 C 561.277344 872.488281 568.039062 878.648438 576.300781 879.265625 C 584.414062 879.824219 592.171875 874.835938 594.808594 866.992188 L 615.886719 804.214844 C 627.488281 769.640625 634.160156 740.527344 636.871094 712.625 C 641.839844 661.539062 668.738281 629.769531 690.355469 612.128906 C 685.078125 672.832031 676.78125 768.917969 676.78125 774.738281 C 676.78125 953.664062 548.734375 1126.394531 517.863281 1165.410156 L 282.195312 1117.519531 Z M 282.15625 1117.554688 " fill-opacity="1" fill-rule="nonzero"/></g><path fill="currentColor" d="M 679.980469 506.015625 C 684.609375 506.015625 689.234375 504.242188 692.761719 500.71875 C 699.828125 493.652344 699.828125 482.230469 692.761719 475.167969 L 665.59375 448.003906 C 658.523438 440.9375 647.101562 440.9375 640.035156 448.003906 C 632.964844 455.070312 632.964844 466.492188 640.035156 473.558594 L 667.203125 500.71875 C 670.726562 504.242188 675.355469 506.015625 679.980469 506.015625 Z M 679.980469 506.015625 " fill-opacity="1" fill-rule="nonzero"/><path fill="currentColor" d="M 768.949219 468.28125 L 768.949219 429.878906 C 768.949219 419.902344 760.851562 411.808594 750.871094 411.808594 C 740.894531 411.808594 732.796875 419.902344 732.796875 429.878906 L 732.796875 468.28125 C 732.796875 478.257812 740.894531 486.351562 750.871094 486.351562 C 760.851562 486.351562 768.949219 478.257812 768.949219 468.28125 Z M 768.949219 468.28125 " fill-opacity="1" fill-rule="nonzero"/><path fill="currentColor" d="M 834.542969 500.71875 L 861.710938 473.558594 C 868.78125 466.492188 868.78125 455.070312 861.710938 448.003906 C 854.644531 440.9375 843.222656 440.9375 836.152344 448.003906 L 808.984375 475.167969 C 801.917969 482.230469 801.917969 493.652344 808.984375 500.71875 C 812.511719 504.242188 817.136719 506.015625 821.765625 506.015625 C 826.390625 506.015625 831.019531 504.242188 834.542969 500.71875 Z M 834.542969 500.71875 " fill-opacity="1" fill-rule="nonzero"/></svg>