<svg xmlns="http://www.w3.org/2000/svg" xmlns:xlink="http://www.w3.org/1999/xlink" zoomAndPan="magnify" viewBox="231 283 1058 941" preserveAspectRatio="xMidYMid meet" version="1.0"><defs><g/><clipPath id="d1dd6c6cb1"><path d="M 251 303 L 1269 303 L 1269 1204.371094 L 251 1204.371094 Z M 251 303 " clip-rule="nonzero"/></clipPath></defs><g clip-path="url(#d1dd6c6cb1)"><path fill="currentColor" d="M 506.90625 678.628906 L 566.839844 678.628906 C 579.058594 678.628906 588.949219 668.742188 588.949219 656.53125 L 588.949219 599.535156 L 645.972656 599.535156 C 658.191406 599.535156 668.085938 589.648438 668.085938 577.433594 L 668.085938 517.535156 C 668.085938 505.320312 658.191406 495.433594 645.972656 495.433594 L 588.949219 495.433594 L 588.949219 438.4375 C 588.949219 426.226562 579.058594 416.339844 566.839844 416.339844 L 506.90625 416.339844 C 494.683594 416.339844 484.792969 426.226562 484.792969 438.4375 L 484.792969 495.433594 L 427.769531 495.433594 C 415.550781 495.433594 405.65625 505.320312 405.65625 517.535156 L 405.65625 577.433594 C 405.65625 589.648438 415.550781 599.535156 427.769531 599.535156 L 484.792969 599.535156 L 484.792969 656.53125 C 484.792969 668.742188 494.683594 678.628906 506.90625 678.628906 Z M 428.933594 576.273438 L 428.933594 518.113281 L 496.429688 518.113281 C 502.832031 518.113281 508.066406 512.878906 508.066406 506.484375 L 508.066406 439.601562 L 565.675781 439.601562 L 565.675781 507.066406 C 565.675781 513.460938 570.910156 518.695312 577.3125 518.695312 L 644.808594 518.695312 L 644.808594 576.855469 L 577.3125 576.855469 C 570.910156 576.855469 565.675781 582.089844 565.675781 588.484375 L 565.675781 655.949219 L 508.066406 655.949219 L 508.066406 587.902344 C 508.066406 581.507812 502.832031 576.273438 496.429688 576.273438 Z M 913.054688 801.339844 C 913.636719 791.453125 911.894531 782.148438 907.238281 772.261719 C 904.910156 767.027344 902 762.375 897.925781 757.722656 C 856.03125 704.800781 763.511719 694.914062 695.433594 707.707031 C 666.339844 712.941406 632.589844 722.246094 625.027344 746.09375 C 617.460938 771.101562 643.644531 797.269531 664.59375 818.789062 C 669.25 823.441406 673.902344 828.09375 677.976562 832.746094 C 720.453125 879.273438 769.914062 926.378906 822.285156 894.976562 C 827.519531 891.484375 835.085938 893.230469 838.574219 899.046875 C 842.066406 904.28125 840.320312 911.839844 834.503906 915.328125 C 818.210938 925.214844 802.5 929.289062 787.371094 929.289062 C 734.417969 929.289062 688.449219 879.273438 661.101562 849.03125 C 657.613281 844.960938 652.957031 840.308594 648.300781 835.652344 C 624.445312 811.226562 591.277344 778.078125 602.914062 739.695312 C 615.132812 699.566406 668.667969 689.679688 691.359375 685.027344 C 768.75 670.488281 868.25 682.699219 916.546875 743.765625 C 921.203125 749.582031 925.277344 755.980469 928.183594 762.375 C 934.585938 775.171875 937.496094 789.710938 936.332031 803.085938 C 935.75 809.484375 929.929688 814.136719 923.53125 813.554688 C 917.128906 813.554688 912.476562 807.738281 913.054688 801.339844 Z M 995.683594 662.34375 C 999.175781 657.109375 1006.15625 655.367188 1011.394531 658.273438 C 1053.289062 683.28125 1093.4375 644.898438 1127.769531 607.097656 C 1131.261719 603.605469 1134.753906 599.535156 1138.824219 595.464844 C 1155.699219 578.597656 1176.648438 557.082031 1170.828125 537.308594 C 1165.011719 518.695312 1137.664062 511.71875 1114.386719 507.066406 C 1058.527344 496.597656 983.464844 505.320312 949.714844 548.355469 C 946.804688 551.847656 944.476562 555.917969 942.734375 559.988281 C 939.242188 567.546875 937.496094 575.109375 938.078125 582.667969 C 938.660156 589.066406 934.003906 594.882812 927.605469 595.464844 C 921.203125 596.046875 915.382812 591.394531 914.800781 584.996094 C 913.636719 573.363281 915.964844 561.152344 921.203125 550.101562 C 923.53125 544.867188 927.023438 539.050781 931.09375 534.398438 C 971.246094 483.800781 1054.453125 472.753906 1118.460938 484.964844 C 1137.664062 488.453125 1182.46875 496.597656 1192.941406 530.910156 C 1203.414062 564.058594 1175.484375 591.976562 1155.699219 612.328125 C 1151.628906 616.402344 1148.136719 619.890625 1145.226562 623.378906 C 1123.695312 646.644531 1084.710938 690.261719 1038.742188 690.261719 C 1025.941406 690.261719 1012.558594 686.769531 999.175781 678.628906 C 993.9375 674.558594 992.191406 667.578125 995.683594 662.34375 Z M 930.511719 717.59375 C 929.929688 723.410156 924.695312 727.480469 918.875 727.480469 C 918.292969 727.480469 917.710938 727.480469 917.128906 727.480469 C 910.730469 726.898438 906.074219 721.085938 907.238281 714.6875 C 916.546875 641.410156 969.5 601.28125 986.375 590.230469 C 1015.46875 562.316406 1048.632812 551.265625 1071.910156 546.03125 C 1078.308594 544.867188 1084.128906 548.9375 1085.875 555.335938 C 1087.039062 561.734375 1082.964844 567.546875 1076.566406 569.292969 C 1064.34375 571.621094 1048.632812 576.855469 1032.34375 585.578125 C 1038.742188 587.320312 1045.144531 590.8125 1050.960938 596.046875 C 1055.617188 600.117188 1056.78125 607.675781 1052.125 612.328125 C 1048.050781 616.984375 1040.488281 618.144531 1035.832031 613.492188 C 1020.121094 600.117188 1002.085938 608.257812 999.175781 609.421875 C 988.699219 616.984375 938.660156 652.457031 930.511719 717.59375 Z M 1009.648438 818.789062 C 1009.066406 793.199219 1023.613281 767.027344 1046.890625 751.90625 C 1067.835938 738.53125 1091.695312 736.785156 1112.058594 747.253906 C 1128.351562 755.398438 1138.824219 772.261719 1137.082031 788.546875 C 1135.917969 799.597656 1130.097656 808.902344 1120.207031 814.136719 C 1109.730469 819.953125 1097.511719 819.953125 1087.621094 814.71875 C 1081.800781 811.808594 1080.054688 804.832031 1082.964844 799.015625 C 1085.875 793.199219 1092.855469 790.875 1098.675781 794.363281 C 1102.167969 796.105469 1106.242188 796.105469 1109.148438 794.363281 C 1110.894531 793.199219 1113.804688 791.453125 1114.386719 786.800781 C 1114.96875 779.242188 1108.566406 771.679688 1102.167969 768.773438 C 1084.128906 760.050781 1068.417969 767.027344 1060.273438 772.261719 C 1043.980469 782.730469 1033.503906 801.339844 1034.085938 818.789062 C 1034.667969 842.632812 1053.289062 864.152344 1078.890625 871.128906 C 1113.222656 880.433594 1144.644531 861.242188 1179.558594 808.902344 C 1216.214844 754.234375 1238.910156 691.425781 1244.726562 627.449219 C 1252.875 540.796875 1225.527344 459.957031 1169.664062 406.453125 C 1164.429688 401.21875 1149.300781 387.261719 1127.1875 373.304688 C 1112.058594 363.417969 1070.746094 337.246094 1014.304688 330.265625 C 940.988281 320.960938 885.125 348.878906 857.777344 361.671875 C 825.191406 377.957031 795.515625 399.472656 769.914062 425.644531 C 767.585938 427.972656 764.675781 429.132812 761.769531 429.132812 C 758.859375 429.132812 755.367188 427.972656 753.621094 425.644531 C 736.164062 407.617188 698.34375 373.882812 641.320312 350.621094 C 597.675781 332.59375 551.710938 325.613281 509.230469 330.265625 C 456.28125 335.5 405.074219 361.089844 353.871094 407.035156 C 249.132812 500.085938 260.1875 654.785156 314.882812 759.46875 C 345.140625 817.042969 389.945312 861.242188 445.226562 913.585938 C 491.777344 957.785156 542.398438 998.496094 591.859375 1038.042969 C 608.734375 1051.417969 625.609375 1064.792969 641.902344 1078.753906 C 652.957031 1088.058594 667.503906 1100.269531 682.632812 1113.066406 C 710.5625 1136.328125 747.800781 1167.152344 762.347656 1178.78125 C 776.898438 1167.152344 814.71875 1135.746094 843.8125 1111.320312 C 858.359375 1099.105469 872.324219 1087.476562 883.378906 1078.75 C 908.984375 1058.398438 924.113281 1029.316406 925.277344 997.332031 C 925.859375 986.28125 925.277344 976.394531 924.113281 966.507812 C 913.636719 886.25 851.960938 842.632812 838.574219 833.910156 C 833.339844 831 822.863281 827.511719 810.0625 829.839844 C 803.082031 831 796.679688 834.492188 790.863281 839.144531 C 785.625 843.214844 778.640625 842.632812 774.570312 837.398438 C 770.496094 832.164062 771.078125 825.1875 776.316406 821.113281 C 784.460938 814.71875 793.769531 810.066406 803.664062 807.738281 C 782.132812 794.945312 760.605469 788.546875 744.3125 785.058594 C 737.910156 783.894531 733.835938 777.496094 735 771.097656 C 736.164062 764.703125 742.566406 760.632812 748.964844 761.792969 C 776.316406 767.609375 817.046875 780.984375 851.960938 814.71875 C 868.832031 825.765625 935.75 874.039062 947.386719 963.019531 C 949.132812 974.070312 949.132812 985.699219 948.550781 997.914062 C 946.804688 1036.296875 928.183594 1072.355469 897.925781 1096.199219 C 887.453125 1104.921875 873.488281 1116.554688 858.941406 1128.765625 C 768.167969 1204.371094 768.167969 1204.371094 762.347656 1204.371094 C 757.113281 1204.371094 757.113281 1204.371094 668.085938 1130.511719 C 652.957031 1117.71875 638.410156 1106.085938 627.351562 1096.78125 C 611.0625 1083.40625 594.1875 1070.027344 577.3125 1056.070312 C 527.851562 1016.523438 476.648438 975.230469 429.515625 930.449219 C 372.488281 876.945312 326.523438 831 294.519531 770.519531 C 235.75 658.273438 224.691406 491.363281 338.742188 390.167969 C 391.691406 338.992188 446.972656 312.238281 505.160156 305.839844 C 551.710938 301.1875 601.167969 308.75 648.300781 327.941406 C 700.089844 348.878906 736.746094 377.375 760.605469 400.054688 C 786.207031 375.628906 815.300781 355.273438 846.722656 339.570312 C 873.488281 326.195312 935.75 295.371094 1016.050781 305.839844 C 1078.308594 313.402344 1121.953125 341.898438 1138.824219 352.367188 C 1162.683594 367.488281 1178.976562 382.609375 1184.792969 388.425781 C 1245.308594 447.164062 1275.566406 534.398438 1266.839844 628.613281 C 1260.4375 696.65625 1236.582031 763.539062 1198.179688 821.113281 C 1171.992188 859.5 1131.261719 908.933594 1071.910156 893.230469 C 1035.832031 883.34375 1010.8125 853.101562 1009.648438 818.789062 Z M 1009.648438 818.789062 " fill-opacity="1" fill-rule="nonzero"/></g></svg>