<svg xmlns="http://www.w3.org/2000/svg" xmlns:xlink="http://www.w3.org/1999/xlink" width="2000" zoomAndPan="magnify" viewBox="0 0 1500 1499.999933" height="2000" preserveAspectRatio="xMidYMid meet" version="1.0"><defs><g/></defs><path fill="currentColor" d="M 993.773438 984.769531 C 990.832031 985.027344 921.289062 991.632812 880.722656 1038.25 C 839.824219 1085.246094 845.871094 1152.53125 846.15625 1155.371094 C 847.160156 1165.4375 856.414062 1173.0625 866.464844 1172.238281 C 869.40625 1171.980469 938.953125 1165.375 979.519531 1118.757812 C 1020.414062 1071.761719 1014.367188 1004.476562 1014.085938 1001.636719 C 1013.085938 991.394531 1004.042969 983.972656 993.773438 984.769531 Z M 951.210938 1094.132812 C 932.308594 1115.851562 903.230469 1126.277344 883.71875 1131.066406 C 885.191406 1112.140625 890.679688 1083.972656 909.03125 1062.875 C 927.929688 1041.15625 957.007812 1030.730469 976.523438 1025.9375 C 975.046875 1044.863281 969.558594 1073.035156 951.210938 1094.132812 Z M 951.210938 1094.132812 " fill-opacity="1" fill-rule="nonzero"/><path fill="currentColor" d="M 464.066406 609.46875 L 507.027344 609.46875 C 515.8125 595.601562 527.421875 581.667969 542.75 571.214844 C 570.851562 552.050781 605.792969 548.972656 627.890625 548.667969 C 621.148438 566.027344 608.734375 590.632812 588.453125 609.46875 L 637.890625 609.46875 C 662.535156 574.332031 670.875 537.765625 671.359375 535.5625 C 673.589844 525.382812 666.265625 514.691406 656.027344 513.03125 C 652.910156 512.546875 578.949219 501.097656 521.605469 540.214844 C 493.699219 559.246094 475.515625 586.3125 464.066406 609.46875 Z M 464.066406 609.46875 " fill-opacity="1" fill-rule="nonzero"/><path fill="currentColor" d="M 966.417969 355.632812 C 930.285156 339.085938 886.601562 346.175781 857.699219 373.210938 C 839.691406 390.054688 831.375 414.0625 831.25 438.28125 C 831.230469 444.574219 831.195312 451.085938 829.773438 452.917969 L 693.5 609.46875 L 743.230469 609.46875 L 858.652344 476.867188 C 868.664062 464.1875 868.730469 449.308594 868.773438 438.4375 C 868.835938 424.285156 872.695312 410.570312 883.332031 400.621094 C 900.976562 384.113281 928.726562 379.652344 950.804688 389.746094 C 971.777344 399.339844 985.738281 419.765625 986.378906 441.796875 C 986.753906 454.328125 982.476562 467.878906 974.9375 478.027344 C 968.667969 486.46875 960.355469 491.207031 950.328125 493.722656 C 938.601562 496.652344 920.886719 501.078125 911.191406 517 C 911.089844 517.164062 887.007812 556.78125 854.980469 609.46875 L 898.894531 609.46875 C 924.558594 567.25 942.90625 537.0625 943.222656 536.542969 C 946.621094 530.996094 957.144531 530.734375 962.851562 529.257812 C 979.929688 524.832031 994.128906 515.121094 1005.058594 500.398438 C 1017.648438 483.445312 1024.511719 461.675781 1023.886719 440.691406 C 1022.832031 404.503906 1000.277344 371.113281 966.417969 355.632812 Z M 966.417969 355.632812 " fill-opacity="1" fill-rule="nonzero"/><path fill="currentColor" d="M 1014.550781 665.753906 C 1014.550781 655.390625 1006.148438 646.992188 995.789062 646.992188 L 170.234375 646.992188 C 159.871094 646.992188 151.472656 655.390625 151.472656 665.753906 C 151.472656 831.125 242.484375 980.160156 389.003906 1054.722656 C 392.023438 1056.261719 393.898438 1059.15625 393.898438 1063.105469 C 393.898438 1102.632812 421.320312 1134.789062 455.027344 1134.789062 L 710.996094 1134.789062 C 744.703125 1134.789062 772.121094 1102.632812 772.121094 1062.269531 C 772.121094 1059.15625 774 1056.261719 777.023438 1054.722656 C 923.53125 980.171875 1014.550781 831.125 1014.550781 665.753906 Z M 976.59375 684.515625 C 976.015625 697.175781 974.648438 709.65625 972.921875 722.039062 L 193.101562 722.039062 C 191.375 709.65625 190.007812 697.175781 189.425781 684.515625 Z M 760.003906 1021.285156 C 744.335938 1029.253906 734.601562 1044.957031 734.601562 1063.105469 C 734.601562 1081.617188 723.789062 1097.265625 710.996094 1097.265625 L 455.027344 1097.265625 C 442.234375 1097.265625 431.421875 1081.617188 431.421875 1062.269531 C 431.421875 1044.957031 421.6875 1029.253906 406.023438 1021.285156 C 300.605469 967.640625 226.734375 871.71875 200.054688 759.558594 L 965.964844 759.558594 C 939.289062 871.71875 865.421875 967.640625 760.003906 1021.285156 Z M 760.003906 1021.285156 " fill-opacity="1" fill-rule="nonzero"/><path fill="currentColor" d="M 942.625 443.742188 C 942.625 444.355469 942.59375 444.96875 942.535156 445.582031 C 942.472656 446.191406 942.382812 446.800781 942.265625 447.402344 C 942.144531 448.003906 941.996094 448.597656 941.816406 449.1875 C 941.636719 449.773438 941.433594 450.351562 941.195312 450.917969 C 940.960938 451.488281 940.699219 452.042969 940.410156 452.582031 C 940.121094 453.125 939.804688 453.652344 939.460938 454.164062 C 939.121094 454.671875 938.753906 455.164062 938.367188 455.640625 C 937.976562 456.117188 937.5625 456.570312 937.128906 457.003906 C 936.695312 457.4375 936.238281 457.851562 935.765625 458.238281 C 935.289062 458.628906 934.796875 458.996094 934.285156 459.335938 C 933.773438 459.679688 933.25 459.992188 932.707031 460.28125 C 932.164062 460.570312 931.609375 460.835938 931.042969 461.070312 C 930.476562 461.304688 929.898438 461.511719 929.308594 461.691406 C 928.722656 461.867188 928.125 462.015625 927.523438 462.136719 C 926.921875 462.257812 926.3125 462.347656 925.703125 462.40625 C 925.089844 462.46875 924.476562 462.496094 923.863281 462.496094 C 923.246094 462.496094 922.636719 462.46875 922.023438 462.40625 C 921.410156 462.347656 920.804688 462.257812 920.203125 462.136719 C 919.597656 462.015625 919.003906 461.867188 918.414062 461.691406 C 917.828125 461.511719 917.25 461.304688 916.683594 461.070312 C 916.113281 460.835938 915.558594 460.570312 915.019531 460.28125 C 914.476562 459.992188 913.949219 459.675781 913.4375 459.335938 C 912.925781 458.996094 912.433594 458.628906 911.960938 458.238281 C 911.484375 457.851562 911.03125 457.4375 910.59375 457.003906 C 910.160156 456.570312 909.75 456.117188 909.359375 455.640625 C 908.96875 455.164062 908.601562 454.671875 908.261719 454.164062 C 907.921875 453.652344 907.605469 453.125 907.316406 452.582031 C 907.027344 452.042969 906.761719 451.488281 906.527344 450.917969 C 906.292969 450.351562 906.085938 449.773438 905.90625 449.1875 C 905.730469 448.597656 905.578125 448.003906 905.460938 447.402344 C 905.339844 446.800781 905.25 446.191406 905.191406 445.582031 C 905.128906 444.96875 905.101562 444.355469 905.101562 443.742188 C 905.101562 443.128906 905.128906 442.515625 905.191406 441.90625 C 905.25 441.292969 905.339844 440.6875 905.460938 440.085938 C 905.578125 439.480469 905.730469 438.886719 905.90625 438.300781 C 906.085938 437.710938 906.292969 437.132812 906.527344 436.566406 C 906.761719 436 907.027344 435.445312 907.316406 434.902344 C 907.605469 434.359375 907.921875 433.835938 908.261719 433.324219 C 908.601562 432.8125 908.96875 432.320312 909.359375 431.84375 C 909.75 431.371094 910.160156 430.917969 910.59375 430.480469 C 911.03125 430.046875 911.484375 429.636719 911.960938 429.246094 C 912.433594 428.855469 912.925781 428.492188 913.4375 428.148438 C 913.949219 427.808594 914.476562 427.492188 915.019531 427.203125 C 915.558594 426.914062 916.113281 426.652344 916.683594 426.417969 C 917.25 426.179688 917.828125 425.976562 918.414062 425.796875 C 919.003906 425.617188 919.597656 425.46875 920.203125 425.347656 C 920.804688 425.230469 921.410156 425.140625 922.023438 425.078125 C 922.636719 425.019531 923.246094 424.988281 923.863281 424.988281 C 924.476562 424.988281 925.089844 425.019531 925.703125 425.078125 C 926.3125 425.140625 926.921875 425.230469 927.523438 425.347656 C 928.125 425.46875 928.722656 425.617188 929.308594 425.796875 C 929.898438 425.976562 930.476562 426.179688 931.042969 426.417969 C 931.609375 426.652344 932.164062 426.914062 932.707031 427.203125 C 933.25 427.492188 933.773438 427.808594 934.285156 428.148438 C 934.796875 428.492188 935.289062 428.855469 935.765625 429.246094 C 936.238281 429.636719 936.695312 430.046875 937.128906 430.480469 C 937.5625 430.917969 937.976562 431.371094 938.367188 431.84375 C 938.753906 432.320312 939.121094 432.8125 939.460938 433.324219 C 939.804688 433.835938 940.121094 434.359375 940.410156 434.902344 C 940.699219 435.445312 940.960938 436 941.195312 436.566406 C 941.433594 437.132812 941.636719 437.710938 941.816406 438.300781 C 941.996094 438.886719 942.144531 439.480469 942.265625 440.085938 C 942.382812 440.6875 942.472656 441.292969 942.535156 441.90625 C 942.59375 442.515625 942.625 443.128906 942.625 443.742188 Z M 942.625 443.742188 " fill-opacity="1" fill-rule="nonzero"/><path fill="currentColor" d="M 1295.992188 668.222656 L 1295.992188 609.46875 C 1295.992188 588.773438 1279.160156 571.945312 1258.464844 571.945312 L 1258.464844 440.617188 C 1258.464844 409.578125 1233.214844 384.332031 1202.175781 384.332031 C 1171.136719 384.332031 1145.890625 409.578125 1145.890625 440.617188 L 1145.890625 571.945312 C 1125.195312 571.945312 1108.363281 588.773438 1108.363281 609.46875 L 1108.363281 668.222656 C 1076.046875 676.585938 1052.078125 705.90625 1052.078125 740.796875 L 1052.078125 1059.742188 C 1052.078125 1090.777344 1077.324219 1116.027344 1108.363281 1116.027344 L 1295.992188 1116.027344 C 1327.027344 1116.027344 1352.277344 1090.777344 1352.277344 1059.742188 L 1352.277344 740.796875 C 1352.277344 705.90625 1328.304688 676.585938 1295.992188 668.222656 Z M 1183.414062 440.617188 C 1183.414062 430.273438 1191.835938 421.855469 1202.175781 421.855469 C 1212.519531 421.855469 1220.941406 430.273438 1220.941406 440.617188 L 1220.941406 571.945312 L 1183.414062 571.945312 Z M 1258.464844 609.46875 L 1258.464844 665.753906 L 1145.890625 665.753906 L 1145.890625 609.46875 Z M 1314.753906 1059.742188 C 1314.753906 1070.085938 1306.332031 1078.503906 1295.992188 1078.503906 L 1108.363281 1078.503906 C 1098.019531 1078.503906 1089.601562 1070.085938 1089.601562 1059.742188 L 1089.601562 740.796875 C 1089.601562 720.105469 1106.429688 703.277344 1127.125 703.277344 L 1277.226562 703.277344 C 1297.921875 703.277344 1314.753906 720.105469 1314.753906 740.796875 Z M 1314.753906 1059.742188 " fill-opacity="1" fill-rule="nonzero"/><path fill="currentColor" d="M 1202.175781 797.082031 C 1195.433594 797.082031 1189.203125 800.703125 1185.871094 806.5625 C 1174.289062 826.917969 1136.507812 895.425781 1136.507812 922.355469 C 1136.507812 956.730469 1165.972656 984.695312 1202.175781 984.695312 C 1238.382812 984.695312 1267.847656 956.730469 1267.847656 922.355469 C 1267.847656 895.425781 1230.066406 826.917969 1218.484375 806.5625 C 1215.148438 800.703125 1208.921875 797.082031 1202.175781 797.082031 Z M 1202.175781 947.175781 C 1186.65625 947.175781 1174.035156 936.042969 1174.035156 922.355469 C 1174.0625 913.808594 1186.8125 884.972656 1202.175781 855.226562 C 1217.542969 884.972656 1230.292969 913.808594 1230.320312 922.355469 C 1230.320312 936.042969 1217.695312 947.175781 1202.175781 947.175781 Z M 1202.175781 947.175781 " fill-opacity="1" fill-rule="nonzero"/><path fill="currentColor" d="M 441.6875 911.832031 C 383.792969 881.199219 356.183594 826.820312 355.910156 826.277344 C 351.320312 817.007812 340.058594 813.167969 330.8125 817.777344 C 321.511719 822.347656 317.6875 833.597656 322.261719 842.894531 C 323.574219 845.554688 355.164062 908.503906 424.132812 944.992188 C 433.015625 949.691406 444.6875 946.277344 449.492188 937.1875 C 454.339844 928.027344 450.84375 916.675781 441.6875 911.832031 Z M 441.6875 911.832031 " fill-opacity="1" fill-rule="nonzero"/><path fill="currentColor" d="M 424.257812 511.664062 C 423.832031 506.804688 423.53125 501.898438 423.53125 496.902344 C 423.53125 447.761719 445.722656 403.863281 461.085938 379.359375 C 476.449219 403.789062 498.578125 447.542969 498.578125 496.902344 C 498.578125 501.738281 498.207031 506.476562 497.804688 511.195312 C 498.714844 510.550781 499.539062 509.84375 500.46875 509.214844 C 511.964844 501.371094 523.902344 495.300781 535.847656 490.441406 C 533.121094 404.832031 477.855469 337.648438 475.4375 334.761719 C 468.308594 326.242188 453.796875 326.242188 446.671875 334.761719 C 444.25 337.652344 388.863281 404.980469 386.25 490.722656 C 397.972656 495.542969 409.683594 501.515625 420.96875 509.214844 C 422.113281 509.996094 423.136719 510.863281 424.257812 511.664062 Z M 424.257812 511.664062 " fill-opacity="1" fill-rule="nonzero"/><path fill="currentColor" d="M 283.539062 609.46875 L 332.972656 609.46875 C 312.660156 590.605469 300.238281 565.960938 293.507812 548.605469 C 315.914062 548.742188 350.402344 551.921875 378.675781 571.214844 C 393.941406 581.621094 405.417969 595.5625 414.195312 609.46875 L 422.84375 609.46875 C 426.824219 599.875 431.902344 589.183594 438.3125 578.082031 C 428.195312 564.332031 415.601562 550.976562 399.820312 540.214844 C 342.488281 501.097656 268.507812 512.539062 265.394531 513.03125 C 254.921875 514.699219 247.800781 525.21875 250.0625 535.558594 C 250.539062 537.730469 258.878906 574.316406 283.539062 609.46875 Z M 283.539062 609.46875 " fill-opacity="1" fill-rule="nonzero"/></svg>