<svg xmlns="http://www.w3.org/2000/svg" xmlns:xlink="http://www.w3.org/1999/xlink" width="2000" zoomAndPan="magnify" viewBox="0 0 1500 1499.999933" height="2000" preserveAspectRatio="xMidYMid meet" version="1.0"><defs><g/><clipPath id="ed3aca64f8"><path d="M 296.320312 295.371094 L 1202 295.371094 L 1202 1204 L 296.320312 1204 Z M 296.320312 295.371094 " clip-rule="nonzero"/></clipPath></defs><g clip-path="url(#ed3aca64f8)"><path fill="currentColor" d="M 527.5625 788.214844 C 519.960938 788.214844 513.847656 782.105469 513.847656 774.507812 C 513.847656 766.96875 519.960938 760.800781 527.5625 760.800781 L 606.414062 760.800781 C 614.015625 760.800781 620.125 766.96875 620.125 774.507812 C 620.125 782.105469 614.015625 788.214844 606.414062 788.214844 Z M 598.027344 833 C 605.628906 833 611.742188 839.109375 611.742188 846.648438 C 611.742188 854.246094 605.628906 860.355469 598.027344 860.355469 L 527.5625 860.355469 C 519.960938 860.355469 513.847656 854.246094 513.847656 846.648438 C 513.847656 839.109375 519.960938 833 527.5625 833 Z M 651.84375 788.214844 C 644.28125 788.214844 638.1875 782.105469 638.1875 774.507812 C 638.1875 766.96875 644.300781 760.800781 651.84375 760.800781 L 792.835938 760.800781 C 800.4375 760.800781 806.546875 766.96875 806.546875 774.507812 C 806.546875 782.105469 800.4375 788.214844 792.835938 788.214844 Z M 866.359375 1099.492188 C 862.578125 1092.949219 864.808594 1084.550781 871.351562 1080.789062 C 877.898438 1077.011719 886.242188 1079.242188 890.003906 1085.785156 L 908.988281 1118.640625 C 912.828125 1125.183594 910.59375 1133.582031 904.050781 1137.34375 C 897.507812 1141.121094 889.101562 1138.890625 885.339844 1132.347656 Z M 1036.792969 1017.617188 L 1029.410156 1004.519531 C 1011.914062 972.480469 985.253906 970.660156 947.285156 995.136719 C 902.699219 1023.84375 844.554688 1084.902344 770.464844 1173.257812 C 769.347656 1175.527344 772.1875 1176.253906 772.636719 1176.253906 C 884.929688 1156.554688 966.171875 1137.011719 1013.421875 1113.199219 C 1053.898438 1092.714844 1066.511719 1069.175781 1049.136719 1038.589844 Z M 1047.960938 973.929688 C 1057.738281 957.285156 1070.726562 944.125 1086.105469 934.902344 C 1088.160156 919.746094 1085.652344 904.375 1079.777344 889.882812 C 1052.722656 910.992188 1040.671875 940.972656 1047.960938 973.929688 Z M 1114.15625 923.253906 C 1132.53125 918.53125 1155.746094 918.316406 1177.140625 924.25 C 1184.410156 926.25 1188.640625 933.808594 1186.640625 941.070312 C 1180.429688 963.21875 1169.929688 981.703125 1156.101562 995.804688 C 1173.984375 1006.359375 1188.699219 1021.945312 1199.804688 1040.765625 C 1203.683594 1047.304688 1201.472656 1055.746094 1194.691406 1059.640625 C 1166.972656 1075.25 1138.429688 1079.96875 1112.121094 1074.582031 C 1102.953125 1072.742188 1094.078125 1069.648438 1085.632812 1065.359375 C 1086.300781 1093.949219 1065.925781 1117.308594 1025.765625 1137.636719 C 975.28125 1163.054688 890.769531 1183.4375 774.539062 1203.804688 C 770.484375 1204.46875 765.546875 1202.921875 761.765625 1201.355469 C 746.269531 1194.972656 739.273438 1179.933594 744.78125 1163.777344 C 735.21875 1162.449219 726.167969 1159.511719 717.628906 1155.222656 L 347.09375 1155.222656 C 319.335938 1155.222656 296.609375 1132.527344 296.609375 1104.757812 L 296.609375 476.644531 C 296.609375 448.894531 319.316406 426.179688 347.09375 426.179688 L 419.226562 426.179688 L 419.226562 409.242188 C 419.226562 387.585938 436.878906 369.941406 458.542969 369.941406 L 515.808594 369.941406 C 522.46875 327.429688 559.296875 295.390625 603.101562 295.390625 C 646.867188 295.390625 683.675781 327.429688 690.339844 369.941406 L 747.601562 369.941406 C 769.269531 369.941406 786.976562 387.585938 786.976562 409.242188 L 786.976562 426.179688 L 859.050781 426.179688 C 886.808594 426.179688 909.535156 448.875 909.535156 476.644531 L 909.535156 826.066406 C 964.839844 839.441406 988.289062 895.71875 992.714844 949.296875 C 1001.980469 949.023438 1010.542969 950.804688 1018.535156 954.621094 C 1018.8125 914.207031 1040.871094 880.523438 1077.796875 858.140625 C 1084.691406 853.929688 1093.292969 856.203125 1097.113281 862.976562 C 1107.769531 882.011719 1113.921875 902.4375 1114.15625 923.253906 Z M 1131.925781 1014.230469 C 1116.273438 1022.945312 1098.386719 1027.605469 1079.050781 1027.78125 C 1103.988281 1050.59375 1135.960938 1055.136719 1167.796875 1042.273438 C 1158.136719 1029.953125 1146.070312 1020.066406 1131.925781 1014.230469 Z M 1065.671875 999.640625 C 1106.261719 1004.578125 1139.410156 985.484375 1155.355469 947.847656 C 1114.824219 942.914062 1081.65625 962.003906 1065.671875 999.640625 Z M 933.457031 1078.519531 C 929.675781 1071.976562 931.945312 1063.636719 938.507812 1059.875 C 945.011719 1056.097656 953.398438 1058.367188 957.121094 1064.929688 L 981.394531 1106.894531 C 985.171875 1113.394531 982.902344 1121.773438 976.339844 1125.496094 C 969.796875 1129.273438 961.449219 1127.003906 957.726562 1120.503906 Z M 968.542969 1015.347656 C 964.761719 1008.804688 966.992188 1000.40625 973.535156 996.644531 C 980.082031 992.867188 988.425781 995.097656 992.1875 1001.640625 L 1011.230469 1034.496094 C 1015.011719 1041.039062 1012.777344 1049.4375 1006.234375 1053.199219 C 999.691406 1056.976562 991.285156 1054.746094 987.523438 1048.207031 Z M 765.683594 1136.460938 C 835.03125 1055.039062 908.242188 976.164062 965.757812 954.957031 C 963.371094 920.039062 951.988281 880.015625 923.050781 861.195312 C 893.511719 841.988281 855.035156 851.757812 823.257812 866.796875 C 821.59375 879.839844 821.417969 893.15625 822.808594 906.488281 C 832.25 904.648438 841.242188 900.554688 849.078125 894.230469 C 854.917969 889.453125 863.515625 890.355469 868.296875 896.171875 C 873.078125 902.042969 872.175781 910.660156 866.300781 915.4375 C 834.09375 941.640625 788.113281 941.640625 755.90625 915.4375 C 750.070312 910.660156 749.1875 902.0625 753.910156 896.171875 C 758.6875 890.335938 767.289062 889.453125 773.1875 894.230469 C 779.789062 899.617188 787.351562 903.394531 795.226562 905.550781 C 794.167969 892.957031 794.285156 880.347656 795.558594 867.972656 C 748.128906 844.765625 714.707031 846.492188 692.945312 862.703125 C 669.394531 880.191406 657.894531 914.890625 656.171875 953.957031 C 654.449219 994.707031 663.5 1039.433594 680.933594 1074.972656 C 700.269531 1114.214844 729.8125 1141.574219 765.683594 1136.460938 Z M 800.457031 840.105469 C 810.289062 800.746094 831.878906 764.734375 863.085938 737.359375 C 868.628906 732.523438 877.074219 732.972656 882.070312 738.359375 L 882.070312 476.644531 C 882.070312 463.992188 871.6875 453.613281 859.03125 453.613281 L 786.957031 453.613281 L 786.957031 461.449219 C 786.957031 483.046875 769.25 500.75 747.582031 500.75 L 458.542969 500.75 C 436.878906 500.75 419.226562 483.105469 419.226562 461.449219 L 419.226562 453.613281 L 347.09375 453.613281 C 334.4375 453.613281 324.054688 463.992188 324.054688 476.644531 L 324.054688 1104.777344 C 324.054688 1117.429688 334.4375 1127.804688 347.09375 1127.804688 L 683.167969 1127.804688 C 672.941406 1116.214844 663.949219 1102.332031 656.40625 1086.957031 C 637.03125 1047.5 626.925781 997.820312 628.863281 952.800781 C 630.921875 906.058594 645.847656 863.664062 676.625 840.734375 C 705.109375 819.507812 745.855469 815.355469 800.457031 840.105469 Z M 882.089844 757.019531 C 881.757812 757.351562 881.480469 757.625 881.089844 757.960938 C 857.425781 778.65625 840.222656 805.09375 830.664062 834.054688 C 849.492188 827.007812 866.59375 823.617188 882.089844 823.226562 Z M 527.5625 987.8125 C 519.960938 987.8125 513.847656 981.644531 513.847656 974.105469 C 513.847656 966.566406 519.960938 960.398438 527.5625 960.398438 L 572.207031 960.398438 C 579.769531 960.398438 585.921875 966.566406 585.921875 974.105469 C 585.921875 981.664062 579.75 987.8125 572.207031 987.8125 Z M 607.648438 1032.558594 C 615.1875 1032.558594 621.300781 1038.726562 621.300781 1046.265625 C 621.300781 1053.863281 615.1875 1059.972656 607.648438 1059.972656 L 527.5625 1059.972656 C 519.960938 1059.972656 513.847656 1053.863281 513.847656 1046.265625 C 513.847656 1038.707031 519.960938 1032.558594 527.5625 1032.558594 Z M 527.5625 588.59375 C 519.960938 588.59375 513.847656 582.484375 513.847656 574.886719 C 513.847656 567.347656 519.960938 561.179688 527.5625 561.179688 L 606.414062 561.179688 C 614.015625 561.179688 620.125 567.347656 620.125 574.886719 C 620.125 582.484375 614.015625 588.59375 606.414062 588.59375 Z M 668.554688 633.398438 C 676.117188 633.398438 682.207031 639.507812 682.207031 647.105469 C 682.207031 654.664062 676.097656 660.753906 668.554688 660.753906 L 527.5625 660.753906 C 519.960938 660.753906 513.847656 654.644531 513.847656 647.105469 C 513.847656 639.507812 519.960938 633.398438 527.5625 633.398438 Z M 792.835938 633.398438 C 800.4375 633.398438 806.546875 639.507812 806.546875 647.105469 C 806.546875 654.664062 800.4375 660.753906 792.835938 660.753906 L 713.984375 660.753906 C 706.382812 660.753906 700.269531 654.644531 700.269531 647.105469 C 700.269531 639.507812 706.382812 633.398438 713.984375 633.398438 Z M 651.84375 588.59375 C 644.28125 588.59375 638.1875 582.484375 638.1875 574.886719 C 638.1875 567.347656 644.300781 561.179688 651.84375 561.179688 L 792.835938 561.179688 C 800.4375 561.179688 806.546875 567.347656 806.546875 574.886719 C 806.546875 582.484375 800.4375 588.59375 792.835938 588.59375 Z M 372.796875 944.125 L 477.527344 944.125 C 485.128906 944.125 491.242188 950.296875 491.242188 957.835938 L 491.242188 1062.578125 C 491.242188 1070.136719 485.128906 1076.285156 477.527344 1076.285156 L 372.796875 1076.285156 C 365.195312 1076.285156 359.082031 1070.117188 359.082031 1062.578125 L 359.082031 957.835938 C 359.082031 950.296875 365.195312 944.125 372.796875 944.125 Z M 463.8125 971.542969 L 386.511719 971.542969 L 386.511719 1048.871094 L 463.8125 1048.871094 Z M 372.796875 744.527344 L 477.527344 744.527344 C 485.128906 744.527344 491.242188 750.695312 491.242188 758.234375 L 491.242188 862.976562 C 491.242188 870.519531 485.128906 876.6875 477.527344 876.6875 L 372.796875 876.6875 C 365.195312 876.6875 359.082031 870.519531 359.082031 862.976562 L 359.082031 758.234375 C 359.082031 750.675781 365.195312 744.527344 372.796875 744.527344 Z M 463.8125 771.941406 L 386.511719 771.941406 L 386.511719 849.269531 L 463.8125 849.269531 Z M 372.796875 544.90625 L 477.527344 544.90625 C 485.128906 544.90625 491.242188 551.074219 491.242188 558.613281 L 491.242188 663.359375 C 491.242188 670.898438 485.128906 677.066406 477.527344 677.066406 L 372.796875 677.066406 C 365.195312 677.066406 359.082031 670.898438 359.082031 663.359375 L 359.082031 558.613281 C 359.082031 551.074219 365.195312 544.90625 372.796875 544.90625 Z M 463.8125 572.339844 L 386.511719 572.339844 L 386.511719 649.671875 L 463.8125 649.671875 Z M 528.460938 397.375 L 458.542969 397.375 C 452 397.375 446.613281 402.761719 446.613281 409.261719 L 446.613281 461.449219 C 446.613281 467.949219 452 473.335938 458.542969 473.335938 L 747.582031 473.335938 C 754.125 473.335938 759.511719 467.949219 759.511719 461.449219 L 759.511719 409.261719 C 759.511719 402.761719 754.125 397.375 747.582031 397.375 L 677.664062 397.375 C 670.101562 397.375 663.949219 391.207031 663.949219 383.667969 C 663.949219 350.027344 636.679688 322.769531 603.082031 322.769531 C 569.425781 322.769531 542.15625 350.027344 542.15625 383.667969 C 542.175781 391.207031 536.0625 397.375 528.460938 397.375 Z M 528.460938 397.375 " fill-opacity="1" fill-rule="nonzero"/></g></svg>