<svg xmlns="http://www.w3.org/2000/svg" xmlns:xlink="http://www.w3.org/1999/xlink" zoomAndPan="magnify" viewBox="324 286 851 938" preserveAspectRatio="xMidYMid meet" version="1.0"><defs><g/><clipPath id="2aff8fb71f"><path d="M 344.246094 306 L 1155.746094 306 L 1155.746094 1204 L 344.246094 1204 Z M 344.246094 306 " clip-rule="nonzero"/></clipPath></defs><g clip-path="url(#2aff8fb71f)"><path fill="currentColor" d="M 1043.300781 517.636719 C 1112.871094 590.464844 1155.621094 689.117188 1155.621094 797.671875 C 1155.621094 1021.535156 973.824219 1203.285156 749.898438 1203.285156 C 525.972656 1203.285156 344.175781 1021.535156 344.175781 797.671875 C 344.175781 711.023438 371.40625 630.6875 417.777344 564.753906 C 455.226562 511.507812 505.15625 467.660156 563.300781 437.46875 C 584.511719 426.457031 606.820312 417.261719 630.011719 410.089844 C 637.203125 407.863281 644.847656 411.894531 647.070312 419.085938 C 649.296875 426.277344 645.261719 433.917969 638.070312 436.140625 C 616.449219 442.828125 595.648438 451.402344 575.871094 461.667969 C 521.621094 489.835938 475.03125 530.757812 440.09375 580.4375 C 396.847656 641.933594 371.453125 716.859375 371.453125 797.671875 C 371.453125 797.886719 371.453125 798.105469 371.453125 798.324219 L 1128.34375 798.324219 C 1128.34375 798.105469 1128.34375 797.886719 1128.34375 797.671875 C 1128.34375 697.78125 1089.535156 606.878906 1026.1875 539.226562 C 964.828125 567.316406 890.8125 564.304688 830.230469 524.644531 C 766.472656 482.910156 733.925781 411.335938 739.074219 340.300781 C 739.417969 335.585938 742.171875 331.386719 746.363281 329.199219 C 809.464844 296.246094 888.078125 297.402344 951.820312 339.128906 C 1013.828125 379.722656 1046.183594 448.609375 1043.300781 517.636719 Z M 372.46875 825.59375 C 374.136719 848.410156 377.832031 870.671875 383.378906 892.191406 C 401.269531 895.808594 420.710938 894.414062 437.382812 887.957031 L 474.519531 873.566406 C 502.003906 862.917969 535.359375 862.917969 562.84375 873.566406 L 599.984375 887.957031 C 621.335938 896.226562 647.246094 896.226562 668.59375 887.957031 L 705.734375 873.566406 C 733.222656 862.917969 766.574219 862.917969 794.058594 873.566406 L 831.199219 887.957031 C 852.550781 896.226562 878.460938 896.226562 899.808594 887.957031 L 936.949219 873.566406 C 964.433594 862.917969 997.789062 862.917969 1025.273438 873.566406 L 1062.414062 887.957031 C 1079.082031 894.414062 1098.523438 895.808594 1116.417969 892.191406 C 1121.960938 870.671875 1125.65625 848.410156 1127.324219 825.59375 Z M 392.015625 920.910156 C 443.195312 1069.296875 584.179688 1176.015625 749.898438 1176.015625 C 915.617188 1176.015625 1056.597656 1069.296875 1107.78125 920.910156 C 1088.984375 922.519531 1069.636719 920 1052.558594 913.382812 L 1015.417969 898.992188 C 994.066406 890.722656 968.15625 890.722656 946.804688 898.992188 L 909.667969 913.382812 C 882.179688 924.03125 848.828125 924.03125 821.34375 913.382812 L 784.203125 898.992188 C 762.851562 890.722656 736.941406 890.722656 715.59375 898.992188 L 678.453125 913.382812 C 650.964844 924.03125 617.613281 924.03125 590.128906 913.382812 L 552.988281 898.992188 C 531.636719 890.722656 505.726562 890.722656 484.375 898.992188 L 447.234375 913.382812 C 430.15625 920 410.808594 922.519531 392.015625 920.910156 Z M 1015.261719 490.941406 C 1010.015625 440.179688 982.882812 392.0625 936.878906 361.945312 C 883.988281 327.320312 819.277344 324.980469 765.894531 349.957031 C 764.21875 408.871094 792.289062 467.214844 845.171875 501.832031 C 894.496094 534.121094 954.101562 538.332031 1005.214844 518.496094 C 970.746094 486.96875 930.433594 461.730469 886.097656 444.605469 C 879.074219 441.894531 875.578125 433.992188 878.289062 426.972656 C 881.003906 419.953125 888.90625 416.457031 895.929688 419.167969 C 939.917969 436.160156 980.214844 460.601562 1015.261719 490.941406 Z M 634.042969 980.136719 C 626.515625 980.136719 620.402344 974.023438 620.402344 966.5 C 620.402344 958.972656 626.515625 952.867188 634.042969 952.867188 L 700.683594 952.867188 C 708.210938 952.867188 714.324219 958.972656 714.324219 966.5 C 714.324219 974.023438 708.210938 980.136719 700.683594 980.136719 Z M 823.796875 1103.328125 C 816.269531 1103.328125 810.15625 1097.21875 810.15625 1089.695312 C 810.15625 1082.167969 816.269531 1076.058594 823.796875 1076.058594 L 882.222656 1076.058594 C 889.75 1076.058594 895.859375 1082.167969 895.859375 1089.695312 C 895.859375 1097.21875 889.75 1103.328125 882.222656 1103.328125 Z M 706.765625 1155.433594 C 699.238281 1155.433594 693.128906 1149.320312 693.128906 1141.796875 C 693.128906 1134.269531 699.238281 1128.164062 706.765625 1128.164062 L 757.886719 1128.164062 C 765.417969 1128.164062 771.527344 1134.269531 771.527344 1141.796875 C 771.527344 1149.320312 765.417969 1155.433594 757.886719 1155.433594 Z M 539.777344 1031.292969 C 532.25 1031.292969 526.136719 1025.183594 526.136719 1017.660156 C 526.136719 1010.132812 532.25 1004.023438 539.777344 1004.023438 L 579.03125 1004.023438 C 586.558594 1004.023438 592.667969 1010.132812 592.667969 1017.660156 C 592.667969 1025.183594 586.558594 1031.292969 579.03125 1031.292969 Z M 890.269531 1031.292969 C 882.742188 1031.292969 876.632812 1025.183594 876.632812 1017.660156 C 876.632812 1010.132812 882.742188 1004.023438 890.269531 1004.023438 L 957.828125 1004.023438 C 965.351562 1004.023438 971.464844 1010.132812 971.464844 1017.660156 C 971.464844 1025.183594 965.351562 1031.292969 957.828125 1031.292969 Z M 479.40625 962.671875 C 471.878906 962.671875 465.769531 956.5625 465.769531 949.039062 C 465.769531 941.511719 471.878906 935.402344 479.40625 935.402344 L 518.660156 935.402344 C 526.1875 935.402344 532.300781 941.511719 532.300781 949.039062 C 532.300781 956.5625 526.1875 962.671875 518.660156 962.671875 Z M 700.683594 1062.375 C 693.15625 1062.375 687.046875 1056.261719 687.046875 1048.738281 C 687.046875 1041.210938 693.15625 1035.105469 700.683594 1035.105469 L 739.9375 1035.105469 C 747.46875 1035.105469 753.578125 1041.210938 753.578125 1048.738281 C 753.578125 1056.261719 747.46875 1062.375 739.9375 1062.375 Z M 987.554688 962.671875 C 980.027344 962.671875 973.914062 956.5625 973.914062 949.039062 C 973.914062 941.511719 980.027344 935.402344 987.554688 935.402344 L 1026.8125 935.402344 C 1034.335938 935.402344 1040.449219 941.511719 1040.449219 949.039062 C 1040.449219 956.5625 1034.335938 962.671875 1026.8125 962.671875 Z M 583.441406 1103.328125 C 575.917969 1103.328125 569.804688 1097.21875 569.804688 1089.695312 C 569.804688 1082.167969 575.917969 1076.058594 583.441406 1076.058594 L 652.34375 1076.058594 C 659.871094 1076.058594 665.984375 1082.167969 665.984375 1089.695312 C 665.984375 1097.21875 659.871094 1103.328125 652.34375 1103.328125 Z M 791.949219 991.660156 C 784.425781 991.660156 778.3125 985.550781 778.3125 978.027344 C 778.3125 970.5 784.425781 964.390625 791.949219 964.390625 L 836.683594 964.390625 C 844.210938 964.390625 850.324219 970.5 850.324219 978.027344 C 850.324219 985.550781 844.210938 991.660156 836.683594 991.660156 Z M 603.378906 663.765625 C 616.738281 678.457031 635.207031 689.027344 658.910156 695.578125 C 663.878906 696.953125 667.648438 701.011719 668.652344 706.070312 C 669.65625 711.125 667.71875 716.316406 663.648438 719.480469 C 644.859375 734.097656 635.03125 751.699219 633.0625 772.007812 C 632.472656 778.074219 627.929688 783.011719 621.933594 784.105469 C 615.941406 785.199219 609.945312 782.183594 607.253906 776.71875 C 598.136719 758.226562 580.640625 750.058594 556.625 748.519531 C 551.148438 748.167969 546.417969 744.570312 544.613281 739.390625 C 542.8125 734.207031 544.292969 728.449219 548.371094 724.78125 C 565.648438 709.230469 576.21875 691.234375 579.855469 670.578125 C 580.757812 665.453125 584.496094 661.289062 589.492188 659.84375 C 594.492188 658.398438 599.878906 659.917969 603.378906 663.765625 Z M 600.421875 697.703125 C 596.535156 707.558594 591.253906 716.894531 584.558594 725.699219 C 595.582031 728.929688 605.097656 733.84375 613.074219 740.535156 C 616.988281 731.230469 622.449219 722.449219 629.578125 714.234375 C 618.710938 709.628906 609.011719 704.101562 600.421875 697.703125 Z M 856.027344 582.144531 C 859.664062 602.796875 870.234375 620.796875 887.511719 636.34375 C 891.589844 640.015625 893.070312 645.769531 891.269531 650.953125 C 889.46875 656.136719 884.734375 659.734375 879.257812 660.082031 C 855.242188 661.625 837.742188 669.792969 828.632812 688.285156 C 825.9375 693.75 819.941406 696.765625 813.945312 695.671875 C 807.949219 694.578125 803.410156 689.640625 802.820312 683.574219 C 800.851562 663.265625 791.027344 645.664062 772.230469 631.046875 C 768.160156 627.878906 766.226562 622.691406 767.230469 617.632812 C 768.230469 612.574219 772 608.515625 776.972656 607.144531 C 800.675781 600.59375 819.144531 590.023438 832.503906 575.332031 C 836.003906 571.484375 841.390625 569.960938 846.390625 571.40625 C 851.386719 572.855469 855.125 577.019531 856.027344 582.144531 Z M 835.460938 609.269531 C 826.871094 615.667969 817.167969 621.191406 806.304688 625.800781 C 813.4375 634.011719 818.894531 642.792969 822.804688 652.097656 C 830.785156 645.410156 840.300781 640.496094 851.324219 637.261719 C 844.632812 628.457031 839.347656 619.125 835.460938 609.269531 Z M 835.460938 609.269531 " fill-opacity="1" fill-rule="evenodd"/></g></svg>